<svg xmlns="http://www.w3.org/2000/svg" xmlns:xlink="http://www.w3.org/1999/xlink" width="1030" height="223.336" viewBox="0 0 1030 223.336">
  <defs>
    <clipPath id="clip-path">
      <rect id="Rectángulo_39539" data-name="Rectángulo 39539" width="1030" height="223.336" fill="none"/>
    </clipPath>
  </defs>
  <g id="Grupo_149967" data-name="Grupo 149967" transform="translate(-285 -3864)">
    <g id="Grupo_148615" data-name="Grupo 148615" transform="translate(285 3864)">
      <g id="Grupo_148614" data-name="Grupo 148614" clip-path="url(#clip-path)">
        <path id="Trazado_211248" data-name="Trazado 211248" d="M102.9,136.365A43.075,43.075,0,1,1,59.829,93.29,43.076,43.076,0,0,1,102.9,136.365" transform="translate(-0.163 -0.91)" fill="#59c447"/>
        <path id="Trazado_211249" data-name="Trazado 211249" d="M64.562,131.609H76.52v8.646H64.562v13.516h-9.11V140.255H43.461v-8.646H55.452V118.657h9.11Z" transform="translate(-0.424 -1.157)" fill="#fff"/>
        <path id="Trazado_211250" data-name="Trazado 211250" d="M279.554,136.365A43.075,43.075,0,1,1,236.479,93.29a43.076,43.076,0,0,1,43.076,43.075" transform="translate(-1.887 -0.91)" fill="#f9231b"/>
        <rect id="Rectángulo_39536" data-name="Rectángulo 39536" width="18.65" height="7.718" transform="translate(225.085 132.937)" fill="#fff"/>
        <line id="Línea_158" data-name="Línea 158" x2="296.382" transform="translate(1.98 34.829)" fill="none" stroke="#027d77" stroke-linecap="round" stroke-linejoin="round" stroke-width="4"/>
        <line id="Línea_159" data-name="Línea 159" y1="186.526" transform="translate(150.171 34.83)" fill="none" stroke="#027d77" stroke-linecap="round" stroke-linejoin="round" stroke-width="4"/>
        <path id="Trazado_211251" data-name="Trazado 211251" d="M465.593,136.365A43.075,43.075,0,1,1,422.518,93.29a43.076,43.076,0,0,1,43.076,43.075" transform="translate(-3.701 -0.91)" fill="#59c447"/>
        <path id="Trazado_211252" data-name="Trazado 211252" d="M427.25,131.609h11.958v8.646H427.25v13.516h-9.11V140.255H406.149v-8.646H418.14V118.657h9.11Z" transform="translate(-3.962 -1.157)" fill="#fff"/>
        <path id="Trazado_211253" data-name="Trazado 211253" d="M642.242,136.365A43.075,43.075,0,1,1,599.167,93.29a43.076,43.076,0,0,1,43.076,43.075" transform="translate(-5.424 -0.91)" fill="#f9231b"/>
        <rect id="Rectángulo_39537" data-name="Rectángulo 39537" width="18.65" height="7.718" transform="translate(584.235 132.937)" fill="#fff"/>
        <line id="Línea_160" data-name="Línea 160" x2="296.381" transform="translate(361.131 34.829)" fill="none" stroke="#027d77" stroke-linecap="round" stroke-linejoin="round" stroke-width="4"/>
        <line id="Línea_161" data-name="Línea 161" y1="186.526" transform="translate(509.322 34.83)" fill="none" stroke="#027d77" stroke-linecap="round" stroke-linejoin="round" stroke-width="4"/>
        <path id="Trazado_211254" data-name="Trazado 211254" d="M839.749,136.365A43.075,43.075,0,1,1,796.674,93.29a43.076,43.076,0,0,1,43.076,43.075" transform="translate(-7.351 -0.91)" fill="#59c447"/>
        <path id="Trazado_211255" data-name="Trazado 211255" d="M801.407,131.609h11.958v8.646H801.407v13.516H792.3V140.255H780.306v-8.646H792.3V118.657h9.11Z" transform="translate(-7.611 -1.157)" fill="#fff"/>
        <path id="Trazado_211256" data-name="Trazado 211256" d="M1016.4,136.365A43.075,43.075,0,1,1,973.324,93.29a43.076,43.076,0,0,1,43.076,43.075" transform="translate(-9.074 -0.91)" fill="#f9231b"/>
        <rect id="Rectángulo_39538" data-name="Rectángulo 39538" width="18.65" height="7.718" transform="translate(954.742 132.937)" fill="#fff"/>
        <line id="Línea_162" data-name="Línea 162" x2="296.381" transform="translate(731.638 34.829)" fill="none" stroke="#027d77" stroke-linecap="round" stroke-linejoin="round" stroke-width="4"/>
        <line id="Línea_163" data-name="Línea 163" y1="186.526" transform="translate(879.829 34.83)" fill="none" stroke="#027d77" stroke-linecap="round" stroke-linejoin="round" stroke-width="4"/>
        <path id="Trazado_211257" data-name="Trazado 211257" d="M121.606,10.545h-4.578l-.87,2.61h-2.777L118.1.484h2.42l4.743,12.671h-2.777ZM117.733,8.43H120.9l-1.592-4.743Z" transform="translate(-1.106 -0.005)" fill="#015e59"/>
        <path id="Trazado_211258" data-name="Trazado 211258" d="M130.32,11.332a1.65,1.65,0,0,0,1.132-.383,1.34,1.34,0,0,0,.453-1.018h2.358a3.22,3.22,0,0,1-.522,1.754,3.437,3.437,0,0,1-1.405,1.236,4.412,4.412,0,0,1-1.972.44,4.086,4.086,0,0,1-3.186-1.283,5.08,5.08,0,0,1-1.167-3.546V8.364a5.025,5.025,0,0,1,1.158-3.473,4.041,4.041,0,0,1,3.177-1.3A3.951,3.951,0,0,1,133.178,4.6a3.551,3.551,0,0,1,1.083,2.676H131.9a1.73,1.73,0,0,0-.453-1.194,1.683,1.683,0,0,0-2.477.181,3.709,3.709,0,0,0-.449,2.079V8.6a3.759,3.759,0,0,0,.445,2.091,1.532,1.532,0,0,0,1.349.636" transform="translate(-1.229 -0.035)" fill="#015e59"/>
        <path id="Trazado_211259" data-name="Trazado 211259" d="M138.8,1.433V3.748h1.61V5.593H138.8v4.7a1.12,1.12,0,0,0,.2.749,1.008,1.008,0,0,0,.766.227,4.013,4.013,0,0,0,.74-.061v1.906a5.19,5.19,0,0,1-1.523.226,2.4,2.4,0,0,1-2.7-2.672V5.593H134.9V3.748h1.375V1.433Z" transform="translate(-1.316 -0.014)" fill="#015e59"/>
        <path id="Trazado_211260" data-name="Trazado 211260" d="M141.858,1.3a1.24,1.24,0,0,1,.378-.932,1.633,1.633,0,0,1,2.059,0,1.236,1.236,0,0,1,.382.932,1.233,1.233,0,0,1-.387.94,1.613,1.613,0,0,1-2.045,0,1.233,1.233,0,0,1-.387-.94m2.672,11.854h-2.524V3.734h2.524Z" transform="translate(-1.384)" fill="#015e59"/>
        <path id="Trazado_211261" data-name="Trazado 211261" d="M150.164,10.115l1.75-6.345h2.628l-3.177,9.417h-2.4l-3.177-9.417h2.628Z" transform="translate(-1.422 -0.037)" fill="#015e59"/>
        <path id="Trazado_211262" data-name="Trazado 211262" d="M155.217,8.391a5.587,5.587,0,0,1,.54-2.5,3.947,3.947,0,0,1,1.554-1.7,4.533,4.533,0,0,1,2.354-.6,4.288,4.288,0,0,1,3.111,1.166A4.681,4.681,0,0,1,164.12,7.93l.018.644a4.922,4.922,0,0,1-1.21,3.478,4.69,4.69,0,0,1-6.5,0A5.012,5.012,0,0,1,155.217,8.5Zm2.515.178a3.516,3.516,0,0,0,.505,2.053,1.812,1.812,0,0,0,2.872.009,3.847,3.847,0,0,0,.514-2.245,3.482,3.482,0,0,0-.514-2.039,1.67,1.67,0,0,0-1.445-.724,1.642,1.642,0,0,0-1.427.72,3.909,3.909,0,0,0-.505,2.226" transform="translate(-1.514 -0.035)" fill="#015e59"/>
        <path id="Trazado_211263" data-name="Trazado 211263" d="M36.521,72.49V59.818h3.9a5.93,5.93,0,0,1,2.99.753,5.262,5.262,0,0,1,2.058,2.141,6.611,6.611,0,0,1,.741,3.156v.583a6.621,6.621,0,0,1-.727,3.141,5.215,5.215,0,0,1-2.05,2.133,5.978,5.978,0,0,1-2.986.765Zm2.611-10.557v8.46h1.262a2.836,2.836,0,0,0,2.342-1,4.522,4.522,0,0,0,.827-2.863v-.67a4.593,4.593,0,0,0-.8-2.928,2.825,2.825,0,0,0-2.341-1Z" transform="translate(-0.356 -0.583)" fill="#015e59"/>
        <path id="Trazado_211264" data-name="Trazado 211264" d="M52.383,72.695a4.622,4.622,0,0,1-3.373-1.27,4.516,4.516,0,0,1-1.3-3.386V67.8a5.687,5.687,0,0,1,.549-2.536,4.028,4.028,0,0,1,1.554-1.724A4.364,4.364,0,0,1,52.1,62.93a3.908,3.908,0,0,1,3.042,1.219A4.95,4.95,0,0,1,56.256,67.6v1.027h-6a2.336,2.336,0,0,0,.735,1.479,2.223,2.223,0,0,0,1.554.558,2.715,2.715,0,0,0,2.272-1.054L56.056,71a3.757,3.757,0,0,1-1.532,1.248,5.02,5.02,0,0,1-2.141.449M52.1,64.958a1.572,1.572,0,0,0-1.214.507,2.625,2.625,0,0,0-.6,1.452h3.5v-.2a1.869,1.869,0,0,0-.453-1.3,1.618,1.618,0,0,0-1.236-.459" transform="translate(-0.465 -0.614)" fill="#015e59"/>
        <path id="Trazado_211265" data-name="Trazado 211265" d="M66.267,67.862a5.7,5.7,0,0,1-.966,3.529,3.2,3.2,0,0,1-2.7,1.267,2.94,2.94,0,0,1-2.446-1.174l-.113,1H57.782V59.115H60.3v4.8a2.865,2.865,0,0,1,2.288-1.018,3.225,3.225,0,0,1,2.7,1.267,5.71,5.71,0,0,1,.979,3.564Zm-2.515-.191a3.761,3.761,0,0,0-.453-2.09,1.527,1.527,0,0,0-1.349-.66,1.658,1.658,0,0,0-1.654.986v3.727a1.68,1.68,0,0,0,1.671,1,1.552,1.552,0,0,0,1.6-1.205,6.221,6.221,0,0,0,.183-1.754" transform="translate(-0.564 -0.577)" fill="#015e59"/>
        <path id="Trazado_211266" data-name="Trazado 211266" d="M72.247,72.695a4.622,4.622,0,0,1-3.373-1.27,4.516,4.516,0,0,1-1.3-3.386V67.8a5.687,5.687,0,0,1,.549-2.536,4.028,4.028,0,0,1,1.554-1.724,4.364,4.364,0,0,1,2.293-.605,3.908,3.908,0,0,1,3.042,1.219A4.95,4.95,0,0,1,76.12,67.6v1.027h-6a2.336,2.336,0,0,0,.735,1.479,2.223,2.223,0,0,0,1.554.558,2.715,2.715,0,0,0,2.272-1.054L75.92,71a3.757,3.757,0,0,1-1.532,1.248,5.02,5.02,0,0,1-2.141.449m-.287-7.737a1.572,1.572,0,0,0-1.214.507,2.625,2.625,0,0,0-.6,1.452h3.5v-.2a1.869,1.869,0,0,0-.453-1.3,1.618,1.618,0,0,0-1.236-.459" transform="translate(-0.659 -0.614)" fill="#015e59"/>
        <path id="Trazado_211267" data-name="Trazado 211267" d="M226.342,72.491H223.73V67.06h-5.091v5.43h-2.611V59.818h2.611v5.135h5.091V59.818h2.611Z" transform="translate(-2.107 -0.583)" fill="#015e59"/>
        <path id="Trazado_211268" data-name="Trazado 211268" d="M234.033,72.522a2.756,2.756,0,0,1-.253-.845,3.043,3.043,0,0,1-2.377,1.018,3.346,3.346,0,0,1-2.293-.8,2.576,2.576,0,0,1-.909-2.019,2.66,2.66,0,0,1,1.11-2.3,5.475,5.475,0,0,1,3.206-.809h1.158v-.54a1.557,1.557,0,0,0-.335-1.045,1.322,1.322,0,0,0-1.058-.391,1.492,1.492,0,0,0-1,.305,1.031,1.031,0,0,0-.361.835H228.41a2.527,2.527,0,0,1,.505-1.514,3.332,3.332,0,0,1,1.427-1.092,5.211,5.211,0,0,1,2.072-.4,4.112,4.112,0,0,1,2.763.874,3.061,3.061,0,0,1,1.023,2.459v4.082a4.5,4.5,0,0,0,.374,2.028v.149Zm-2.081-1.75a2.153,2.153,0,0,0,1.027-.249,1.619,1.619,0,0,0,.7-.665V68.239h-.94q-1.888,0-2.01,1.306l-.009.148a1,1,0,0,0,.331.774,1.285,1.285,0,0,0,.905.3" transform="translate(-2.226 -0.614)" fill="#015e59"/>
        <path id="Trazado_211269" data-name="Trazado 211269" d="M246.715,67.862a5.7,5.7,0,0,1-.966,3.529,3.2,3.2,0,0,1-2.7,1.267,2.94,2.94,0,0,1-2.446-1.174l-.113,1H238.23V59.115h2.515v4.8a2.865,2.865,0,0,1,2.288-1.018,3.225,3.225,0,0,1,2.7,1.267,5.71,5.71,0,0,1,.979,3.564Zm-2.515-.191a3.761,3.761,0,0,0-.453-2.09,1.527,1.527,0,0,0-1.349-.66,1.658,1.658,0,0,0-1.654.986v3.727a1.68,1.68,0,0,0,1.671,1,1.552,1.552,0,0,0,1.6-1.205,6.221,6.221,0,0,0,.183-1.754" transform="translate(-2.324 -0.577)" fill="#015e59"/>
        <path id="Trazado_211270" data-name="Trazado 211270" d="M252.694,72.695a4.622,4.622,0,0,1-3.373-1.27,4.516,4.516,0,0,1-1.3-3.386V67.8a5.687,5.687,0,0,1,.549-2.536,4.028,4.028,0,0,1,1.554-1.724,4.364,4.364,0,0,1,2.293-.605,3.908,3.908,0,0,1,3.042,1.219,4.95,4.95,0,0,1,1.109,3.455v1.027h-6a2.336,2.336,0,0,0,.735,1.479,2.223,2.223,0,0,0,1.554.558,2.715,2.715,0,0,0,2.272-1.054L256.367,71a3.757,3.757,0,0,1-1.532,1.248,5.02,5.02,0,0,1-2.141.449m-.287-7.737a1.572,1.572,0,0,0-1.214.507,2.625,2.625,0,0,0-.6,1.452h3.5v-.2a1.869,1.869,0,0,0-.453-1.3,1.618,1.618,0,0,0-1.236-.459" transform="translate(-2.419 -0.614)" fill="#015e59"/>
        <path id="Trazado_211271" data-name="Trazado 211271" d="M263.384,65.463a6.807,6.807,0,0,0-.905-.069,1.843,1.843,0,0,0-1.872.965v6.162h-2.515V63.1h2.377l.069,1.123a2.331,2.331,0,0,1,2.1-1.3,2.61,2.61,0,0,1,.783.114Z" transform="translate(-2.518 -0.614)" fill="#015e59"/>
        <path id="Trazado_211272" data-name="Trazado 211272" d="M488,8.691v4.465h-2.611V.484h4.943a5.713,5.713,0,0,1,2.511.522,3.852,3.852,0,0,1,1.667,1.483,4.137,4.137,0,0,1,.583,2.189,3.639,3.639,0,0,1-1.275,2.938,5.311,5.311,0,0,1-3.528,1.074Zm0-2.115h2.332a2.3,2.3,0,0,0,1.58-.487,1.773,1.773,0,0,0,.544-1.392A2.092,2.092,0,0,0,491.9,3.19,2.048,2.048,0,0,0,490.39,2.6H488Z" transform="translate(-4.735 -0.005)" fill="#015e59"/>
        <path id="Trazado_211273" data-name="Trazado 211273" d="M502.186,13.187a2.757,2.757,0,0,1-.253-.845,3.043,3.043,0,0,1-2.377,1.018,3.346,3.346,0,0,1-2.293-.8,2.576,2.576,0,0,1-.909-2.019,2.66,2.66,0,0,1,1.11-2.3,5.475,5.475,0,0,1,3.206-.809h1.158v-.54a1.557,1.557,0,0,0-.335-1.045,1.321,1.321,0,0,0-1.058-.391,1.492,1.492,0,0,0-1,.3,1.032,1.032,0,0,0-.361.835h-2.515a2.527,2.527,0,0,1,.505-1.514,3.332,3.332,0,0,1,1.427-1.092,5.211,5.211,0,0,1,2.072-.4,4.112,4.112,0,0,1,2.763.874,3.061,3.061,0,0,1,1.023,2.459V11.01a4.5,4.5,0,0,0,.374,2.028v.149Zm-2.081-1.75a2.153,2.153,0,0,0,1.027-.249,1.618,1.618,0,0,0,.7-.665V8.9h-.94q-1.888,0-2.01,1.306l-.009.148a1,1,0,0,0,.331.774,1.285,1.285,0,0,0,.905.3" transform="translate(-4.842 -0.035)" fill="#015e59"/>
        <path id="Trazado_211274" data-name="Trazado 211274" d="M511.478,10.584a.809.809,0,0,0-.457-.726,5.2,5.2,0,0,0-1.467-.475q-3.36-.7-3.36-2.855a2.59,2.59,0,0,1,1.04-2.093,4.206,4.206,0,0,1,2.72-.84,4.519,4.519,0,0,1,2.868.845A2.659,2.659,0,0,1,513.9,6.633h-2.515a1.222,1.222,0,0,0-.348-.893,1.48,1.48,0,0,0-1.088-.352,1.506,1.506,0,0,0-.983.287.907.907,0,0,0-.349.731.775.775,0,0,0,.4.674,4.054,4.054,0,0,0,1.336.445,10.957,10.957,0,0,1,1.584.422,2.6,2.6,0,0,1,1.993,2.533,2.454,2.454,0,0,1-1.105,2.083,4.766,4.766,0,0,1-2.855.8,5,5,0,0,1-2.1-.422,3.516,3.516,0,0,1-1.44-1.159,2.683,2.683,0,0,1-.523-1.588h2.385a1.318,1.318,0,0,0,.5,1.028,1.971,1.971,0,0,0,1.236.356,1.831,1.831,0,0,0,1.092-.273.857.857,0,0,0,.37-.719" transform="translate(-4.935 -0.035)" fill="#015e59"/>
        <path id="Trazado_211275" data-name="Trazado 211275" d="M515.62,1.3A1.24,1.24,0,0,1,516,.365a1.633,1.633,0,0,1,2.059,0,1.233,1.233,0,0,1,.383.932,1.234,1.234,0,0,1-.388.94,1.613,1.613,0,0,1-2.045,0,1.233,1.233,0,0,1-.387-.94m2.672,11.854h-2.524V3.734h2.524Z" transform="translate(-5.03)" fill="#015e59"/>
        <path id="Trazado_211276" data-name="Trazado 211276" d="M523.926,10.115l1.75-6.345H528.3l-3.177,9.417h-2.4l-3.177-9.417h2.628Z" transform="translate(-5.068 -0.037)" fill="#015e59"/>
        <path id="Trazado_211277" data-name="Trazado 211277" d="M528.979,8.391a5.586,5.586,0,0,1,.54-2.5,3.947,3.947,0,0,1,1.554-1.7,4.533,4.533,0,0,1,2.354-.6,4.288,4.288,0,0,1,3.111,1.166,4.68,4.68,0,0,1,1.345,3.169l.018.644a4.922,4.922,0,0,1-1.21,3.478,4.69,4.69,0,0,1-6.5,0A5.011,5.011,0,0,1,528.979,8.5Zm2.515.178A3.516,3.516,0,0,0,532,10.622a1.812,1.812,0,0,0,2.872.009,3.847,3.847,0,0,0,.514-2.245,3.482,3.482,0,0,0-.514-2.039,1.67,1.67,0,0,0-1.445-.724,1.643,1.643,0,0,0-1.427.72,3.91,3.91,0,0,0-.505,2.226" transform="translate(-5.16 -0.035)" fill="#015e59"/>
        <path id="Trazado_211278" data-name="Trazado 211278" d="M400.835,72.49V59.818h3.9a5.93,5.93,0,0,1,2.99.753,5.262,5.262,0,0,1,2.058,2.141,6.611,6.611,0,0,1,.741,3.156v.583a6.622,6.622,0,0,1-.727,3.141,5.215,5.215,0,0,1-2.05,2.133,5.978,5.978,0,0,1-2.986.765Zm2.611-10.557v8.46h1.262a2.836,2.836,0,0,0,2.342-1,4.522,4.522,0,0,0,.827-2.863v-.67a4.593,4.593,0,0,0-.8-2.928,2.825,2.825,0,0,0-2.341-1Z" transform="translate(-3.91 -0.583)" fill="#015e59"/>
        <path id="Trazado_211279" data-name="Trazado 211279" d="M416.7,72.695a4.622,4.622,0,0,1-3.373-1.27,4.516,4.516,0,0,1-1.3-3.386V67.8a5.687,5.687,0,0,1,.549-2.536,4.028,4.028,0,0,1,1.554-1.724,4.364,4.364,0,0,1,2.293-.605,3.908,3.908,0,0,1,3.042,1.219,4.95,4.95,0,0,1,1.109,3.455v1.027h-6a2.336,2.336,0,0,0,.735,1.479,2.223,2.223,0,0,0,1.554.558,2.715,2.715,0,0,0,2.272-1.054L420.371,71a3.757,3.757,0,0,1-1.532,1.248,5.021,5.021,0,0,1-2.141.449m-.287-7.737a1.572,1.572,0,0,0-1.214.507,2.625,2.625,0,0,0-.6,1.452h3.5v-.2a1.869,1.869,0,0,0-.453-1.3,1.618,1.618,0,0,0-1.236-.459" transform="translate(-4.019 -0.614)" fill="#015e59"/>
        <path id="Trazado_211280" data-name="Trazado 211280" d="M430.582,67.862a5.7,5.7,0,0,1-.966,3.529,3.2,3.2,0,0,1-2.7,1.267,2.94,2.94,0,0,1-2.446-1.174l-.113,1H422.1V59.115h2.515v4.8a2.865,2.865,0,0,1,2.288-1.018,3.225,3.225,0,0,1,2.7,1.267,5.71,5.71,0,0,1,.979,3.564Zm-2.515-.191a3.761,3.761,0,0,0-.453-2.09,1.527,1.527,0,0,0-1.349-.66,1.658,1.658,0,0,0-1.654.986v3.727a1.68,1.68,0,0,0,1.671,1,1.552,1.552,0,0,0,1.6-1.205,6.221,6.221,0,0,0,.183-1.754" transform="translate(-4.117 -0.577)" fill="#015e59"/>
        <path id="Trazado_211281" data-name="Trazado 211281" d="M436.561,72.695a4.622,4.622,0,0,1-3.373-1.27,4.516,4.516,0,0,1-1.3-3.386V67.8a5.687,5.687,0,0,1,.549-2.536,4.028,4.028,0,0,1,1.554-1.724,4.364,4.364,0,0,1,2.293-.605,3.908,3.908,0,0,1,3.042,1.219,4.95,4.95,0,0,1,1.109,3.455v1.027h-6a2.336,2.336,0,0,0,.735,1.479,2.223,2.223,0,0,0,1.554.558A2.715,2.715,0,0,0,439,69.614L440.234,71a3.757,3.757,0,0,1-1.532,1.248,5.021,5.021,0,0,1-2.141.449m-.287-7.737a1.572,1.572,0,0,0-1.214.507,2.625,2.625,0,0,0-.6,1.452h3.5v-.2a1.869,1.869,0,0,0-.453-1.3,1.618,1.618,0,0,0-1.236-.459" transform="translate(-4.213 -0.614)" fill="#015e59"/>
        <path id="Trazado_211282" data-name="Trazado 211282" d="M587.37,72.491h-2.611V67.06h-5.091v5.43h-2.611V59.818h2.611v5.135h5.091V59.818h2.611Z" transform="translate(-5.629 -0.583)" fill="#015e59"/>
        <path id="Trazado_211283" data-name="Trazado 211283" d="M595.062,72.522a2.756,2.756,0,0,1-.253-.845,3.043,3.043,0,0,1-2.377,1.018,3.346,3.346,0,0,1-2.293-.8,2.576,2.576,0,0,1-.909-2.019,2.66,2.66,0,0,1,1.11-2.3,5.475,5.475,0,0,1,3.206-.809H594.7v-.54a1.557,1.557,0,0,0-.335-1.045,1.322,1.322,0,0,0-1.058-.391,1.492,1.492,0,0,0-1,.305,1.032,1.032,0,0,0-.361.835h-2.515a2.528,2.528,0,0,1,.505-1.514,3.332,3.332,0,0,1,1.427-1.092,5.211,5.211,0,0,1,2.072-.4,4.111,4.111,0,0,1,2.763.874,3.061,3.061,0,0,1,1.023,2.459v4.082a4.5,4.5,0,0,0,.374,2.028v.149Zm-2.081-1.75a2.153,2.153,0,0,0,1.027-.249,1.618,1.618,0,0,0,.7-.665V68.239h-.94q-1.888,0-2.01,1.306l-.009.148a1,1,0,0,0,.331.774,1.285,1.285,0,0,0,.905.3" transform="translate(-5.748 -0.614)" fill="#015e59"/>
        <path id="Trazado_211284" data-name="Trazado 211284" d="M607.743,67.862a5.7,5.7,0,0,1-.966,3.529,3.2,3.2,0,0,1-2.7,1.267,2.94,2.94,0,0,1-2.446-1.174l-.113,1h-2.263V59.115h2.515v4.8a2.865,2.865,0,0,1,2.288-1.018,3.225,3.225,0,0,1,2.7,1.267,5.71,5.71,0,0,1,.979,3.564Zm-2.515-.191a3.761,3.761,0,0,0-.453-2.09,1.527,1.527,0,0,0-1.349-.66,1.658,1.658,0,0,0-1.654.986v3.727a1.68,1.68,0,0,0,1.671,1,1.552,1.552,0,0,0,1.6-1.205,6.223,6.223,0,0,0,.183-1.754" transform="translate(-5.845 -0.577)" fill="#015e59"/>
        <path id="Trazado_211285" data-name="Trazado 211285" d="M613.723,72.695a4.622,4.622,0,0,1-3.373-1.27,4.516,4.516,0,0,1-1.3-3.386V67.8a5.687,5.687,0,0,1,.549-2.536,4.028,4.028,0,0,1,1.554-1.724,4.364,4.364,0,0,1,2.293-.605,3.908,3.908,0,0,1,3.042,1.219A4.95,4.95,0,0,1,617.6,67.6v1.027h-6a2.336,2.336,0,0,0,.735,1.479,2.223,2.223,0,0,0,1.554.558,2.715,2.715,0,0,0,2.272-1.054L617.4,71a3.758,3.758,0,0,1-1.532,1.248,5.021,5.021,0,0,1-2.141.449m-.287-7.737a1.572,1.572,0,0,0-1.214.507,2.626,2.626,0,0,0-.6,1.452h3.5v-.2a1.869,1.869,0,0,0-.453-1.3,1.618,1.618,0,0,0-1.236-.459" transform="translate(-5.941 -0.614)" fill="#015e59"/>
        <path id="Trazado_211286" data-name="Trazado 211286" d="M624.413,65.463a6.807,6.807,0,0,0-.905-.069,1.843,1.843,0,0,0-1.872.965v6.162h-2.515V63.1H621.5l.069,1.123a2.332,2.332,0,0,1,2.1-1.3,2.61,2.61,0,0,1,.783.114Z" transform="translate(-6.039 -0.614)" fill="#015e59"/>
        <path id="Trazado_211287" data-name="Trazado 211287" d="M845.311,8.691v4.465H842.7V.484h4.943a5.714,5.714,0,0,1,2.511.522,3.853,3.853,0,0,1,1.667,1.483,4.138,4.138,0,0,1,.583,2.189,3.639,3.639,0,0,1-1.276,2.938A5.311,5.311,0,0,1,847.6,8.691Zm0-2.115h2.332a2.3,2.3,0,0,0,1.58-.487,1.773,1.773,0,0,0,.544-1.392,2.093,2.093,0,0,0-.549-1.506A2.048,2.048,0,0,0,847.7,2.6h-2.393Z" transform="translate(-8.22 -0.005)" fill="#015e59"/>
        <path id="Trazado_211288" data-name="Trazado 211288" d="M859.5,13.187a2.757,2.757,0,0,1-.253-.845,3.043,3.043,0,0,1-2.377,1.018,3.346,3.346,0,0,1-2.293-.8,2.576,2.576,0,0,1-.909-2.019,2.66,2.66,0,0,1,1.11-2.3,5.475,5.475,0,0,1,3.206-.809h1.158v-.54a1.557,1.557,0,0,0-.335-1.045,1.322,1.322,0,0,0-1.058-.391,1.492,1.492,0,0,0-1,.3,1.032,1.032,0,0,0-.361.835h-2.515a2.527,2.527,0,0,1,.505-1.514,3.332,3.332,0,0,1,1.427-1.092,5.212,5.212,0,0,1,2.072-.4,4.112,4.112,0,0,1,2.763.874,3.061,3.061,0,0,1,1.023,2.459V11.01a4.5,4.5,0,0,0,.374,2.028v.149Zm-2.081-1.75a2.154,2.154,0,0,0,1.027-.249,1.619,1.619,0,0,0,.7-.665V8.9h-.94q-1.888,0-2.01,1.306l-.009.148a1,1,0,0,0,.331.774,1.285,1.285,0,0,0,.905.3" transform="translate(-8.327 -0.035)" fill="#015e59"/>
        <path id="Trazado_211289" data-name="Trazado 211289" d="M866.7,1.433V3.748h1.61V5.593H866.7v4.7a1.12,1.12,0,0,0,.2.749,1.01,1.01,0,0,0,.766.227,4.005,4.005,0,0,0,.74-.061v1.906a5.179,5.179,0,0,1-1.522.226,2.4,2.4,0,0,1-2.7-2.672V5.593H862.81V3.748h1.374V1.433Z" transform="translate(-8.416 -0.014)" fill="#015e59"/>
        <path id="Trazado_211290" data-name="Trazado 211290" d="M875.071,6.128a6.806,6.806,0,0,0-.905-.069,1.843,1.843,0,0,0-1.872.965v6.162h-2.515V3.769h2.377l.069,1.123a2.331,2.331,0,0,1,2.1-1.3,2.61,2.61,0,0,1,.783.114Z" transform="translate(-8.484 -0.035)" fill="#015e59"/>
        <path id="Trazado_211291" data-name="Trazado 211291" d="M876.327,1.3a1.241,1.241,0,0,1,.379-.932,1.631,1.631,0,0,1,2.058,0,1.233,1.233,0,0,1,.383.932,1.233,1.233,0,0,1-.387.94,1.613,1.613,0,0,1-2.045,0,1.234,1.234,0,0,1-.388-.94M879,13.151h-2.524V3.734H879Z" transform="translate(-8.548)" fill="#015e59"/>
        <path id="Trazado_211292" data-name="Trazado 211292" d="M883.476,3.769l.078,1.053A3.311,3.311,0,0,1,886.261,3.6a2.512,2.512,0,0,1,2.5,1.436A3.235,3.235,0,0,1,891.587,3.6a2.81,2.81,0,0,1,2.281.892,4.1,4.1,0,0,1,.749,2.686v6.014h-2.524V7.168a1.8,1.8,0,0,0-.313-1.174,1.388,1.388,0,0,0-1.105-.37,1.569,1.569,0,0,0-1.567,1.082l.008,6.481H886.6V7.176a1.776,1.776,0,0,0-.322-1.186,1.4,1.4,0,0,0-1.1-.366,1.63,1.63,0,0,0-1.55.89v6.673h-2.515V3.769Z" transform="translate(-8.595 -0.035)" fill="#015e59"/>
        <path id="Trazado_211293" data-name="Trazado 211293" d="M896.305,8.391a5.588,5.588,0,0,1,.54-2.5A3.947,3.947,0,0,1,898.4,4.2a4.533,4.533,0,0,1,2.354-.6,4.287,4.287,0,0,1,3.111,1.166,4.681,4.681,0,0,1,1.345,3.169l.018.644a4.922,4.922,0,0,1-1.21,3.478,4.69,4.69,0,0,1-6.5,0A5.012,5.012,0,0,1,896.305,8.5Zm2.515.178a3.516,3.516,0,0,0,.505,2.053,1.812,1.812,0,0,0,2.872.009,3.847,3.847,0,0,0,.514-2.245,3.482,3.482,0,0,0-.514-2.039,1.67,1.67,0,0,0-1.445-.724,1.643,1.643,0,0,0-1.427.72,3.91,3.91,0,0,0-.505,2.226" transform="translate(-8.743 -0.035)" fill="#015e59"/>
        <path id="Trazado_211294" data-name="Trazado 211294" d="M909.193,3.769l.078,1.088A3.288,3.288,0,0,1,911.978,3.6a2.731,2.731,0,0,1,2.227.879,4.091,4.091,0,0,1,.749,2.628v6.084h-2.515V7.15a1.642,1.642,0,0,0-.348-1.166,1.56,1.56,0,0,0-1.158-.361,1.732,1.732,0,0,0-1.593.907v6.656h-2.515V3.769Z" transform="translate(-8.846 -0.035)" fill="#015e59"/>
        <path id="Trazado_211295" data-name="Trazado 211295" d="M916.942,1.3a1.241,1.241,0,0,1,.378-.932,1.633,1.633,0,0,1,2.059,0,1.236,1.236,0,0,1,.382.932,1.233,1.233,0,0,1-.387.94,1.613,1.613,0,0,1-2.045,0,1.233,1.233,0,0,1-.387-.94m2.672,11.854H917.09V3.734h2.524Z" transform="translate(-8.944)" fill="#015e59"/>
        <path id="Trazado_211296" data-name="Trazado 211296" d="M921.336,8.391a5.586,5.586,0,0,1,.54-2.5,3.947,3.947,0,0,1,1.554-1.7,4.533,4.533,0,0,1,2.354-.6,4.287,4.287,0,0,1,3.111,1.166,4.681,4.681,0,0,1,1.345,3.169l.018.644a4.922,4.922,0,0,1-1.21,3.478,4.69,4.69,0,0,1-6.5,0A5.012,5.012,0,0,1,921.336,8.5Zm2.515.178a3.516,3.516,0,0,0,.505,2.053,1.812,1.812,0,0,0,2.872.009,3.847,3.847,0,0,0,.514-2.245,3.482,3.482,0,0,0-.514-2.039,1.67,1.67,0,0,0-1.445-.724,1.643,1.643,0,0,0-1.427.72,3.91,3.91,0,0,0-.505,2.226" transform="translate(-8.987 -0.035)" fill="#015e59"/>
        <path id="Trazado_211297" data-name="Trazado 211297" d="M775.02,72.49V59.818h3.9a5.93,5.93,0,0,1,2.99.753,5.262,5.262,0,0,1,2.058,2.141,6.611,6.611,0,0,1,.741,3.156v.583a6.621,6.621,0,0,1-.727,3.141,5.215,5.215,0,0,1-2.05,2.133,5.978,5.978,0,0,1-2.986.765Zm2.611-10.557v8.46h1.262a2.836,2.836,0,0,0,2.342-1,4.522,4.522,0,0,0,.827-2.863v-.67a4.593,4.593,0,0,0-.8-2.928,2.825,2.825,0,0,0-2.341-1Z" transform="translate(-7.56 -0.583)" fill="#015e59"/>
        <path id="Trazado_211298" data-name="Trazado 211298" d="M790.883,72.695a4.622,4.622,0,0,1-3.373-1.27,4.516,4.516,0,0,1-1.3-3.386V67.8a5.687,5.687,0,0,1,.549-2.536,4.028,4.028,0,0,1,1.554-1.724,4.364,4.364,0,0,1,2.293-.605,3.908,3.908,0,0,1,3.042,1.219,4.95,4.95,0,0,1,1.109,3.455v1.027h-6a2.336,2.336,0,0,0,.735,1.479,2.223,2.223,0,0,0,1.554.558,2.715,2.715,0,0,0,2.272-1.054L794.556,71a3.757,3.757,0,0,1-1.532,1.248,5.021,5.021,0,0,1-2.141.449m-.287-7.737a1.572,1.572,0,0,0-1.214.507,2.625,2.625,0,0,0-.6,1.452h3.5v-.2a1.87,1.87,0,0,0-.452-1.3,1.618,1.618,0,0,0-1.236-.459" transform="translate(-7.669 -0.614)" fill="#015e59"/>
        <path id="Trazado_211299" data-name="Trazado 211299" d="M804.768,67.862a5.7,5.7,0,0,1-.966,3.529,3.2,3.2,0,0,1-2.7,1.267,2.94,2.94,0,0,1-2.446-1.174l-.113,1h-2.263V59.115H798.8v4.8a2.865,2.865,0,0,1,2.288-1.018,3.225,3.225,0,0,1,2.7,1.267,5.71,5.71,0,0,1,.979,3.564Zm-2.515-.191a3.761,3.761,0,0,0-.453-2.09,1.527,1.527,0,0,0-1.349-.66,1.658,1.658,0,0,0-1.654.986v3.727a1.68,1.68,0,0,0,1.671,1,1.552,1.552,0,0,0,1.6-1.205,6.218,6.218,0,0,0,.183-1.754" transform="translate(-7.767 -0.577)" fill="#015e59"/>
        <path id="Trazado_211300" data-name="Trazado 211300" d="M810.746,72.695a4.622,4.622,0,0,1-3.373-1.27,4.516,4.516,0,0,1-1.3-3.386V67.8a5.687,5.687,0,0,1,.549-2.536,4.028,4.028,0,0,1,1.554-1.724,4.364,4.364,0,0,1,2.293-.605,3.908,3.908,0,0,1,3.042,1.219,4.95,4.95,0,0,1,1.109,3.455v1.027h-6a2.336,2.336,0,0,0,.735,1.479,2.223,2.223,0,0,0,1.554.558,2.715,2.715,0,0,0,2.272-1.054L814.419,71a3.757,3.757,0,0,1-1.532,1.248,5.02,5.02,0,0,1-2.141.449m-.287-7.737a1.572,1.572,0,0,0-1.214.507,2.625,2.625,0,0,0-.6,1.452h3.5v-.2a1.869,1.869,0,0,0-.453-1.3,1.618,1.618,0,0,0-1.236-.459" transform="translate(-7.863 -0.614)" fill="#015e59"/>
        <path id="Trazado_211301" data-name="Trazado 211301" d="M957.231,72.491H954.62V67.06h-5.091v5.43h-2.611V59.818h2.611v5.135h5.091V59.818h2.611Z" transform="translate(-9.237 -0.583)" fill="#015e59"/>
        <path id="Trazado_211302" data-name="Trazado 211302" d="M964.923,72.522a2.756,2.756,0,0,1-.253-.845,3.043,3.043,0,0,1-2.377,1.018,3.346,3.346,0,0,1-2.293-.8,2.576,2.576,0,0,1-.909-2.019,2.66,2.66,0,0,1,1.11-2.3,5.475,5.475,0,0,1,3.206-.809h1.158v-.54a1.557,1.557,0,0,0-.335-1.045,1.322,1.322,0,0,0-1.058-.391,1.492,1.492,0,0,0-1,.305,1.032,1.032,0,0,0-.361.835H959.3a2.527,2.527,0,0,1,.505-1.514,3.332,3.332,0,0,1,1.427-1.092,5.211,5.211,0,0,1,2.072-.4,4.112,4.112,0,0,1,2.763.874,3.061,3.061,0,0,1,1.023,2.459v4.082a4.5,4.5,0,0,0,.374,2.028v.149Zm-2.081-1.75a2.154,2.154,0,0,0,1.027-.249,1.619,1.619,0,0,0,.7-.665V68.239h-.94q-1.888,0-2.01,1.306l-.009.148a1,1,0,0,0,.331.774,1.285,1.285,0,0,0,.905.3" transform="translate(-9.355 -0.614)" fill="#015e59"/>
        <path id="Trazado_211303" data-name="Trazado 211303" d="M977.6,67.862a5.7,5.7,0,0,1-.966,3.529,3.2,3.2,0,0,1-2.7,1.267,2.94,2.94,0,0,1-2.446-1.174l-.113,1h-2.263V59.115h2.515v4.8a2.865,2.865,0,0,1,2.288-1.018,3.225,3.225,0,0,1,2.7,1.267,5.71,5.71,0,0,1,.979,3.564Zm-2.515-.191a3.761,3.761,0,0,0-.453-2.09,1.527,1.527,0,0,0-1.349-.66,1.658,1.658,0,0,0-1.654.986v3.727a1.68,1.68,0,0,0,1.671,1,1.552,1.552,0,0,0,1.6-1.205,6.223,6.223,0,0,0,.183-1.754" transform="translate(-9.453 -0.577)" fill="#015e59"/>
        <path id="Trazado_211304" data-name="Trazado 211304" d="M983.584,72.695a4.622,4.622,0,0,1-3.373-1.27,4.516,4.516,0,0,1-1.3-3.386V67.8a5.687,5.687,0,0,1,.549-2.536,4.028,4.028,0,0,1,1.554-1.724,4.364,4.364,0,0,1,2.293-.605,3.908,3.908,0,0,1,3.042,1.219,4.95,4.95,0,0,1,1.109,3.455v1.027h-6a2.336,2.336,0,0,0,.735,1.479,2.223,2.223,0,0,0,1.554.558,2.715,2.715,0,0,0,2.272-1.054L987.257,71a3.757,3.757,0,0,1-1.532,1.248,5.02,5.02,0,0,1-2.141.449m-.287-7.737a1.572,1.572,0,0,0-1.214.507,2.625,2.625,0,0,0-.6,1.452h3.5v-.2a1.869,1.869,0,0,0-.453-1.3,1.618,1.618,0,0,0-1.236-.459" transform="translate(-9.549 -0.614)" fill="#015e59"/>
        <path id="Trazado_211305" data-name="Trazado 211305" d="M994.274,65.463a6.806,6.806,0,0,0-.905-.069,1.843,1.843,0,0,0-1.872.965v6.162h-2.515V63.1h2.377l.069,1.123a2.331,2.331,0,0,1,2.1-1.3,2.61,2.61,0,0,1,.783.114Z" transform="translate(-9.647 -0.614)" fill="#015e59"/>
      </g>
    </g>
  </g>
</svg>
