<svg xmlns="http://www.w3.org/2000/svg" width="84" height="84" viewBox="0 0 84 84">
  <g id="Grupo_149973" data-name="Grupo 149973" transform="translate(-600 -5284)">
    <circle id="Elipse_4776" data-name="Elipse 4776" cx="42" cy="42" r="42" transform="translate(600 5284)" fill="#ffc631"/>
    <g id="economico" transform="translate(612.979 5296.867)">
      <path id="Trazado_214459" data-name="Trazado 214459" d="M32.568,26.956V26H30.76v.956a2.7,2.7,0,0,0,.527,5.372h.753a.907.907,0,1,1,0,1.808h-.753a.945.945,0,0,1-.979-.9v-.362H28.5v.362a2.735,2.735,0,0,0,2.26,2.66v.956h1.808v-.956a2.7,2.7,0,0,0-.527-5.372h-.753a.907.907,0,1,1,0-1.808h.753a.945.945,0,0,1,.979.9v.362h1.808v-.362a2.735,2.735,0,0,0-2.26-2.66Z" transform="translate(-2.643 -2.304)" fill="#020b17"/>
      <path id="Trazado_214460" data-name="Trazado 214460" d="M30.943,21a9.943,9.943,0,1,0,9.943,9.943A9.943,9.943,0,0,0,30.943,21Zm0,18.078a8.135,8.135,0,1,1,8.135-8.135A8.135,8.135,0,0,1,30.943,39.078Z" transform="translate(-1.922 -1.823)" fill="#020b17"/>
      <path id="Trazado_214461" data-name="Trazado 214461" d="M59.437,3h-13.7A1.739,1.739,0,0,0,44,4.737v12.8a1.739,1.739,0,0,0,1.737,1.737h13.7a1.739,1.739,0,0,0,1.737-1.737V4.737A1.739,1.739,0,0,0,59.437,3Zm-.071,14.462H45.808V4.808H59.366Z" transform="translate(-4.132 -0.093)" fill="#020b17"/>
      <rect id="Rectángulo_40334" data-name="Rectángulo 40334" width="1.808" height="5.423" transform="translate(46.195 10.138)" fill="#020b17"/>
      <rect id="Rectángulo_40335" data-name="Rectángulo 40335" width="1.808" height="7.231" transform="translate(48.907 8.33)" fill="#020b17"/>
      <rect id="Rectángulo_40336" data-name="Rectángulo 40336" width="1.808" height="9.039" transform="translate(51.618 6.522)" fill="#020b17"/>
      <rect id="Rectángulo_40337" data-name="Rectángulo 40337" width="1.808" height="3.616" transform="translate(43.483 11.946)" fill="#020b17"/>
      <path id="Trazado_214462" data-name="Trazado 214462" d="M1.031,52.18A8.069,8.069,0,0,0,3.27,55.944a.9.9,0,0,0,1.064.134l.784-.439a.106.106,0,0,1,.091-.014,11.428,11.428,0,0,0,1.029.6V57.1a.9.9,0,0,0,.67.873,8.587,8.587,0,0,0,2.224.3h.111a8.636,8.636,0,0,0,2.121-.3.9.9,0,0,0,.67-.873l.008-.9a7.005,7.005,0,0,0,1.022-.569.114.114,0,0,1,.089.015l.781.436A.9.9,0,0,0,15,55.942,8.072,8.072,0,0,0,17.24,52.18a.9.9,0,0,0-.433-1.022l-.813-.455q.026-.286.026-.568t-.026-.568l.813-.455a.9.9,0,0,0,.433-1.022A8.079,8.079,0,0,0,15,44.326a.9.9,0,0,0-1.064-.134l-.784.439a.136.136,0,0,1-.091.014,11.342,11.342,0,0,0-1.029-.6V43.17a.9.9,0,0,0-.67-.873A9,9,0,0,0,9.028,42a8.636,8.636,0,0,0-2.121.3.9.9,0,0,0-.67.873l-.008.9a6.978,6.978,0,0,0-1.022.569.127.127,0,0,1-.089-.015l-.781-.436a.9.9,0,0,0-1.064.134A8.072,8.072,0,0,0,1.03,48.091a.9.9,0,0,0,.433,1.022l.813.455q-.026.286-.026.568t.026.568l-.813.455a.9.9,0,0,0-.433,1.022Zm3.115-1.159a4.484,4.484,0,0,1,0-1.771.9.9,0,0,0-.447-.959l-.7-.394a6.264,6.264,0,0,1,1.074-1.783l.169.094a1.909,1.909,0,0,0,1.979-.064,5.182,5.182,0,0,1,.758-.422,1.84,1.84,0,0,0,1.071-1.679V43.9a6.431,6.431,0,0,1,1.006-.092,6.059,6.059,0,0,1,1.174.089v.147A1.84,1.84,0,0,0,11.3,45.723a5.2,5.2,0,0,1,.756.42,1.908,1.908,0,0,0,1.982.065l.172-.1A6.266,6.266,0,0,1,15.276,47.9l-.7.394a.9.9,0,0,0-.447.959,4.484,4.484,0,0,1,0,1.771.9.9,0,0,0,.447.959l.7.394A6.264,6.264,0,0,1,14.2,54.156l-.169-.094a1.9,1.9,0,0,0-1.979.064,5.181,5.181,0,0,1-.758.422,1.84,1.84,0,0,0-1.071,1.679v.144a6.432,6.432,0,0,1-1.006.092,6.245,6.245,0,0,1-1.174-.089v-.147a1.84,1.84,0,0,0-1.071-1.679,5.143,5.143,0,0,1-.756-.421,1.912,1.912,0,0,0-1.982-.064l-.172.1a6.246,6.246,0,0,1-1.071-1.785l.7-.394a.9.9,0,0,0,.447-.959Z" transform="translate(0 -3.841)" fill="#020b17"/>
      <path id="Trazado_214463" data-name="Trazado 214463" d="M9.629,54.116a3.487,3.487,0,1,0-3.486-3.487,3.487,3.487,0,0,0,3.486,3.487Zm0-5.166a1.679,1.679,0,1,1-1.678,1.679A1.679,1.679,0,0,1,9.629,48.95Z" transform="translate(-0.494 -4.336)" fill="#020b17"/>
      <path id="Trazado_214464" data-name="Trazado 214464" d="M39.342,5.355l.621-1.7A27.479,27.479,0,0,0,17.575,5.335l.871,1.584a25.647,25.647,0,0,1,20.9-1.563Z" transform="translate(-1.593)" fill="#020b17"/>
      <path id="Trazado_214465" data-name="Trazado 214465" d="M3.655,38.991l1.7-.62A25.331,25.331,0,0,1,10.2,12.84l1.162,1.225a.905.905,0,0,0,.656.282.915.915,0,0,0,.218-.026.9.9,0,0,0,.653-.636L14.3,8.607a.9.9,0,0,0-1.067-1.125L8.087,8.624a.9.9,0,0,0-.46,1.5l1.324,1.4a27.134,27.134,0,0,0-5.3,27.466Zm8.5-29.416-.581,2.088-1.535-1.618Z" transform="translate(-0.096 -0.522)" fill="#020b17"/>
      <path id="Trazado_214466" data-name="Trazado 214466" d="M30.722,59.268A25.089,25.089,0,0,1,19.5,56.649l-.8,1.621a27.139,27.139,0,0,0,30.622-4.576l-1.24-1.315a25.212,25.212,0,0,1-17.357,6.889Z" transform="translate(-1.701 -4.839)" fill="#020b17"/>
      <path id="Trazado_214467" data-name="Trazado 214467" d="M55.023,41.643a.9.9,0,0,0-1.4.714l-.231,5.265a.9.9,0,0,0,1.293.855L59.437,46.2a.9.9,0,0,0,.109-1.569l-1.469-.972A27.142,27.142,0,0,0,59.845,22.69l-1.72.56a25.339,25.339,0,0,1-1.563,19.411Zm.239,4.554.095-2.165,1.86,1.23Z" transform="translate(-5.035 -1.986)" fill="#020b17"/>
    </g>
  </g>
</svg>
