<svg xmlns="http://www.w3.org/2000/svg" xmlns:xlink="http://www.w3.org/1999/xlink" width="262.413" height="260.888" viewBox="0 0 262.413 260.888">
  <defs>
    <clipPath id="clip-path">
      <rect id="Rectángulo_39598" data-name="Rectángulo 39598" width="138.848" height="104.604" fill="none"/>
    </clipPath>
    <clipPath id="clip-path-3">
      <rect id="Rectángulo_39587" data-name="Rectángulo 39587" width="97.256" height="68.15" fill="none"/>
    </clipPath>
    <clipPath id="clip-path-5">
      <rect id="Rectángulo_39589" data-name="Rectángulo 39589" width="35.43" height="48.82" fill="none"/>
    </clipPath>
    <clipPath id="clip-path-7">
      <rect id="Rectángulo_39591" data-name="Rectángulo 39591" width="20.964" height="26.029" fill="none"/>
    </clipPath>
    <clipPath id="clip-path-9">
      <rect id="Rectángulo_39593" data-name="Rectángulo 39593" width="69.14" height="38.957" fill="none"/>
    </clipPath>
    <clipPath id="clip-path-10">
      <rect id="Rectángulo_39594" data-name="Rectángulo 39594" width="50.072" height="28.885" fill="none"/>
    </clipPath>
    <clipPath id="clip-path-11">
      <rect id="Rectángulo_39595" data-name="Rectángulo 39595" width="36.569" height="22.864" fill="none"/>
    </clipPath>
    <clipPath id="clip-path-12">
      <rect id="Rectángulo_39596" data-name="Rectángulo 39596" width="77.412" height="57.26" fill="none"/>
    </clipPath>
  </defs>
  <g id="Grupo_149959" data-name="Grupo 149959" transform="translate(-1135.523 -4697.591)">
    <g id="Grupo_148619" data-name="Grupo 148619" transform="translate(1134.941 4675.242)">
      <g id="Grupo_147888" data-name="Grupo 147888" transform="translate(0 87.438) rotate(-19)">
        <path id="Trazado_114141" data-name="Trazado 114141" d="M64.839,137.1c42.387,11.295,46.145,76.023,83.729,68.671,71-13.888,40.833-105.048,33.708-163.164-10.483-85.5-121.7-17.442-146.006-1.833S-43.761,108.169,64.839,137.1" transform="translate(0.06 0.82)" fill="#039d95" fill-rule="evenodd"/>
      </g>
      <g id="Grupo_147889" data-name="Grupo 147889" transform="translate(0 87.438) rotate(-19)">
        <path id="Trazado_114141-2" data-name="Trazado 114141" d="M64.811,137.109c42.386,11.288,46.13,76.025,83.717,68.664,71.009-13.906,40.858-105.074,33.745-163.2-10.465-85.515-121.7-17.418-146.012-1.8S-43.787,108.2,64.811,137.109" transform="translate(0.036 0.807)" fill="#039d95" fill-rule="evenodd"/>
        <path id="Trazado_209723" data-name="Trazado 209723" d="M7.378,64.974c-28.5,60.873,32.454,108.3,104.412,88.986,141.138-37.883,122.44-90.673,8.978-143.616C71-12.877,24.631,2.974,7.378,64.974" transform="translate(9.383 7.144)" fill="#ffc631" fill-rule="evenodd"/>
      </g>
    </g>
    <g id="Grupo_148760" data-name="Grupo 148760" transform="translate(1196.152 4757.935)">
      <g id="Grupo_148759" data-name="Grupo 148759" clip-path="url(#clip-path)">
        <g id="Grupo_148734" data-name="Grupo 148734">
          <g id="Grupo_148733" data-name="Grupo 148733" clip-path="url(#clip-path)">
            <g id="Grupo_148732" data-name="Grupo 148732" transform="translate(0 36.454)" opacity="0.4">
              <g id="Grupo_148731" data-name="Grupo 148731">
                <g id="Grupo_148730" data-name="Grupo 148730" clip-path="url(#clip-path-3)">
                  <path id="Trazado_211807" data-name="Trazado 211807" d="M33.182,47.56,0,66.717,84.858,115.71h12.4Z" transform="translate(0 -47.56)" fill="#ada6a3"/>
                </g>
              </g>
            </g>
          </g>
        </g>
        <path id="Trazado_211808" data-name="Trazado 211808" d="M15.145,67.676l85.647,49.45,41.583-24.009V79.062L15.145,53.621Z" transform="translate(-3.537 -12.522)" fill="#bbc698"/>
        <path id="Trazado_211809" data-name="Trazado 211809" d="M65.535,64.05,46.343,60.213V83.021L65.535,94.1Z" transform="translate(-10.822 -14.061)" fill="#9dbc79"/>
        <g id="Grupo_148739" data-name="Grupo 148739">
          <g id="Grupo_148738" data-name="Grupo 148738" clip-path="url(#clip-path)">
            <g id="Grupo_148737" data-name="Grupo 148737" transform="translate(59.481 54.257)" opacity="0.9">
              <g id="Grupo_148736" data-name="Grupo 148736">
                <g id="Grupo_148735" data-name="Grupo 148735" clip-path="url(#clip-path-5)">
                  <path id="Trazado_211810" data-name="Trazado 211810" d="M111.387,86.3c-.58-4.139-.643-8.466-1.315-12.6l-14.54-2.907c-2.515,1.438-5.206,2.568-7.674,4.109-3.5,2.184-6.806,4.658-10.255,6.917V99.325l35.133,20.284,0-13.974c0-.5-.089-1.928.294-1.971A138.178,138.178,0,0,0,111.387,86.3" transform="translate(-77.603 -70.788)" fill="#afbf84"/>
                </g>
              </g>
            </g>
          </g>
        </g>
        <path id="Trazado_211811" data-name="Trazado 211811" d="M154.271,106.807l15.221-8.788ZM131.259,76.32l38.233,7.645v0L131.44,74.614Z" transform="translate(-30.653 -17.424)" fill="#e2e2b3"/>
        <path id="Trazado_211812" data-name="Trazado 211812" d="M126.887,108.493v14.055l26.362-15.22,15.221-8.788V84.484l-38.233-7.645Z" transform="translate(-29.632 -17.944)" fill="#d9edb9"/>
        <g id="Grupo_148744" data-name="Grupo 148744">
          <g id="Grupo_148743" data-name="Grupo 148743" clip-path="url(#clip-path)">
            <g id="Grupo_148742" data-name="Grupo 148742" transform="translate(58.265 68.167)" opacity="0.7" style="mix-blend-mode: multiply;isolation: isolate">
              <g id="Grupo_148741" data-name="Grupo 148741">
                <g id="Grupo_148740" data-name="Grupo 148740" clip-path="url(#clip-path-7)">
                  <path id="Trazado_211813" data-name="Trazado 211813" d="M76.018,102.861l20.964,12.1V101L79.3,88.936Z" transform="translate(-76.018 -88.936)" fill="#d3e0ac"/>
                </g>
              </g>
            </g>
          </g>
        </g>
        <path id="Trazado_211814" data-name="Trazado 211814" d="M22.08,50.311l80.332,46.381L144,72.683,63.663,26.3Z" transform="translate(-5.156 -6.142)" fill="#f1ffc7"/>
        <path id="Trazado_211815" data-name="Trazado 211815" d="M15.133,46.329,100.8,95.788l41.583-24.008L56.716,22.32Z" transform="translate(-3.534 -5.212)" fill="#f1ffc7"/>
        <path id="Trazado_211816" data-name="Trazado 211816" d="M90.18,89.667,46.349,64.422,87.949,40.4l49.717,28.645L119.25,79.681l-5.9-3.393Z" transform="translate(-10.824 -9.435)" fill="#cbedba"/>
        <g id="Grupo_148758" data-name="Grupo 148758">
          <g id="Grupo_148757" data-name="Grupo 148757" clip-path="url(#clip-path)">
            <g id="Grupo_148747" data-name="Grupo 148747" transform="translate(29.701 28.627)" opacity="0.2">
              <g id="Grupo_148746" data-name="Grupo 148746">
                <g id="Grupo_148745" data-name="Grupo 148745" clip-path="url(#clip-path-9)">
                  <path id="Trazado_211817" data-name="Trazado 211817" d="M105.327,54.776,62.034,46.9l.232-.134,43.293,7.874Zm2.564-1.48L64.6,45.422l-.233.134,43.293,7.874Zm-4.662,2.691L59.936,48.113l-.233.134L103,56.121Zm-2.33,1.345L57.605,49.459l-.233.134,43.293,7.874Zm5.3-6.114L66.928,44.076l-.233.135,39.95,7.265Zm-7.629,7.46L55.274,50.8l-.231.135,43.292,7.874ZM97.22,46.047,71.589,41.385l-.232.135,26.312,4.785ZM83.756,38.29l-5.176-.941-.232.134L84.2,38.549Zm4.488,2.585L76.25,38.694l-.233.135,12.676,2.3Zm4.488,2.586L73.92,40.04l-.233.134L93.181,43.72Zm8.975,5.171-32.449-5.9-.233.134,33.131,6.026ZM96.237,60.024,52.945,52.15l-.234.134L96,60.158ZM70.6,74.826l-9.807-1.784.449.258,9.126,1.659Zm4.662-2.691L51.814,67.87l.448.258,22.767,4.14Zm2.331-1.346-30.268-5.5.448.258L77.36,70.923ZM68.27,76.171l-2.987-.543.449.258,2.3.419Zm4.661-2.691L56.3,70.456l.448.258,15.946,2.9Zm6.992-4.036L42.835,62.7l.448.258L79.69,69.578Zm9.323-5.383L45.952,56.187l-.232.135L89.012,64.2Zm2.331-1.345L48.283,54.841l-.234.134L91.343,62.85Zm2.33-1.346L50.614,53.5l-.234.135L93.674,61.5Zm-9.322,5.382L41.291,58.878l-.233.135,43.293,7.874Zm2.33-1.345L43.622,57.533l-.233.134,43.293,7.874ZM82.253,68.1,38.96,60.224l-.21.122c.043.025,43.27,7.886,43.27,7.886Z" transform="translate(-38.75 -37.349)" fill="#87997e"/>
                </g>
              </g>
            </g>
            <g id="Grupo_148750" data-name="Grupo 148750" transform="translate(84.996 46.11)" opacity="0.6">
              <g id="Grupo_148749" data-name="Grupo 148749">
                <g id="Grupo_148748" data-name="Grupo 148748" clip-path="url(#clip-path-10)">
                  <path id="Trazado_211818" data-name="Trazado 211818" d="M142.548,89.043,110.893,70.791,129.31,60.159l31.655,18.252Z" transform="translate(-110.893 -60.159)" fill="#d3e0ac"/>
                </g>
              </g>
            </g>
            <g id="Grupo_148753" data-name="Grupo 148753" transform="translate(60.945 66.239)" opacity="0.6">
              <g id="Grupo_148752" data-name="Grupo 148752">
                <g id="Grupo_148751" data-name="Grupo 148751" clip-path="url(#clip-path-11)">
                  <path id="Trazado_211819" data-name="Trazado 211819" d="M113.186,109.284,79.514,89.843l5.929-3.423,30.64,17.69Z" transform="translate(-79.513 -86.42)" fill="#d3e0ac"/>
                </g>
              </g>
            </g>
            <path id="Trazado_211820" data-name="Trazado 211820" d="M102.481,57.482c-8.151-4.708-20.9-4.945-28.505-.553s-7.2,11.752.914,16.436c.042.021,27.591-15.884,27.591-15.884" transform="translate(-16.003 -12.561)" fill="#c7d499"/>
            <path id="Trazado_211821" data-name="Trazado 211821" d="M72.613,79.581l-1.153-.666,41.623-24.03,1.153.666Z" transform="translate(-16.688 -12.817)" fill="#87997e"/>
            <path id="Trazado_211822" data-name="Trazado 211822" d="M74.2,35.861,61.979,28.808l5.85-3.378,12.217,7.053Z" transform="translate(-14.474 -5.939)" fill="#3263a8"/>
            <path id="Trazado_211823" data-name="Trazado 211823" d="M135.643,70.02a7.34,7.34,0,0,0-2.988-.848c0-.034,3.025-1.377,3.025-1.377a.764.764,0,0,1,.858.017l3.8,2.194,1.341-.351.038-.11-5.1-2.943-.281-.014-5.1,2.592.195.31a5.732,5.732,0,0,1,3.107.62c.977.564,1.372,1.571-.517,2.661a4.65,4.65,0,0,1-4.561.359,1.178,1.178,0,0,1-.376-2,.26.26,0,0,0-.084-.445,1.892,1.892,0,0,0-1.568-.029c-.658.38-.563,1.559,1.422,2.7a6.859,6.859,0,0,0,6.911.24c2.005-1.157,1.692-2.528-.124-3.576" transform="translate(-29.674 -15.55)" fill="#7f9768"/>
            <path id="Trazado_211824" data-name="Trazado 211824" d="M149.943,74.1c-2.519-1.454-5.509-.768-8.371.885s-4.052,3.379-1.533,4.833,5.508.767,8.371-.885,4.051-3.379,1.533-4.833m-9.4,5.429c-1.449-.837.256-2.3,2.589-3.645s4.863-2.332,6.313-1.495-.255,2.3-2.588,3.645-4.864,2.332-6.314,1.495" transform="translate(-32.382 -17.119)" fill="#7f9768"/>
            <path id="Trazado_211825" data-name="Trazado 211825" d="M160.5,80.2c-2.519-1.454-5.509-.768-8.371.885s-4.052,3.379-1.533,4.833,5.508.767,8.371-.885,4.051-3.379,1.533-4.833m-9.4,5.429c-1.45-.837.256-2.3,2.589-3.645s4.863-2.332,6.313-1.495-.255,2.3-2.588,3.645-4.865,2.332-6.314,1.495" transform="translate(-34.847 -18.543)" fill="#7f9768"/>
            <path id="Trazado_211826" data-name="Trazado 211826" d="M28.317,51.869a4.662,4.662,0,0,0-1.9-.54c0-.021,1.922-.875,1.922-.875a.484.484,0,0,1,.546.01L31.3,51.86l.852-.224c.025-.07-3.215-1.94-3.215-1.94l-.179-.008-3.241,1.647.123.2a3.637,3.637,0,0,1,1.975.395c.62.358.871,1-.329,1.691a2.953,2.953,0,0,1-2.9.228.748.748,0,0,1-.24-1.273.165.165,0,0,0-.053-.283,1.2,1.2,0,0,0-1-.018c-.418.241-.358.991.9,1.718a4.357,4.357,0,0,0,4.392.153c1.274-.736,1.075-1.607-.079-2.273" transform="translate(-5.34 -11.604)" fill="#f4c245"/>
            <path id="Trazado_211827" data-name="Trazado 211827" d="M37.4,54.463c-1.6-.924-3.5-.487-5.319.563s-2.575,2.148-.974,3.071,3.5.488,5.319-.562,2.575-2.148.974-3.072m-5.976,3.451c-.921-.532.163-1.461,1.646-2.317s3.091-1.482,4.012-.95-.162,1.46-1.645,2.316-3.091,1.482-4.013.95" transform="translate(-7.061 -12.601)" fill="#f4c245"/>
            <path id="Trazado_211828" data-name="Trazado 211828" d="M44.116,58.337c-1.6-.924-3.5-.487-5.32.563s-2.575,2.148-.974,3.071,3.5.488,5.32-.562,2.575-2.148.974-3.072M38.14,61.788c-.921-.532.162-1.461,1.646-2.317s3.091-1.482,4.012-.95-.162,1.46-1.645,2.316-3.092,1.482-4.013.95" transform="translate(-8.628 -13.505)" fill="#f4c245"/>
            <path id="Trazado_211829" data-name="Trazado 211829" d="M159.757,92.8l-4.695-.866.12-.266,4.695.866Zm-1.28.543-4.7-.866-.12.266,4.695.866Zm-1.4.809-4.695-.866-.12.266,4.695.866Zm-1.4.809-4.695-.866-.12.266,4.7.866Zm-1.4.809-4.695-.866-.12.266,4.7.866Zm-1.4.808-4.695-.865-.12.266,4.7.866Zm-1.4.809-4.695-.865-.12.265,4.7.866Zm-1.4.809-4.695-.866-.12.266,4.695.866Zm-1.4.809-4.695-.866-.12.266,4.695.866Z" transform="translate(-33.595 -21.406)" fill="#7f9768"/>
            <path id="Trazado_211830" data-name="Trazado 211830" d="M74.7,29.9a5.689,5.689,0,0,0-5.134-.1c-1.37.79-1.3,2.121.165,2.964a5.691,5.691,0,0,0,5.135.1c1.37-.791,1.3-2.121-.166-2.965m-4.644,2.681c-1.27-.733-1.334-1.889-.143-2.576a4.943,4.943,0,0,1,4.462.083c1.27.733,1.335,1.889.144,2.577a4.945,4.945,0,0,1-4.463-.084" transform="translate(-16.016 -6.829)" fill="#f4c245"/>
            <path id="Trazado_211831" data-name="Trazado 211831" d="M104.311,52.377l-.57,1.06,1.223.93L103,54.316l-1.081.9-.642-1.092-1.892-.37,1.565-.625L100.864,52l1.61.706ZM91,48.762l-1.609-.707.088,1.133-1.565.624,1.892.371.642,1.092,1.081-.9,1.962.051-1.224-.929.57-1.061Zm-12.605-.234-1.609-.707.087,1.133-1.564.624,1.891.371.643,1.092,1.081-.9,1.961.051-1.223-.929.57-1.061ZM67.336,52.054l-1.61-.707.088,1.133L64.25,53.1l1.891.371.642,1.092,1.081-.9,1.961.051L68.6,52.786l.57-1.061ZM61.23,58.438l-1.61-.706.088,1.132-1.565.625,1.892.37.642,1.092,1.081-.9,1.962.051L62.5,59.17l.57-1.06Zm.4,7.278-1.61-.706.088,1.133-1.564.624,1.892.371.642,1.092,1.081-.9,1.961.051L62.9,66.448l.57-1.061Zm6.831,6.625-1.61-.706.088,1.132-1.564.625,1.891.37.642,1.092,1.081-.9L70.955,74l-1.223-.93.57-1.06Z" transform="translate(-13.578 -11.168)" fill="#e8ab31"/>
            <path id="Trazado_211832" data-name="Trazado 211832" d="M96.284,45.163,117.819,57.6,76.148,81.657,54.612,69.223Z" transform="translate(-12.753 -10.547)" fill="#f1ffc7"/>
            <path id="Trazado_211833" data-name="Trazado 211833" d="M54.612,90.517l21.539,12.425V88.978L54.612,76.553Z" transform="translate(-12.754 -17.877)" fill="#c6d39f"/>
            <path id="Trazado_211834" data-name="Trazado 211834" d="M56.668,70.409,98.34,46.351l-2.44-1.41L54.228,69V82.964l2.44,1.407Z" transform="translate(-12.664 -10.495)" fill="#a2cc51"/>
            <path id="Trazado_211835" data-name="Trazado 211835" d="M82.479,85.311,124.15,61.252l-2.44-1.409L80.038,83.9V97.866l2.44,1.408Z" transform="translate(-18.691 -13.975)" fill="#a2cc51"/>
            <path id="Trazado_211836" data-name="Trazado 211836" d="M56.668,77.74l-2.44-1.409V90.295l2.44,1.407Z" transform="translate(-12.664 -17.825)" fill="#7b9b46"/>
            <path id="Trazado_211837" data-name="Trazado 211837" d="M82.479,92.641l-2.44-1.409V105.2l2.44,1.408Z" transform="translate(-18.691 -21.305)" fill="#7b9b46"/>
            <g id="Grupo_148756" data-name="Grupo 148756" transform="translate(15.148 19.38)" style="mix-blend-mode: multiply;isolation: isolate">
              <g id="Grupo_148755" data-name="Grupo 148755">
                <g id="Grupo_148754" data-name="Grupo 148754" clip-path="url(#clip-path-12)">
                  <path id="Trazado_211838" data-name="Trazado 211838" d="M53.862,25.285l-34.1,19.687L84.842,82.545l12.333-.016Z" transform="translate(-19.763 -25.285)" fill="#c2b3c6"/>
                </g>
              </g>
            </g>
            <path id="Trazado_211839" data-name="Trazado 211839" d="M97.194,82.922,19.565,38.1V27.09L97.194,46.739Z" transform="translate(-4.569 -6.326)" fill="#c4bea3"/>
            <path id="Trazado_211840" data-name="Trazado 211840" d="M156.806,68.147l-35.96,20.761V52.726l35.96,4.41Z" transform="translate(-28.221 -12.313)" fill="#d8d2b8"/>
            <path id="Trazado_211841" data-name="Trazado 211841" d="M97.2,65.6,19.548,20.77,55.521,0l77.652,44.833Z" transform="translate(-4.565 0)" fill="#fff9e1"/>
            <path id="Trazado_211842" data-name="Trazado 211842" d="M55.753,2.092,23.366,20.79,98.9,64.4l32.387-18.7Zm48.17,58.282a6.379,6.379,0,0,1-5.762-.136L30.579,21.219c-1.656-.957-1.762-2.447-.236-3.327L50.581,6.206a6.379,6.379,0,0,1,5.762.137l67.582,39.019c1.656.957,1.762,2.446.237,3.326Z" transform="translate(-5.457 -0.489)" fill="#687a51"/>
            <path id="Trazado_211843" data-name="Trazado 211843" d="M103.439,29.739c-7.516-4.339-20.85-3.7-29.724,1.423s-9.979,12.822-2.463,17.161,20.848,3.7,29.722-1.423,9.979-12.822,2.465-17.161M71.432,48.218c-7.408-4.277-6.3-11.878,2.479-16.944s21.941-5.708,29.347-1.431,6.3,11.877-2.479,16.944S78.838,52.5,71.432,48.218" transform="translate(-15.475 -6.273)" fill="#a5aa9f"/>
            <path id="Trazado_211844" data-name="Trazado 211844" d="M100.627,46.7c-8.59,4.96-21.393,5.608-28.6,1.449S65.951,36.6,74.541,31.638s21.393-5.609,28.6-1.449,6.079,11.55-2.511,16.51" transform="translate(-15.713 -6.41)" fill="#a5aa9f"/>
            <path id="Trazado_211845" data-name="Trazado 211845" d="M99.627,46.122C92.289,50.359,81.352,50.913,75.2,47.36s-5.193-9.868,2.145-14.1,18.276-4.791,24.429-1.239,5.194,9.868-2.145,14.1" transform="translate(-16.614 -6.93)" fill="#fff9e1"/>
            <path id="Trazado_211846" data-name="Trazado 211846" d="M112.522,60.433l-2.591-1.5-.946.546,2.591,1.5Z" transform="translate(-25.451 -13.763)" fill="#687a51"/>
            <path id="Trazado_211847" data-name="Trazado 211847" d="M115.1,61.92l-.946.546L125.3,68.9l.946-.546Z" transform="translate(-26.658 -14.46)" fill="#687a51"/>
            <path id="Trazado_211848" data-name="Trazado 211848" d="M47.3,22.775l-2.591-1.5-.946.546,2.591,1.5Z" transform="translate(-10.219 -4.969)" fill="#687a51"/>
            <path id="Trazado_211849" data-name="Trazado 211849" d="M49.874,24.262l-.946.546,11.149,6.438.946-.546Z" transform="translate(-11.426 -5.666)" fill="#687a51"/>
            <path id="Trazado_211850" data-name="Trazado 211850" d="M62.552,9.048l-1.3.751,13.467,7.775,1.3-.751Z" transform="translate(-14.304 -2.113)" fill="#687a51"/>
            <path id="Trazado_211851" data-name="Trazado 211851" d="M133.655,50.1l-1.3.751,13.467,7.775,1.3-.751Z" transform="translate(-30.908 -11.7)" fill="#a5aa9f"/>
            <path id="Trazado_211852" data-name="Trazado 211852" d="M115.366,71.266l2.841-1.64c-.008-.049-1.453-.665-1.453-.665l-.149.086.263.225c.112.093.117.145-.058.245l-2.236,1.291a.342.342,0,0,1-.382.009l-.386-.19-.185.107,1.876,1.083.185-.107-.329-.223c-.117-.078-.14-.131.015-.221" transform="translate(-26.533 -16.104)" fill="#687a51"/>
            <path id="Trazado_211853" data-name="Trazado 211853" d="M121.787,71.619a2.957,2.957,0,0,0-2.983.212c-.886.511-1.349,1.154-.366,1.722a2.957,2.957,0,0,0,2.982-.212c.885-.511,1.348-1.155.366-1.722m-3.126,1.805c-.431-.249.422-.8.973-1.114s1.5-.811,1.93-.562-.422.8-.974,1.114-1.5.811-1.929.563" transform="translate(-27.53 -16.651)" fill="#687a51"/>
            <path id="Trazado_211854" data-name="Trazado 211854" d="M125.628,73.836a2.957,2.957,0,0,0-2.983.212c-.886.511-1.349,1.154-.366,1.722a2.957,2.957,0,0,0,2.982-.212c.885-.511,1.348-1.155.366-1.722M122.5,75.641c-.431-.249.422-.8.973-1.114s1.5-.811,1.93-.562-.422.8-.974,1.114-1.5.812-1.929.563" transform="translate(-28.427 -17.169)" fill="#687a51"/>
            <path id="Trazado_211855" data-name="Trazado 211855" d="M148.089,53.328l1.9-1.1c-.006-.033-.973-.445-.973-.445l-.1.057.176.15c.075.062.077.1-.039.165l-1.5.865a.228.228,0,0,1-.256.005l-.259-.126-.123.071,1.255.724.123-.071-.22-.149c-.077-.053-.094-.088.01-.148" transform="translate(-34.31 -12.093)" fill="#fff9e1"/>
            <path id="Trazado_211856" data-name="Trazado 211856" d="M152.387,53.564a1.98,1.98,0,0,0-2,.142c-.593.343-.9.773-.245,1.153a1.98,1.98,0,0,0,2-.141c.593-.343.9-.773.245-1.154m-2.093,1.209c-.288-.166.282-.533.652-.746s1-.543,1.293-.377-.283.533-.652.747-1,.543-1.292.376" transform="translate(-34.977 -12.459)" fill="#fff9e1"/>
            <path id="Trazado_211857" data-name="Trazado 211857" d="M154.959,55.049a1.978,1.978,0,0,0-2,.142c-.593.343-.9.773-.245,1.153a1.98,1.98,0,0,0,2-.141c.593-.343.9-.773.245-1.154m-2.093,1.209c-.288-.166.282-.533.652-.746s1-.543,1.293-.377-.283.533-.652.747-1,.543-1.292.376" transform="translate(-35.577 -12.806)" fill="#fff9e1"/>
            <path id="Trazado_211858" data-name="Trazado 211858" d="M71.045,8.846l1.9-1.1c-.006-.033-.973-.446-.973-.446l-.1.058.176.15c.075.062.078.1-.039.165l-1.5.865a.228.228,0,0,1-.256.005L70,8.419l-.123.071,1.255.724.123-.071-.22-.149c-.077-.053-.094-.088.01-.148" transform="translate(-16.318 -1.705)" fill="#fff9e1"/>
            <path id="Trazado_211859" data-name="Trazado 211859" d="M75.344,9.083a1.978,1.978,0,0,0-2,.142c-.592.343-.9.773-.245,1.153a1.979,1.979,0,0,0,2-.141c.593-.343.9-.773.245-1.154m-2.093,1.209c-.288-.166.282-.533.652-.746s1-.543,1.293-.377-.283.533-.652.747-1,.543-1.292.376" transform="translate(-16.985 -2.071)" fill="#fff9e1"/>
            <path id="Trazado_211860" data-name="Trazado 211860" d="M77.916,10.567a1.98,1.98,0,0,0-2,.142c-.592.343-.9.773-.244,1.153a1.979,1.979,0,0,0,2-.141c.593-.343.9-.773.245-1.154m-2.093,1.209c-.288-.166.282-.533.651-.746s1-.543,1.293-.376-.283.533-.652.746-1,.543-1.292.376" transform="translate(-17.586 -2.418)" fill="#fff9e1"/>
            <path id="Trazado_211861" data-name="Trazado 211861" d="M32.947,27.908l-.247.143a.832.832,0,0,1-.752-.018L29.43,26.578c-.216-.125-.23-.319-.031-.434L29.646,26a.833.833,0,0,1,.716,0l.4.195,2.906-1.675-.3-.259a.215.215,0,0,1,.043-.382l.2-.116a.833.833,0,0,1,.684-.016l1.94.828c.162.088.223.159.236.235a.249.249,0,0,1-.125.3L32.61,27.263l.339.231c.186.126.185.306,0,.414m10.324,3.739a4.692,4.692,0,0,1-4.757.266c-1-.576-1.167-1.265-.545-1.968a4.284,4.284,0,0,1-3.409-.315c-1.365-.788-1.2-1.789.461-2.746a4.693,4.693,0,0,1,4.756-.266c1,.576,1.167,1.265.545,1.968a4.281,4.281,0,0,1,3.408.315c1.365.788,1.2,1.79-.46,2.746" transform="translate(-6.833 -5.53)" fill="#fff9e1"/>
            <path id="Trazado_211862" data-name="Trazado 211862" d="M32.3,27.179l3.815-2.2c-.011-.066-1.951-.894-1.951-.894l-.2.117.353.3c.151.125.156.2-.077.33l-3,1.734a.46.46,0,0,1-.514.011L30.2,26.32l-.248.143,2.519,1.455.248-.143-.441-.3c-.156-.106-.188-.176.02-.3" transform="translate(-6.995 -5.624)" fill="#a5aa9f"/>
            <path id="Trazado_211863" data-name="Trazado 211863" d="M40.918,27.654a3.969,3.969,0,0,0-4.006.284c-1.19.687-1.811,1.551-.491,2.312a3.969,3.969,0,0,0,4.006-.284c1.189-.687,1.81-1.551.491-2.312m-4.2,2.424c-.579-.334.566-1.068,1.307-1.5s2.014-1.089,2.592-.755-.567,1.068-1.308,1.5-2.013,1.089-2.591.755" transform="translate(-8.333 -6.358)" fill="#a5aa9f"/>
            <path id="Trazado_211864" data-name="Trazado 211864" d="M46.075,30.632a3.969,3.969,0,0,0-4.006.284c-1.19.687-1.811,1.551-.491,2.312a3.969,3.969,0,0,0,4.006-.284c1.189-.687,1.81-1.551.491-2.312m-4.2,2.424c-.579-.334.566-1.068,1.307-1.5S45.2,30.47,45.777,30.8s-.566,1.068-1.308,1.5-2.013,1.089-2.591.755" transform="translate(-9.537 -7.054)" fill="#a5aa9f"/>
            <path id="Trazado_211865" data-name="Trazado 211865" d="M130.23,57.064a9.1,9.1,0,0,0-8.218-.195c-2.177,1.256-2.025,3.381.337,4.745a9.1,9.1,0,0,0,8.218.195c2.177-1.256,2.026-3.381-.337-4.745m-7.452,4.3c-2.106-1.216-2.24-3.11-.3-4.229a8.111,8.111,0,0,1,7.325.174c2.106,1.216,2.241,3.11.3,4.229a8.111,8.111,0,0,1-7.325-.174" transform="translate(-28.134 -13.073)" fill="#a5aa9f"/>
            <path id="Trazado_211866" data-name="Trazado 211866" d="M64.99,19.4a9.1,9.1,0,0,0-8.218-.195c-2.177,1.256-2.025,3.381.337,4.745a9.1,9.1,0,0,0,8.218.195c2.177-1.257,2.026-3.381-.337-4.745m-7.452,4.3c-2.106-1.216-2.24-3.11-.3-4.229a8.109,8.109,0,0,1,7.325.174c2.106,1.216,2.24,3.109.3,4.229a8.109,8.109,0,0,1-7.325-.173" transform="translate(-12.899 -4.277)" fill="#a5aa9f"/>
            <path id="Trazado_211867" data-name="Trazado 211867" d="M130.474,59.511a1.138,1.138,0,0,1-.9-.5l-.057-.126a1.11,1.11,0,0,0-.859-.5l-.219-.033a1.109,1.109,0,0,1-.859-.5.661.661,0,0,0-.829-.176l-2.044,1.18a.482.482,0,0,0-.287.436l.134,1.885.123.071,3.264.077a1.483,1.483,0,0,0,.757-.166l2.043-1.18c.257-.149.105-.417-.269-.474" transform="translate(-29.056 -13.453)" fill="#687a51"/>
            <path id="Trazado_211868" data-name="Trazado 211868" d="M65.2,21.826a1.14,1.14,0,0,1-.9-.5L64.25,21.2a1.11,1.11,0,0,0-.859-.5l-.219-.033a1.11,1.11,0,0,1-.859-.5A.66.66,0,0,0,61.483,20l-2.044,1.18a.482.482,0,0,0-.287.436l.134,1.885.123.071,3.264.077a1.475,1.475,0,0,0,.757-.166l2.043-1.18c.257-.149.105-.417-.269-.474" transform="translate(-13.813 -4.653)" fill="#687a51"/>
            <path id="Trazado_211869" data-name="Trazado 211869" d="M93.979,40.46l-.817-.957,5.1-2.946c.576.474.784,1.224-.276,2.643-.258.366-.238.635.353.976.511.3,2.312.963,3.5.277,1.04-.6,1.037-2.462-2.438-4.554l1.981-1.144-1.505-.869L97.9,35.029C94.707,33.3,90.693,32.7,87.573,34.5c-2.3,1.33-1.765,3.1-.186,4.982l.927,1.08-5.821,3.36c-.439-.368-.963-1.214.346-3.118.3-.455.255-.768-.391-1.141a4.663,4.663,0,0,0-3.72-.087c-.842.486-1.742,2.31,2.626,5l-2.576,1.487,1.505.869,2.576-1.487c2.474,1.429,7.2,2.642,10.795.6,2.7-1.589,2.184-3.372.325-5.59M92.2,38.318c-1-.947-1.251-1.98-.061-2.667a5.128,5.128,0,0,1,4.618.036ZM84,44.793,89.348,41.7c.931,1.139.911,2.3-.6,3.172A4.826,4.826,0,0,1,84,44.793" transform="translate(-18.222 -7.802)" fill="#687a51"/>
            <path id="Trazado_211870" data-name="Trazado 211870" d="M102.95,65.059l-6.6-3.813.369-.214,6.605,3.814Z" transform="translate(-22.499 -14.253)" fill="#a5aa9f"/>
            <path id="Trazado_211871" data-name="Trazado 211871" d="M59.279,39.846l-6.6-3.813.369-.214,6.605,3.814Z" transform="translate(-12.301 -8.365)" fill="#a5aa9f"/>
            <path id="Trazado_211872" data-name="Trazado 211872" d="M95.874,23.294l15.486,8.941L75.383,53.006,59.9,44.065Z" transform="translate(-13.988 -5.44)" fill="#fef0ff"/>
            <path id="Trazado_211873" data-name="Trazado 211873" d="M59.9,61.489l15.489,8.934v-11.1L59.9,50.393Z" transform="translate(-13.988 -11.768)" fill="#d1c1d3"/>
            <path id="Trazado_211874" data-name="Trazado 211874" d="M61.53,45.008,97.507,24.236l-1.939-1.119L59.591,43.889V54.983L61.53,56.1Z" transform="translate(-13.916 -5.399)" fill="#b142cc"/>
            <path id="Trazado_211875" data-name="Trazado 211875" d="M79.918,55.624,115.9,34.853l-1.939-1.119L77.979,54.505V65.6l1.939,1.119Z" transform="translate(-18.21 -7.878)" fill="#b142cc"/>
            <path id="Trazado_211876" data-name="Trazado 211876" d="M61.53,51.336l-1.939-1.119V61.312l1.939,1.119Z" transform="translate(-13.916 -11.727)" fill="#7d239b"/>
            <path id="Trazado_211877" data-name="Trazado 211877" d="M79.918,61.953l-1.939-1.119V71.928l1.939,1.119Z" transform="translate(-18.21 -14.206)" fill="#7d239b"/>
          </g>
        </g>
      </g>
    </g>
  </g>
</svg>
