<svg xmlns="http://www.w3.org/2000/svg" width="84" height="84" viewBox="0 0 84 84">
  <g id="Grupo_149974" data-name="Grupo 149974" transform="translate(-600 -5465)">
    <circle id="Elipse_4777" data-name="Elipse 4777" cx="42" cy="42" r="42" transform="translate(600 5465)" fill="#ffc631"/>
    <g id="ciencias-economicas" transform="translate(615.281 5454.395)">
      <path id="Trazado_214468" data-name="Trazado 214468" d="M306.4,216.86a1.467,1.467,0,0,1,1.465,1.465h2.93a4.4,4.4,0,0,0-2.93-4.143V211h-2.93v3.182a4.395,4.395,0,0,0,1.465,8.539,1.465,1.465,0,1,1-1.465,1.465H302a4.4,4.4,0,0,0,2.93,4.143v3.182h2.93v-3.182a4.395,4.395,0,0,0-1.465-8.539,1.465,1.465,0,0,1,0-2.93Z" transform="translate(-272.503 -162.419)"/>
      <path id="Trazado_214469" data-name="Trazado 214469" d="M41.391,44.575a10.267,10.267,0,0,0,5.687-9.18V33.93H40.329C39.281,33,36.694,31,33.892,31s-5.389,2-6.436,2.93H20.707V35.4a10.267,10.267,0,0,0,5.687,9.18,16.131,16.131,0,0,0-8.617,14.262V60.3h-2.93v-5.86H0V74.953H42.683a7.334,7.334,0,0,0,7.325-7.325V58.837A16.131,16.131,0,0,0,41.391,44.575ZM23.784,36.86h4.855c.01-.009,2.741-2.93,5.254-2.93,2.336,0,4.847,2.575,5.254,2.929H44a7.338,7.338,0,0,1-7.178,5.86h-.56l1.87-3.74-2.621-1.31-1.62,3.24-1.62-3.24-2.621,1.31,1.87,3.74h-.56A7.338,7.338,0,0,1,23.784,36.86Zm-.147,26.372v2.93H14.846v-2.93ZM2.93,57.372h8.986V60.3H2.93Zm0,5.86h8.986v2.93H2.93Zm0,8.791v-2.93h8.986v2.93Zm11.916,0v-2.93h8.791v2.93Zm32.232-4.4a4.4,4.4,0,0,1-4.4,4.4H26.567V60.3h-5.86V58.837a13.186,13.186,0,1,1,26.372,0Z"/>
    </g>
  </g>
</svg>
