<svg xmlns="http://www.w3.org/2000/svg" xmlns:xlink="http://www.w3.org/1999/xlink" width="1031.21" height="620.944" viewBox="0 0 1031.21 620.944">
  <defs>
    <clipPath id="clip-path">
      <rect id="Rectángulo_39171" data-name="Rectángulo 39171" width="1031.21" height="620.944" fill="none"/>
    </clipPath>
    <clipPath id="clip-path-2">
      <rect id="Rectángulo_39170" data-name="Rectángulo 39170" width="1031.214" height="620.944" fill="none"/>
    </clipPath>
    <clipPath id="clip-path-3">
      <rect id="Rectángulo_39108" data-name="Rectángulo 39108" width="30.182" height="36.754" transform="translate(518.258 100.575)" fill="none"/>
    </clipPath>
    <clipPath id="clip-path-4">
      <rect id="Rectángulo_39109" data-name="Rectángulo 39109" width="30.298" height="36.567" transform="translate(551.559 100.668)" fill="none"/>
    </clipPath>
    <clipPath id="clip-path-5">
      <rect id="Rectángulo_39122" data-name="Rectángulo 39122" width="6.995" height="51.584" transform="translate(538.855 226.963)" fill="none"/>
    </clipPath>
    <clipPath id="clip-path-6">
      <rect id="Rectángulo_39124" data-name="Rectángulo 39124" width="6.994" height="75.098" transform="translate(565.862 203.449)" fill="none"/>
    </clipPath>
    <clipPath id="clip-path-7">
      <rect id="Rectángulo_39126" data-name="Rectángulo 39126" width="6.994" height="40.191" transform="translate(592.869 238.356)" fill="none"/>
    </clipPath>
    <clipPath id="clip-path-8">
      <rect id="Rectángulo_39128" data-name="Rectángulo 39128" width="6.994" height="57.459" transform="translate(619.876 221.088)" fill="none"/>
    </clipPath>
    <clipPath id="clip-path-9">
      <rect id="Rectángulo_39130" data-name="Rectángulo 39130" width="6.994" height="46.026" transform="translate(646.883 232.521)" fill="none"/>
    </clipPath>
    <clipPath id="clip-path-10">
      <rect id="Rectángulo_39156" data-name="Rectángulo 39156" width="7.248" height="5.13" transform="translate(766.803 613.022)" fill="none"/>
    </clipPath>
    <clipPath id="clip-path-11">
      <rect id="Rectángulo_39157" data-name="Rectángulo 39157" width="33.054" height="3.491" transform="translate(740.855 615.132)" fill="none"/>
    </clipPath>
    <clipPath id="clip-path-12">
      <rect id="Rectángulo_39158" data-name="Rectángulo 39158" width="24.163" height="3.081" transform="translate(840.389 616.01)" fill="none"/>
    </clipPath>
    <clipPath id="clip-path-13">
      <rect id="Rectángulo_39159" data-name="Rectángulo 39159" width="28.246" height="135.351" transform="translate(803.038 416.403)" fill="none"/>
    </clipPath>
    <clipPath id="clip-path-14">
      <rect id="Rectángulo_39161" data-name="Rectángulo 39161" width="30.28" height="23.962" transform="translate(596.85 593.109)" fill="none"/>
    </clipPath>
    <clipPath id="clip-path-15">
      <rect id="Rectángulo_39162" data-name="Rectángulo 39162" width="19.674" height="14.997" transform="translate(602.77 586.6)" fill="none"/>
    </clipPath>
    <clipPath id="clip-path-16">
      <rect id="Rectángulo_39163" data-name="Rectángulo 39163" width="38.237" height="3.868" transform="translate(508.491 615.316)" fill="none"/>
    </clipPath>
    <clipPath id="clip-path-17">
      <rect id="Rectángulo_39164" data-name="Rectángulo 39164" width="22.866" height="2.881" transform="translate(523.862 607.854)" fill="none"/>
    </clipPath>
    <clipPath id="clip-path-18">
      <rect id="Rectángulo_39165" data-name="Rectángulo 39165" width="52.535" height="58.642" transform="translate(601.931 404.986)" fill="none"/>
    </clipPath>
    <clipPath id="clip-path-19">
      <rect id="Rectángulo_39166" data-name="Rectángulo 39166" width="7.294" height="32.539" transform="translate(173.138 479.777)" fill="none"/>
    </clipPath>
    <clipPath id="clip-path-20">
      <rect id="Rectángulo_39167" data-name="Rectángulo 39167" width="8.174" height="32.22" transform="translate(145.991 527.078)" fill="none"/>
    </clipPath>
    <clipPath id="clip-path-21">
      <rect id="Rectángulo_39168" data-name="Rectángulo 39168" width="15.674" height="28.989" transform="translate(187.695 459.5)" fill="none"/>
    </clipPath>
    <clipPath id="clip-path-22">
      <rect id="Rectángulo_39169" data-name="Rectángulo 39169" width="26.492" height="19.555" transform="translate(159.266 519.827)" fill="none"/>
    </clipPath>
  </defs>
  <g id="Grupo_149956" data-name="Grupo 149956" transform="translate(-285 -917)">
    <g id="Grupo_147757" data-name="Grupo 147757" transform="translate(285 917)">
      <g id="Grupo_147756" data-name="Grupo 147756" clip-path="url(#clip-path)">
        <rect id="Rectángulo_39094" data-name="Rectángulo 39094" width="64.011" height="8.552" transform="translate(655.538 383.34)" fill="#e0e0e0"/>
        <g id="Grupo_147755" data-name="Grupo 147755">
          <g id="Grupo_147754" data-name="Grupo 147754" clip-path="url(#clip-path-2)">
            <path id="Trazado_114428" data-name="Trazado 114428" d="M664.258,383.7c.222,0,.4,1.794.4,4.006s-.181,4.007-.4,4.007-.4-1.794-.4-4.007.181-4.006.4-4.006" fill="#fafafa"/>
            <path id="Trazado_114429" data-name="Trazado 114429" d="M662.865,383.521c.221,0,.4,1.794.4,4.006s-.181,4.007-.4,4.007-.4-1.794-.4-4.007.181-4.006.4-4.006" fill="#fafafa"/>
            <path id="Trazado_114430" data-name="Trazado 114430" d="M714.6,383.7c.223,0,.4,1.794.4,4.006s-.18,4.007-.4,4.007-.4-1.794-.4-4.007.18-4.006.4-4.006" fill="#fafafa"/>
            <path id="Trazado_114431" data-name="Trazado 114431" d="M713.206,383.521c.222,0,.4,1.794.4,4.006s-.181,4.007-.4,4.007-.4-1.794-.4-4.007.181-4.006.4-4.006" fill="#fafafa"/>
            <path id="Trazado_114432" data-name="Trazado 114432" d="M704.845,387.876c0,.222-7.332.4-16.373.4s-16.375-.181-16.375-.4,7.33-.4,16.375-.4,16.373.181,16.373.4" fill="#fafafa"/>
            <rect id="Rectángulo_39095" data-name="Rectángulo 39095" width="64.011" height="17.103" transform="translate(655.261 421.843)" fill="#e0e0e0"/>
            <path id="Trazado_114433" data-name="Trazado 114433" d="M720.092,434.135a1.457,1.457,0,0,1-.347.2c-.235.122-.592.287-1.067.488a18.537,18.537,0,0,1-4.34,1.241,11.3,11.3,0,0,1-7.042-1,9.363,9.363,0,0,1-3.345-3.031,7.044,7.044,0,0,1-1.164-4.927,5.188,5.188,0,0,1,1.177-2.547,3.365,3.365,0,0,1,2.7-1.226,3.876,3.876,0,0,1,2.713,1.463,5.308,5.308,0,0,1,1.239,2.917,7.762,7.762,0,0,1-2.207,6.061,9.74,9.74,0,0,1-6.152,3.007,16.327,16.327,0,0,1-7.141-.886,13.167,13.167,0,0,1-6.238-4.193,6.865,6.865,0,0,1-1.455-3.692,4.8,4.8,0,0,1,1.363-3.843,3.121,3.121,0,0,1,2-.878,3.658,3.658,0,0,1,2.092.589,5.552,5.552,0,0,1,2.356,3.451,8.058,8.058,0,0,1-2.524,7.534,12.6,12.6,0,0,1-7.207,2.933,17.738,17.738,0,0,1-7.471-.736,10.322,10.322,0,0,1-5.683-4.417,7.572,7.572,0,0,1-.712-6.8,3.571,3.571,0,0,1,2.611-2.209,4.131,4.131,0,0,1,3.225.777A5.342,5.342,0,0,1,679,430.179a9.964,9.964,0,0,1-3.226,4.545,14.532,14.532,0,0,1-8.778,3.41,14.164,14.164,0,0,1-10.582-4.268,10.245,10.245,0,0,1-.766-.89,1.421,1.421,0,0,1-.226-.331,16.261,16.261,0,0,0,4.759,3.629,13.922,13.922,0,0,0,6.794,1.41,14.12,14.12,0,0,0,8.428-3.393,9.42,9.42,0,0,0,3-4.288,4.719,4.719,0,0,0-1.332-5.054,3.456,3.456,0,0,0-2.691-.634,2.86,2.86,0,0,0-2.093,1.817,6.863,6.863,0,0,0,.7,6.129,9.577,9.577,0,0,0,5.3,4.072,17.03,17.03,0,0,0,7.136.679,11.827,11.827,0,0,0,6.753-2.742,7.271,7.271,0,0,0,2.278-6.76,4.756,4.756,0,0,0-2-2.949,2.45,2.45,0,0,0-3.121.19,4.006,4.006,0,0,0-1.118,3.2,6.087,6.087,0,0,0,1.29,3.271,12.44,12.44,0,0,0,5.857,3.94,15.648,15.648,0,0,0,6.806.878,9.025,9.025,0,0,0,5.721-2.754,7.085,7.085,0,0,0,2.061-5.506c-.156-1.882-1.59-3.715-3.32-3.831a2.755,2.755,0,0,0-2.221,1,4.628,4.628,0,0,0-1.062,2.247,6.52,6.52,0,0,0,1.033,4.553,8.929,8.929,0,0,0,3.132,2.916,11.091,11.091,0,0,0,6.782,1.083,20.327,20.327,0,0,0,4.325-1.082c.962-.351,1.458-.567,1.472-.536" fill="#fafafa"/>
            <rect id="Rectángulo_39096" data-name="Rectángulo 39096" width="58.295" height="29.673" transform="translate(660.977 392.14)" fill="#ebebeb"/>
            <path id="Trazado_114434" data-name="Trazado 114434" d="M670.663,393.158c.223,0,.4,6.43.4,14.361s-.18,14.362-.4,14.362-.4-6.429-.4-14.362.18-14.361.4-14.361" fill="#e0e0e0"/>
            <path id="Trazado_114435" data-name="Trazado 114435" d="M675.082,392.79c.223,0,.4,6.348.4,14.177s-.18,14.178-.4,14.178-.4-6.347-.4-14.178.181-14.177.4-14.177" fill="#e0e0e0"/>
            <path id="Trazado_114436" data-name="Trazado 114436" d="M712.682,391.836c.222,0,.4,6.685.4,14.93s-.181,14.931-.4,14.931-.4-6.684-.4-14.931.181-14.93.4-14.93" fill="#e0e0e0"/>
            <path id="Trazado_114437" data-name="Trazado 114437" d="M707.488,392.237c.222,0,.4,6.513.4,14.545s-.181,14.546-.4,14.546-.4-6.511-.4-14.546.181-14.545.4-14.545" fill="#e0e0e0"/>
            <rect id="Rectángulo_39097" data-name="Rectángulo 39097" width="392.997" height="260.682" transform="translate(313.897 54.296)" fill="#e0e0e0"/>
            <path id="Trazado_114438" data-name="Trazado 114438" d="M.009,73.341c-.59-36.881,28.8-67.37,65.512-67.963s67.061,28.932,67.65,65.815-28.8,67.37-65.511,67.962S.6,110.223.009,73.341m98.416-1.588A31.839,31.839,0,1,0,67.1,104.25a31.943,31.943,0,0,0,31.323-32.5" fill="#d1f5da"/>
            <path id="Trazado_114439" data-name="Trazado 114439" d="M.009,73.342C-.581,36.459,28.808,5.971,65.52,5.379l.558,34.906A31.986,31.986,0,0,0,67.1,104.249l.558,34.906C30.946,139.747.6,110.224.009,73.342" fill="#bfe0c8"/>
            <path id="Trazado_114440" data-name="Trazado 114440" d="M59.542.011c42.951-.693,77.215,32.641,77.9,75.79l-40.65.655c-.33-20.631-16.028-33.62-36.564-33.289Z" fill="#c9ebd1"/>
            <path id="Trazado_114441" data-name="Trazado 114441" d="M318.554,609.859c-1.711-1.467-5.529-6.117-2.585-11.526,1.08-1.983,3.371-2.964,5.446-3.838a22.088,22.088,0,0,0,5.973-3.093c3.237-2.755,4.131-7.331,6.28-11.006,2.467-4.218,7.073-7.379,11.938-7.158,5.573.254,10.219,4.805,12.326,9.993s2.18,10.951,2.223,16.554c.025,3.1-.113,6.591-2.388,8.684-2.1,1.929-5.255,1.953-8.1,1.865l-30.45-.935" fill="#d1f5da"/>
            <path id="Trazado_114442" data-name="Trazado 114442" d="M376.793,526.128H296.714l14.425,86.012a9.6,9.6,0,0,0,6.837,7.657c.092.029.188.05.281.077.238.061.468.142.713.184a10.025,10.025,0,0,0,1.628.187l.013.083.391-.062h35.692a10.06,10.06,0,0,0,1.961-.2,9.644,9.644,0,0,0,8.1-8.407L373.71,552.4l.313-2.356h-.037l2.754-23.47Zm-15.107,54.865h-8.218l.829-24.963h9.521Zm2.93-24.963h7.868l-2.929,24.963h-7.072Zm-23.478,52.635-.5-21.686h11.834l-.72,21.686Zm-12.793-21.686h11.5l.5,21.686H330.03Zm.888,21.686h-9.641c-.916-5.854-2.108-13.464-3.4-21.686h11.354Zm-1.354-27.672-1.94-24.963h13.192l.575,24.963Zm12.622,0-.575-24.963H353.5l-.829,24.963Zm-.713-30.949-.532-23.118h15.212l-.768,23.118Zm-.795,0H325.474l-1.8-23.118h14.784Zm-14.316,0h-14.3c-.506-3.193-.987-6.215-1.42-8.934-1.493-9.347-2.054-12.861-2.365-14.184h16.292Zm.466,5.986,1.94,24.963H315.254c-.4-2.533-.8-5.095-1.2-7.659-.928-5.893-1.856-11.784-2.728-17.3Zm-10.694,24.963h-7.727l-4.187-24.963h7.981c1.22,7.715,2.572,16.3,3.933,24.963m.94,5.986c1.178,7.505,2.338,14.9,3.4,21.686h-7.425l-3.637-21.686Zm37.16,21.686.72-21.686h7.9l-1.853,21.686Zm1.947-58.621.768-23.118H366.3l-1.975,23.118Zm-48.664-23.118c.317,1.672,1.779,10.768,3.737,23.118h-8.038l-3.877-23.118Zm60.476,81.739h-6.189l1.853-21.686h6.88Zm6.878-58.621h-8.058l1.975-23.118h8.8Z" fill="#bfe0c8"/>
            <rect id="Rectángulo_39098" data-name="Rectángulo 39098" width="17.243" height="68.879" transform="translate(939.031 94.926)" fill="#bfe0c8"/>
            <rect id="Rectángulo_39099" data-name="Rectángulo 39099" width="17.243" height="53.854" transform="translate(964.391 109.951)" fill="#bfe0c8"/>
            <rect id="Rectángulo_39100" data-name="Rectángulo 39100" width="17.243" height="41.552" transform="translate(990.136 122.253)" fill="#bfe0c8"/>
            <rect id="Rectángulo_39101" data-name="Rectángulo 39101" width="17.243" height="24.676" transform="translate(1013.971 139.129)" fill="#bfe0c8"/>
            <path id="Trazado_114443" data-name="Trazado 114443" d="M1003.47,249.456a59.668,59.668,0,0,0-83.882,2.84,58.808,58.808,0,0,0,2.857,83.377,59.666,59.666,0,0,0,83.881-2.84,58.807,58.807,0,0,0-2.856-83.377m-19.776,62.363a28.531,28.531,0,0,1-40.108,1.357,28.119,28.119,0,0,1-1.365-39.866,28.531,28.531,0,0,1,40.107-1.357,28.118,28.118,0,0,1,1.366,39.866" fill="#d1f5da"/>
            <path id="Trazado_114444" data-name="Trazado 114444" d="M919.588,252.3a59.671,59.671,0,0,1,83.882-2.84l-21.143,22.5a28.53,28.53,0,0,0-40.106,1.356,28.118,28.118,0,0,0,1.366,39.866l-21.142,22.5a58.807,58.807,0,0,1-2.857-83.377" fill="#c9ebd1"/>
            <path id="Trazado_114445" data-name="Trazado 114445" d="M1001.047,239.816c29.3,27.2,32.8,71.42,5.436,100.538l-29.718-25.743c13.084-13.923,15.927-32.512,1.921-45.519Z" fill="#d6fadf"/>
            <path id="Trazado_114446" data-name="Trazado 114446" d="M359.914,394.4H201.591a4.918,4.918,0,0,1-4.918-4.918V351.956a4.918,4.918,0,0,1,4.918-4.918H359.914a4.918,4.918,0,0,1,4.918,4.918v37.529a4.918,4.918,0,0,1-4.918,4.918" fill="#bfe0c8"/>
            <path id="Trazado_114447" data-name="Trazado 114447" d="M232.119,378.62a10.214,10.214,0,0,1-14.4,1.591,10.326,10.326,0,0,1-1.584-14.47,10.214,10.214,0,0,1,14.4-1.591,10.326,10.326,0,0,1,1.584,14.47" fill="#d1f5da"/>
            <path id="Trazado_114448" data-name="Trazado 114448" d="M229.884,368.686c.153.157-2.314,2.822-5.509,5.953l-1.354,1.311-.278.27-.266-.273c-2.489-2.56-4.245-4.546-4.112-4.678s2.111,1.633,4.659,4.134l-.543,0,1.339-1.328c3.2-3.13,5.911-5.542,6.064-5.386" fill="#bfe0c8"/>
            <path id="Trazado_114449" data-name="Trazado 114449" d="M348.279,367.1c0,.219-22.57.4-50.406.4s-50.41-.177-50.41-.4,22.565-.4,50.41-.4,50.406.177,50.406.4" fill="#d6fadf"/>
            <path id="Trazado_114450" data-name="Trazado 114450" d="M348.723,375.675c0,.219-22.57.4-50.406.4s-50.411-.177-50.411-.4,22.566-.4,50.411-.4,50.406.177,50.406.4" fill="#d6fadf"/>
            <path id="Trazado_114451" data-name="Trazado 114451" d="M879.754,381.919l-3.078,239.025H1014.2V385.178Z" fill="#d1f5da"/>
            <path id="Trazado_114452" data-name="Trazado 114452" d="M953.842,383.715l-1.216,237.229H1014.2V385.178Z" fill="#bfe0c8"/>
            <path id="Trazado_114453" data-name="Trazado 114453" d="M884.077,386.221V435.11h65.142V388.53Z" fill="#bfe0c8"/>
            <path id="Trazado_114454" data-name="Trazado 114454" d="M906.534,399.67v7.221h19.93v-7.877Z" fill="#d1f5da"/>
            <rect id="Rectángulo_39102" data-name="Rectángulo 39102" width="20.583" height="2.954" transform="translate(906.534 412.963)" fill="#d1f5da"/>
            <path id="Trazado_114455" data-name="Trazado 114455" d="M884.077,557.539v48.889h65.142V559.85Z" fill="#bfe0c8"/>
            <path id="Trazado_114456" data-name="Trazado 114456" d="M906.534,570.989v7.222h19.93v-7.878Z" fill="#d1f5da"/>
            <rect id="Rectángulo_39103" data-name="Rectángulo 39103" width="20.583" height="2.954" transform="translate(906.534 584.283)" fill="#d1f5da"/>
            <path id="Trazado_114457" data-name="Trazado 114457" d="M884.077,441.333v48.889h65.142V443.644Z" fill="#bfe0c8"/>
            <path id="Trazado_114458" data-name="Trazado 114458" d="M906.534,454.782V462h19.93v-7.878Z" fill="#d1f5da"/>
            <rect id="Rectángulo_39104" data-name="Rectángulo 39104" width="20.583" height="2.954" transform="translate(906.534 468.076)" fill="#d1f5da"/>
            <rect id="Rectángulo_39105" data-name="Rectángulo 39105" width="65.141" height="48.889" transform="translate(883.228 499.871)" fill="#bfe0c8"/>
            <path id="Trazado_114459" data-name="Trazado 114459" d="M906.125,521.9v6.788h18.733v-7.4Z" fill="#d1f5da"/>
            <rect id="Rectángulo_39106" data-name="Rectángulo 39106" width="19.348" height="2.777" transform="translate(906.124 534.399)" fill="#d1f5da"/>
            <path id="Trazado_114460" data-name="Trazado 114460" d="M1019.367,618.871c0,.219-225.482.4-503.562.4-278.178,0-503.611-.177-503.611-.4s225.433-.4,503.611-.4c278.08,0,503.562.177,503.562.4" fill="#263238"/>
            <rect id="Rectángulo_39107" data-name="Rectángulo 39107" width="406.993" height="266.953" transform="translate(290.337 60.839)" fill="#fafafa"/>
            <path id="Trazado_114461" data-name="Trazado 114461" d="M697.33,327.792c0-2.57-.123-104.135-.315-266.953l.315.315-406.96.082h-.033l.4-.4c-.012,94.937-.023,185.281-.033,266.953l-.364-.364,406.993.364-406.993.364h-.364v-.364c-.01-81.672-.021-172.016-.032-266.953v-.4h.429l406.96.081h.316v.315c-.192,162.818-.312,264.385-.315,266.953" fill="#263238"/>
            <path id="Trazado_114462" data-name="Trazado 114462" d="M414.72,208.257l40.031.552c-.3,21.333-18.281,38.72-40.031,38.72h-.235Z" fill="#455a64"/>
            <path id="Trazado_114463" data-name="Trazado 114463" d="M480.911,262.459a3.994,3.994,0,0,1-.856.069l-2.448.064-8.943.1-.114,0-.072-.092c-3.572-4.5-8.18-10.305-13.206-16.638l-10.646-13.574.206.1-11.781-.11-3.295-.072a6.356,6.356,0,0,1-1.165-.081,6.317,6.317,0,0,1,1.165-.08l3.295-.073,11.781-.11h.126l.081.1,10.714,13.52c4.985,6.365,9.554,12.2,13.1,16.725l-.185-.09,8.943.1,2.448.064a3.989,3.989,0,0,1,.856.069" fill="#263238"/>
            <path id="Trazado_114464" data-name="Trazado 114464" d="M495.271,267.075c0,.169-5.8.307-12.951.307s-12.953-.138-12.953-.307,5.8-.307,12.953-.307,12.951.138,12.951.307" fill="#263238"/>
            <path id="Trazado_114465" data-name="Trazado 114465" d="M495.271,271.871c0,.17-5.8.307-12.951.307s-12.953-.137-12.953-.307,5.8-.307,12.953-.307,12.951.138,12.951.307" fill="#263238"/>
            <path id="Trazado_114466" data-name="Trazado 114466" d="M408.388,202.56l-.562,39.268c-21.748-.3-39.473-17.933-39.473-39.268,0-21.544,18.072-39.272,40.035-39.272s40.035,17.728,40.035,39.272Z" fill="#039d95"/>
            <path id="Trazado_114467" data-name="Trazado 114467" d="M392.758,189.717a2.59,2.59,0,0,1-.7.163l-1.991.318-7.191,1.009-.119.017-.089-.087-9.592-9.331c-4.608-4.52-8.754-8.636-11.735-11.637l-3.506-3.577a10.545,10.545,0,0,1-1.228-1.371,10.559,10.559,0,0,1,1.395,1.2l3.643,3.437c3.058,2.922,7.253,6.989,11.861,11.509l9.514,9.41-.207-.069,7.218-.8,2.008-.183a2.587,2.587,0,0,1,.714-.013" fill="#263238"/>
            <path id="Trazado_114468" data-name="Trazado 114468" d="M346.472,163.493c0,.169-5.8.307-12.951.307s-12.953-.138-12.953-.307,5.8-.307,12.953-.307,12.951.138,12.951.307" fill="#263238"/>
            <path id="Trazado_114469" data-name="Trazado 114469" d="M346.472,168.289c0,.17-5.8.307-12.951.307s-12.953-.137-12.953-.307,5.8-.307,12.953-.307,12.951.138,12.951.307" fill="#263238"/>
            <path id="Trazado_114470" data-name="Trazado 114470" d="M548.44,124.978l-.159-24.4a31.144,31.144,0,0,0-20.132,7.85,28.862,28.862,0,0,0-9.7,25.273,34.541,34.541,0,0,0,.57,3.546c.006.028.009.056.016.085h0l29.4-6.616Z" fill="#039d95"/>
            <g id="Grupo_147696" data-name="Grupo 147696" opacity="0.3">
              <g id="Grupo_147695" data-name="Grupo 147695">
                <g id="Grupo_147694" data-name="Grupo 147694" clip-path="url(#clip-path-3)">
                  <path id="Trazado_114471" data-name="Trazado 114471" d="M548.44,124.978l-.159-24.4a31.144,31.144,0,0,0-20.132,7.85,28.862,28.862,0,0,0-9.7,25.273,34.541,34.541,0,0,0,.57,3.546c.006.028.009.056.016.085h0l29.4-6.616Z" fill="#fff"/>
                </g>
              </g>
            </g>
            <path id="Trazado_114472" data-name="Trazado 114472" d="M578.745,117.465a28.949,28.949,0,0,0-23.732-16.614c-.308-.031-.618-.059-.932-.082-.2-.014-.392-.034-.592-.045q-.873-.048-1.771-.051l-.081,0h0l-.074,0v0h0l.159,24.4.037,5.734,29.412,6.417.037.008a29.1,29.1,0,0,0,.653-6.327,31.663,31.663,0,0,0-3.112-13.443" fill="#039d95"/>
            <g id="Grupo_147699" data-name="Grupo 147699" opacity="0.3">
              <g id="Grupo_147698" data-name="Grupo 147698">
                <g id="Grupo_147697" data-name="Grupo 147697" clip-path="url(#clip-path-4)">
                  <path id="Trazado_114473" data-name="Trazado 114473" d="M578.745,117.465a28.949,28.949,0,0,0-23.732-16.614c-.308-.031-.618-.059-.932-.082-.2-.014-.392-.034-.592-.045q-.873-.048-1.771-.051l-.081,0h0l-.074,0v0h0l.159,24.4.037,5.734,29.412,6.417.037.008a29.1,29.1,0,0,0,.653-6.327,31.663,31.663,0,0,0-3.112-13.443"/>
                </g>
              </g>
            </g>
            <path id="Trazado_114474" data-name="Trazado 114474" d="M550.016,133.758l-29.4,6.616a30.14,30.14,0,0,0,58.854-.2l-29.413-6.417" fill="#039d95"/>
            <path id="Trazado_114475" data-name="Trazado 114475" d="M664.472,129.365c0,.219-15.2.4-33.952.4s-33.954-.177-33.954-.4,15.2-.4,33.954-.4,33.952.177,33.952.4" fill="#263238"/>
            <path id="Trazado_114476" data-name="Trazado 114476" d="M664.472,121.625c0,.219-15.2.4-33.952.4s-33.954-.178-33.954-.4,15.2-.4,33.954-.4,33.952.177,33.952.4" fill="#263238"/>
            <path id="Trazado_114477" data-name="Trazado 114477" d="M664.472,113.884c0,.219-15.2.4-33.952.4s-33.954-.178-33.954-.4,15.2-.4,33.954-.4,33.952.177,33.952.4" fill="#263238"/>
            <path id="Trazado_114478" data-name="Trazado 114478" d="M664.472,136.566c0,.219-15.2.4-33.952.4s-33.954-.177-33.954-.4,15.2-.4,33.954-.4,33.952.177,33.952.4" fill="#263238"/>
            <path id="Trazado_114479" data-name="Trazado 114479" d="M643.445,144.4c0,.219-10.442.4-23.319.4s-23.322-.177-23.322-.4,10.44-.4,23.322-.4,23.319.177,23.319.4" fill="#263238"/>
            <rect id="Rectángulo_39110" data-name="Rectángulo 39110" width="6.995" height="78.114" transform="translate(525.351 200.433)" fill="#039d95"/>
            <rect id="Rectángulo_39111" data-name="Rectángulo 39111" width="6.995" height="51.584" transform="translate(538.855 226.963)" fill="#039d95"/>
            <rect id="Rectángulo_39112" data-name="Rectángulo 39112" width="6.995" height="68.802" transform="translate(552.358 210.142)" fill="#039d95"/>
            <rect id="Rectángulo_39113" data-name="Rectángulo 39113" width="6.995" height="75.098" transform="translate(565.861 203.449)" fill="#039d95"/>
            <rect id="Rectángulo_39114" data-name="Rectángulo 39114" width="6.995" height="49.996" transform="translate(579.365 228.551)" fill="#039d95"/>
            <rect id="Rectángulo_39115" data-name="Rectángulo 39115" width="6.995" height="40.191" transform="translate(592.868 238.356)" fill="#039d95"/>
            <rect id="Rectángulo_39116" data-name="Rectángulo 39116" width="6.995" height="70.097" transform="translate(606.372 208.45)" fill="#039d95"/>
            <rect id="Rectángulo_39117" data-name="Rectángulo 39117" width="6.995" height="57.459" transform="translate(619.875 221.088)" fill="#039d95"/>
            <rect id="Rectángulo_39118" data-name="Rectángulo 39118" width="6.995" height="67.558" transform="translate(633.379 210.989)" fill="#039d95"/>
            <rect id="Rectángulo_39119" data-name="Rectángulo 39119" width="6.995" height="46.026" transform="translate(646.882 232.521)" fill="#039d95"/>
            <rect id="Rectángulo_39120" data-name="Rectángulo 39120" width="6.995" height="54.784" transform="translate(660.386 223.763)" fill="#039d95"/>
            <path id="Trazado_114480" data-name="Trazado 114480" d="M670.236,283.988c0,.159-33.177.287-74.1.287s-74.1-.128-74.1-.287,33.17-.287,74.1-.287,74.1.128,74.1.287" fill="#263238"/>
            <path id="Trazado_114481" data-name="Trazado 114481" d="M535.328,290.136a47.076,47.076,0,0,1-10.381,0,47.081,47.081,0,0,1,10.381,0" fill="#263238"/>
            <path id="Trazado_114482" data-name="Trazado 114482" d="M552.546,290.449a67.191,67.191,0,0,1-12.407,0,67.184,67.184,0,0,1,12.407,0" fill="#263238"/>
            <path id="Trazado_114483" data-name="Trazado 114483" d="M567.232,290.449a67.191,67.191,0,0,1-12.407,0,67.183,67.183,0,0,1,12.407,0" fill="#263238"/>
            <path id="Trazado_114484" data-name="Trazado 114484" d="M581.917,290.449a67.191,67.191,0,0,1-12.407,0,67.183,67.183,0,0,1,12.407,0" fill="#263238"/>
            <path id="Trazado_114485" data-name="Trazado 114485" d="M596.6,290.449a67.191,67.191,0,0,1-12.407,0,67.184,67.184,0,0,1,12.407,0" fill="#263238"/>
            <path id="Trazado_114486" data-name="Trazado 114486" d="M611.289,290.449a67.191,67.191,0,0,1-12.407,0,67.183,67.183,0,0,1,12.407,0" fill="#263238"/>
            <path id="Trazado_114487" data-name="Trazado 114487" d="M625.975,290.449a67.191,67.191,0,0,1-12.407,0,67.183,67.183,0,0,1,12.407,0" fill="#263238"/>
            <path id="Trazado_114488" data-name="Trazado 114488" d="M640.66,290.449a67.191,67.191,0,0,1-12.407,0,67.183,67.183,0,0,1,12.407,0" fill="#263238"/>
            <path id="Trazado_114489" data-name="Trazado 114489" d="M655.346,290.449a67.191,67.191,0,0,1-12.407,0,67.183,67.183,0,0,1,12.407,0" fill="#263238"/>
            <path id="Trazado_114490" data-name="Trazado 114490" d="M670.032,290.449a67.191,67.191,0,0,1-12.407,0,67.183,67.183,0,0,1,12.407,0" fill="#263238"/>
            <g id="Grupo_147702" data-name="Grupo 147702" opacity="0.3">
              <g id="Grupo_147701" data-name="Grupo 147701">
                <g id="Grupo_147700" data-name="Grupo 147700" clip-path="url(#clip-path-5)">
                  <rect id="Rectángulo_39121" data-name="Rectángulo 39121" width="6.995" height="51.584" transform="translate(538.855 226.963)" fill="#fff"/>
                </g>
              </g>
            </g>
            <g id="Grupo_147705" data-name="Grupo 147705" opacity="0.3">
              <g id="Grupo_147704" data-name="Grupo 147704">
                <g id="Grupo_147703" data-name="Grupo 147703" clip-path="url(#clip-path-6)">
                  <rect id="Rectángulo_39123" data-name="Rectángulo 39123" width="6.995" height="75.098" transform="translate(565.861 203.449)" fill="#fff"/>
                </g>
              </g>
            </g>
            <g id="Grupo_147708" data-name="Grupo 147708" opacity="0.3">
              <g id="Grupo_147707" data-name="Grupo 147707">
                <g id="Grupo_147706" data-name="Grupo 147706" clip-path="url(#clip-path-7)">
                  <rect id="Rectángulo_39125" data-name="Rectángulo 39125" width="6.995" height="40.191" transform="translate(592.868 238.356)" fill="#fff"/>
                </g>
              </g>
            </g>
            <g id="Grupo_147711" data-name="Grupo 147711" opacity="0.3">
              <g id="Grupo_147710" data-name="Grupo 147710">
                <g id="Grupo_147709" data-name="Grupo 147709" clip-path="url(#clip-path-8)">
                  <rect id="Rectángulo_39127" data-name="Rectángulo 39127" width="6.995" height="57.459" transform="translate(619.875 221.088)" fill="#fff"/>
                </g>
              </g>
            </g>
            <g id="Grupo_147714" data-name="Grupo 147714" opacity="0.3">
              <g id="Grupo_147713" data-name="Grupo 147713">
                <g id="Grupo_147712" data-name="Grupo 147712" clip-path="url(#clip-path-9)">
                  <rect id="Rectángulo_39129" data-name="Rectángulo 39129" width="6.995" height="46.026" transform="translate(646.882 232.521)" fill="#fff"/>
                </g>
              </g>
            </g>
            <path id="Trazado_114491" data-name="Trazado 114491" d="M339.785,111.015a6.732,6.732,0,1,1-6.732-6.733,6.733,6.733,0,0,1,6.732,6.733" fill="#039d95"/>
            <path id="Trazado_114492" data-name="Trazado 114492" d="M455.534,105.7c0,.219-22.7.4-50.7.4s-50.7-.177-50.7-.4,22.7-.4,50.7-.4,50.7.177,50.7.4" fill="#039d95"/>
            <path id="Trazado_114493" data-name="Trazado 114493" d="M394.844,113.846a6.05,6.05,0,0,1-1.572.154c-1.01.048-2.474.091-4.282.126-3.616.072-8.612.116-14.129.116s-10.516-.044-14.133-.116c-1.807-.035-3.271-.078-4.281-.126a6.036,6.036,0,0,1-1.571-.154,6.036,6.036,0,0,1,1.571-.154c1.01-.048,2.474-.091,4.281-.126,3.617-.072,8.613-.116,14.133-.116s10.513.044,14.129.116c1.808.035,3.272.078,4.282.126a6.05,6.05,0,0,1,1.572.154" fill="#039d95"/>
            <rect id="Rectángulo_39131" data-name="Rectángulo 39131" width="213.008" height="243.1" transform="translate(69.041 85.004)" fill="#fafafa"/>
            <path id="Trazado_114494" data-name="Trazado 114494" d="M282.049,328.1s-.013-.4-.02-1.156-.011-1.9-.02-3.378c-.009-2.984-.023-7.386-.041-13.121-.022-11.477-.053-28.272-.093-49.6-.042-42.623-.1-103.355-.176-175.845l.35.35L69.063,85.4h-.022l.4-.4c-.022,89.627-.043,173.206-.061,243.1l-.335-.335,154.5.172,43.2.087,11.385.039c2.579.012,3.928.037,3.928.037s-1.3.025-3.855.037l-11.322.039-43.121.087-154.71.172h-.335V328.1c-.018-69.894-.039-153.473-.061-243.1v-.4h.419l212.986.046h.35V85c-.073,72.583-.134,133.392-.176,176.07-.04,21.295-.071,38.063-.093,49.522-.018,5.7-.032,10.084-.041,13.052q-.014,2.2-.02,3.34c-.007.746-.02,1.116-.02,1.116" fill="#263238"/>
            <path id="Trazado_114495" data-name="Trazado 114495" d="M263.737,209.134c-.07.145-2.358-1.182-6.849-2.6a44.042,44.042,0,0,0-19.644-1.458,42.956,42.956,0,0,0-12.955,4.164A61.043,61.043,0,0,0,211.55,218.4c-4.177,3.686-8.323,7.871-13.106,11.74-4.784,3.808-10.273,7.409-16.729,9.054a25.292,25.292,0,0,1-9.767.589,31.64,31.64,0,0,1-9.051-2.794c-5.61-2.644-10.408-6.118-15.16-9.016a47.308,47.308,0,0,0-14.259-6.392,42.331,42.331,0,0,0-13.564-1.04,43.687,43.687,0,0,0-18.723,6.1c-4.017,2.455-5.912,4.3-6.02,4.173a9.345,9.345,0,0,1,1.361-1.338,32.421,32.421,0,0,1,4.358-3.316,42.721,42.721,0,0,1,32.87-5.749,48.033,48.033,0,0,1,14.676,6.421c4.816,2.9,9.615,6.325,15.06,8.865a25.8,25.8,0,0,0,17.863,2.09c6.134-1.557,11.488-5.031,16.193-8.755,4.707-3.782,8.873-7.941,13.111-11.635a61.326,61.326,0,0,1,13.082-9.232,43.383,43.383,0,0,1,33.32-2.167,34.855,34.855,0,0,1,5.031,2.165,9.483,9.483,0,0,1,1.641.976" fill="#039d95"/>
            <rect id="Rectángulo_39132" data-name="Rectángulo 39132" width="18.109" height="48.977" transform="translate(127.67 241.784)" fill="#039d95"/>
            <rect id="Rectángulo_39133" data-name="Rectángulo 39133" width="18.109" height="48.977" transform="translate(204.513 241.784)" fill="#039d95"/>
            <rect id="Rectángulo_39134" data-name="Rectángulo 39134" width="18.109" height="77.738" transform="translate(230.128 213.023)" fill="#039d95"/>
            <rect id="Rectángulo_39135" data-name="Rectángulo 39135" width="18.109" height="16.483" transform="translate(104.236 275.343)" fill="#039d95"/>
            <rect id="Rectángulo_39136" data-name="Rectángulo 39136" width="18.11" height="26.86" transform="translate(153.284 263.901)" fill="#039d95"/>
            <rect id="Rectángulo_39137" data-name="Rectángulo 39137" width="18.109" height="33.026" transform="translate(178.899 257.735)" fill="#039d95"/>
            <path id="Trazado_114496" data-name="Trazado 114496" d="M146.509,296.533c0,.4-4.381.727-9.783.727s-9.784-.325-9.784-.727,4.38-.727,9.784-.727,9.783.325,9.783.727" fill="#263238"/>
            <path id="Trazado_114497" data-name="Trazado 114497" d="M123.975,296.533c0,.4-4.381.727-9.784.727s-9.784-.325-9.784-.727,4.38-.727,9.784-.727,9.784.325,9.784.727" fill="#263238"/>
            <path id="Trazado_114498" data-name="Trazado 114498" d="M251.806,296.533c0,.4-4.952.727-11.059.727s-11.06-.325-11.06-.727,4.95-.727,11.06-.727,11.059.325,11.059.727" fill="#263238"/>
            <path id="Trazado_114499" data-name="Trazado 114499" d="M224.9,296.533c0,.4-4.952.727-11.06.727s-11.06-.325-11.06-.727,4.951-.727,11.06-.727,11.06.325,11.06.727" fill="#263238"/>
            <path id="Trazado_114500" data-name="Trazado 114500" d="M197.008,296.533c0,.4-4.381.729-9.784.729s-9.783-.327-9.783-.729,4.379-.728,9.783-.728,9.784.327,9.784.728" fill="#263238"/>
            <path id="Trazado_114501" data-name="Trazado 114501" d="M170.543,296.533c0,.4-4.381.729-9.784.729s-9.784-.327-9.784-.729,4.381-.728,9.784-.728,9.784.327,9.784.728" fill="#263238"/>
            <rect id="Rectángulo_39138" data-name="Rectángulo 39138" width="147.997" height="61.461" transform="translate(103.809 120.445)" fill="#e0e0e0"/>
            <path id="Trazado_114502" data-name="Trazado 114502" d="M134.556,139.87a6.9,6.9,0,1,1-6.9-6.9,6.9,6.9,0,0,1,6.9,6.9" fill="#263238"/>
            <rect id="Rectángulo_39139" data-name="Rectángulo 39139" width="48.073" height="2.669" transform="translate(141.455 135.104)" fill="#263238"/>
            <rect id="Rectángulo_39140" data-name="Rectángulo 39140" width="93.517" height="2.669" transform="translate(141.455 141.169)" fill="#fff"/>
            <path id="Trazado_114503" data-name="Trazado 114503" d="M134.556,161.08a6.9,6.9,0,1,1-6.9-6.9,6.9,6.9,0,0,1,6.9,6.9" fill="#039d95"/>
            <rect id="Rectángulo_39141" data-name="Rectángulo 39141" width="24.549" height="2.669" transform="translate(141.455 156.315)" fill="#039d95"/>
            <rect id="Rectángulo_39142" data-name="Rectángulo 39142" width="93.517" height="2.669" transform="translate(141.455 162.38)" fill="#fff"/>
            <rect id="Rectángulo_39143" data-name="Rectángulo 39143" width="233.909" height="266.953" transform="translate(717.297 41.365)" fill="#fafafa"/>
            <path id="Trazado_114504" data-name="Trazado 114504" d="M951.206,308.318s-.013-.434-.02-1.267-.011-2.08-.02-3.707c-.009-3.274-.023-8.108-.041-14.4-.022-12.6-.053-31.043-.093-54.464-.042-46.806-.1-113.5-.176-193.11l.35.351-233.884.045H717.3l.4-.4c-.023,98.421-.044,190.2-.061,266.953l-.335-.335c70.375.072,128.812.132,169.667.172,20.445.038,36.487.068,47.432.087l12.5.039c2.831.012,4.31.037,4.31.037s-1.429.026-4.237.037l-12.436.04c-10.927.019-26.944.048-47.356.087-40.906.04-99.416.1-169.879.172h-.336v-.336c-.017-76.752-.038-168.532-.061-266.953v-.4h.421c84.97.016,165,.033,233.884.047h.35v.349c-.073,79.7-.134,146.475-.176,193.336-.04,23.386-.072,41.8-.093,54.384-.018,6.268-.032,11.078-.041,14.337q-.013,2.416-.02,3.668c-.007.821-.02,1.228-.02,1.228" fill="#263238"/>
            <rect id="Rectángulo_39144" data-name="Rectángulo 39144" width="189.49" height="152.008" transform="translate(736.011 62.709)" fill="#e0e0e0"/>
            <rect id="Rectángulo_39145" data-name="Rectángulo 39145" width="6.219" height="1.792" transform="translate(749.254 187.692)" fill="#263238"/>
            <rect id="Rectángulo_39146" data-name="Rectángulo 39146" width="7.953" height="1.792" transform="translate(763.323 197.273)" fill="#263238"/>
            <rect id="Rectángulo_39147" data-name="Rectángulo 39147" width="7.953" height="1.792" transform="translate(791.009 197.273)" fill="#263238"/>
            <rect id="Rectángulo_39148" data-name="Rectángulo 39148" width="7.953" height="1.792" transform="translate(818.695 197.273)" fill="#263238"/>
            <rect id="Rectángulo_39149" data-name="Rectángulo 39149" width="7.953" height="1.792" transform="translate(846.381 197.273)" fill="#263238"/>
            <rect id="Rectángulo_39150" data-name="Rectángulo 39150" width="7.953" height="1.792" transform="translate(874.067 197.273)" fill="#263238"/>
            <rect id="Rectángulo_39151" data-name="Rectángulo 39151" width="7.953" height="1.792" transform="translate(901.752 197.273)" fill="#263238"/>
            <rect id="Rectángulo_39152" data-name="Rectángulo 39152" width="6.219" height="1.792" transform="translate(749.254 163.757)" fill="#263238"/>
            <rect id="Rectángulo_39153" data-name="Rectángulo 39153" width="6.219" height="1.792" transform="translate(749.254 118.709)" fill="#263238"/>
            <rect id="Rectángulo_39154" data-name="Rectángulo 39154" width="6.219" height="1.792" transform="translate(749.254 96.071)" fill="#263238"/>
            <rect id="Rectángulo_39155" data-name="Rectángulo 39155" width="6.219" height="1.792" transform="translate(749.569 141.233)" fill="#263238"/>
            <path id="Trazado_114505" data-name="Trazado 114505" d="M909.482,189.484a4.113,4.113,0,0,1-.667.04l-1.957.04-7.525.074-27.675.126-91.3.116-21.637-.005h-.391v-.391c.053-30.521.1-57.383.134-76.659.05-9.59.09-17.291.118-22.637.029-2.622.051-4.665.067-6.094.015-.666.027-1.188.036-1.577a3.082,3.082,0,0,1,.036-.537,2.954,2.954,0,0,1,.036.537c.009.389.021.911.036,1.577.016,1.429.038,3.472.067,6.094.028,5.346.068,13.047.118,22.637.034,19.276.081,46.138.134,76.659l-.391-.391,21.637-.005,91.3.116,27.675.126,7.525.074,1.957.04a4.117,4.117,0,0,1,.667.04" fill="#263238"/>
            <path id="Trazado_114506" data-name="Trazado 114506" d="M911.234,142.129c0,.219-32.8.4-73.248.4s-73.254-.178-73.254-.4,32.791-.4,73.254-.4,73.248.177,73.248.4" fill="#263238"/>
            <path id="Trazado_114507" data-name="Trazado 114507" d="M911.234,119.605c0,.219-32.8.4-73.248.4s-73.254-.177-73.254-.4,32.791-.4,73.254-.4,73.248.177,73.248.4" fill="#263238"/>
            <path id="Trazado_114508" data-name="Trazado 114508" d="M911.234,96.966c0,.22-32.8.4-73.248.4s-73.254-.178-73.254-.4,32.791-.4,73.254-.4,73.248.177,73.248.4" fill="#263238"/>
            <path id="Trazado_114509" data-name="Trazado 114509" d="M911.234,164.653c0,.219-32.8.4-73.248.4s-73.254-.177-73.254-.4,32.791-.4,73.254-.4,73.248.177,73.248.4" fill="#263238"/>
            <path id="Trazado_114510" data-name="Trazado 114510" d="M766.242,184.637V164.653L778.7,145.316l8.452,6.485L804.5,124.853l10.231,7.205,14.235-24.86,11.566,9.422L857.88,83.641l18.684,36.86,15.124-18.443,17.794-5.092v87.671Z" fill="#455a64"/>
            <path id="Trazado_114511" data-name="Trazado 114511" d="M911.234,89.871a1.277,1.277,0,0,1-.314.03l-.927.03-3.611.057-13.654.1L892.9,90c-3.978,5.211-8.923,11.69-14.611,19.139l-.093.123h-.155l-36.633.068.326-.185-15.4,25.643-15.124,25.13-.3.494-.338-.466-19.831-27.295.534-.016-18.133,28.183-5.067,7.784-1.35,2.029c-.309.455-.489.676-.489.676s.124-.256.406-.729c.309-.507.731-1.2,1.27-2.079,1.156-1.853,2.813-4.506,4.919-7.879,4.31-6.824,10.455-16.55,17.9-28.333l.253-.4.281.384L811.2,159.5l-.636.028c4.79-7.975,9.861-16.42,15.1-25.145l15.424-25.627.111-.185h.216l36.633.068-.249.122,14.759-19.025.068-.087h.107l13.654.1,3.611.057.927.03a1.276,1.276,0,0,1,.314.03" fill="#039d95"/>
            <path id="Trazado_114512" data-name="Trazado 114512" d="M797.014,138.871a1.407,1.407,0,1,1-1.406-1.353,1.38,1.38,0,0,1,1.406,1.353" fill="#039d95"/>
            <path id="Trazado_114513" data-name="Trazado 114513" d="M839.268,114.854a1.407,1.407,0,1,1-1.406-1.353,1.38,1.38,0,0,1,1.406,1.353" fill="#039d95"/>
            <path id="Trazado_114514" data-name="Trazado 114514" d="M872.116,108.954a1.407,1.407,0,1,1-1.406-1.353,1.38,1.38,0,0,1,1.406,1.353" fill="#039d95"/>
            <path id="Trazado_114515" data-name="Trazado 114515" d="M916.961,237.316c0,.219-39.985.4-89.3.4-49.33,0-89.306-.177-89.306-.4s39.976-.4,89.306-.4c49.312,0,89.3.177,89.3.4" fill="#263238"/>
            <path id="Trazado_114516" data-name="Trazado 114516" d="M916.961,246.972c0,.219-39.985.4-89.3.4-49.33,0-89.306-.177-89.306-.4s39.976-.4,89.306-.4c49.312,0,89.3.177,89.3.4" fill="#263238"/>
            <path id="Trazado_114517" data-name="Trazado 114517" d="M916.961,256.628c0,.219-39.985.4-89.3.4-49.33,0-89.306-.177-89.306-.4s39.976-.4,89.306-.4c49.312,0,89.3.177,89.3.4" fill="#263238"/>
            <path id="Trazado_114518" data-name="Trazado 114518" d="M916.961,266.283c0,.22-39.985.4-89.3.4-49.33,0-89.306-.177-89.306-.4s39.976-.4,89.306-.4c49.312,0,89.3.177,89.3.4" fill="#263238"/>
            <path id="Trazado_114519" data-name="Trazado 114519" d="M846.431,262.494c4.886-8.2,6.312-19.144,7.568-28.608.591-4.454,1.628-10.8-1.5-13.593-3.349-2.995-3.658-7.6-7.509-9.915s-9.081-2.522-12.727.1" fill="#263238"/>
            <path id="Trazado_114520" data-name="Trazado 114520" d="M832.873,291.558h0a13.184,13.184,0,0,1-14.183-12.642c-.276-7.177-.517-14.432-.517-14.432S807.3,263.465,806.509,252.7s-.429-35.611-.429-35.611a37.506,37.506,0,0,1,37.9,2.437l-.671,37.88v20.38c-.071,6.835-3.624,13.247-10.44,13.77" fill="#ffc09d"/>
            <path id="Trazado_114521" data-name="Trazado 114521" d="M817.237,239.562c1.857-2.3,4.876-3.217,7.355-1.606a6.256,6.256,0,0,1,2.084,7.822,8.245,8.245,0,0,1-5.28,3.993,4.134,4.134,0,0,0-3.237,4.451c.31,2.7,4.8,3.715,6.833,5.952,3.154,3.478,10.078,4.95,14.742,5.5,4.584.542,4.03.586,6.7-3.181a14.458,14.458,0,0,0,2.619-8.739l.492-23.807A34.088,34.088,0,0,0,849,221.4a11.47,11.47,0,0,0-4.506-7.064c-2.618-1.723-5.934-1.87-8.916-2.834-3.728-1.206-6.894-3.678-10.382-5.462s-7.763-2.851-11.264-1.094c-2.514,1.262-4.2,3.77-6.643,5.16-3.48,1.98-8.217,1.53-9.906,6.647a8.67,8.67,0,0,0,.058,5.473c2.359,6.963,10.983,9.771,17.194,6.761.123,1.18-1.039,3.8.2,7.53.4,1.19.538,3.006,2.4,3.04" fill="#263238"/>
            <path id="Trazado_114522" data-name="Trazado 114522" d="M819.162,246.281c.082-.068.449.569,1.345.513a2.5,2.5,0,0,0,2.013-2.457,2.692,2.692,0,0,0-1.848-2.679c-.885-.327-1.52-.158-1.549-.284-.047-.073.592-.485,1.7-.255a3.226,3.226,0,0,1,1.691.971,3.126,3.126,0,0,1,.794,2.286,2.971,2.971,0,0,1-2.8,2.978,1.615,1.615,0,0,1-1.2-.6c-.191-.264-.19-.452-.145-.469" fill="#ff9b6c"/>
            <path id="Trazado_114523" data-name="Trazado 114523" d="M830.365,213.828c-.026-.023.234-.412.9-.912a7.218,7.218,0,0,1,3.269-1.271,9.422,9.422,0,0,1,5.151.784,11.811,11.811,0,0,1,4.749,4.245c2.529,3.848,3.006,8.052,3.343,10.9a28.081,28.081,0,0,1,.284,4.7,27.224,27.224,0,0,1-.84-4.627c-.473-2.821-1.045-6.89-3.447-10.531a11.476,11.476,0,0,0-4.4-4.024,8.641,8.641,0,0,0-9.01.738" fill="#455a64"/>
            <path id="Trazado_114524" data-name="Trazado 114524" d="M800.055,224.838c0,.023-.147.028-.409-.031a3.067,3.067,0,0,1-1.072-.483,3.886,3.886,0,0,1-1.249-1.4,3.582,3.582,0,0,1-.337-2.492,4.09,4.09,0,0,1,1.745-2.513,5.851,5.851,0,0,1,3.4-.667,4.707,4.707,0,0,0,3.25-.822,23.563,23.563,0,0,0,2.63-2.838,13.424,13.424,0,0,1,6.7-3.867,14.242,14.242,0,0,1,6.315-.141A12.213,12.213,0,0,1,825,211.1a4.565,4.565,0,0,1,1.231.951,18.523,18.523,0,0,0-5.3-1.923,14.329,14.329,0,0,0-6.035.3,13.034,13.034,0,0,0-6.3,3.7,22.543,22.543,0,0,1-2.749,2.923,4.423,4.423,0,0,1-1.852.832,8.946,8.946,0,0,1-1.872.1,5.3,5.3,0,0,0-3.044.492,3.547,3.547,0,0,0-1.551,2.089,3.466,3.466,0,0,0,1.226,3.517,8.622,8.622,0,0,0,1.3.76" fill="#455a64"/>
            <path id="Trazado_114525" data-name="Trazado 114525" d="M828.852,254.784c-.026-.066.541-.267,1.421-.859a8.894,8.894,0,0,0,2.935-3.272,8.288,8.288,0,0,0-1.461-9.544,15.545,15.545,0,0,0-3.364-2.459c-1.258-.732-2.537-1.41-3.706-2.207a12.53,12.53,0,0,1-2.98-2.808,13.014,13.014,0,0,1-2.518-6.371,11.781,11.781,0,0,1,.352-4.6,6.873,6.873,0,0,1,.43-1.177c.119-.261.193-.391.218-.381a15.993,15.993,0,0,0-.444,6.083,12.873,12.873,0,0,0,2.542,6,12.041,12.041,0,0,0,2.837,2.611c1.127.756,2.388,1.42,3.669,2.164a15.872,15.872,0,0,1,3.521,2.6,8.743,8.743,0,0,1,2.095,3.559,8.57,8.57,0,0,1-3.965,10.063,3.82,3.82,0,0,1-1.582.6" fill="#455a64"/>
            <path id="Trazado_114526" data-name="Trazado 114526" d="M847.514,238.991a4.9,4.9,0,0,1-1.386.31,20.117,20.117,0,0,1-3.87.117,23.978,23.978,0,0,1-12.006-4.128c-4.159-2.819-7.038-6.666-7.877-9.909a8.19,8.19,0,0,1-.161-3.9,3.1,3.1,0,0,1,.535-1.325,9.5,9.5,0,0,0,.164,5.068c.923,3.031,3.755,6.678,7.784,9.41a25.222,25.222,0,0,0,11.607,4.226c3.2.348,5.194-.03,5.21.132" fill="#455a64"/>
            <path id="Trazado_114527" data-name="Trazado 114527" d="M849.226,231.617c3.73-4.2,9.228-7.036,14.837-6.721s11.08,4.19,12.45,9.638c1.031,4.1-.227,8.377-.758,12.572s-.018,9.1,3.4,11.584c2.062,1.5,4.731,1.771,7.208,2.375s5.123,1.841,5.975,4.244c.976,2.756-1.026,5.885-3.707,7.05s-5.771.811-8.611.119c1.3,3.087-.3,6.942-3.192,8.628a9.539,9.539,0,0,1-9.56-.4,14.273,14.273,0,0,1-5.84-7.916c-1.841,3.24-6.686,3.923-9.79,1.86s-4.44-6.146-3.959-9.841,2.513-7.026,4.959-9.837a24.311,24.311,0,0,0,3.466-4.412,5.62,5.62,0,0,0,.218-5.378c-.96-1.612-3.454-2.277-4.791-.962" fill="#263238"/>
            <path id="Trazado_114528" data-name="Trazado 114528" d="M855.7,242.91c.067.059-1.242.7-3.235-.038a7.784,7.784,0,0,1-4.7-6.127,8.028,8.028,0,0,1,.512-4.369,8.34,8.34,0,0,1,2.063-2.922,5.3,5.3,0,0,1,2.83-1.577,24.957,24.957,0,0,0-2.437,1.977,7.976,7.976,0,0,0-2.185,6.768,6.872,6.872,0,0,0,7.147,6.288" fill="#ff4f5b"/>
            <path id="Trazado_114529" data-name="Trazado 114529" d="M817.815,264.3a5.072,5.072,0,0,1-2.457-.243,13.248,13.248,0,0,1-8.722-7.7,5.072,5.072,0,0,1-.546-2.408,15.472,15.472,0,0,1,1.056,2.176,15.206,15.206,0,0,0,8.379,7.394,15.666,15.666,0,0,1,2.29.778" fill="#ff9b6c"/>
            <path id="Trazado_114530" data-name="Trazado 114530" d="M859.252,273.128c-.006.027-.185,0-.528-.078a5.23,5.23,0,0,1-1.4-.624,7.654,7.654,0,0,1-3.057-4.65,9.559,9.559,0,0,1-.133-3.914,15.753,15.753,0,0,1,1.421-4.235c1.356-2.839,3.5-5.534,5.079-8.665a15.428,15.428,0,0,0,1.593-4.792,9.268,9.268,0,0,0-5.98-9.978,9.9,9.9,0,0,0-5.327-.331c-1.262.265-1.905.621-1.937.55-.012-.025.14-.125.444-.295a7.559,7.559,0,0,1,1.418-.554,9.546,9.546,0,0,1,11.544,5.763A9.841,9.841,0,0,1,863,246.27a15.9,15.9,0,0,1-1.654,5.046c-1.641,3.238-3.789,5.9-5.133,8.634a11.519,11.519,0,0,0-1.4,7.7,7.615,7.615,0,0,0,2.688,4.522,14.111,14.111,0,0,0,1.752.955" fill="#455a64"/>
            <path id="Trazado_114531" data-name="Trazado 114531" d="M875.493,281a2.2,2.2,0,0,1-.679.039,7.509,7.509,0,0,1-1.922-.344,10.8,10.8,0,0,1-5.6-4.368c-1.785-2.522-2.628-6.264-2.419-10.258.144-4.026,1.321-8.279,2.074-12.746a29.794,29.794,0,0,0,.454-6.554,16.91,16.91,0,0,0-1.379-5.884,10.724,10.724,0,0,0-7.554-6.306,15.735,15.735,0,0,0-6.931.024c-1.621.363-2.481.722-2.508.654a2.219,2.219,0,0,1,.6-.314,13.347,13.347,0,0,1,1.834-.639,15.148,15.148,0,0,1,7.127-.271,11.4,11.4,0,0,1,4.552,2.044,11.594,11.594,0,0,1,3.544,4.505,17.4,17.4,0,0,1,1.489,6.138,29.893,29.893,0,0,1-.447,6.731c-.768,4.536-1.95,8.734-2.127,12.653-.239,3.894.515,7.469,2.157,9.913a10.851,10.851,0,0,0,5.237,4.386,16.554,16.554,0,0,0,2.5.6" fill="#455a64"/>
            <path id="Trazado_114532" data-name="Trazado 114532" d="M878.733,330.023l-22.924,17.884,9.62,15.794,27.607-20.339Z" fill="#ffc09d"/>
            <path id="Trazado_114533" data-name="Trazado 114533" d="M817.411,269.941s.112-1.913-4.887-2.188a52.165,52.165,0,0,0-5.557-.186s-2.252-2.881-2.392-4.636a13.932,13.932,0,0,1,1.071-4.71l5.059-.465-1.373-3.435-3.566.248L795.7,255.778l-4.008,17.631L764.2,324.718a13.247,13.247,0,0,0,5.248,19.288c7.106,3.434,16.629-3.857,19.262-11.3l15.211-57.07,5.351-4.18,7.667-1.405" fill="#ffc09d"/>
            <path id="Trazado_114534" data-name="Trazado 114534" d="M754.753,611.441l37.424-215.3-.053-.013c.079-.319.157-.621.236-.933l.008-.04h0c6.367-25.252,16.185-33.348,16.185-33.348l57.272,3.593c4.869,8.754,5.487,29.755,5.487,29.755.667,2.573-12.1,211.187-12.1,211.187l-19.154-.528L829.672,408.449,773.938,612.261Z" fill="#ffc09d"/>
            <path id="Trazado_114535" data-name="Trazado 114535" d="M754.3,613.376l.074-1.945,19.7.569-.171,6.414-1.218.04c-5.421.134-27.573.326-31.159-.791-4-1.246,12.773-4.287,12.773-4.287" fill="#039d95"/>
            <g id="Grupo_147717" data-name="Grupo 147717" opacity="0.6">
              <g id="Grupo_147716" data-name="Grupo 147716">
                <g id="Grupo_147715" data-name="Grupo 147715" clip-path="url(#clip-path-10)">
                  <path id="Trazado_114536" data-name="Trazado 114536" d="M766.8,618.079a6.3,6.3,0,0,1,2.623-3.821,6.982,6.982,0,0,1,4.626-1.2l-.154,5.1Z" fill="#fff"/>
                </g>
              </g>
            </g>
            <g id="Grupo_147720" data-name="Grupo 147720" opacity="0.6">
              <g id="Grupo_147719" data-name="Grupo 147719">
                <g id="Grupo_147718" data-name="Grupo 147718" clip-path="url(#clip-path-11)">
                  <path id="Trazado_114537" data-name="Trazado 114537" d="M746.1,615.132s-5.889,1.409-5.189,2.323,23.1,1.5,33,.959l-.019-.408-26.127-.48s-.521-2.319-1.662-2.394" fill="#fff"/>
                </g>
              </g>
            </g>
            <path id="Trazado_114538" data-name="Trazado 114538" d="M774.2,618a1.9,1.9,0,0,1-.338.025l-.97.029-3.569.049c-3.014.022-7.179,0-11.776-.117s-8.759-.31-11.767-.485l-3.56-.232-.967-.078a1.9,1.9,0,0,1-.336-.043,2.035,2.035,0,0,1,.339,0l.969.037,3.564.162c3.01.135,7.168.3,11.765.42s8.756.163,11.769.182l3.568.021.97.013a1.9,1.9,0,0,1,.339.019" fill="#263238"/>
            <path id="Trazado_114539" data-name="Trazado 114539" d="M747.76,617.809a7.111,7.111,0,0,0-.618-1.6,7.664,7.664,0,0,0-1.176-1.3,2.6,2.6,0,0,1,1.383,1.19,2.308,2.308,0,0,1,.411,1.71" fill="#263238"/>
            <path id="Trazado_114540" data-name="Trazado 114540" d="M753.63,615.231c-.057.031-.324-.289-.6-.716s-.449-.8-.393-.829.324.289.6.716.449.8.393.829" fill="#263238"/>
            <path id="Trazado_114541" data-name="Trazado 114541" d="M755.242,614.492c-.045.044-.349-.156-.678-.447s-.56-.563-.515-.607.349.156.679.447.559.563.514.607" fill="#263238"/>
            <path id="Trazado_114542" data-name="Trazado 114542" d="M756.3,612.8a4.794,4.794,0,1,1-1.023-.127,2.468,2.468,0,0,1,1.023.127" fill="#263238"/>
            <path id="Trazado_114543" data-name="Trazado 114543" d="M756.68,611.593a3.082,3.082,0,0,1-2.326.1,97.034,97.034,0,0,0,2.326-.1" fill="#263238"/>
            <path id="Trazado_114544" data-name="Trazado 114544" d="M753.013,613.623a3.89,3.89,0,0,1-1.26-.041,7.793,7.793,0,0,1-1.334-.31,3.833,3.833,0,0,1-.759-.314.645.645,0,0,1-.3-.373.449.449,0,0,1,.206-.463,2.414,2.414,0,0,1,2.839.7,2.025,2.025,0,0,1,.387.793c.045.2.037.315.023.317a3.215,3.215,0,0,0-.543-1.015,2.291,2.291,0,0,0-1.057-.679,2.094,2.094,0,0,0-1.506.056c-.2.133-.132.353.087.483a3.925,3.925,0,0,0,.7.3,9.225,9.225,0,0,0,1.289.348c.751.144,1.231.158,1.23.194" fill="#263238"/>
            <path id="Trazado_114545" data-name="Trazado 114545" d="M752.685,613.673a1.1,1.1,0,0,1-.121-.818,1.844,1.844,0,0,1,.371-.846,1.279,1.279,0,0,1,1.067-.57.466.466,0,0,1,.372.551,1.237,1.237,0,0,1-.23.518,3.6,3.6,0,0,1-.617.693,1.852,1.852,0,0,1-.735.456c-.022-.03.257-.2.616-.566a4.167,4.167,0,0,0,.549-.689c.18-.243.312-.685,0-.747a1.146,1.146,0,0,0-.846.476,1.873,1.873,0,0,0-.379.752,3.965,3.965,0,0,0-.045.79" fill="#263238"/>
            <path id="Trazado_114546" data-name="Trazado 114546" d="M773.95,613c-.005.041-.56-.065-1.45.009a6.64,6.64,0,0,0-3.2,1.129,5.939,5.939,0,0,0-2.055,2.543c-.323.774-.368,1.3-.412,1.292a1,1,0,0,1,.011-.368,4.487,4.487,0,0,1,.243-.977,5.666,5.666,0,0,1,2.07-2.667,6.373,6.373,0,0,1,3.33-1.108,5.593,5.593,0,0,1,1.078.054,1.225,1.225,0,0,1,.383.093" fill="#263238"/>
            <path id="Trazado_114547" data-name="Trazado 114547" d="M764.388,616.237a17.311,17.311,0,0,1-5.733-.1c.008-.064,1.287.043,2.866.068s2.861-.032,2.867.032" fill="#263238"/>
            <path id="Trazado_114548" data-name="Trazado 114548" d="M768.232,616.332c.047.046-.112.25-.252.52s-.217.509-.285.5-.092-.291.072-.6.424-.468.465-.423" fill="#263238"/>
            <path id="Trazado_114549" data-name="Trazado 114549" d="M769.732,614.694c.045.044-.087.23-.3.416s-.414.3-.46.257.087-.23.3-.416.414-.3.46-.257" fill="#263238"/>
            <path id="Trazado_114550" data-name="Trazado 114550" d="M771.829,613.983c-.016.061-.276.052-.567.139s-.5.224-.553.181.121-.29.483-.392.658.016.637.072" fill="#263238"/>
            <path id="Trazado_114551" data-name="Trazado 114551" d="M773.315,613.66c.022.058-.094.148-.258.2s-.316.052-.338-.005.094-.148.258-.2.316-.052.338,0" fill="#263238"/>
            <path id="Trazado_114552" data-name="Trazado 114552" d="M850.52,276a37.744,37.744,0,0,1,15.159,5.969c18.109,11.738,48.392,36.562,45.88,48.057-2.138,9.786-25.759,21.668-25.759,21.668L870.46,333.24l9.4-5.377-23.119-15.378Z" fill="#263238"/>
            <path id="Trazado_114553" data-name="Trazado 114553" d="M860.846,313.369l-.753,2.752-2.662,12.723-.656,18.647c13.736,17.687,13.942,32.578,13.942,32.578l-69.38,8.1c.012-13.7,5.011-30.963,5.011-30.963,4.015-6.809,3.821-27.179,3.071-27.922-4.335-4.3-5.385-7.446-1.924-12.948,0,0-21.509,22.593-23.723,24.623-7.6,6.966-14.909,5.023-18.3,1.995-9.5-8.477.253-19.41.253-19.41l36.228-41.522a18.035,18.035,0,0,1,9.414-5.739c3.862-.912,7.758-1.376,7.758-1.376l24.19.206a40.6,40.6,0,0,1,7.207.88s8.4,2.7,10.563,13.094-.237,24.279-.237,24.279" fill="#263238"/>
            <path id="Trazado_114554" data-name="Trazado 114554" d="M861.6,296.738a9.731,9.731,0,0,1,.148,2.01c.032,1.3.007,3.174-.131,5.488a145.82,145.82,0,0,1-2.388,17.936c-.454,2.368-.931,4.647-1.431,6.761l.01-.075c-.213,5.389-.427,10.049-.61,13.361-.1,1.541-.181,2.831-.248,3.88a5.8,5.8,0,0,1-.179,1.393,5.729,5.729,0,0,1-.08-1.4c.006-1.051.015-2.344.025-3.888.049-3.316.163-7.98.329-13.371l0-.035.009-.04c.476-2.1.942-4.376,1.394-6.733,1.321-6.917,2.2-13.236,2.608-17.83.209-2.3.319-4.16.381-5.449a9.85,9.85,0,0,1,.161-2.006" fill="#455a64"/>
            <path id="Trazado_114555" data-name="Trazado 114555" d="M861.839,315.389c.125-.18,5.8,3.528,12.666,8.282s12.34,8.754,12.215,8.934-5.794-3.527-12.666-8.282-12.339-8.754-12.215-8.934" fill="#455a64"/>
            <path id="Trazado_114556" data-name="Trazado 114556" d="M816.986,288.2c.019-.02.141.073.357.269a7.238,7.238,0,0,1,.863.941,10.489,10.489,0,0,1,1.876,4.3,14.2,14.2,0,0,1-.395,6.952,28.345,28.345,0,0,1-3.892,7.563,27.134,27.134,0,0,1-2.861,3.364c-1.008,1.025-2.086,1.868-3.03,2.73-1.918,1.719-3.573,3.352-4.941,4.743s-2.445,2.549-3.192,3.347a7.612,7.612,0,0,1-1.212,1.2,6.642,6.642,0,0,1,.977-1.4c.678-.863,1.7-2.082,3.02-3.532s2.947-3.132,4.856-4.9c.954-.9,2.011-1.744,2.971-2.736a27.7,27.7,0,0,0,2.769-3.281,29.128,29.128,0,0,0,3.839-7.32,14.154,14.154,0,0,0,.539-6.63,12.439,12.439,0,0,0-2.544-5.611" fill="#455a64"/>
            <path id="Trazado_114557" data-name="Trazado 114557" d="M808.911,349.53l.8-9.32h47.318l-.256,7.282Z" fill="#455a64"/>
            <path id="Trazado_114558" data-name="Trazado 114558" d="M768.545,321.711c.087.119-1.2.895-2.623,2.74a12.609,12.609,0,0,0,.672,16.532c1.572,1.723,2.913,2.393,2.836,2.518-.022.043-.376-.078-.967-.4a10.76,10.76,0,0,1-2.273-1.727,12.512,12.512,0,0,1-.7-17.276,10.776,10.776,0,0,1,2.126-1.906c.563-.37.9-.52.931-.479" fill="#455a64"/>
            <path id="Trazado_114559" data-name="Trazado 114559" d="M859.213,606.346l5.366,12.485-24.012-.286-.508-12.726Z" fill="#039d95"/>
            <path id="Trazado_114560" data-name="Trazado 114560" d="M840.389,616.386a21.923,21.923,0,0,0,3.363.171c2.079.036,4.952.026,8.119-.025l8.107-.169a25.347,25.347,0,0,0,3.359-.169,22.233,22.233,0,0,0-3.363-.165c-2.08-.033-4.952-.021-8.121.03l-8.105.164a25.518,25.518,0,0,0-3.359.163" fill="#263238"/>
            <path id="Trazado_114561" data-name="Trazado 114561" d="M850.4,606.074c-.21.012-.255,2.279-.1,5.065s.45,5.034.66,5.023.255-2.279.1-5.066-.449-5.033-.659-5.022" fill="#263238"/>
            <g id="Grupo_147723" data-name="Grupo 147723" opacity="0.6">
              <g id="Grupo_147722" data-name="Grupo 147722">
                <g id="Grupo_147721" data-name="Grupo 147721" clip-path="url(#clip-path-12)">
                  <path id="Trazado_114562" data-name="Trazado 114562" d="M864.542,619.091l-24-.8-.154-2.277,22.948.2,1.215,2.613" fill="#fff"/>
                </g>
              </g>
            </g>
            <path id="Trazado_114563" data-name="Trazado 114563" d="M869.187,368.047c18.065,57.016-5.224,126.225.361,192.66.548,6.526,3.2,14.335-2.906,18.051a9.964,9.964,0,0,1-5.508,1.344c-4.878-.16-8.952-2.689-13.306-4.427a39.529,39.529,0,0,0-26.184-1.015c-5.764,1.8-11.48,4.973-17.45,4.07-7.928-1.2-13.066-9.035-20.363-12.356-6.832-3.109-14.723-1.949-22.227-2.137l-.225-.006a16.84,16.84,0,0,1-15.551-21.325c10.9-39.941,47.074-169.69,63.084-193.377l47.864-2.038c4.41,5.33,10.078,13.291,12.411,20.556" fill="#039d95"/>
            <path id="Trazado_114564" data-name="Trazado 114564" d="M852.419,394.887a21.3,21.3,0,0,1-2.6,3.273,74.814,74.814,0,0,1-7.067,7.223,47.53,47.53,0,0,1-8.339,5.735,18.4,18.4,0,0,1-3.8,1.759c-.164-.276,5.687-3,11.62-8.094,2.941-2.564,5.369-5.166,7.173-7a22.379,22.379,0,0,1,3.016-2.893" fill="#263238"/>
            <g id="Grupo_147726" data-name="Grupo 147726" opacity="0.1">
              <g id="Grupo_147725" data-name="Grupo 147725">
                <g id="Grupo_147724" data-name="Grupo 147724" clip-path="url(#clip-path-13)">
                  <path id="Trazado_114565" data-name="Trazado 114565" d="M831.284,416.4a203.932,203.932,0,0,0-8.019,122.039c.857,3.484,1.735,7.446-.249,10.436-2.57,3.872-8.79,3.6-12.308.568s-4.921-7.819-5.8-12.382c-6.571-34.016,5.33-68.2,18.186-100.369"/>
                </g>
              </g>
            </g>
            <rect id="Rectángulo_39160" data-name="Rectángulo 39160" width="90.716" height="4.412" transform="translate(469.084 435.618)" fill="#263238"/>
            <path id="Trazado_114566" data-name="Trazado 114566" d="M455.026,440.03,438.01,376.265h70.832l15.409,63.765Z" fill="#263238"/>
            <path id="Trazado_114567" data-name="Trazado 114567" d="M520.006,435.2H456.728L442,379.212h63.6Z" fill="#f5f5f5"/>
            <path id="Trazado_114568" data-name="Trazado 114568" d="M443.058,383.236h63.615l-1.07-4.025H442Z" fill="#ebebeb"/>
            <path id="Trazado_114569" data-name="Trazado 114569" d="M449.927,381.224a.695.695,0,1,0,.7-.7.695.695,0,0,0-.7.7" fill="#fafafa"/>
            <path id="Trazado_114570" data-name="Trazado 114570" d="M447.534,381.224a.7.7,0,1,0,.7-.7.695.695,0,0,0-.7.7" fill="#fafafa"/>
            <path id="Trazado_114571" data-name="Trazado 114571" d="M445.141,381.224a.7.7,0,1,0,.7-.7.695.695,0,0,0-.7.7" fill="#fafafa"/>
            <path id="Trazado_114572" data-name="Trazado 114572" d="M490.864,407.77l6.966,7.97a9.847,9.847,0,0,0,4.278-8.014c-.023-5.574-5.116-10.14-11.284-10.115s-11.226,4.63-11.2,10.2Z" fill="#039d95"/>
            <path id="Trazado_114573" data-name="Trazado 114573" d="M489.98,409.047a15.913,15.913,0,0,1,1.987,1.993c1.244,1.334,3.022,3.283,5.15,5.663l.241.27-.3.224a12.052,12.052,0,0,1-11.745,1.153,11.49,11.49,0,0,1-4.832-3.885,9.92,9.92,0,0,1-1.792-5.232l-.013-.354.348,0c3.334-.017,6.094,0,8.006.027a17.1,17.1,0,0,1,2.949.143,20.612,20.612,0,0,1-3.067.236c-1.918.09-4.632.189-7.877.274l.334-.355a9.381,9.381,0,0,0,1.736,4.822,10.908,10.908,0,0,0,4.524,3.6,11.55,11.55,0,0,0,11.041-.972l-.059.493c-2.017-2.362-3.682-4.352-4.843-5.77a19.431,19.431,0,0,1-1.789-2.327" fill="#263238"/>
            <path id="Trazado_114574" data-name="Trazado 114574" d="M485.43,401.756a.631.631,0,1,0,.628-.633.63.63,0,0,0-.628.633" fill="#263238"/>
            <path id="Trazado_114575" data-name="Trazado 114575" d="M472.9,397.193c0-.219,3.369-.41,7.525-.426h1.169l.114.115c2.6,2.616,4.495,4.731,4.354,4.873s-2.271-1.736-4.908-4.316l.278.114-1,.008c-4.156.016-7.527-.148-7.528-.367" fill="#263238"/>
            <path id="Trazado_114576" data-name="Trazado 114576" d="M458.653,405.168a23.227,23.227,0,0,1-.721-2.938c-.426-1.934-1.03-4.76-1.722-8.219l-.076-.38.392,0,15.743-.136c-.084-.071.742.611.393.324v.009l0,.012.005.023.009.048.018.094.035.188.071.375.141.747q.141.744.278,1.476.275,1.464.538,2.877c.346,1.875.678,3.674.991,5.374l.079.428-.431,0c-4.728-.012-8.708-.069-11.471-.125l-3.193-.085a4.534,4.534,0,0,1-1.082-.087,7.175,7.175,0,0,1,1.219-.1l3.264-.11c2.78-.078,6.673-.167,11.26-.216l-.351.427c-.331-1.7-.68-3.492-1.045-5.364q-.27-1.41-.552-2.874-.139-.732-.281-1.476l-.142-.746-.072-.376-.035-.188-.018-.094-.009-.047-.005-.024,0-.011v-.009l.389.321-15.744-.012.316-.382c.6,3.345,1.056,6.129,1.371,8.1a30.425,30.425,0,0,1,.438,3.175" fill="#263238"/>
            <path id="Trazado_114577" data-name="Trazado 114577" d="M484.493,414.434a.63.63,0,1,0,.628-.633.63.63,0,0,0-.628.633" fill="#263238"/>
            <path id="Trazado_114578" data-name="Trazado 114578" d="M473.686,414.476c0-.219,2.559-.406,5.717-.419s5.719.155,5.72.374-2.558.406-5.717.419-5.719-.155-5.72-.374" fill="#263238"/>
            <path id="Trazado_114579" data-name="Trazado 114579" d="M458.71,419.445a13.051,13.051,0,0,1-.693-2.1c-.415-1.4-1.01-3.475-1.711-6.06l-.1-.365.386-.007c4.287-.078,9.992-.138,16.234-.162-.343-.267.471.362.388.3v.007l0,.008.005.017.009.034.017.069.035.136.07.271.138.541.274,1.072q.271,1.065.534,2.1l1.005,3.987.118.466h-.476c-4.815-.008-8.92-.064-11.785-.122l-3.321-.091a4.511,4.511,0,0,1-1.131-.1,7.108,7.108,0,0,1,1.271-.105l3.391-.117c2.881-.081,6.894-.168,11.571-.214l-.358.464c-.334-1.274-.681-2.6-1.039-3.978q-.27-1.033-.545-2.1l-.276-1.072-.139-.541-.07-.271-.035-.136-.017-.069-.009-.033,0-.018,0-.008v-.006c-.084-.066.729.562.384.3-6.244.025-11.949.01-16.235-.034l.287-.372c.6,2.49,1.064,4.538,1.38,5.984a18.557,18.557,0,0,1,.447,2.328" fill="#263238"/>
            <path id="Trazado_114580" data-name="Trazado 114580" d="M459.9,397.389c0-.219,2.41-.406,5.384-.418s5.387.157,5.388.376-2.41.405-5.385.417-5.386-.156-5.387-.375" fill="#263238"/>
            <path id="Trazado_114581" data-name="Trazado 114581" d="M460.034,399.152c0-.219,2.424-.406,5.415-.418s5.419.156,5.42.375-2.424.406-5.416.418-5.418-.156-5.419-.375" fill="#263238"/>
            <path id="Trazado_114582" data-name="Trazado 114582" d="M460.355,400.852c0-.219,2.339-.406,5.227-.417s5.229.157,5.23.376-2.339.4-5.227.417-5.229-.157-5.23-.376" fill="#263238"/>
            <path id="Trazado_114583" data-name="Trazado 114583" d="M460.22,414.333c0-.219,2.3-.406,5.132-.417s5.135.157,5.135.377-2.3.4-5.133.416-5.134-.157-5.134-.376" fill="#263238"/>
            <path id="Trazado_114584" data-name="Trazado 114584" d="M460.857,416.283c0-.219,1.959-.4,4.376-.414s4.379.161,4.38.379-1.958.4-4.377.414-4.378-.16-4.379-.379" fill="#263238"/>
            <path id="Trazado_114585" data-name="Trazado 114585" d="M361.654,439.821v8.363h5.476V617.495h11.237V448.184H438V617.495h11.238V448.184H707.949v169.27h11.237V448.184h4.864v-8.363Z" fill="#263238"/>
            <path id="Trazado_114586" data-name="Trazado 114586" d="M605.3,502.909c0,.169,3.272.307,7.307.307s7.307-.138,7.307-.307-3.271-.307-7.307-.307-7.307.138-7.307.307" fill="#263238"/>
            <path id="Trazado_114587" data-name="Trazado 114587" d="M498.873,504.636c-.219,0-.4-.087-.4-.194s.177-.195.4-.195.4.087.4.195-.177.194-.4.194" fill="#455a64"/>
            <path id="Trazado_114588" data-name="Trazado 114588" d="M570.473,353.933,528.5,311.293l-.907-4.616c-.175-.844-.35-1.787-.513-2.858a11.334,11.334,0,0,1,.066-3.757,17.039,17.039,0,0,1,1.293-4.469c.707-1.235-.425-2.724-1.594-2.214s-3.2,3.863-3.636,8.469-4.368-1.505-5.839-3.706-6.331-8.8-7.345-8.874c-1.486-.115-1.865,1.495-.347,3.659,1.537,2.19,5.63,8.976,4.466,9.7l-.045-.007a5.49,5.49,0,0,0-5.8,2.876c-1.059,2.034-2.239,4.92-1.272,6.25a75.55,75.55,0,0,0,6.692,7.088l1.405,1.208s36.311,52.614,44.225,54.324c4.921,1.063,81.014,7.375,81.014,7.375l5.74-20.963Z" fill="#b78876"/>
            <path id="Trazado_114589" data-name="Trazado 114589" d="M506.708,310.868l3.883,3.729a4.613,4.613,0,0,0,1.462,1.073,1.393,1.393,0,0,0,1.924-1.833,4.6,4.6,0,0,0-.893-1.382q-1.887-2.266-3.773-4.535" fill="#b78876"/>
            <path id="Trazado_114590" data-name="Trazado 114590" d="M509.31,307.92c.084-.07.813.651,1.924,1.874l1.918,2.173a7.131,7.131,0,0,1,1.071,1.449,2.054,2.054,0,0,1-.106,2.157,1.9,1.9,0,0,1-2.124.487,4.293,4.293,0,0,1-1.521-1.071l-2.033-2.069a9.164,9.164,0,0,1-1.732-2.052,9.09,9.09,0,0,1,2.12,1.647l2.148,1.945a3.781,3.781,0,0,0,1.27.865,1.154,1.154,0,0,0,1.25-.243,1.317,1.317,0,0,0,.026-1.332,7.183,7.183,0,0,0-.93-1.316c-.615-.785-1.21-1.543-1.788-2.282a9.143,9.143,0,0,1-1.493-2.232" fill="#aa6550"/>
            <path id="Trazado_114591" data-name="Trazado 114591" d="M509.463,308.153l3.883,3.729a4.612,4.612,0,0,0,1.462,1.073,1.394,1.394,0,0,0,1.925-1.833,4.63,4.63,0,0,0-.894-1.382q-1.887-2.266-3.773-4.535" fill="#b78876"/>
            <path id="Trazado_114592" data-name="Trazado 114592" d="M512.066,305.206c.084-.07.813.651,1.924,1.874l1.918,2.173a7.115,7.115,0,0,1,1.071,1.45,2.052,2.052,0,0,1-.106,2.156,1.9,1.9,0,0,1-2.124.487,4.292,4.292,0,0,1-1.521-1.071l-2.033-2.069a9.136,9.136,0,0,1-1.732-2.052,9.092,9.092,0,0,1,2.12,1.647l2.148,1.945a3.78,3.78,0,0,0,1.27.865,1.154,1.154,0,0,0,1.25-.243,1.317,1.317,0,0,0,.026-1.332,7.183,7.183,0,0,0-.93-1.316c-.615-.785-1.21-1.543-1.788-2.282a9.1,9.1,0,0,1-1.493-2.232" fill="#aa6550"/>
            <path id="Trazado_114593" data-name="Trazado 114593" d="M512.487,305.929l3.883,3.729a4.613,4.613,0,0,0,1.462,1.073,1.394,1.394,0,0,0,1.925-1.833,4.619,4.619,0,0,0-.894-1.382q-1.887-2.266-3.773-4.535" fill="#b78876"/>
            <path id="Trazado_114594" data-name="Trazado 114594" d="M515.089,302.981c.084-.07.813.651,1.924,1.874l1.918,2.173a7.114,7.114,0,0,1,1.071,1.45,2.052,2.052,0,0,1-.106,2.156,1.9,1.9,0,0,1-2.124.487,4.293,4.293,0,0,1-1.521-1.071l-2.033-2.069a9.134,9.134,0,0,1-1.732-2.052,9.092,9.092,0,0,1,2.12,1.647l2.148,1.945a3.779,3.779,0,0,0,1.27.865,1.154,1.154,0,0,0,1.25-.243,1.317,1.317,0,0,0,.026-1.332,7.183,7.183,0,0,0-.93-1.316c-.616-.785-1.21-1.543-1.788-2.282a9.106,9.106,0,0,1-1.493-2.232" fill="#aa6550"/>
            <path id="Trazado_114595" data-name="Trazado 114595" d="M518.623,312.38c-.01-.125.962-.32,2.365.111l-.447.383a6.633,6.633,0,0,1-.1-2.667,6.781,6.781,0,0,1,1.454-3.245c.6-.7,1.1-.974,1.166-.9.168.151-1.449,1.71-1.838,4.271a7.96,7.96,0,0,0-.023,2.407l.083.608-.53-.225c-1.215-.518-2.137-.588-2.131-.743" fill="#aa6550"/>
            <path id="Trazado_114596" data-name="Trazado 114596" d="M625.449,290.009l.179,58.408L602.853,349.5l-.922-14s-10.986,1.669-13.283-6.6c-1.466-5.28-1.1-46.087-1.1-46.087Z" fill="#b78876"/>
            <path id="Trazado_114597" data-name="Trazado 114597" d="M581.89,288.581c1.688,3.49,9.725,9.877,9.725,9.877l3.631,9.73c3.154-2.469,7.388-2.328,8.19,3.214.579,4.005-4.4,4.815-4.4,4.815,2.9,4.933,4.864,8.923,9.085,13.615,4.568,5.077,7.127,5.589,12.081,5.672h5.462s11.179-9.34,8.969-33.942-24.326-17.424-29.6-23.571c-8.6-10.011-28.772-1.061-23.138,10.59" fill="#263238"/>
            <path id="Trazado_114598" data-name="Trazado 114598" d="M633.391,322.132a7.833,7.833,0,0,1-2.7-.123,14.052,14.052,0,0,1-6.526-3.358c-2.393-2.054-4.5-5.19-6.6-8.723-2.128-3.476-4.453-7.533-8.369-10.236-3.962-2.65-8.62-3.19-12.618-4.008-4.037-.759-7.7-1.912-10.189-3.878a10.949,10.949,0,0,1-4.082-6.047,6.264,6.264,0,0,1-.11-2.7,9.209,9.209,0,0,0,.231,2.673,10.953,10.953,0,0,0,4.1,5.9c2.464,1.907,6.079,3.027,10.108,3.768,3.988.8,8.687,1.327,12.74,4.032,4,2.764,6.325,6.866,8.441,10.349,2.085,3.539,4.151,6.656,6.494,8.7a14.2,14.2,0,0,0,6.4,3.4,11.105,11.105,0,0,0,1.98.235c.457,0,.7.009.7.009" fill="#455a64"/>
            <path id="Trazado_114599" data-name="Trazado 114599" d="M634.681,302.122s-.407-.118-1.177-.357a17.769,17.769,0,0,0-3.428-.762,7.694,7.694,0,0,0-5.275,1.181,4.329,4.329,0,0,0-1.835,2.769,3.857,3.857,0,0,0,1.062,3.486,2.945,2.945,0,0,0,1.842.73,3.879,3.879,0,0,0,2.028-.554,6.231,6.231,0,0,0,2.753-3.515,8.717,8.717,0,0,0-7.348-11.433,15.3,15.3,0,0,0-5.661.744,39.917,39.917,0,0,1-5.859,1.408,23.834,23.834,0,0,1-6.213.016,20.525,20.525,0,0,1-5.992-1.661,7.237,7.237,0,0,1-4.1-4.323,5.651,5.651,0,0,1,1.393-5.517,4.866,4.866,0,0,1,5.35-.79,4.079,4.079,0,0,1,1.983,1.867,4.478,4.478,0,0,1,.421,2.62,5.959,5.959,0,0,1-2.666,4.174,8.558,8.558,0,0,1-4.5,1.252,13.268,13.268,0,0,1-4.268-.658,15.277,15.277,0,0,1-6.27-3.866,16.048,16.048,0,0,1-3.2-4.568,16.253,16.253,0,0,1-1.133-3.344c-.136-.8-.191-1.217-.191-1.217s.1.414.253,1.2a17.089,17.089,0,0,0,1.183,3.305,16.1,16.1,0,0,0,3.216,4.5,15.154,15.154,0,0,0,6.211,3.777,13.075,13.075,0,0,0,4.2.627,8.314,8.314,0,0,0,4.362-1.228,5.69,5.69,0,0,0,2.532-3.989,3.914,3.914,0,0,0-2.249-4.185,4.571,4.571,0,0,0-5.019.742,5.354,5.354,0,0,0-1.3,5.215,6.941,6.941,0,0,0,3.938,4.123,20.25,20.25,0,0,0,5.9,1.63,23.55,23.55,0,0,0,6.13-.014,39.9,39.9,0,0,0,5.818-1.394,15.547,15.547,0,0,1,5.775-.746,8.994,8.994,0,0,1,7.566,11.817,6.472,6.472,0,0,1-2.881,3.644,4.122,4.122,0,0,1-2.158.577,3.174,3.174,0,0,1-1.983-.8,4.062,4.062,0,0,1-1.111-3.687,4.514,4.514,0,0,1,1.931-2.879,7.8,7.8,0,0,1,5.391-1.159,16.792,16.792,0,0,1,3.434.825c.765.258,1.158.417,1.158.417" fill="#455a64"/>
            <path id="Trazado_114600" data-name="Trazado 114600" d="M605.734,603.236l-7.444-9.551,17.8-14.058,11.039,13.858-1.048.942c-4.7,4.152-24.174,20.78-28.243,22.378-4.54,1.781,7.9-13.569,7.9-13.569" fill="#039d95"/>
            <g id="Grupo_147729" data-name="Grupo 147729" opacity="0.4">
              <g id="Grupo_147728" data-name="Grupo 147728">
                <g id="Grupo_147727" data-name="Grupo 147727" clip-path="url(#clip-path-14)">
                  <path id="Trazado_114601" data-name="Trazado 114601" d="M599.866,611s-4.094,5.716-2.743,6.066,21.666-15.712,30.006-23.581l-.342-.375-23.536,18.938s-2.315-1.823-3.385-1.048" fill="#fff"/>
                </g>
              </g>
            </g>
            <path id="Trazado_114602" data-name="Trazado 114602" d="M627.057,592.877a2.1,2.1,0,0,1-.279.275l-.837.748-3.124,2.7c-2.654,2.258-6.361,5.329-10.529,8.63s-8.009,6.207-10.814,8.273l-3.341,2.422-.919.643a2.232,2.232,0,0,1-.331.21,2.015,2.015,0,0,1,.3-.254l.889-.685,3.287-2.492c2.775-2.1,6.593-5.033,10.761-8.332s7.89-6.345,10.574-8.564q1.881-1.554,3.179-2.629l.871-.708a2.129,2.129,0,0,1,.315-.233" fill="#263238"/>
            <path id="Trazado_114603" data-name="Trazado 114603" d="M603.474,612.32a5.992,5.992,0,0,0-3.906-1.432,3.664,3.664,0,0,1,3.906,1.432" fill="#263238"/>
            <path id="Trazado_114604" data-name="Trazado 114604" d="M606.618,605.505a2.383,2.383,0,0,1-1.1-.239c-.583-.2-1.035-.427-1.01-.5a2.412,2.412,0,0,1,1.1.239c.583.2,1.035.427,1.01.5" fill="#263238"/>
            <path id="Trazado_114605" data-name="Trazado 114605" d="M607.456,603.6c-.005.076-.434.111-.958.077s-.945-.121-.941-.2.434-.11.958-.077.946.121.941.2" fill="#263238"/>
            <path id="Trazado_114606" data-name="Trazado 114606" d="M607.039,601.205c.048.059-.326.441-.835.852s-.96.7-1.007.639.326-.441.834-.852.96-.7,1.008-.639" fill="#263238"/>
            <path id="Trazado_114607" data-name="Trazado 114607" d="M606.416,599.774a3.337,3.337,0,0,1-1.98,1.823c-.039-.069.459-.407,1-.9s.918-.962.984-.918" fill="#263238"/>
            <path id="Trazado_114608" data-name="Trazado 114608" d="M604.787,604.43a4.207,4.207,0,0,1-1.149.9,8.557,8.557,0,0,1-1.429.694,4.243,4.243,0,0,1-.924.264.785.785,0,0,1-.564-.132.572.572,0,0,1-.188-.593,2.673,2.673,0,0,1,3.078-1.438,2.632,2.632,0,0,1,.976.468c.2.16.285.274.274.286a4.137,4.137,0,0,0-1.292-.564,2.632,2.632,0,0,0-1.479.138,2.264,2.264,0,0,0-1.289,1.17c-.075.278.164.436.461.4a4.39,4.39,0,0,0,.86-.234,10,10,0,0,0,1.42-.625c.78-.42,1.217-.763,1.245-.728" fill="#263238"/>
            <path id="Trazado_114609" data-name="Trazado 114609" d="M604.536,604.721c-.007.025-.406-.133-.76-.69a2.393,2.393,0,0,1-.348-1.082,1.463,1.463,0,0,1,.491-1.335.58.58,0,0,1,.77.249,1.6,1.6,0,0,1,.21.665,4.459,4.459,0,0,1,.007,1.118,2.1,2.1,0,0,1-.289.981c-.042-.013.066-.386.095-1a5.077,5.077,0,0,0-.064-1.064c-.034-.366-.27-.885-.6-.71a1.3,1.3,0,0,0-.369,1.08,2.4,2.4,0,0,0,.264,1,5.322,5.322,0,0,0,.591.786" fill="#263238"/>
            <path id="Trazado_114610" data-name="Trazado 114610" d="M622.845,588.3c.028.043-.548.354-1.277,1.085a7.1,7.1,0,0,0-1.723,7.4c.331.977.71,1.51.666,1.537a1.317,1.317,0,0,1-.284-.358,6,6,0,0,1-.565-1.113,6.894,6.894,0,0,1,1.771-7.606,5.962,5.962,0,0,1,1-.749,1.3,1.3,0,0,1,.413-.2" fill="#263238"/>
            <path id="Trazado_114611" data-name="Trazado 114611" d="M615.146,582.35a79.259,79.259,0,0,1,5.875,7.239,78.8,78.8,0,0,1-5.875-7.239" fill="#263238"/>
            <path id="Trazado_114612" data-name="Trazado 114612" d="M616.954,598.477a18.579,18.579,0,0,1-5.16,4.16c-.044-.067,1.174-.914,2.594-2.063s2.51-2.154,2.566-2.1" fill="#263238"/>
            <path id="Trazado_114613" data-name="Trazado 114613" d="M620.437,595.715c.078.009.1.321.192.682s.214.648.15.692-.314-.208-.417-.626,0-.761.075-.748" fill="#263238"/>
            <path id="Trazado_114614" data-name="Trazado 114614" d="M620.458,593.04c.076.008.107.284.07.616s-.127.595-.2.587-.107-.284-.071-.617.128-.594.2-.586" fill="#263238"/>
            <path id="Trazado_114615" data-name="Trazado 114615" d="M621.748,590.806c.036.07-.2.255-.391.554s-.267.587-.346.583-.124-.367.115-.732.6-.474.622-.4" fill="#263238"/>
            <path id="Trazado_114616" data-name="Trazado 114616" d="M622.808,589.4c.065.039.035.211-.067.385s-.238.283-.3.245-.035-.211.067-.385.239-.283.3-.245" fill="#263238"/>
            <g id="Grupo_147732" data-name="Grupo 147732" opacity="0.3">
              <g id="Grupo_147731" data-name="Grupo 147731">
                <g id="Grupo_147730" data-name="Grupo 147730" clip-path="url(#clip-path-15)">
                  <path id="Trazado_114617" data-name="Trazado 114617" d="M622.444,587.838,604.435,601.6l-1.665-2.165L621.7,586.6Z"/>
                </g>
              </g>
            </g>
            <path id="Trazado_114618" data-name="Trazado 114618" d="M523.873,612.825l.033-12.109,22.683-.083.139,17.716-1.406.095c-6.258.371-31.845,1.443-36.033.19-4.672-1.4,14.584-5.809,14.584-5.809" fill="#039d95"/>
            <g id="Grupo_147735" data-name="Grupo 147735" opacity="0.4">
              <g id="Grupo_147734" data-name="Grupo 147734">
                <g id="Grupo_147733" data-name="Grupo 147733" clip-path="url(#clip-path-16)">
                  <path id="Trazado_114619" data-name="Trazado 114619" d="M514.465,615.316s-6.748,1.973-5.9,3.083,26.745,1,38.164-.05l-.039-.506-30.206.386s-.7-2.863-2.018-2.913" fill="#fff"/>
                </g>
              </g>
            </g>
            <path id="Trazado_114620" data-name="Trazado 114620" d="M547.046,617.827a1.993,1.993,0,0,1-.39.044l-1.119.072-4.122.2c-3.482.141-8.294.27-13.611.3s-10.132-.056-13.615-.161l-4.123-.154-1.121-.061a2.019,2.019,0,0,1-.389-.04,2.176,2.176,0,0,1,.391-.015l1.122.01,4.124.066c3.483.055,8.294.106,13.61.08s10.124-.126,13.605-.217l4.124-.108,1.122-.02a2.142,2.142,0,0,1,.392.011" fill="#263238"/>
            <path id="Trazado_114621" data-name="Trazado 114621" d="M516.49,618.581a9.367,9.367,0,0,0-.778-1.965,9.228,9.228,0,0,0-1.413-1.572,3.666,3.666,0,0,1,2.191,3.537" fill="#263238"/>
            <path id="Trazado_114622" data-name="Trazado 114622" d="M523.169,615.157c-.064.041-.386-.347-.719-.867s-.551-.975-.487-1.016.386.348.719.867.551.975.487,1.016" fill="#263238"/>
            <path id="Trazado_114623" data-name="Trazado 114623" d="M525,614.178c-.051.056-.41-.181-.8-.53s-.669-.679-.619-.735.41.18.8.53.669.678.619.735" fill="#263238"/>
            <path id="Trazado_114624" data-name="Trazado 114624" d="M526.153,612.032a5.177,5.177,0,1,1-1.187-.119,2.668,2.668,0,0,1,1.187.119" fill="#263238"/>
            <path id="Trazado_114625" data-name="Trazado 114625" d="M526.545,610.521a3.331,3.331,0,0,1-2.683.214,100.135,100.135,0,0,0,2.683-.214" fill="#263238"/>
            <path id="Trazado_114626" data-name="Trazado 114626" d="M522.391,613.181a4.185,4.185,0,0,1-1.458,0,8.548,8.548,0,0,1-1.553-.335,4.308,4.308,0,0,1-.89-.362.791.791,0,0,1-.362-.452.57.57,0,0,1,.218-.583,2.674,2.674,0,0,1,3.309.767,2.61,2.61,0,0,1,.479.971.81.81,0,0,1,.04.394,4.115,4.115,0,0,0-.67-1.241,2.63,2.63,0,0,0-1.248-.8,2.263,2.263,0,0,0-1.737.126c-.23.172-.139.444.119.6a4.383,4.383,0,0,0,.821.346,9.993,9.993,0,0,0,1.5.384c.873.151,1.429.15,1.429.2" fill="#263238"/>
            <path id="Trazado_114627" data-name="Trazado 114627" d="M522.014,613.255a1.434,1.434,0,0,1-.172-1.011,2.391,2.391,0,0,1,.393-1.067,1.463,1.463,0,0,1,1.21-.748.581.581,0,0,1,.453.671,1.6,1.6,0,0,1-.245.652,4.429,4.429,0,0,1-.685.885,2.1,2.1,0,0,1-.832.594c-.025-.036.29-.263.689-.726a5.115,5.115,0,0,0,.607-.877c.2-.309.333-.863-.032-.928-.365-.033-.736.331-.958.623a2.4,2.4,0,0,0-.408.949,5.275,5.275,0,0,0-.02.983" fill="#263238"/>
            <path id="Trazado_114628" data-name="Trazado 114628" d="M546.556,611.623c-.005.051-.65-.059-1.675.066a7.108,7.108,0,0,0-5.92,4.761c-.343.974-.373,1.627-.424,1.621a1.293,1.293,0,0,1,0-.457,5.994,5.994,0,0,1,.242-1.225,6.893,6.893,0,0,1,6.086-4.893,6.019,6.019,0,0,1,1.248.026,1.308,1.308,0,0,1,.446.1" fill="#263238"/>
            <path id="Trazado_114629" data-name="Trazado 114629" d="M544.165,602.193a79.353,79.353,0,0,1,.158,9.321,79.352,79.352,0,0,1-.158-9.321" fill="#263238"/>
            <path id="Trazado_114630" data-name="Trazado 114630" d="M535.639,616a18.611,18.611,0,0,1-6.628.091c.007-.08,1.489.005,3.314-.023s3.3-.147,3.314-.068" fill="#263238"/>
            <path id="Trazado_114631" data-name="Trazado 114631" d="M540.085,615.976c.056.055-.12.314-.27.655s-.231.642-.309.637-.118-.358.058-.749.472-.6.521-.543" fill="#263238"/>
            <path id="Trazado_114632" data-name="Trazado 114632" d="M541.751,613.884c.054.053-.091.29-.325.528s-.467.39-.521.337.091-.29.325-.529.467-.389.521-.336" fill="#263238"/>
            <path id="Trazado_114633" data-name="Trazado 114633" d="M544.144,612.921c-.016.077-.317.076-.65.194s-.572.3-.631.246.128-.365.542-.505.762-.005.739.065" fill="#263238"/>
            <path id="Trazado_114634" data-name="Trazado 114634" d="M545.849,612.464c.028.071-.1.188-.29.261s-.363.077-.39.006.1-.188.289-.261.363-.076.391-.006" fill="#263238"/>
            <g id="Grupo_147738" data-name="Grupo 147738" opacity="0.3">
              <g id="Grupo_147737" data-name="Grupo 147737">
                <g id="Grupo_147736" data-name="Grupo 147736" clip-path="url(#clip-path-17)">
                  <path id="Trazado_114635" data-name="Trazado 114635" d="M546.728,610.711l-22.866.023.024-2.731,22.76-.15Z"/>
                </g>
              </g>
            </g>
            <path id="Trazado_114636" data-name="Trazado 114636" d="M579.863,403.819l-9.082,27.351c-2.453,7.387-8.907,8.65-16.69,8.65H503.566V428.486l46.159-6.591,11-28.1Z" fill="#b78876"/>
            <path id="Trazado_114637" data-name="Trazado 114637" d="M498.013,426.131l-4.009-1.9s-4.319-8.351-5.315-8.017-1.28,2.793.454,6.629l-5.325-1.521s-11.547,5.335-11.037,6.054,1.457,2.42,3.973,1.134,5.809-2.795,5.809-2.795l6.221,1.776-8.021,1.018-7.546,6.866s2.478,1.853,4.615-.114l19.6,4.21,6.138.347V428.486Z" fill="#b78876"/>
            <path id="Trazado_114638" data-name="Trazado 114638" d="M477.832,435.263c.084.055.448-.525,1.154-1.294a5.956,5.956,0,0,1,1.426-1.1,5.847,5.847,0,0,1,2.117-.553c3.265-.387,5.9-.835,5.88-1s-2.683.007-5.956.395a5.767,5.767,0,0,0-2.324.672,5.461,5.461,0,0,0-1.472,1.309,3.494,3.494,0,0,0-.825,1.577" fill="#aa6550"/>
            <path id="Trazado_114639" data-name="Trazado 114639" d="M480.9,436.05c.074,0,.135-.4.685-.523.56-.1,1.452-.208,2.381-.3a19.477,19.477,0,0,0,3.445-.351,6.922,6.922,0,0,0-3.505-.26,10.44,10.44,0,0,0-2.466.506.987.987,0,0,0-.6.616c-.05.211.019.321.056.315" fill="#aa6550"/>
            <path id="Trazado_114640" data-name="Trazado 114640" d="M584.144,397.856l-3.886,13.163L555.6,399.854c.887-2.754,4.965-15.031,12.773-34.51a33.49,33.49,0,0,1,25.562-20.6c8.07-1.342,16.851-2.39,23.612-2.315,13.828.153,34.186,8.8,36.921,22.352,2.088,10.347.074,28.615.074,50.812l-1.8,42.41-70.863,2.4Z" fill="#039d95"/>
            <g id="Grupo_147741" data-name="Grupo 147741" opacity="0.3">
              <g id="Grupo_147740" data-name="Grupo 147740">
                <g id="Grupo_147739" data-name="Grupo 147739" clip-path="url(#clip-path-18)">
                  <path id="Trazado_114641" data-name="Trazado 114641" d="M654.466,405.773c-8.623,1.764-17.477-.014-26.263-.536-5.327-.316-11.237-.892-15.451,2.383-3.341,2.6-4.686,6.961-5.651,11.081-3.675,15.705-4.344,26.232-5.17,42.34l42.655,2.586Z"/>
                </g>
              </g>
            </g>
            <path id="Trazado_114642" data-name="Trazado 114642" d="M582.327,351.826c-.01.063.71.105,1.885.566a9.842,9.842,0,0,1,4.081,3.3,13.762,13.762,0,0,1,2.439,7.384,46.508,46.508,0,0,1-.745,9.715,162.945,162.945,0,0,1-3.96,17.37l-1.433,5.218a12.206,12.206,0,0,0-.454,1.936,12.35,12.35,0,0,0,.683-1.867c.4-1.215.962-2.977,1.621-5.167a135.044,135.044,0,0,0,4.148-17.395,44.775,44.775,0,0,0,.7-9.851,13.928,13.928,0,0,0-2.655-7.6,9.648,9.648,0,0,0-4.344-3.267,7.113,7.113,0,0,0-1.451-.331,1.665,1.665,0,0,0-.518-.012" fill="#263238"/>
            <path id="Trazado_114643" data-name="Trazado 114643" d="M556.369,396.495a23.746,23.746,0,0,0,3.474,1.992c2.19,1.148,5.255,2.659,8.694,4.21s6.6,2.848,8.912,3.73a23.886,23.886,0,0,0,3.793,1.285,28,28,0,0,0-3.629-1.686c-2.264-.984-5.391-2.341-8.824-3.888s-6.518-2.993-8.753-4.039a28.185,28.185,0,0,0-3.667-1.6" fill="#263238"/>
            <path id="Trazado_114644" data-name="Trazado 114644" d="M545.071,463.628a25.255,25.255,0,0,0-10.313,33.823l61.678,105.9,28.456-17.188L577,490.55l34.713-22.659" fill="#263238"/>
            <path id="Trazado_114645" data-name="Trazado 114645" d="M620.169,458.375l-84.669,3A25.253,25.253,0,0,0,511.143,487l3.514,120.928,35.609-.079-1.188-114.335,71.091-1.87Z" fill="#263238"/>
            <path id="Trazado_114646" data-name="Trazado 114646" d="M549.077,497.652a5.955,5.955,0,0,1,.1,1.118c.035.811.081,1.877.138,3.209.106,2.787.214,6.821.319,11.807.212,9.971.355,23.748.431,38.962.078,15.18.148,28.917.2,38.966.027,4.919.05,8.931.066,11.808,0,1.332-.008,2.4-.011,3.211a6.033,6.033,0,0,1-.057,1.121,5.853,5.853,0,0,1-.1-1.118c-.035-.811-.081-1.877-.138-3.208-.106-2.787-.214-6.821-.319-11.807-.212-9.971-.355-23.749-.432-38.969-.077-15.174-.148-28.91-.2-38.958-.028-4.92-.05-8.932-.066-11.809,0-1.333.008-2.4.01-3.212a6.061,6.061,0,0,1,.058-1.121" fill="#455a64"/>
            <path id="Trazado_114647" data-name="Trazado 114647" d="M656.846,381.634H631.231a18.67,18.67,0,0,0-18.67,18.671v89.368H561.383A12.928,12.928,0,0,0,548.454,502.6H665.306c0-.025,0-.049,0-.074a10.664,10.664,0,0,0,10.214-10.649V400.3a18.671,18.671,0,0,0-18.671-18.671" fill="#455a64"/>
            <path id="Trazado_114648" data-name="Trazado 114648" d="M620.008,384.582c.219,0,.4,26.264.4,58.654s-.178,58.659-.4,58.659-.4-26.258-.4-58.659.177-58.654.4-58.654" fill="#263238"/>
            <path id="Trazado_114649" data-name="Trazado 114649" d="M616.771,596.4V502.652h-8.328V596.4c-5.084,10.022-17.037,16.8-31.6,22.356h74.243c-15.078-6.125-28.685-10.828-34.317-22.356" fill="#455a64"/>
            <path id="Trazado_114650" data-name="Trazado 114650" d="M147.767,584.269a3.441,3.441,0,0,1,.231-.556l.746-1.591a39.924,39.924,0,0,0,2.192-6.367c1.45-5.661,1.956-14.313-.187-24.59a131.979,131.979,0,0,0-4.561-16.516c-1.931-5.862-4.172-12.082-6-18.8a72.779,72.779,0,0,1-2.965-21.62c.278-7.648,2.542-15.281,5.032-22.88s5.054-15.05,5.824-22.532a34.348,34.348,0,0,0-4.13-20.81c-3.3-6.072-7.443-11.265-10.546-16.645a57.809,57.809,0,0,1-6.338-16,59.592,59.592,0,0,1-.4-24.789,46.153,46.153,0,0,1,2.587-8.755,3.337,3.337,0,0,1-.153.582c-.13.414-.3.97-.524,1.678a63.932,63.932,0,0,0-1.608,6.553,60.4,60.4,0,0,0,.643,24.6,57.667,57.667,0,0,0,6.36,15.8c3.1,5.315,7.26,10.486,10.621,16.63a35.037,35.037,0,0,1,4.26,21.232c-.775,7.61-3.364,15.1-5.843,22.7s-4.727,15.145-5.01,22.664a72.381,72.381,0,0,0,2.894,21.4c1.8,6.691,4.017,12.912,5.923,18.79a130.3,130.3,0,0,1,4.487,16.615c2.087,10.352,1.492,19.091-.063,24.772a36.7,36.7,0,0,1-2.346,6.358c-.345.659-.617,1.176-.819,1.562a3.324,3.324,0,0,1-.3.518" fill="#536d7b"/>
            <path id="Trazado_114651" data-name="Trazado 114651" d="M137.615,416.664s-6.3-20.15,5-31.948a.7.7,0,0,1,1.2.346c.6,3.328,1.358,13.463-6.2,31.6" fill="#aeffcc"/>
            <path id="Trazado_114652" data-name="Trazado 114652" d="M141.39,391.43a18.518,18.518,0,0,1-.424,3.717c-.415,2.561-.9,5.567-1.438,8.888s-1,6.327-1.411,8.887a20.307,20.307,0,0,1-.667,3.678,15.582,15.582,0,0,1,.113-3.746c.208-2.3.614-5.469,1.186-8.946s1.175-6.607,1.668-8.863a16.815,16.815,0,0,1,.973-3.615" fill="#536d7b"/>
            <path id="Trazado_114653" data-name="Trazado 114653" d="M145.017,464.188s3.854-20.757,19.362-25.9a.7.7,0,0,1,.9.867c-1.023,3.223-5.1,12.535-20.259,25.033" fill="#aeffcc"/>
            <path id="Trazado_114654" data-name="Trazado 114654" d="M160.155,443.649a18.556,18.556,0,0,1-2.114,3.088l-5.426,7.183-5.4,7.195a20.3,20.3,0,0,1-2.31,2.939,15.594,15.594,0,0,1,1.851-3.258c1.261-1.937,3.1-4.547,5.232-7.353s4.129-5.291,5.619-7.053a16.781,16.781,0,0,1,2.551-2.741" fill="#536d7b"/>
            <path id="Trazado_114655" data-name="Trazado 114655" d="M140.826,516.262s-2.341-20.982,11-30.407a.7.7,0,0,1,1.11.569c-.042,3.381-1.235,13.474-12.115,29.838" fill="#aeffcc"/>
            <path id="Trazado_114656" data-name="Trazado 114656" d="M149.346,492.212a18.5,18.5,0,0,1-1.126,3.568c-.9,2.435-1.946,5.293-3.106,8.45s-2.193,6.019-3.081,8.455a20.411,20.411,0,0,1-1.356,3.483,15.578,15.578,0,0,1,.825-3.655c.644-2.221,1.647-5.252,2.871-8.556s2.414-6.262,3.328-8.382a16.788,16.788,0,0,1,1.645-3.363" fill="#536d7b"/>
            <path id="Trazado_114657" data-name="Trazado 114657" d="M152.508,568.641s-1.588-21.052,12.087-29.993a.7.7,0,0,1,1.089.608c-.164,3.377-1.718,13.421-13.176,29.385" fill="#aeffcc"/>
            <path id="Trazado_114658" data-name="Trazado 114658" d="M161.884,544.911a18.551,18.551,0,0,1-1.253,3.526c-.981,2.4-2.134,5.219-3.407,8.333s-2.407,5.936-3.381,8.339a20.154,20.154,0,0,1-1.481,3.432,15.676,15.676,0,0,1,.956-3.623c.723-2.2,1.834-5.19,3.175-8.448s2.637-6.171,3.626-8.257a16.826,16.826,0,0,1,1.765-3.3" fill="#536d7b"/>
            <path id="Trazado_114659" data-name="Trazado 114659" d="M128.559,398.96s-18.714-9.773-19.081-26.108a.7.7,0,0,1,1.091-.6c2.782,1.923,10.489,8.549,17.99,26.711" fill="#aeffcc"/>
            <path id="Trazado_114660" data-name="Trazado 114660" d="M113.364,378.464a18.479,18.479,0,0,1,2.332,2.926l5.275,7.3c1.979,2.719,3.769,5.179,5.294,7.276a20.177,20.177,0,0,1,2.132,3.07,15.632,15.632,0,0,1-2.571-2.726c-1.482-1.774-3.438-4.3-5.495-7.159s-3.847-5.5-5.1-7.44a16.791,16.791,0,0,1-1.872-3.243" fill="#536d7b"/>
            <path id="Trazado_114661" data-name="Trazado 114661" d="M148.654,442.234s-19.273-8.618-20.631-24.9a.7.7,0,0,1,1.052-.668c2.894,1.75,10.989,7.9,19.579,25.569" fill="#aeffcc"/>
            <path id="Trazado_114662" data-name="Trazado 114662" d="M132.243,422.7a18.483,18.483,0,0,1,2.505,2.779l5.709,6.962c2.14,2.594,4.077,4.941,5.726,6.941a20.1,20.1,0,0,1,2.314,2.935,15.667,15.667,0,0,1-2.731-2.564c-1.588-1.681-3.693-4.082-5.92-6.812s-4.174-5.255-5.538-7.118a16.819,16.819,0,0,1-2.065-3.123" fill="#536d7b"/>
            <path id="Trazado_114663" data-name="Trazado 114663" d="M137.565,490.5s-13.233-16.45-7.026-31.564a.7.7,0,0,1,1.241-.116c1.779,2.876,6.187,12.034,5.785,31.68" fill="#aeffcc"/>
            <path id="Trazado_114664" data-name="Trazado 114664" d="M131.852,465.637a18.471,18.471,0,0,1,.964,3.615c.551,2.535,1.2,5.511,1.912,8.8l1.937,8.787a20.194,20.194,0,0,1,.723,3.667,15.632,15.632,0,0,1-1.264-3.527c-.648-2.219-1.428-5.315-2.168-8.76s-1.322-6.58-1.688-8.859a16.8,16.8,0,0,1-.416-3.721" fill="#536d7b"/>
            <path id="Trazado_114665" data-name="Trazado 114665" d="M150.673,547.306s-19.125-8.941-20.21-25.244a.7.7,0,0,1,1.064-.65c2.863,1.8,10.854,8.079,19.146,25.894" fill="#aeffcc"/>
            <path id="Trazado_114666" data-name="Trazado 114666" d="M134.592,527.5a18.538,18.538,0,0,1,2.457,2.821c1.611,2.033,3.5,4.42,5.592,7.056s3.992,5.01,5.608,7.037a20.267,20.267,0,0,1,2.265,2.973,15.617,15.617,0,0,1-2.688-2.61c-1.56-1.707-3.624-4.143-5.805-6.91s-4.085-5.324-5.417-7.21a16.615,16.615,0,0,1-2.012-3.157" fill="#536d7b"/>
            <path id="Trazado_114667" data-name="Trazado 114667" d="M188.767,464.3a1.551,1.551,0,0,1,.024.465c-.009.368-.02.811-.033,1.35-.056,1.268-.132,2.981-.227,5.119-.246,4.5-.59,10.775-1,18.281v.018l-.005.025c-1.365,7.64-5.256,16.107-10.482,24.328-3.833,6.056-7.852,11.562-11.318,16.683a118.335,118.335,0,0,0-8.485,14.026,59.509,59.509,0,0,0-3.97,10.294c-.336,1.261-.589,2.244-.734,2.917a5.268,5.268,0,0,1-.28,1.017,5.3,5.3,0,0,1,.124-1.048c.1-.685.3-1.683.593-2.964a54.294,54.294,0,0,1,3.764-10.459,111.831,111.831,0,0,1,8.385-14.19c3.442-5.157,7.439-10.671,11.253-16.7,5.2-8.181,9.069-16.519,10.485-24.036l0,.043c.527-7.5.967-13.768,1.283-18.264.173-2.133.311-3.842.413-5.107.054-.536.1-.978.135-1.343a1.59,1.59,0,0,1,.082-.459" fill="#536d7b"/>
            <path id="Trazado_114668" data-name="Trazado 114668" d="M177.38,512.316s8.1-19.5-2.09-32.269a.7.7,0,0,0-1.224.236c-.9,3.259-2.571,13.284,3.314,32.033" fill="#aeffcc"/>
            <path id="Trazado_114669" data-name="Trazado 114669" d="M175.9,486.844a16.767,16.767,0,0,1,.642,3.689c.287,2.29.607,5.463.859,8.976s.371,6.706.37,9.018a15.6,15.6,0,0,1-.226,3.74,20.256,20.256,0,0,1-.332-3.723c-.173-2.587-.376-5.623-.6-8.979s-.446-6.393-.627-8.981a18.6,18.6,0,0,1-.086-3.74" fill="#536d7b"/>
            <g id="Grupo_147744" data-name="Grupo 147744" opacity="0.3">
              <g id="Grupo_147743" data-name="Grupo 147743">
                <g id="Grupo_147742" data-name="Grupo 147742" clip-path="url(#clip-path-19)">
                  <path id="Trazado_114670" data-name="Trazado 114670" d="M177.38,512.316s8.1-19.5-2.09-32.269a.7.7,0,0,0-1.224.236c-.9,3.259-2.571,13.284,3.314,32.033"/>
                </g>
              </g>
            </g>
            <path id="Trazado_114671" data-name="Trazado 114671" d="M152.292,559.3s6.492-20.089-4.7-31.994a.7.7,0,0,0-1.2.335c-.635,3.321-1.485,13.449,5.9,31.659" fill="#aeffcc"/>
            <path id="Trazado_114672" data-name="Trazado 114672" d="M148.756,534.03a16.831,16.831,0,0,1,.939,3.624c.472,2.26,1.048,5.4,1.584,8.878s.914,6.653,1.1,8.958a15.609,15.609,0,0,1,.078,3.746,20.213,20.213,0,0,1-.633-3.684c-.382-2.564-.83-5.574-1.326-8.9s-.963-6.336-1.353-8.9a18.591,18.591,0,0,1-.389-3.721" fill="#536d7b"/>
            <g id="Grupo_147747" data-name="Grupo 147747" opacity="0.3">
              <g id="Grupo_147746" data-name="Grupo 147746">
                <g id="Grupo_147745" data-name="Grupo 147745" clip-path="url(#clip-path-20)">
                  <path id="Trazado_114673" data-name="Trazado 114673" d="M152.292,559.3s6.492-20.089-4.7-31.994a.7.7,0,0,0-1.2.335c-.635,3.321-1.485,13.449,5.9,31.659"/>
                </g>
              </g>
            </g>
            <path id="Trazado_114674" data-name="Trazado 114674" d="M187.7,488.489s17.295-12.107,15.55-28.353a.7.7,0,0,0-1.16-.457c-2.51,2.266-9.3,9.831-14.39,28.81" fill="#aeffcc"/>
            <g id="Grupo_147750" data-name="Grupo 147750" opacity="0.3">
              <g id="Grupo_147749" data-name="Grupo 147749">
                <g id="Grupo_147748" data-name="Grupo 147748" clip-path="url(#clip-path-21)">
                  <path id="Trazado_114675" data-name="Trazado 114675" d="M187.7,488.489s17.295-12.107,15.55-28.353a.7.7,0,0,0-1.16-.457c-2.51,2.266-9.3,9.831-14.39,28.81"/>
                </g>
              </g>
            </g>
            <path id="Trazado_114676" data-name="Trazado 114676" d="M200.116,466.2a16.753,16.753,0,0,1-1.437,3.457c-.987,2.087-2.419,4.937-4.092,8.037s-3.284,5.858-4.525,7.808a15.6,15.6,0,0,1-2.2,3.035,20.4,20.4,0,0,1,1.718-3.32c1.242-2.275,2.7-4.947,4.31-7.9l4.29-7.915a18.577,18.577,0,0,1,1.934-3.2" fill="#536d7b"/>
            <path id="Trazado_114677" data-name="Trazado 114677" d="M159.266,539.382s20.86-3.252,26.448-18.606a.7.7,0,0,0-.84-.921c-3.251.929-12.677,4.731-25.608,19.527" fill="#aeffcc"/>
            <g id="Grupo_147753" data-name="Grupo 147753" opacity="0.3">
              <g id="Grupo_147752" data-name="Grupo 147752">
                <g id="Grupo_147751" data-name="Grupo 147751" clip-path="url(#clip-path-22)">
                  <path id="Trazado_114678" data-name="Trazado 114678" d="M159.266,539.382s20.86-3.252,26.448-18.606a.7.7,0,0,0-.84-.921c-3.251.929-12.677,4.731-25.608,19.527"/>
                </g>
              </g>
            </g>
            <path id="Trazado_114679" data-name="Trazado 114679" d="M180.233,524.844a16.768,16.768,0,0,1-2.813,2.471c-1.8,1.439-4.346,3.367-7.213,5.413s-5.528,3.813-7.5,5.017a15.519,15.519,0,0,1-3.31,1.756,20.312,20.312,0,0,1,3-2.223l7.349-5.193,7.337-5.217a18.633,18.633,0,0,1,3.147-2.024" fill="#536d7b"/>
            <path id="Trazado_114680" data-name="Trazado 114680" d="M139.366,577.772l-6.085,40.955H171.2l-4.916-40.955Z" fill="#556e7b"/>
            <path id="Trazado_114681" data-name="Trazado 114681" d="M167.8,590.462c0,.218-6.847.4-15.291.4s-15.292-.177-15.292-.4,6.846-.395,15.292-.395,15.291.177,15.291.395" fill="#536d7b"/>
            <path id="Trazado_114682" data-name="Trazado 114682" d="M168.553,593.721c0,.218-7.071.4-15.792.4s-15.793-.177-15.793-.4,7.069-.4,15.793-.4,15.792.177,15.792.4" fill="#536d7b"/>
          </g>
        </g>
      </g>
    </g>
  </g>
</svg>
