<svg xmlns="http://www.w3.org/2000/svg" xmlns:xlink="http://www.w3.org/1999/xlink" width="505" height="237.543" viewBox="0 0 505 237.543">
  <defs>
    <clipPath id="clip-path">
      <rect id="Rectángulo_39712" data-name="Rectángulo 39712" width="310.347" height="228.416" fill="none"/>
    </clipPath>
    <clipPath id="clip-path-3">
      <rect id="Rectángulo_39684" data-name="Rectángulo 39684" width="5.307" height="24.978" fill="none"/>
    </clipPath>
    <clipPath id="clip-path-4">
      <rect id="Rectángulo_39685" data-name="Rectángulo 39685" width="27.562" height="17.032" fill="none"/>
    </clipPath>
    <clipPath id="clip-path-5">
      <rect id="Rectángulo_39686" data-name="Rectángulo 39686" width="18.699" height="32.413" fill="none"/>
    </clipPath>
    <clipPath id="clip-path-6">
      <rect id="Rectángulo_39687" data-name="Rectángulo 39687" width="5.915" height="16.047" fill="none"/>
    </clipPath>
    <clipPath id="clip-path-7">
      <rect id="Rectángulo_39689" data-name="Rectángulo 39689" width="6.993" height="16.203" fill="none"/>
    </clipPath>
    <clipPath id="clip-path-8">
      <rect id="Rectángulo_39690" data-name="Rectángulo 39690" width="3.413" height="22.64" fill="none"/>
    </clipPath>
    <clipPath id="clip-path-9">
      <path id="Trazado_212177" data-name="Trazado 212177" d="M50.95,114.274c-.967,1.454,2.174,12.176,3.991,19.446S57.487,151.9,67.3,153.351s25.448,8,25.448,8c3.711.177,6.062-7.693,6.836-15.563.818-8.318-.124-16.635-3.08-15.454-8.482,3.388-21.152,4.479-21.152,4.479s-10.072-25.559-11.163-25.559-12.274,3.569-13.241,5.023" transform="translate(-50.77 -109.251)" fill="none"/>
    </clipPath>
    <clipPath id="clip-path-10">
      <rect id="Rectángulo_39692" data-name="Rectángulo 39692" width="0.948" height="15.017" fill="none"/>
    </clipPath>
    <clipPath id="clip-path-11">
      <path id="Trazado_212181" data-name="Trazado 212181" d="M144.384,226.061c0-.241-.334-.639-.883-1.176.461,1.074.883,1.469.883,1.176M126.935,122.816l11.919,19.61s-23.916-11.977-33.732-11.977-14.542,13.814-9.816,27.266c0,0,5.453,15.632,8.362,21.812s13.088,14.906,16,19.631,12.724,9.816,15.268,15.633c1.985,4.536,6.624,8.188,8.569,10.094-1.248-2.913-2.778-10.824,3.064-23.561a93.549,93.549,0,0,1,21.03-28.718s-16.667-27.616-17.757-34.886-12-17.814-12-17.814Z" transform="translate(-93.459 -119.907)" fill="none"/>
    </clipPath>
    <clipPath id="clip-path-12">
      <rect id="Rectángulo_39693" data-name="Rectángulo 39693" width="16.18" height="37.994" fill="none"/>
    </clipPath>
    <clipPath id="clip-path-13">
      <rect id="Rectángulo_39694" data-name="Rectángulo 39694" width="24.377" height="28.41" fill="none"/>
    </clipPath>
    <clipPath id="clip-path-14">
      <rect id="Rectángulo_39695" data-name="Rectángulo 39695" width="50.988" height="7.507" fill="none"/>
    </clipPath>
    <clipPath id="clip-path-16">
      <rect id="Rectángulo_39696" data-name="Rectángulo 39696" width="25.549" height="25.549" fill="none"/>
    </clipPath>
    <clipPath id="clip-path-17">
      <path id="Trazado_212192" data-name="Trazado 212192" d="M262.541,97.676a16.219,16.219,0,1,0,16.22-16.22,16.219,16.219,0,0,0-16.22,16.22" transform="translate(-262.541 -81.456)" fill="none"/>
    </clipPath>
    <clipPath id="clip-path-18">
      <rect id="Rectángulo_39698" data-name="Rectángulo 39698" width="34.639" height="42.946" fill="none"/>
    </clipPath>
    <clipPath id="clip-path-19">
      <rect id="Rectángulo_39700" data-name="Rectángulo 39700" width="31.132" height="41.105" fill="none"/>
    </clipPath>
    <clipPath id="clip-path-21">
      <rect id="Rectángulo_39701" data-name="Rectángulo 39701" width="41.432" height="41.432" fill="none"/>
    </clipPath>
    <clipPath id="clip-path-22">
      <path id="Trazado_212197" data-name="Trazado 212197" d="M15.875,163.191a26.273,26.273,0,1,0,10.415-2.163,26.3,26.3,0,0,0-10.415,2.163" transform="translate(0 -161.028)" fill="none"/>
    </clipPath>
    <clipPath id="clip-path-23">
      <rect id="Rectángulo_39703" data-name="Rectángulo 39703" width="28.423" height="79.028" fill="none"/>
    </clipPath>
    <clipPath id="clip-path-24">
      <rect id="Rectángulo_39705" data-name="Rectángulo 39705" width="21.802" height="78.616" fill="none"/>
    </clipPath>
    <clipPath id="clip-path-26">
      <rect id="Rectángulo_39710" data-name="Rectángulo 39710" width="13.496" height="6.475" fill="none"/>
    </clipPath>
  </defs>
  <g id="Grupo_149978" data-name="Grupo 149978" transform="translate(-915 -379.137)">
    <g id="Grupo_148906" data-name="Grupo 148906">
      <path id="Trazado_212221" data-name="Trazado 212221" d="M426.315,187.193c109.948,26.248,165.316-31.076,155.118-87.939C570.813,40.022,490.232-17.906,413.8,18.6,263.985,90.14,192.814-61.97,110.135,71.4s8.574,183.325,93.191,134.346,63.289-56.676,222.989-18.553" transform="translate(837.372 392.506)" fill="#d9f0ef" fill-rule="evenodd"/>
      <g id="Grupo_148838" data-name="Grupo 148838" transform="translate(1000 379.137)">
        <g id="Grupo_148905" data-name="Grupo 148905" clip-path="url(#clip-path)">
          <g id="Grupo_148857" data-name="Grupo 148857">
            <g id="Grupo_148856" data-name="Grupo 148856" clip-path="url(#clip-path)">
              <path id="Trazado_212139" data-name="Trazado 212139" d="M182.682,65.762l.033-5.91s-2.715-4.279-2.681-5.877.871-9.194.9-10.792-.135-4.391,1.564-4.838c.875-.231,1.352,1.686,1.24,5.575s.637,4.145.637,4.145.481-1.035,1.062-2.255a38.572,38.572,0,0,1,1.976-3.879c.213-.056,10.78,5.115,11.446,5.731l.665.615S197.7,52.958,196.4,55.8s-2.369,4.368-2.625,5.117-1.368,6.555-1.368,6.555Z" transform="translate(-18.445 -3.927)" fill="#ff977a"/>
              <path id="Trazado_212140" data-name="Trazado 212140" d="M186.431,45.907l2.256-6.95,2.559-6.234s1.331-4.438,2.386-4.09.892,2.783.069,4.811-2.812,11.29-2.812,11.29Z" transform="translate(-19.101 -2.932)" fill="#ff977a"/>
              <path id="Trazado_212141" data-name="Trazado 212141" d="M190.913,46.119l2.256-6.95,2.559-6.234s1.331-4.438,2.386-4.09.892,2.783.069,4.811-3.806,12.687-3.806,12.687Z" transform="translate(-19.56 -2.953)" fill="#ff977a"/>
              <path id="Trazado_212142" data-name="Trazado 212142" d="M193.135,49.7l2.794-6.512,3.022-5.794s1.678-4.169,2.667-3.74.615,2.767-.36,4.653-4.8,11.915-4.8,11.915Z" transform="translate(-19.787 -3.445)" fill="#ff977a"/>
              <path id="Trazado_212143" data-name="Trazado 212143" d="M196.246,51.571l2.895-6.035,3.08-5.349s1.748-3.868,2.664-3.424.471,2.636-.522,4.376-5,11.056-5,11.056Z" transform="translate(-20.106 -3.763)" fill="#ff977a"/>
              <path id="Trazado_212144" data-name="Trazado 212144" d="M193.176,71.337c-.084,1.708-.21,3.486-.311,4.849-.107,1.4-.189,2.358-.189,2.358l-5.313-2.566-5.6-2.7s.055-2.308.164-4.605a21.3,21.3,0,0,1,.47-4.508c1.37-1.827,9.908,1.114,10.636,1.479.329.164.285,2.831.137,5.7" transform="translate(-18.623 -6.513)" fill="#ffe6e1"/>
              <path id="Trazado_212145" data-name="Trazado 212145" d="M193.176,71.919c-.084,1.708-.21,3.486-.311,4.849l-5.5-.208-5.6-2.7s.055-2.308.164-4.605c2.219-.046,7.28.162,11.244,2.667" transform="translate(-18.623 -7.095)" fill="gray"/>
              <path id="Trazado_212146" data-name="Trazado 212146" d="M142.415,145.274c-2.908,2.18-33.809-12.36-36.354-15.269a25,25,0,0,0,2.545-6.908c.363-2.906-5.97-14.249-5.97-14.249l16.512-3.927s1.881,6.11,3.79,10.718c.365.886.732,1.717,1.089,2.436a7.207,7.207,0,0,0,1.664,2.477,7.132,7.132,0,0,0,5.091.726s14.541,21.814,11.632,23.994" transform="translate(-10.516 -10.75)" fill="#ff977a"/>
              <path id="Trazado_212147" data-name="Trazado 212147" d="M145.337,220.242s1.091,10.744,4.362,11.834,12-9.816,14.542-16,8.669-37.459,8.669-37.459-26.119,8.337-27.574,41.62" transform="translate(-14.89 -18.301)" fill="#470b28"/>
              <path id="Trazado_212148" data-name="Trazado 212148" d="M276.569,189.758s11.633,7.635,15.633,12.36,6.543,9.089,10.906,7.635,4.347-8.362,7.263-12.906,13.459-20.9,12-24.175-4.2-3.635-7.735,0-13.714,13.452-16.259,13.452-16.722-8-16.722-8Z" transform="translate(-28.336 -17.425)" fill="#ff977a"/>
              <path id="Trazado_212149" data-name="Trazado 212149" d="M305.2,150.689s13.7,2.453,19.23,5.229,9.587,5.789,13.028,2.739.714-9.4,1.612-14.722,4.17-24.509,1.548-26.947-5.29-1.695-7.114,3.037-7.331,17.755-9.671,18.754-18.52-.789-18.52-.789Z" transform="translate(-31.269 -11.847)" fill="#ff977a"/>
              <path id="Trazado_212150" data-name="Trazado 212150" d="M152.628,213.344s15.633,11.633,30.174,6.18,34.173-50.532,34.173-50.532,39.107,20.722,45.728,25.993l12.8-16.905s-51.986-40.353-61.438-40.353c-8.725,0-46.533,33.446-61.438,75.616" transform="translate(-15.637 -14.111)" fill="#4756a0"/>
              <path id="Trazado_212151" data-name="Trazado 212151" d="M58.46,102.252l-.033-5.91s2.715-4.28,2.681-5.877-.871-9.194-.9-10.792.135-4.392-1.564-4.838c-.875-.231-1.353,1.687-1.24,5.575s-.637,4.145-.637,4.145S56.281,83.52,55.7,82.3a38.573,38.573,0,0,0-1.976-3.879c-.213-.056-10.78,5.115-11.446,5.731l-.665.615s1.832,4.682,3.128,7.52,2.369,4.368,2.625,5.117,1.368,6.555,1.368,6.555Z" transform="translate(-4.263 -7.665)" fill="#ff977a"/>
              <path id="Trazado_212152" data-name="Trazado 212152" d="M56.029,82.4l-2.256-6.95-2.559-6.234s-1.331-4.438-2.386-4.09-.892,2.783-.069,4.811,2.812,11.29,2.812,11.29Z" transform="translate(-4.927 -6.67)" fill="#ff977a"/>
              <path id="Trazado_212153" data-name="Trazado 212153" d="M51.548,82.61l-2.256-6.95-2.559-6.234s-1.331-4.438-2.386-4.09-.892,2.783-.069,4.811,3.806,12.687,3.806,12.687Z" transform="translate(-4.468 -6.692)" fill="#ff977a"/>
              <path id="Trazado_212154" data-name="Trazado 212154" d="M49.2,86.191,46.4,79.679,43.38,73.886s-1.678-4.169-2.667-3.74-.615,2.767.36,4.653,4.8,11.915,4.8,11.915Z" transform="translate(-4.112 -7.184)" fill="#ff977a"/>
              <path id="Trazado_212155" data-name="Trazado 212155" d="M46.077,88.061l-2.895-6.035L40.1,76.676s-1.748-3.868-2.664-3.424-.471,2.636.522,4.377,5,11.055,5,11.055Z" transform="translate(-3.785 -7.501)" fill="#ff977a"/>
              <path id="Trazado_212156" data-name="Trazado 212156" d="M63.173,110.59a7.267,7.267,0,0,1-.749.678,13.372,13.372,0,0,1-9.89,2.79c-.432-.046-.877-.109-1.334-.2,0,0-.408-1.126-.913-2.621-.573-1.683-1.272-3.835-1.655-5.376-.729-2.909,10.906-5.452,11.269-4.726.226.451,1.433,3.99,2.317,6.6.537,1.6.954,2.847.954,2.847" transform="translate(-4.979 -10.349)" fill="#ffe6e1"/>
              <path id="Trazado_212157" data-name="Trazado 212157" d="M63.366,111.358a7.267,7.267,0,0,1-.749.678,62.516,62.516,0,0,0-9.89,2.79c-.432-.046-.877-.109-1.334-.2,0,0-.408-1.126-.913-2.621l.958-.5a26.864,26.864,0,0,1,10.468-2.963l.505-.037c.537,1.6.954,2.847.954,2.847" transform="translate(-5.172 -11.117)" fill="gray"/>
              <path id="Trazado_212158" data-name="Trazado 212158" d="M151.881,217.453,145.337,212s11.634-24.72,18.177-29.447l6.544-4.726,8.725,2.181Z" transform="translate(-14.89 -18.219)" fill="#4756a0"/>
              <path id="Trazado_212159" data-name="Trazado 212159" d="M218.244,142.389s9.089-11.633,13.087-12.36,71.981,8.725,71.981,8.725l-2.545,18.177s-58.893-4.363-63.255-3.272-19.268-11.27-19.268-11.27" transform="translate(-22.36 -13.318)" fill="#4756a0"/>
              <g id="Grupo_148840" data-name="Grupo 148840" transform="translate(149.514 174.602)" style="mix-blend-mode: multiply;isolation: isolate">
                <g id="Grupo_148839" data-name="Grupo 148839">
                  <g id="Grupo_148838-2" data-name="Grupo 148838" clip-path="url(#clip-path-3)">
                    <path id="Trazado_212160" data-name="Trazado 212160" d="M171.656,219.511l-.263-.023c1.5-17.055-4.748-24.709-4.811-24.785l.2-.17c.064.076,6.381,7.8,4.872,24.978" transform="translate(-166.581 -194.533)" fill="gray"/>
                  </g>
                </g>
              </g>
              <path id="Trazado_212161" data-name="Trazado 212161" d="M95.306,157.715s5.453,15.633,8.362,21.812,13.087,14.906,16,19.631,12.725,9.816,15.269,15.633,9.452,10.179,9.452,11.27-5.817-7.3,2.181-24.736a93.549,93.549,0,0,1,21.03-28.718s-16.667-27.615-17.757-34.886-12-17.814-12-17.814l-10.906,2.908,11.919,19.611s-23.916-11.977-33.732-11.977-14.541,13.815-9.816,27.266" transform="translate(-9.575 -12.285)" fill="#ffe6e1"/>
              <path id="Trazado_212162" data-name="Trazado 212162" d="M92.751,161.349s-15.633-6.544-25.448-8-10.543-12.36-12.36-19.631-4.958-17.992-3.991-19.446,12.151-5.023,13.241-5.023S75.356,134.81,75.356,134.81s12.669-1.091,21.152-4.48c5.754-2.3,3.878,31.382-3.756,31.018" transform="translate(-5.202 -11.193)" fill="#ffe6e1"/>
              <path id="Trazado_212163" data-name="Trazado 212163" d="M153.78,136.592s2.545-5.09,4-6.544,27.629-18.177,27.629-18.177,4.4-34.661,4.032-37.932-11.009-4.609-12.1-3.882-8.291,30.181-8.654,30.544-29.652,15.106-29.652,15.106Z" transform="translate(-14.244 -7.158)" fill="#ffe6e1"/>
              <path id="Trazado_212164" data-name="Trazado 212164" d="M131.156,106.912c0,4.687-1.468,4.875-3.649,5.6a9.061,9.061,0,0,1-2.232.251c-4,.117-11.279-.584-12.15-1.164a30.347,30.347,0,0,1-3.493-2.913,15.575,15.575,0,0,1-1.621-1.8,2.367,2.367,0,0,0-1.9-.954H101.9a2.236,2.236,0,0,1-.411-.034c-1.171-.213-6.135-1.616-7.413-10.255-1.454-9.817,4.726-18.906,13.23-19.156s11.853,1.342,17.307,8.25,6.54,19.965,6.543,22.175" transform="translate(-9.617 -7.834)" fill="#ff977a"/>
              <path id="Trazado_212165" data-name="Trazado 212165" d="M101.98,106.952s-2.852.973-6.487-3.027-3.636-8.361-6.908-11.27-4-6.18-4.726-9.089-1.818-6.118,0-6.694,0-4.212,1.818-4.576,4,1.091,4-2.181.669-5.229,2.7-3.887,3.483,3.524,4.21,2.07,2.483-2.29,3.24-1.327,3.666,10.779,4.03-.127,2.39-1.818,3.377-1.273.986-3.454,3.167-1.636,1.818,1.818,4.726,2.545,4.4,12.35,4.4,12.35-4.4,1.1-5.859,4.008-5.089,4.363-5.089,4.363.727,3.272,1.091,5.816-4.181,7.089-4.181,7.089-8.657-5.4-3.51,6.844" transform="translate(-8.49 -6.301)" fill="#470b28"/>
              <path id="Trazado_212166" data-name="Trazado 212166" d="M107.446,104.068c-.411-1.9-1.327-2.445-3.2-2.968-1.828-.511-4.1.93-3.235,4.384.711,2.843,4.706,5.155,6.888,4.064,1.38-.691-.055-3.622-.457-5.48" transform="translate(-10.33 -10.348)" fill="#ff977a"/>
              <g id="Grupo_148843" data-name="Grupo 148843" transform="translate(200.457 123.498)" style="mix-blend-mode: multiply;isolation: isolate">
                <g id="Grupo_148842" data-name="Grupo 148842">
                  <g id="Grupo_148841" data-name="Grupo 148841" clip-path="url(#clip-path-4)">
                    <path id="Trazado_212167" data-name="Trazado 212167" d="M250.713,154.627c-7.889-7.965-27.18-16.7-27.374-16.791l.109-.241c.194.087,19.531,8.846,27.453,16.846Z" transform="translate(-223.339 -137.595)" fill="gray"/>
                  </g>
                </g>
              </g>
              <g id="Grupo_148846" data-name="Grupo 148846" transform="translate(139.416 160.231)" style="mix-blend-mode: multiply;isolation: isolate">
                <g id="Grupo_148845" data-name="Grupo 148845">
                  <g id="Grupo_148844" data-name="Grupo 148844" clip-path="url(#clip-path-5)">
                    <path id="Trazado_212168" data-name="Trazado 212168" d="M155.586,210.933l-.256-.065a82.106,82.106,0,0,1,18.508-32.348l.191.182a81.83,81.83,0,0,0-18.444,32.231" transform="translate(-155.33 -178.521)" fill="gray"/>
                  </g>
                </g>
              </g>
              <g id="Grupo_148849" data-name="Grupo 148849" transform="translate(198.429 140.437)" style="mix-blend-mode: multiply;isolation: isolate">
                <g id="Grupo_148848" data-name="Grupo 148848">
                  <g id="Grupo_148847" data-name="Grupo 148847" clip-path="url(#clip-path-6)">
                    <path id="Trazado_212169" data-name="Trazado 212169" d="M223.987,170.913s-.336-8.252-2.908-14.446a44.409,44.409,0,0,1,5.915,16.048Z" transform="translate(-221.079 -156.467)" fill="gray"/>
                  </g>
                </g>
              </g>
              <path id="Trazado_212170" data-name="Trazado 212170" d="M181.889,194.717l-.223-.141c.069-.109,6.97-11.049,14.007-21.792,14.289-21.818,15.183-21.586,15.517-21.5,1,.25,1.013.225,1.416-.389a10.954,10.954,0,0,1,1.8-2.133c1.158-1.1,9.392,3.874,24.472,14.78,11.77,8.513,23.362,17.524,25.1,19.048l-.173.2c-1.739-1.521-13.321-10.523-25.086-19.032-20.351-14.72-23.659-15.256-24.135-14.8a10.609,10.609,0,0,0-1.76,2.087c-.462.7-.586.779-1.7.5-1.474,0-18.276,25.8-29.237,43.18" transform="translate(-18.612 -15.226)" fill="#ffe6e1"/>
              <rect id="Rectángulo_39688" data-name="Rectángulo 39688" width="0.263" height="56.518" transform="translate(219.409 127.022) rotate(-86.703)" fill="#ffe6e1"/>
              <path id="Trazado_212171" data-name="Trazado 212171" d="M182.8,108c-3.573-3.572-10.662-3.774-10.734-3.776l.006-.264c.073,0,7.266.206,10.914,3.853Z" transform="translate(-17.629 -10.652)" fill="gray"/>
              <path id="Trazado_212172" data-name="Trazado 212172" d="M186.766,105.9c-4.2-4.321-11.959-3.541-12.036-3.533l-.029-.262c.079-.009,7.967-.8,12.254,3.611Z" transform="translate(-17.899 -10.455)" fill="gray"/>
              <g id="Grupo_148852" data-name="Grupo 148852" transform="translate(133.74 110.703)" style="mix-blend-mode: multiply;isolation: isolate">
                <g id="Grupo_148851" data-name="Grupo 148851">
                  <g id="Grupo_148850" data-name="Grupo 148850" clip-path="url(#clip-path-7)">
                    <path id="Trazado_212173" data-name="Trazado 212173" d="M155.737,139.543c-.9-7.685-6.672-15.968-6.731-16.051l.216-.153c.058.083,5.864,8.421,6.776,16.173Z" transform="translate(-149.006 -123.34)" fill="gray"/>
                  </g>
                </g>
              </g>
              <g id="Grupo_148855" data-name="Grupo 148855" transform="translate(92.121 133.82)" style="mix-blend-mode: multiply;isolation: isolate">
                <g id="Grupo_148854" data-name="Grupo 148854">
                  <g id="Grupo_148853" data-name="Grupo 148853" clip-path="url(#clip-path-8)">
                    <path id="Trazado_212174" data-name="Trazado 212174" d="M102.636,171.735s4.2-10.573,3.284-20.618-3.284,20.618-3.284,20.618" transform="translate(-102.636 -149.095)" fill="#fff"/>
                  </g>
                </g>
              </g>
            </g>
          </g>
          <g id="Grupo_148862" data-name="Grupo 148862" transform="translate(45.568 98.058)">
            <g id="Grupo_148861" data-name="Grupo 148861" clip-path="url(#clip-path-9)">
              <path id="Trazado_212175" data-name="Trazado 212175" d="M81.443,146.148a20.213,20.213,0,0,0-3.4-8.349l.21-.16a20.513,20.513,0,0,1,3.45,8.471Z" transform="translate(-53.564 -112.159)" fill="gray"/>
              <g id="Grupo_148860" data-name="Grupo 148860" transform="translate(44.528 35.415)" style="mix-blend-mode: multiply;isolation: isolate">
                <g id="Grupo_148859" data-name="Grupo 148859">
                  <g id="Grupo_148858" data-name="Grupo 148858" clip-path="url(#clip-path-10)">
                    <path id="Trazado_212176" data-name="Trazado 212176" d="M100.638,163.726l-.258-.06a40.336,40.336,0,0,0,0-14.908l.259-.048a40.646,40.646,0,0,1,0,15.017" transform="translate(-100.381 -148.709)" fill="gray"/>
                  </g>
                </g>
              </g>
            </g>
          </g>
          <g id="Grupo_148873" data-name="Grupo 148873" transform="translate(83.884 107.622)">
            <g id="Grupo_148872" data-name="Grupo 148872" clip-path="url(#clip-path-11)">
              <g id="Grupo_148865" data-name="Grupo 148865" transform="translate(31.939 59.154)" style="mix-blend-mode: multiply;isolation: isolate">
                <g id="Grupo_148864" data-name="Grupo 148864">
                  <g id="Grupo_148863" data-name="Grupo 148863" clip-path="url(#clip-path-12)">
                    <path id="Trazado_212178" data-name="Trazado 212178" d="M134.684,223.807c-1.374-6.232,2.991-16.868,6.5-25.414,2.422-5.9,4.513-11,3.55-12.1-.2-.226-.535-.275-1.031-.145-6.357,1.65-14.32,33.508-14.4,33.829l-.256-.064c.327-1.319,8.081-32.332,14.59-34.021a1.214,1.214,0,0,1,1.3.228c1.07,1.226-.949,6.146-3.5,12.375-3.493,8.512-7.84,19.106-6.484,25.257Z" transform="translate(-129.044 -185.813)" fill="gray"/>
                  </g>
                </g>
              </g>
              <g id="Grupo_148868" data-name="Grupo 148868" transform="translate(49.839 46.42)" style="mix-blend-mode: multiply;isolation: isolate">
                <g id="Grupo_148867" data-name="Grupo 148867">
                  <g id="Grupo_148866" data-name="Grupo 148866" clip-path="url(#clip-path-13)">
                    <path id="Trazado_212179" data-name="Trazado 212179" d="M149.238,200.035l-.251-.081c4.164-12.907,24.017-28.177,24.218-28.329l.16.21c-.2.152-19.987,15.372-24.126,28.2" transform="translate(-148.987 -171.625)" fill="gray"/>
                  </g>
                </g>
              </g>
              <g id="Grupo_148871" data-name="Grupo 148871" transform="translate(19.878 30.976)" style="mix-blend-mode: multiply;isolation: isolate">
                <g id="Grupo_148870" data-name="Grupo 148870">
                  <g id="Grupo_148869" data-name="Grupo 148869" clip-path="url(#clip-path-14)">
                    <path id="Trazado_212180" data-name="Trazado 212180" d="M166.479,161.926c-18.995-9.14-50.538-7.043-50.855-7.021l-.018-.263c.317-.022,31.929-2.124,50.987,7.046Z" transform="translate(-115.606 -154.419)" fill="gray"/>
                  </g>
                </g>
              </g>
            </g>
          </g>
          <g id="Grupo_148878" data-name="Grupo 148878">
            <g id="Grupo_148877" data-name="Grupo 148877" clip-path="url(#clip-path)">
              <path id="Trazado_212182" data-name="Trazado 212182" d="M130.315,90.857a4.62,4.62,0,0,0,1.156,2.355c1.286,1.216,3.461,2.019,4.11,2.739,2.054,2.283-3.167,3.585-3.867,3.39s-1.4-8.484-1.4-8.484" transform="translate(-13.351 -9.309)" fill="#ff977a"/>
              <path id="Trazado_212183" data-name="Trazado 212183" d="M125.8,94.687c.338.747.213,1.533-.281,1.757s-1.167-.2-1.5-.948-.213-1.533.28-1.757,1.167.2,1.505.948" transform="translate(-12.687 -9.598)" fill="#470b28"/>
              <path id="Trazado_212184" data-name="Trazado 212184" d="M120.92,92.238s2.821-4.046,3.465-4.192S125.4,89.2,125.4,89.2a45.175,45.175,0,0,0-3.794,3.5c-.457.685-.685-.457-.685-.457" transform="translate(-12.389 -9.02)" fill="#470b28"/>
              <path id="Trazado_212185" data-name="Trazado 212185" d="M128.291,86.877s.461,1.586.689,1.586h1.137s-.4-.673-.311-.793a1.55,1.55,0,0,0-1.516-.793" transform="translate(-13.144 -8.897)" fill="#470b28"/>
              <path id="Trazado_212186" data-name="Trazado 212186" d="M132.924,108.268a2.328,2.328,0,0,1-2.023-2.658,2.361,2.361,0,0,1,.658-1.345c.954-.979,2.038-1.753,2.634-1.028a2.717,2.717,0,0,1,.439.881c.525,1.63.376,4.375-1.708,4.148" transform="translate(-13.409 -10.548)" fill="#470b28"/>
              <path id="Trazado_212187" data-name="Trazado 212187" d="M92.3,206.082,81.682,191.224l43-30.745-1.358-14.944,51.295-38.3,2.034-21.848,3.7-2.41c13.214-8.613,56.67-36.9,61.086-39.244l8.575,16.125.015-.008c-3.164,1.727-34.576,22.065-56.007,36.019l-1.968,21.143-49.614,37.042,1.381,15.192Z" transform="translate(-8.369 -4.481)" fill="#ffc631"/>
              <path id="Trazado_212188" data-name="Trazado 212188" d="M73.125,194.627l22.589,34.717L29.351,248.357l43.774-51.78Z" transform="translate(-3.007 -19.94)" fill="#ffc631"/>
              <path id="Trazado_212189" data-name="Trazado 212189" d="M294.979,97.676a16.219,16.219,0,1,1-16.22-16.22,16.22,16.22,0,0,1,16.22,16.22" transform="translate(-26.898 -8.345)" fill="#ffa350"/>
              <g id="Grupo_148876" data-name="Grupo 148876" transform="translate(239.087 76.555)" style="mix-blend-mode: screen;isolation: isolate">
                <g id="Grupo_148875" data-name="Grupo 148875">
                  <g id="Grupo_148874" data-name="Grupo 148874" clip-path="url(#clip-path-16)">
                    <path id="Trazado_212190" data-name="Trazado 212190" d="M291.928,98.069a12.774,12.774,0,1,1-12.775-12.775,12.775,12.775,0,0,1,12.775,12.775" transform="translate(-266.379 -85.294)" fill="#ffa350"/>
                  </g>
                </g>
              </g>
            </g>
          </g>
          <g id="Grupo_148886" data-name="Grupo 148886" transform="translate(235.643 73.111)">
            <g id="Grupo_148885" data-name="Grupo 148885" clip-path="url(#clip-path-17)">
              <g id="Grupo_148881" data-name="Grupo 148881" transform="translate(-1.148 -8.498)" opacity="0.41" style="mix-blend-mode: screen;isolation: isolate">
                <g id="Grupo_148880" data-name="Grupo 148880">
                  <g id="Grupo_148879" data-name="Grupo 148879" clip-path="url(#clip-path-18)">
                    <path id="Trazado_212191" data-name="Trazado 212191" d="M261.262,111.2,290.41,71.988l5.49,3.235-28.993,39.711Z" transform="translate(-261.262 -71.988)" fill="#fff"/>
                  </g>
                </g>
              </g>
              <g id="Grupo_148884" data-name="Grupo 148884" transform="translate(2.615 1.073)" opacity="0.41">
                <g id="Grupo_148883" data-name="Grupo 148883">
                  <g id="Grupo_148882" data-name="Grupo 148882" clip-path="url(#clip-path-19)">
                    <rect id="Rectángulo_39699" data-name="Rectángulo 39699" width="49.184" height="2.488" transform="matrix(0.592, -0.806, 0.806, 0.592, -0.001, 39.631)" fill="#fff"/>
                  </g>
                </g>
              </g>
            </g>
          </g>
          <g id="Grupo_148891" data-name="Grupo 148891">
            <g id="Grupo_148890" data-name="Grupo 148890" clip-path="url(#clip-path)">
              <path id="Trazado_212193" data-name="Trazado 212193" d="M281.217,107.2v-1.249a3.364,3.364,0,0,1-2.771-1.213,5.287,5.287,0,0,1-1-3.043l1.81-.489a8.213,8.213,0,0,0,.245,1.5,2.686,2.686,0,0,0,.625,1.186,1.587,1.587,0,0,0,1.213.462,1.557,1.557,0,0,0,1.2-.443,1.822,1.822,0,0,0,.408-1.277,2.618,2.618,0,0,0-.452-1.6,8.442,8.442,0,0,0-1.142-1.222L278.9,97.634a5.136,5.136,0,0,1-.788-.906,3.481,3.481,0,0,1-.471-1.041,4.991,4.991,0,0,1-.154-1.3,3.3,3.3,0,0,1,.888-2.454,3.46,3.46,0,0,1,2.409-.933V89.792h.634v1.213a3.812,3.812,0,0,1,1.331.317,2.675,2.675,0,0,1,.959.733,3.548,3.548,0,0,1,.617,1.15,6.758,6.758,0,0,1,.3,1.585l-1.739.471a7.565,7.565,0,0,0-.217-1.349,2.035,2.035,0,0,0-.571-1.005,1.483,1.483,0,0,0-1.168-.327,1.937,1.937,0,0,0-1.187.435,1.5,1.5,0,0,0-.425,1.177,2.327,2.327,0,0,0,.226,1.1,3.552,3.552,0,0,0,.734.9l2.481,2.174a8.846,8.846,0,0,1,1.023,1.1,5.417,5.417,0,0,1,.779,1.35,4.428,4.428,0,0,1,.3,1.666,3.82,3.82,0,0,1-.381,1.748,2.962,2.962,0,0,1-1.059,1.186,3.558,3.558,0,0,1-1.585.526V107.2Z" transform="translate(-28.426 -9.2)" fill="#ffa350"/>
              <path id="Trazado_212194" data-name="Trazado 212194" d="M50.442,176.9a26.3,26.3,0,1,1-34.567-13.712A26.295,26.295,0,0,1,50.442,176.9" transform="translate(0 -16.498)" fill="#ffa350"/>
              <g id="Grupo_148889" data-name="Grupo 148889" transform="translate(5.586 150.116)" style="mix-blend-mode: screen;isolation: isolate">
                <g id="Grupo_148888" data-name="Grupo 148888">
                  <g id="Grupo_148887" data-name="Grupo 148887" clip-path="url(#clip-path-21)">
                    <path id="Trazado_212195" data-name="Trazado 212195" d="M45.953,179.755a20.711,20.711,0,1,1-27.226-10.8,20.711,20.711,0,0,1,27.226,10.8" transform="translate(-6.224 -167.252)" fill="#ffa350"/>
                  </g>
                </g>
              </g>
            </g>
          </g>
          <g id="Grupo_148899" data-name="Grupo 148899" transform="translate(0 144.53)">
            <g id="Grupo_148898" data-name="Grupo 148898" clip-path="url(#clip-path-22)">
              <g id="Grupo_148894" data-name="Grupo 148894" transform="translate(9.774 -18.059)" opacity="0.41" style="mix-blend-mode: screen;isolation: isolate">
                <g id="Grupo_148893" data-name="Grupo 148893">
                  <g id="Grupo_148892" data-name="Grupo 148892" clip-path="url(#clip-path-23)">
                    <path id="Trazado_212196" data-name="Trazado 212196" d="M10.89,218.011l18.171-77.1,10.252,1.284L21.692,219.936Z" transform="translate(-10.89 -140.908)" fill="#fff"/>
                  </g>
                </g>
              </g>
              <g id="Grupo_148897" data-name="Grupo 148897" transform="translate(21.797 -6.22)" opacity="0.41">
                <g id="Grupo_148896" data-name="Grupo 148896">
                  <g id="Grupo_148895" data-name="Grupo 148895" clip-path="url(#clip-path-24)">
                    <rect id="Rectángulo_39704" data-name="Rectángulo 39704" width="79.74" height="4.033" transform="matrix(0.224, -0.975, 0.975, 0.224, 0.002, 77.712)" fill="#fff"/>
                  </g>
                </g>
              </g>
            </g>
          </g>
          <g id="Grupo_148904" data-name="Grupo 148904">
            <g id="Grupo_148903" data-name="Grupo 148903" clip-path="url(#clip-path)">
              <path id="Trazado_212198" data-name="Trazado 212198" d="M35.408,201.084l-.8-1.86A5.455,5.455,0,0,1,29.7,199.2a8.565,8.565,0,0,1-3.438-3.888l2.381-1.892a13.21,13.21,0,0,0,1.33,2.081,4.368,4.368,0,0,0,1.693,1.363,2.57,2.57,0,0,0,2.1-.092,2.522,2.522,0,0,0,1.508-1.435,2.956,2.956,0,0,0-.215-2.162,4.246,4.246,0,0,0-1.7-2.095,13.7,13.7,0,0,0-2.484-1.085l-5.064-1.652a8.389,8.389,0,0,1-1.755-.841,5.616,5.616,0,0,1-1.37-1.248,8.056,8.056,0,0,1-1.062-1.828,5.349,5.349,0,0,1-.258-4.224,5.615,5.615,0,0,1,2.986-2.937l-.781-1.806.944-.408.78,1.806a6.209,6.209,0,0,1,2.185-.384,4.353,4.353,0,0,1,1.9.475,5.747,5.747,0,0,1,1.655,1.316A10.845,10.845,0,0,1,32.5,180.43l-2.285,1.818a12.328,12.328,0,0,0-1.191-1.869,3.3,3.3,0,0,0-1.5-1.129,2.407,2.407,0,0,0-1.948.266,3.136,3.136,0,0,0-1.486,1.41,2.432,2.432,0,0,0,.124,2.026,3.753,3.753,0,0,0,1.041,1.485,5.754,5.754,0,0,0,1.668.863l5.09,1.64a14.315,14.315,0,0,1,2.228.973,8.76,8.76,0,0,1,2.027,1.508,7.16,7.16,0,0,1,1.517,2.287,6.2,6.2,0,0,1,.557,2.846A4.809,4.809,0,0,1,37.531,197a5.764,5.764,0,0,1-2.021,1.8l.815,1.887Z" transform="translate(-2.156 -17.935)" fill="#ffa350"/>
              <rect id="Rectángulo_39706" data-name="Rectángulo 39706" width="4.795" height="27.853" transform="translate(114.467 5.14)" fill="#ffc631"/>
              <rect id="Rectángulo_39707" data-name="Rectángulo 39707" width="4.795" height="16.666" transform="translate(122.914 16.327)" fill="#ffc631"/>
              <rect id="Rectángulo_39708" data-name="Rectángulo 39708" width="3.881" height="10.502" transform="translate(131.361 22.491)" fill="#ffc631"/>
              <rect id="Rectángulo_39709" data-name="Rectángulo 39709" width="3.881" height="7.305" transform="translate(137.982 25.688)" fill="#ffc631"/>
              <path id="Trazado_212199" data-name="Trazado 212199" d="M159.6,24.86C148.339,15.267,131.2.869,130.148.521a.115.115,0,0,0,.03.005L130.22,0c1.032.083,23.012,18.742,29.724,24.458Z" transform="translate(-13.334)" fill="#ffc631"/>
              <path id="Trazado_212200" data-name="Trazado 212200" d="M163.617,24.549l-2.54,3.837,5.428.972Z" transform="translate(-16.503 -2.515)" fill="#ffc631"/>
              <path id="Trazado_212201" data-name="Trazado 212201" d="M148.671,66.009l-8.756,9.378c-10.446,11.192,22.79,7.83,23.569,23.119l9.871-10.577C172.2,73.04,149.822,80.9,148.671,66.009" transform="translate(-14.127 -6.763)" fill="#a5cfef"/>
              <path id="Trazado_212202" data-name="Trazado 212202" d="M162.726,85.066c1.8-1.933,1.131-4.33-1.7-5.145s-6.351-.162-8.055,1.664c-1.733,1.857-1.056,4.25,1.7,5.142s6.276.241,8.052-1.661" transform="translate(-15.575 -8.153)" fill="#fff"/>
              <path id="Trazado_212203" data-name="Trazado 212203" d="M155.165,86.346c-2.4-.779-3.018-2.836-1.509-4.453,1.49-1.6,4.595-2.2,7.046-1.479s3.07,2.78,1.507,4.455c-1.545,1.654-4.648,2.256-7.044,1.477m5.446-5.835c-2.369-.7-5.377-.109-6.82,1.436-1.459,1.564-.854,3.547,1.464,4.3a7,7,0,0,0,6.819-1.433c1.511-1.619.906-3.6-1.463-4.3" transform="translate(-15.659 -8.208)" fill="#a5cfef"/>
              <path id="Trazado_212204" data-name="Trazado 212204" d="M163.79,93.685c-3.922-8.467-18.053-6-21.787-14.665l.043-.047c.794-.85.953-2.494.692-4.025,0-.028-.01-.057-.014-.084L147.265,70c0,.028.01.056.015.083.257,1.389,1.248,1.728,2.024,1.09l.041-.033c3.972,8.423,18.364,5.683,22.524,13.9l-.039.051a5,5,0,0,0-.565,3.864c.006.027.012.054.017.082l-5.076,5.437c0-.028-.01-.056-.015-.083-.293-1.5-1.5-1.679-2.355-.761l-.048.051M142.148,79.062c3.8,8.461,17.686,6.127,21.675,14.391a1.353,1.353,0,0,1,2.448.758l4.884-5.231a5.276,5.276,0,0,1,.563-3.948c-4.212-8.049-18.375-5.437-22.4-13.685-.8.621-1.815.29-2.1-1.091l-4.374,4.685a5.272,5.272,0,0,1-.689,4.12" transform="translate(-14.549 -7.172)" fill="#fff"/>
              <path id="Trazado_212205" data-name="Trazado 212205" d="M145.583,77.817a2.524,2.524,0,0,1,.272-2.779c.6-.637,1.372-.355,1.9.452a2.081,2.081,0,0,1-.03,2.519,1.326,1.326,0,0,1-2.142-.193m2.084-2.233c-.484-.743-1.209-.993-1.757-.406a2.3,2.3,0,0,0-.24,2.545,1.213,1.213,0,0,0,1.962.187,1.929,1.929,0,0,0,.035-2.326" transform="translate(-14.885 -7.652)" fill="#fff"/>
              <path id="Trazado_212206" data-name="Trazado 212206" d="M168.577,91.082a2.029,2.029,0,0,1,.059-2.551,1.484,1.484,0,0,1,2.3.02,2.391,2.391,0,0,1-.291,2.8,1.259,1.259,0,0,1-2.072-.268m2.268-2.43a1.356,1.356,0,0,0-2.111-.027,1.878,1.878,0,0,0-.063,2.356,1.167,1.167,0,0,0,1.915.236,2.186,2.186,0,0,0,.258-2.565" transform="translate(-17.228 -9.015)" fill="#fff"/>
              <path id="Trazado_212207" data-name="Trazado 212207" d="M156.63,84.772c-.474-.155-.817-.368-.836-.6l.168-.018c.033.418,1.575.851,2.658.75.377-.035.827-.153.83-.517,0-.5-.7-.854-1.319-1.167-.692-.347-1.339-.682-.84-1.129.907-.811,3.5.175,3.611.22l-.1.093c-.022-.012-2.567-.981-3.375-.258-.386.345.058.6.821.986.647.325,1.379.7,1.373,1.242,0,.353-.357.579-1,.636a5.414,5.414,0,0,1-1.993-.241" transform="translate(-15.962 -8.378)" fill="#a5cfef"/>
              <path id="Trazado_212208" data-name="Trazado 212208" d="M156.479,85l2.7-3.5.151.036-2.7,3.5-.15-.038" transform="translate(-16.032 -8.35)" fill="#a5cfef"/>
              <path id="Trazado_212209" data-name="Trazado 212209" d="M157.454,85.319l2.707-3.513.151.037L157.6,85.357l-.15-.038" transform="translate(-16.132 -8.381)" fill="#a5cfef"/>
              <path id="Trazado_212210" data-name="Trazado 212210" d="M210.773,180.039l6.475,11.076c14.871,3.638,14.035-19.588,28.905-15.95l-7.3-12.489c-14.594-3.167-13.483,20.53-28.078,17.364" transform="translate(-21.595 -16.637)" fill="#a5cfef"/>
              <path id="Trazado_212211" data-name="Trazado 212211" d="M232.872,174.045c-1.336-2.283-3.824-2.325-5.416.152s-1.975,6.038-.714,8.194c1.282,2.193,3.768,2.23,5.414-.155s2.03-5.943.716-8.19" transform="translate(-23.154 -17.656)" fill="#fff"/>
              <path id="Trazado_212212" data-name="Trazado 212212" d="M231.911,181.8c-1.433,2.072-3.582,2.078-4.7.169-1.1-1.885-.79-5.033.6-7.174s3.544-2.144,4.7-.166c1.142,1.954.828,5.1-.6,7.171m-4.028-6.89c-1.349,2.069-1.646,5.12-.58,6.945,1.08,1.846,3.154,1.835,4.541-.17a7,7,0,0,0,.581-6.943c-1.117-1.911-3.193-1.9-4.542.168" transform="translate(-23.211 -17.742)" fill="#a5cfef"/>
              <path id="Trazado_212213" data-name="Trazado 212213" d="M241.442,173.91c-9.236,1.33-10.92,15.576-20.3,16.668l-.032-.055c-.586-1-2.116-1.628-3.657-1.817l-.085-.011-3.359-5.745.083.009c1.4.153,2.013-.7,1.625-1.626-.006-.017-.013-.033-.021-.049,9.209-1.39,10.71-15.964,19.779-17.592l.039.051a5,5,0,0,0,3.539,1.649l.083.007,3.754,6.421-.083-.008c-1.518-.148-2.037.953-1.4,2.037l.035.06m-20.215,16.541c9.2-1.219,10.94-15.187,20-16.639-.607-1.109-.089-2.235,1.429-2.128l-3.612-6.178a5.274,5.274,0,0,1-3.621-1.671c-8.919,1.728-10.478,16.045-19.533,17.538.365.948-.242,1.821-1.648,1.7l3.234,5.532a5.277,5.277,0,0,1,3.75,1.842" transform="translate(-21.926 -16.771)" fill="#fff"/>
              <path id="Trazado_212214" data-name="Trazado 212214" d="M220.885,189.321a2.523,2.523,0,0,1-2.584-1.057c-.441-.753.053-1.416.977-1.689a2.081,2.081,0,0,1,2.405.75,1.325,1.325,0,0,1-.8,2m-1.542-2.637c-.851.25-1.3.873-.893,1.567a2.3,2.3,0,0,0,2.37.96,1.213,1.213,0,0,0,.741-1.827,1.929,1.929,0,0,0-2.219-.7" transform="translate(-22.349 -19.105)" fill="#fff"/>
              <path id="Trazado_212215" data-name="Trazado 212215" d="M240.2,171.054a2.029,2.029,0,0,1-2.427-.788,1.484,1.484,0,0,1,.679-2.2,2.391,2.391,0,0,1,2.6,1.082,1.259,1.259,0,0,1-.851,1.907m-1.678-2.869a1.357,1.357,0,0,0-.631,2.015,1.878,1.878,0,0,0,2.238.735,1.166,1.166,0,0,0,.776-1.766,2.185,2.185,0,0,0-2.384-.984" transform="translate(-24.336 -17.21)" fill="#fff"/>
              <path id="Trazado_212216" data-name="Trazado 212216" d="M230.75,180.446c-.285.409-.586.677-.813.629.011-.056.021-.111.031-.166.41.088,1.266-1.266,1.48-2.331.075-.372.091-.836-.257-.943-.477-.148-1.019.423-1.5.929-.531.563-1.038,1.087-1.323.481-.517-1.1,1.172-3.307,1.247-3.4l.06.125c-.019.018-1.677,2.178-1.215,3.159.22.469.594.118,1.18-.5.5-.527,1.062-1.121,1.583-.959.337.1.452.507.325,1.135a5.432,5.432,0,0,1-.8,1.841" transform="translate(-23.388 -17.996)" fill="#a5cfef"/>
              <path id="Trazado_212217" data-name="Trazado 212217" d="M230.941,180.887l-2.583-3.588.078-.135q1.291,1.792,2.584,3.59c-.027.045-.054.089-.079.133" transform="translate(-23.396 -18.151)" fill="#a5cfef"/>
              <path id="Trazado_212218" data-name="Trazado 212218" d="M231.526,180.043l-2.589-3.6.078-.135q1.294,1.8,2.59,3.6c-.026.045-.053.089-.079.133" transform="translate(-23.456 -18.063)" fill="#a5cfef"/>
              <g id="Grupo_148902" data-name="Grupo 148902" transform="translate(100.016 100.852)" style="mix-blend-mode: multiply;isolation: isolate">
                <g id="Grupo_148901" data-name="Grupo 148901">
                  <g id="Grupo_148900" data-name="Grupo 148900" clip-path="url(#clip-path-26)">
                    <path id="Trazado_212219" data-name="Trazado 212219" d="M124.929,118.839c-3.6-.354-8.963-.991-10-1.735-.972-.7-2.47-3.025-3.493-4.74a30.347,30.347,0,0,0,3.493,2.913c.669.442,5.086.959,8.915,1.126.365.886.732,1.717,1.089,2.436" transform="translate(-111.433 -112.364)" fill="gray"/>
                  </g>
                </g>
              </g>
              <path id="Trazado_212220" data-name="Trazado 212220" d="M134.634,104.12l-3.73,1.491a2.357,2.357,0,0,1,.657-1.345c.955-.979,2.039-1.754,2.635-1.028a2.734,2.734,0,0,1,.438.881" transform="translate(-13.412 -10.548)" fill="#fff"/>
            </g>
          </g>
        </g>
      </g>
    </g>
  </g>
</svg>
