<svg xmlns="http://www.w3.org/2000/svg" xmlns:xlink="http://www.w3.org/1999/xlink" width="823.074" height="816.114" viewBox="0 0 823.074 816.114">
  <defs>
    <clipPath id="clip-path">
      <rect id="Rectángulo_39785" data-name="Rectángulo 39785" width="262.642" height="247.825" fill="none"/>
    </clipPath>
    <clipPath id="clip-path-3">
      <rect id="Rectángulo_39777" data-name="Rectángulo 39777" width="14.205" height="10.278" fill="none"/>
    </clipPath>
    <clipPath id="clip-path-4">
      <rect id="Rectángulo_39778" data-name="Rectángulo 39778" width="24.848" height="21.35" fill="none"/>
    </clipPath>
    <clipPath id="clip-path-5">
      <rect id="Rectángulo_39779" data-name="Rectángulo 39779" width="24.828" height="8.622" fill="none"/>
    </clipPath>
    <clipPath id="clip-path-6">
      <rect id="Rectángulo_39780" data-name="Rectángulo 39780" width="1.937" height="1.93" fill="none"/>
    </clipPath>
    <clipPath id="clip-path-7">
      <rect id="Rectángulo_39781" data-name="Rectángulo 39781" width="24.84" height="2.351" fill="none"/>
    </clipPath>
  </defs>
  <g id="Grupo_149985" data-name="Grupo 149985" transform="translate(-388.463 -2317.478)">
    <g id="Grupo_148976" data-name="Grupo 148976" transform="translate(-28.014 -22.623)">
      <g id="Grupo_148949" data-name="Grupo 148949" transform="translate(418.014 2341.638)">
        <circle id="Elipse_4017" data-name="Elipse 4017" cx="307.186" cy="307.186" r="307.186" transform="translate(98.982 119.886)" fill="#039d95"/>
        <g id="Grupo_53692" data-name="Grupo 53692">
          <path id="Trazado_100423" data-name="Trazado 100423" d="M700.836,749.116a377,377,0,0,1-188.828,78.2,40.271,40.271,0,0,1-45.138-39.921V548.363c0-35.843,43.362-53.775,68.683-28.4L704.365,689.148A40.191,40.191,0,0,1,700.836,749.116Z" transform="translate(-44.906 -14.562)" fill="#efedee" stroke="#fff" stroke-miterlimit="10" stroke-width="3"/>
          <path id="Trazado_100424" data-name="Trazado 100424" d="M714.769,681.851l-169.032-169.4C520.45,487.1,538.4,443.83,574.2,443.83H813.54a40.272,40.272,0,0,1,39.909,45.149,377,377,0,0,1-78.712,189.463A40.186,40.186,0,0,1,714.769,681.851Z" transform="translate(-38.462 -20.737)" fill="#efedee" stroke="#fff" stroke-miterlimit="10" stroke-width="3"/>
          <path id="Trazado_100425" data-name="Trazado 100425" d="M705.146,140.932a377,377,0,0,0-188.828-78.2,40.271,40.271,0,0,0-45.138,39.92v239.03c0,35.843,43.362,53.775,68.682,28.4L708.675,200.9A40.191,40.191,0,0,0,705.146,140.932Z" transform="translate(-44.492 -57.393)" fill="#efedee" stroke="#fff" stroke-miterlimit="10" stroke-width="3"/>
          <path id="Trazado_100426" data-name="Trazado 100426" d="M719.079,205.157l-169.032,169.4c-25.287,25.342-7.333,68.617,28.466,68.617H817.849a40.272,40.272,0,0,0,39.909-45.149,377,377,0,0,0-78.712-189.463A40.178,40.178,0,0,0,719.079,205.157Z" transform="translate(-38.048 -44.814)" fill="#efedee" stroke="#fff" stroke-miterlimit="10" stroke-width="3"/>
          <path id="Trazado_100427" data-name="Trazado 100427" d="M235.281,744.216a377,377,0,0,0,188.828,78.2,40.271,40.271,0,0,0,45.138-39.921V543.463c0-35.843-43.362-53.775-68.682-28.4L231.741,684.248A40.2,40.2,0,0,0,235.281,744.216Z" transform="translate(-68.635 -15.033)" fill="#efedee" stroke="#fff" stroke-miterlimit="10" stroke-width="3"/>
          <path id="Trazado_100428" data-name="Trazado 100428" d="M220.876,681.551l169.032-169.4c25.287-25.342,7.333-68.617-28.466-68.617H122.1A40.272,40.272,0,0,0,82.2,488.679a377,377,0,0,0,78.712,189.463A40.178,40.178,0,0,0,220.876,681.551Z" transform="translate(-81.906 -20.766)" fill="#efedee" stroke="#fff" stroke-miterlimit="10" stroke-width="3"/>
          <path id="Trazado_100429" data-name="Trazado 100429" d="M232.462,136.322a377,377,0,0,1,188.828-78.2,40.271,40.271,0,0,1,45.138,39.92v239.03c0,35.843-43.362,53.775-68.683,28.4L228.921,196.291A40.192,40.192,0,0,1,232.462,136.322Z" transform="translate(-68.907 -57.837)" fill="#efedee" stroke="#fff" stroke-miterlimit="10" stroke-width="3"/>
          <path id="Trazado_100430" data-name="Trazado 100430" d="M223.946,202.076l169.032,169.4c25.287,25.342,7.333,68.617-28.466,68.617H125.175a40.272,40.272,0,0,1-39.91-45.149,377,377,0,0,1,78.712-189.463A40.2,40.2,0,0,1,223.946,202.076Z" transform="translate(-81.611 -45.109)" fill="#efedee" stroke="#fff" stroke-miterlimit="10" stroke-width="3"/>
        </g>
        <circle id="Elipse_4018" data-name="Elipse 4018" cx="234.766" cy="234.766" r="234.766" transform="translate(175.23 171.754)" fill="#039d95"/>
        <circle id="Elipse_4019" data-name="Elipse 4019" cx="227.718" cy="227.718" r="227.718" transform="translate(182.277 178.803)" fill="#fff"/>
        <g id="Grupo_53701" data-name="Grupo 53701" transform="translate(442.803 65.967)">
          <rect id="Rectángulo_5081" data-name="Rectángulo 5081" width="138.012" height="67.488" transform="translate(0 0)" fill="none"/>
        </g>
        <g id="Grupo_53706" data-name="Grupo 53706" transform="translate(650.263 493.803)">
          <rect id="Rectángulo_5083" data-name="Rectángulo 5083" width="110.729" height="36.983" transform="translate(0 0)" fill="none"/>
        </g>
        <g id="Grupo_53711" data-name="Grupo 53711" transform="translate(200.538 92.166)">
          <rect id="Rectángulo_5088" data-name="Rectángulo 5088" width="157.523" height="82.592" transform="translate(0 0)" fill="none"/>
        </g>
      </g>
      <text id="Creación_y_protección_del_valor" data-name="Creación y protección del valor" transform="translate(725.192 2863.612)" fill="#12263f" font-size="18" font-family="Roboto-Black, Roboto" font-weight="800"><tspan x="-88.734" y="19">Creación y protección </tspan><tspan x="-34.976" y="44">del valor</tspan></text>
      <text id="Integrada" transform="translate(889.702 2459.136)" fill="#12263f" font-size="18" font-family="Roboto-Black, Roboto" font-weight="800"><tspan x="0" y="0">Integrada</tspan></text>
      <text id="Estructurada_y_exhaustiva_" data-name="Estructurada y exhaustiva " transform="translate(1071.85 2614.932)" fill="#12263f" font-size="18" font-family="Roboto-Black, Roboto" font-weight="800"><tspan x="0" y="19">Estructurada y </tspan><tspan x="0" y="44">exhaustiva </tspan></text>
      <text id="Adaptada" transform="translate(1080.383 2863.612)" fill="#12263f" font-size="18" font-family="Roboto-Black, Roboto" font-weight="800"><tspan x="0" y="19">Adaptada</tspan></text>
      <text id="Inclusiva" transform="translate(910.911 3020.256)" fill="#12263f" font-size="18" font-family="Roboto-Black, Roboto" font-weight="800"><tspan x="0" y="19">Inclusiva</tspan></text>
      <text id="Dinámica" transform="translate(660.127 3020.256)" fill="#12263f" font-size="18" font-family="Roboto-Black, Roboto" font-weight="800"><tspan x="0" y="19">Dinámica</tspan></text>
      <text id="Mejor_información_disponible" data-name="Mejor información disponible" transform="translate(478.798 2836.946)" fill="#12263f" font-size="18" font-family="Roboto-Black, Roboto" font-weight="800"><tspan x="0" y="19">Mejor </tspan><tspan x="0" y="44">información </tspan><tspan x="0" y="69">disponible</tspan></text>
      <text id="Factores_humanos_y_culturales_" data-name="Factores humanos y culturales " transform="translate(465.998 2604.266)" fill="#12263f" font-size="18" font-family="Roboto-Black, Roboto" font-weight="800"><tspan x="0" y="19">Factores </tspan><tspan x="0" y="44">humanos y </tspan><tspan x="0" y="69">culturales </tspan></text>
      <text id="Mejora_continua_" data-name="Mejora continua " transform="translate(647.327 2465.688)" fill="#12263f" font-size="18" font-family="Roboto-Black, Roboto" font-weight="800"><tspan x="0" y="0">Mejora continua </tspan></text>
      <g id="Grupo_148975" data-name="Grupo 148975" transform="translate(694.135 2595.733)">
        <g id="Grupo_148974" data-name="Grupo 148974" clip-path="url(#clip-path)">
          <rect id="Rectángulo_39753" data-name="Rectángulo 39753" width="10.435" height="63.975" transform="translate(94.021 183.574)" fill="#ebebeb"/>
          <rect id="Rectángulo_39754" data-name="Rectángulo 39754" width="10.434" height="63.975" transform="translate(226.168 183.723)" fill="#ebebeb"/>
          <rect id="Rectángulo_39755" data-name="Rectángulo 39755" width="10.435" height="25.114" transform="translate(248.459 222.584)" fill="#ebebeb"/>
          <rect id="Rectángulo_39756" data-name="Rectángulo 39756" width="10.434" height="59.931" transform="translate(6.864 187.618)" fill="#ebebeb"/>
          <rect id="Rectángulo_39757" data-name="Rectángulo 39757" width="10.435" height="105.781" transform="translate(28.653 141.768)" fill="#ebebeb"/>
          <rect id="Rectángulo_39758" data-name="Rectángulo 39758" width="10.434" height="37.409" transform="translate(50.443 210.14)" fill="#ebebeb"/>
          <rect id="Rectángulo_39759" data-name="Rectángulo 39759" width="10.434" height="110.655" transform="translate(72.233 136.894)" fill="#ebebeb"/>
          <rect id="Rectángulo_39760" data-name="Rectángulo 39760" width="10.434" height="101.088" transform="translate(115.812 146.461)" fill="#ebebeb"/>
          <rect id="Rectángulo_39761" data-name="Rectángulo 39761" width="10.434" height="74.82" transform="translate(137.601 172.729)" fill="#ebebeb"/>
          <rect id="Rectángulo_39762" data-name="Rectángulo 39762" width="10.434" height="111.411" transform="translate(159.39 136.138)" fill="#ebebeb"/>
          <rect id="Rectángulo_39763" data-name="Rectángulo 39763" width="10.434" height="130.495" transform="translate(181.18 117.054)" fill="#ebebeb"/>
          <rect id="Rectángulo_39764" data-name="Rectángulo 39764" width="10.434" height="92.446" transform="translate(202.969 155.103)" fill="#ebebeb"/>
          <g id="Grupo_148973" data-name="Grupo 148973">
            <g id="Grupo_148972" data-name="Grupo 148972" clip-path="url(#clip-path)">
              <path id="Trazado_212341" data-name="Trazado 212341" d="M258.146,352.178c0,.084-57.793.152-129.067.152C57.78,352.33,0,352.262,0,352.178s57.78-.152,129.079-.152c71.274,0,129.067.068,129.067.152" transform="translate(0 -104.505)" fill="#263238"/>
              <path id="Trazado_212342" data-name="Trazado 212342" d="M295.127,295.272c-8.723-3.7-18.822-10.986-23.327-19.918a49.678,49.678,0,0,1,23.327,19.918" transform="translate(-80.689 -81.744)" fill="#263238"/>
              <path id="Trazado_212343" data-name="Trazado 212343" d="M292.489,275.56c-8.723-3.7-18.822-10.986-23.327-19.918a49.679,49.679,0,0,1,23.327,19.918" transform="translate(-79.906 -75.892)" fill="#263238"/>
              <path id="Trazado_212344" data-name="Trazado 212344" d="M288.9,256.387c-8.724-3.7-18.823-10.986-23.328-19.918A49.683,49.683,0,0,1,288.9,256.387" transform="translate(-78.84 -70.2)" fill="#263238"/>
              <path id="Trazado_212345" data-name="Trazado 212345" d="M285.459,235.026c-8.229-4.883-17.4-13.5-20.82-22.971a51.247,51.247,0,0,1,20.82,22.971" transform="translate(-78.563 -62.952)" fill="#263238"/>
              <path id="Trazado_212346" data-name="Trazado 212346" d="M284.579,216.858c-6-7.844-11.586-19.514-11.513-29.628a55.11,55.11,0,0,1,11.513,29.628" transform="translate(-81.064 -55.583)" fill="#263238"/>
              <path id="Trazado_212347" data-name="Trazado 212347" d="M291.825,223.2c1.211-10.6,5.337-23.94,12.34-31.893a64.772,64.772,0,0,1-12.34,31.893" transform="translate(-86.633 -56.794)" fill="#263238"/>
              <path id="Trazado_212348" data-name="Trazado 212348" d="M295.835,239.6c2.135-10.934,7.531-24.458,15.484-32.128A67.3,67.3,0,0,1,295.835,239.6" transform="translate(-87.824 -61.592)" fill="#263238"/>
              <path id="Trazado_212349" data-name="Trazado 212349" d="M300.442,259.722c2.135-10.934,7.531-24.458,15.484-32.128a67.3,67.3,0,0,1-15.484,32.128" transform="translate(-89.192 -67.565)" fill="#263238"/>
              <path id="Trazado_212350" data-name="Trazado 212350" d="M304.138,284.423c2.135-10.934,7.531-24.458,15.484-32.128a67.3,67.3,0,0,1-15.484,32.128" transform="translate(-90.289 -74.898)" fill="#263238"/>
              <path id="Trazado_212351" data-name="Trazado 212351" d="M288.861,226.411a.7.7,0,0,1,.067.163c.044.129.1.29.165.489.146.458.349,1.09.6,1.892.525,1.643,1.234,4.036,2.064,7.007s1.755,6.525,2.7,10.492c.931,3.971,1.879,8.353,2.755,12.978s1.57,9.058,2.145,13.1c.558,4.04.991,7.688,1.292,10.758s.515,5.556.624,7.277c.053.84.094,1.5.124,1.981.009.211.018.38.023.516a.649.649,0,0,1,0,.176.694.694,0,0,1-.031-.174c-.015-.136-.034-.3-.058-.513-.045-.478-.108-1.138-.188-1.976-.15-1.717-.4-4.2-.731-7.263s-.789-6.705-1.363-10.739c-.591-4.032-1.306-8.454-2.169-13.078s-1.812-9-2.725-12.97c-.93-3.966-1.824-7.525-2.63-10.5s-1.473-5.378-1.958-7.032l-.543-1.91-.133-.5a.7.7,0,0,1-.034-.174" transform="translate(-85.753 -67.214)" fill="#263238"/>
              <path id="Trazado_212352" data-name="Trazado 212352" d="M308.844,300.435c-3.7-7.747-6.389-18.638-4.574-27.14a48.115,48.115,0,0,1,4.574,27.14" transform="translate(-90.156 -81.133)" fill="#455a64"/>
              <path id="Trazado_212353" data-name="Trazado 212353" d="M317.6,286.169c-3.7-7.747-6.389-18.638-4.574-27.14a48.115,48.115,0,0,1,4.574,27.14" transform="translate(-92.754 -76.897)" fill="#455a64"/>
              <path id="Trazado_212354" data-name="Trazado 212354" d="M325.443,271.663c-3.7-7.747-6.389-18.638-4.573-27.14a48.115,48.115,0,0,1,4.573,27.14" transform="translate(-95.083 -72.591)" fill="#455a64"/>
              <path id="Trazado_212355" data-name="Trazado 212355" d="M334.143,255.845c-2.752-8.2-4.132-19.377-1.325-27.554a48.446,48.446,0,0,1,1.325,27.554" transform="translate(-98.346 -67.772)" fill="#455a64"/>
              <path id="Trazado_212356" data-name="Trazado 212356" d="M340.384,243.652c.27-8.724,2.836-19.65,8.253-26.092a47.311,47.311,0,0,1-8.253,26.092" transform="translate(-101.049 -64.587)" fill="#455a64"/>
              <path id="Trazado_212357" data-name="Trazado 212357" d="M338.056,255.393c6.416-6.055,16.174-12.066,24.944-12.853a48.327,48.327,0,0,1-24.944,12.853" transform="translate(-100.358 -72.002)" fill="#455a64"/>
              <path id="Trazado_212358" data-name="Trazado 212358" d="M331.9,269.2c7.191-5.7,17.874-11.047,27.109-11.067A50.293,50.293,0,0,1,331.9,269.2" transform="translate(-98.531 -76.63)" fill="#455a64"/>
              <path id="Trazado_212359" data-name="Trazado 212359" d="M324.212,284.936c7.191-5.7,17.874-11.047,27.109-11.067a50.3,50.3,0,0,1-27.109,11.067" transform="translate(-96.248 -81.303)" fill="#455a64"/>
              <path id="Trazado_212360" data-name="Trazado 212360" d="M313.5,303.054c7.191-5.7,17.874-11.047,27.109-11.067A50.3,50.3,0,0,1,313.5,303.054" transform="translate(-93.067 -86.682)" fill="#455a64"/>
              <path id="Trazado_212361" data-name="Trazado 212361" d="M330.044,252.417a.53.53,0,0,1-.04.144l-.149.411-.6,1.569c-.524,1.361-1.325,3.315-2.351,5.712-2.053,4.8-5.094,11.339-8.871,18.349-1.894,3.5-3.79,6.789-5.567,9.747-1.793,2.948-3.454,5.574-4.9,7.744s-2.639,3.913-3.492,5.1l-.983,1.361-.263.349c-.06.077-.094.116-.1.112a.521.521,0,0,1,.072-.131l.236-.368.933-1.395c.821-1.205,1.988-2.962,3.4-5.15s3.061-4.819,4.837-7.772,3.646-6.249,5.538-9.747c3.773-7,6.841-13.518,8.947-18.286,1.053-2.384,1.886-4.323,2.445-5.669l.658-1.545c.072-.16.131-.292.179-.4a.525.525,0,0,1,.071-.132" transform="translate(-89.869 -74.934)" fill="#263238"/>
              <path id="Trazado_212362" data-name="Trazado 212362" d="M320.56,313.224H283.807v7.083h3.777l3.181,20.2h22.718l3.271-20.2h3.807Z" transform="translate(-84.253 -92.986)" fill="#039d95"/>
              <path id="Trazado_212363" data-name="Trazado 212363" d="M320.672,323.017c0-.094-8.168-.171-18.243-.171s-18.244.077-18.244.171,8.167.171,18.244.171,18.243-.077,18.243-.171" transform="translate(-84.365 -95.843)" fill="#263238"/>
              <path id="Trazado_212364" data-name="Trazado 212364" d="M259.272,6.935V122.271a6.736,6.736,0,0,1-6.736,6.736H81.157a6.736,6.736,0,0,1-6.736-6.736V6.935A6.736,6.736,0,0,1,81.157.2H252.536a6.737,6.737,0,0,1,6.737,6.737" transform="translate(-22.093 -0.059)" fill="#e0e0e0"/>
              <path id="Trazado_212365" data-name="Trazado 212365" d="M259.208,6.876s-.012-.134-.028-.4A6.2,6.2,0,0,0,259,5.306a6.572,6.572,0,0,0-.731-1.8,6.685,6.685,0,0,0-1.787-1.993,6.466,6.466,0,0,0-3.134-1.27,15.624,15.624,0,0,0-1.979-.06l-2.162,0L238.855.2,172.875.247,127.311.265,101.928.273l-13.274,0H81.879a11.721,11.721,0,0,0-1.685.069,6.588,6.588,0,0,0-1.616.43A6.687,6.687,0,0,0,75.92,2.789a6.507,6.507,0,0,0-1.337,3.073A10.079,10.079,0,0,0,74.5,7.576V9.321q0,3.5,0,7.031,0,7.073,0,14.3,0,14.46,0,29.5c0,20.04,0,40.788,0,62.039a7.257,7.257,0,0,0,.283,1.92,7.078,7.078,0,0,0,.827,1.751,7.275,7.275,0,0,0,1.3,1.434,6.578,6.578,0,0,0,3.526,1.462c.637.047,1.3.03,1.961.033h19.58l30.574,0,57.8.009,52.3.014,6.089,0h3a13.66,13.66,0,0,0,1.477-.045,6.765,6.765,0,0,0,1.417-.325,6.608,6.608,0,0,0,4.008-3.886,7.264,7.264,0,0,0,.442-2.8q0-1.44,0-2.865.005-11.4.01-21.863c.02-27.855.037-50.4.048-65.977.012-7.787.022-13.834.028-17.938.007-2.049.012-3.611.015-4.665s.015-1.589.015-1.589.011.539.015,1.589.008,2.616.015,4.665c.007,4.1.016,10.15.029,17.938.011,15.581.028,38.122.049,65.977q0,10.446.01,21.863,0,1.425,0,2.865a7.518,7.518,0,0,1-.454,2.881,6.851,6.851,0,0,1-4.151,4.031,7.029,7.029,0,0,1-1.47.338,14.045,14.045,0,0,1-1.5.048h-3l-6.089,0-52.3.014-57.8.009-30.574,0H82.4c-.66,0-1.311.015-1.991-.034a6.891,6.891,0,0,1-3.689-1.529,7.607,7.607,0,0,1-1.358-1.5A7.4,7.4,0,0,1,74.5,124.2a7.567,7.567,0,0,1-.3-2.007c0-21.251,0-42,0-62.039q0-15.029,0-29.5,0-7.229,0-14.3,0-3.536,0-7.031V7.576A10.484,10.484,0,0,1,74.3,5.819a6.785,6.785,0,0,1,1.4-3.2A6.96,6.96,0,0,1,78.473.52,6.884,6.884,0,0,1,80.157.071,12.063,12.063,0,0,1,81.879,0h6.775l13.274,0,25.383.008,45.564.018L238.855.08l10.353.014,2.162,0a15.677,15.677,0,0,1,1.988.068,6.521,6.521,0,0,1,3.161,1.3,6.724,6.724,0,0,1,1.791,2.019,6.535,6.535,0,0,1,.721,1.818,5.9,5.9,0,0,1,.165,1.177c.011.266.013.4.013.4" transform="translate(-22.029 0)" fill="#263238"/>
              <rect id="Rectángulo_39765" data-name="Rectángulo 39765" width="154.373" height="120.685" transform="translate(65.515 4.679)" fill="#fff"/>
              <path id="Trazado_212366" data-name="Trazado 212366" d="M322.02,84.024a4.942,4.942,0,1,1-4.942,4.942,4.942,4.942,0,0,1,4.942-4.942" transform="translate(-94.13 -24.944)" fill="#263238"/>
              <path id="Trazado_212367" data-name="Trazado 212367" d="M84.034,64.935v37.34a.727.727,0,0,1-.728.728H82.72a.727.727,0,0,1-.728-.728V64.935a.727.727,0,0,1,.728-.728h.586a.727.727,0,0,1,.728.728" transform="translate(-24.341 -19.061)" fill="#263238"/>
              <rect id="Rectángulo_39766" data-name="Rectángulo 39766" width="14.459" height="121.1" transform="translate(65.516 4.263)" fill="#039d95"/>
              <path id="Trazado_212368" data-name="Trazado 212368" d="M108.264,93.041H94.84a1.665,1.665,0,0,1-1.664-1.664V82.665A1.665,1.665,0,0,1,94.84,81h13.424Z" transform="translate(-27.661 -24.047)" fill="#fff"/>
              <path id="Trazado_212369" data-name="Trazado 212369" d="M102.345,28.608h0a2.646,2.646,0,1,1,2.637-2.645,2.641,2.641,0,0,1-2.637,2.645" transform="translate(-29.6 -6.922)" fill="#fff"/>
              <path id="Trazado_212370" data-name="Trazado 212370" d="M104.57,44.278a9.448,9.448,0,0,1-2.377.152,9.452,9.452,0,0,1-2.378-.152,9.452,9.452,0,0,1,2.378-.152,9.448,9.448,0,0,1,2.377.152" transform="translate(-29.632 -13.1)" fill="#fff"/>
              <path id="Trazado_212371" data-name="Trazado 212371" d="M105.171,63.338a9.409,9.409,0,0,1-2.377.152,9.413,9.413,0,0,1-2.378-.152,9.512,9.512,0,0,1,2.378-.151,9.509,9.509,0,0,1,2.377.151" transform="translate(-29.81 -18.758)" fill="#fff"/>
              <path id="Trazado_212372" data-name="Trazado 212372" d="M105.171,111.817a9.449,9.449,0,0,1-2.377.152,9.452,9.452,0,0,1-2.378-.152,9.451,9.451,0,0,1,2.378-.152,9.448,9.448,0,0,1,2.377.152" transform="translate(-29.81 -33.15)" fill="#fff"/>
              <path id="Trazado_212373" data-name="Trazado 212373" d="M105.171,136.82a9.449,9.449,0,0,1-2.377.152,9.452,9.452,0,0,1-2.378-.152,9.451,9.451,0,0,1,2.378-.152,9.447,9.447,0,0,1,2.377.152" transform="translate(-29.81 -40.572)" fill="#fff"/>
              <path id="Trazado_212374" data-name="Trazado 212374" d="M105.171,89.75a9.448,9.448,0,0,1-2.377.152,9.452,9.452,0,0,1-2.378-.152,9.452,9.452,0,0,1,2.378-.152,9.448,9.448,0,0,1,2.377.152" transform="translate(-29.81 -26.599)" fill="#263238"/>
              <path id="Trazado_212375" data-name="Trazado 212375" d="M247.485,127.1c0-1.046-.05-48.049-.126-121.1l.126.126-154.36.026h-.013L93.264,6c-.006,43.676-.011,84.975-.015,121.1l-.136-.136,154.373.136-154.373.136h-.136V127.1c0-36.126-.01-77.425-.015-121.1V5.847h.165l154.36.026h.126V6c-.076,73.052-.124,120.055-.126,121.1" transform="translate(-27.597 -1.736)" fill="#263238"/>
              <rect id="Rectángulo_39767" data-name="Rectángulo 39767" width="2.08" height="6.966" transform="translate(170.821 103.946)" fill="#039d95"/>
              <rect id="Rectángulo_39768" data-name="Rectángulo 39768" width="2.08" height="7.976" transform="translate(153.451 102.936)" fill="#039d95"/>
              <rect id="Rectángulo_39769" data-name="Rectángulo 39769" width="2.08" height="9.638" transform="translate(157.793 101.274)" fill="#039d95"/>
              <rect id="Rectángulo_39770" data-name="Rectángulo 39770" width="2.08" height="9.109" transform="translate(162.136 101.803)" fill="#039d95"/>
              <rect id="Rectángulo_39771" data-name="Rectángulo 39771" width="2.08" height="12.191" transform="translate(166.479 98.721)" fill="#039d95"/>
              <rect id="Rectángulo_39772" data-name="Rectángulo 39772" width="2.08" height="12.131" transform="translate(175.164 98.781)" fill="#039d95"/>
              <rect id="Rectángulo_39773" data-name="Rectángulo 39773" width="2.08" height="8.147" transform="translate(179.506 102.765)" fill="#039d95"/>
              <rect id="Rectángulo_39774" data-name="Rectángulo 39774" width="2.08" height="11.597" transform="translate(183.849 99.315)" fill="#039d95"/>
              <rect id="Rectángulo_39775" data-name="Rectángulo 39775" width="2.08" height="14.21" transform="translate(188.192 96.702)" fill="#039d95"/>
              <rect id="Rectángulo_39776" data-name="Rectángulo 39776" width="2.08" height="11.657" transform="translate(192.535 99.256)" fill="#039d95"/>
              <path id="Trazado_212376" data-name="Trazado 212376" d="M259.584,153.547H208.43a4.227,4.227,0,0,1-4.223-4.222V118.742a4.228,4.228,0,0,1,4.223-4.223h51.154a4.228,4.228,0,0,1,4.223,4.223v30.583a4.228,4.228,0,0,1-4.223,4.222M208.43,114.936a3.81,3.81,0,0,0-3.806,3.806v30.583a3.81,3.81,0,0,0,3.806,3.805h51.154a3.81,3.81,0,0,0,3.805-3.805V118.742a3.81,3.81,0,0,0-3.805-3.806Z" transform="translate(-60.622 -33.997)" fill="#e0e0e0"/>
              <path id="Trazado_212377" data-name="Trazado 212377" d="M240.469,128.934c0,.06-5.918.108-13.215.108s-13.216-.049-13.216-.108,5.915-.109,13.216-.109,13.215.049,13.215.109" transform="translate(-63.541 -38.244)" fill="#e0e0e0"/>
              <path id="Trazado_212378" data-name="Trazado 212378" d="M130.4,115.008V152.78h40.192V115.008Z" transform="translate(-38.711 -34.142)" fill="#f5f5f5"/>
              <path id="Trazado_212379" data-name="Trazado 212379" d="M153.49,121.1a12.4,12.4,0,1,0,12.4,12.4,12.4,12.4,0,0,0-12.4-12.4m.187,19.832a7.618,7.618,0,1,1,7.618-7.618,7.618,7.618,0,0,1-7.618,7.618" transform="translate(-41.885 -35.95)" fill="#263238"/>
              <path id="Trazado_212380" data-name="Trazado 212380" d="M159,121.1c0,1.319,0,3.1,0,4.591a7.622,7.622,0,0,1,7.259,9.928l4.494,1.219A12.4,12.4,0,0,0,159,121.1" transform="translate(-47.2 -35.952)" fill="#039d95"/>
              <path id="Trazado_212381" data-name="Trazado 212381" d="M146.059,133.721a7.618,7.618,0,0,1,4.515-6.957l-1.907-4.284a12.4,12.4,0,0,0-7.578,11.429c0,.174.006.347.013.52h4.991c-.021-.233-.033-.469-.033-.707" transform="translate(-41.885 -36.36)" fill="#455a64"/>
              <path id="Trazado_212382" data-name="Trazado 212382" d="M157.958,147.061a7.65,7.65,0,0,1-1.612-.172c-.191,1.105-.553,3.247-.838,4.933a12.392,12.392,0,0,0,14.2-8.85l-4.494-1.219a7.621,7.621,0,0,1-7.261,5.308" transform="translate(-46.165 -42.082)" fill="#039d95"/>
              <g id="Grupo_148953" data-name="Grupo 148953" transform="translate(109.343 99.67)" opacity="0.3">
                <g id="Grupo_148952" data-name="Grupo 148952">
                  <g id="Grupo_148951" data-name="Grupo 148951" clip-path="url(#clip-path-3)">
                    <path id="Trazado_212383" data-name="Trazado 212383" d="M157.958,147.061a7.65,7.65,0,0,1-1.612-.172c-.191,1.105-.553,3.247-.838,4.933a12.392,12.392,0,0,0,14.2-8.85l-4.494-1.219a7.621,7.621,0,0,1-7.261,5.308" transform="translate(-155.508 -141.752)"/>
                  </g>
                </g>
              </g>
              <path id="Trazado_212384" data-name="Trazado 212384" d="M155.548,138.4h-.459V139h-.636V138.4h-1.518v-.439l1.328-1.787h.685l-1.232,1.695h.757v-.527h.616v.527h.459Z" transform="translate(-45.402 -40.427)" fill="#263238"/>
              <path id="Trazado_212385" data-name="Trazado 212385" d="M156.925,137.567c0-.93.515-1.458,1.208-1.458s1.208.528,1.208,1.458-.512,1.458-1.208,1.458-1.208-.527-1.208-1.458m1.76,0c0-.64-.226-.906-.552-.906s-.547.266-.547.906.226.906.547.906.552-.266.552-.906" transform="translate(-46.586 -40.406)" fill="#263238"/>
              <path id="Trazado_212386" data-name="Trazado 212386" d="M160.744,136.909a.7.7,0,1,1,.7.778.7.7,0,0,1-.7-.778m.994,0c0-.3-.117-.446-.294-.446s-.294.149-.294.446.121.447.294.447.294-.145.294-.447m1.385-.745h.479l-1.924,2.818H161.2Zm-.463,2.074a.7.7,0,1,1,.7.777.7.7,0,0,1-.7-.777m.99,0c0-.3-.117-.447-.294-.447s-.294.146-.294.447.121.447.294.447.294-.149.294-.447" transform="translate(-47.72 -40.413)" fill="#263238"/>
              <path id="Trazado_212387" data-name="Trazado 212387" d="M164.655,160.771c0,.065-4.595.117-10.262.117s-10.262-.053-10.262-.117,4.594-.117,10.262-.117,10.262.053,10.262.117" transform="translate(-42.788 -47.693)" fill="#263238"/>
              <path id="Trazado_212388" data-name="Trazado 212388" d="M162.014,163.45c0,.065-2.548.117-5.691.117s-5.692-.053-5.692-.117,2.548-.117,5.692-.117,5.691.053,5.691.117" transform="translate(-44.717 -48.488)" fill="#263238"/>
              <path id="Trazado_212389" data-name="Trazado 212389" d="M249.533,36.209s-.2.009-.6.014l-1.764.013-6.818.026-25.363.045-86.162.053.211-.152c0,6.771,0,13.793,0,20.979,0,7.4,0,14.635,0,21.616l-.211-.151,85.563.053,25.164.046,6.763.025,1.749.013c.394,0,.595.014.595.014s-.2.009-.595.014l-1.749.013-6.763.026-25.164.045-85.563.053h-.211V78.8c0-6.981,0-14.212,0-21.616,0-7.186,0-14.208,0-20.979v-.152h.211l86.162.053,25.363.045,6.818.026,1.764.013c.4,0,.6.014.6.014" transform="translate(-38.18 -10.704)" fill="#e0e0e0"/>
              <path id="Trazado_212390" data-name="Trazado 212390" d="M249.624,46.407c0,.086-27.023.155-60.351.155s-60.356-.069-60.356-.155,27.017-.155,60.356-.155,60.351.07,60.351.155" transform="translate(-38.271 -13.731)" fill="#e0e0e0"/>
              <path id="Trazado_212391" data-name="Trazado 212391" d="M249.624,54.752c0,.086-27.023.155-60.351.155s-60.356-.069-60.356-.155,27.017-.155,60.356-.155,60.351.07,60.351.155" transform="translate(-38.271 -16.208)" fill="#e0e0e0"/>
              <path id="Trazado_212392" data-name="Trazado 212392" d="M249.624,63.1c0,.086-27.023.155-60.351.155s-60.356-.069-60.356-.155,27.017-.155,60.356-.155,60.351.07,60.351.155" transform="translate(-38.271 -18.685)" fill="#e0e0e0"/>
              <path id="Trazado_212393" data-name="Trazado 212393" d="M249.624,71.441c0,.086-27.023.155-60.351.155s-60.356-.069-60.356-.155,27.017-.155,60.356-.155,60.351.07,60.351.155" transform="translate(-38.271 -21.163)" fill="#e0e0e0"/>
              <path id="Trazado_212394" data-name="Trazado 212394" d="M249.624,79.785c0,.085-27.023.155-60.351.155s-60.356-.07-60.356-.155,27.017-.155,60.356-.155,60.351.07,60.351.155" transform="translate(-38.271 -23.64)" fill="#e0e0e0"/>
              <path id="Trazado_212395" data-name="Trazado 212395" d="M128.917,88.13c0-.085,27.023-.155,60.351-.155s60.356.07,60.356.155-27.018.155-60.356.155-60.351-.07-60.351-.155" transform="translate(-38.271 -26.117)" fill="#e0e0e0"/>
              <path id="Trazado_212396" data-name="Trazado 212396" d="M153.186,79.517c-.085,0-.155-9.681-.155-21.621s.07-21.623.155-21.623.154,9.679.154,21.623-.07,21.621-.154,21.621" transform="translate(-45.43 -10.768)" fill="#e0e0e0"/>
              <path id="Trazado_212397" data-name="Trazado 212397" d="M177.91,79.517c-.085,0-.155-9.681-.155-21.621s.07-21.623.155-21.623.155,9.679.155,21.623-.07,21.621-.155,21.621" transform="translate(-52.77 -10.768)" fill="#e0e0e0"/>
              <path id="Trazado_212398" data-name="Trazado 212398" d="M202.634,79.517c-.086,0-.155-9.681-.155-21.621s.069-21.623.155-21.623.155,9.679.155,21.623-.07,21.621-.155,21.621" transform="translate(-60.109 -10.768)" fill="#e0e0e0"/>
              <path id="Trazado_212399" data-name="Trazado 212399" d="M227.359,79.517c-.085,0-.155-9.681-.155-21.621s.07-21.623.155-21.623.155,9.679.155,21.623-.07,21.621-.155,21.621" transform="translate(-67.45 -10.768)" fill="#e0e0e0"/>
              <path id="Trazado_212400" data-name="Trazado 212400" d="M252.083,79.517c-.086,0-.155-9.681-.155-21.621s.069-21.623.155-21.623.155,9.679.155,21.623-.07,21.621-.155,21.621" transform="translate(-74.789 -10.768)" fill="#e0e0e0"/>
              <path id="Trazado_212401" data-name="Trazado 212401" d="M276.017,79.517c-.086,0-.155-9.681-.155-21.621s.069-21.623.155-21.623.155,9.679.155,21.623-.07,21.621-.155,21.621" transform="translate(-81.895 -10.768)" fill="#e0e0e0"/>
              <path id="Trazado_212402" data-name="Trazado 212402" d="M300.742,79.517c-.085,0-.155-9.681-.155-21.621s.07-21.623.155-21.623.155,9.679.155,21.623-.07,21.621-.155,21.621" transform="translate(-89.235 -10.768)" fill="#e0e0e0"/>
              <path id="Trazado_212403" data-name="Trazado 212403" d="M153.861,87.748A1.058,1.058,0,1,1,152.8,86.69a1.058,1.058,0,0,1,1.058,1.058" transform="translate(-45.048 -25.735)" fill="#039d95"/>
              <path id="Trazado_212404" data-name="Trazado 212404" d="M178.586,71.059A1.058,1.058,0,1,1,177.528,70a1.058,1.058,0,0,1,1.058,1.058" transform="translate(-52.388 -20.781)" fill="#039d95"/>
              <path id="Trazado_212405" data-name="Trazado 212405" d="M203.31,79.26a1.058,1.058,0,1,1-1.058-1.058,1.058,1.058,0,0,1,1.058,1.058" transform="translate(-59.728 -23.216)" fill="#039d95"/>
              <path id="Trazado_212406" data-name="Trazado 212406" d="M228,62.012a1.1,1.1,0,0,1-1.55,1.55,1.1,1.1,0,0,1,1.55-1.55" transform="translate(-67.143 -18.325)" fill="#039d95"/>
              <path id="Trazado_212407" data-name="Trazado 212407" d="M253.011,62.012a1.1,1.1,0,0,1-1.55,1.55,1.1,1.1,0,0,1,1.55-1.55" transform="translate(-74.567 -18.325)" fill="#039d95"/>
              <path id="Trazado_212408" data-name="Trazado 212408" d="M276.407,78.393a1.1,1.1,0,0,1-1.55,1.55,1.1,1.1,0,0,1,1.55-1.55" transform="translate(-81.512 -23.188)" fill="#039d95"/>
              <path id="Trazado_212409" data-name="Trazado 212409" d="M178.586,54.37a1.058,1.058,0,1,1-1.058-1.058,1.058,1.058,0,0,1,1.058,1.058" transform="translate(-52.388 -15.827)" fill="#455a64"/>
              <path id="Trazado_212410" data-name="Trazado 212410" d="M153.861,79.4a1.058,1.058,0,1,1-1.058-1.058,1.058,1.058,0,0,1,1.058,1.058" transform="translate(-45.048 -23.258)" fill="#455a64"/>
              <path id="Trazado_212411" data-name="Trazado 212411" d="M276.411,86.973a1.1,1.1,0,0,1-1.55,1.55,1.1,1.1,0,0,1,1.55-1.55" transform="translate(-81.513 -25.735)" fill="#455a64"/>
              <path id="Trazado_212412" data-name="Trazado 212412" d="M252.759,71.059A1.058,1.058,0,1,1,251.7,70a1.058,1.058,0,0,1,1.058,1.058" transform="translate(-74.408 -20.781)" fill="#455a64"/>
              <path id="Trazado_212413" data-name="Trazado 212413" d="M228.286,70.839a1.058,1.058,0,1,1-1.058-1.058,1.058,1.058,0,0,1,1.058,1.058" transform="translate(-67.143 -20.716)" fill="#455a64"/>
              <path id="Trazado_212414" data-name="Trazado 212414" d="M141.514,103.695a9.133,9.133,0,0,1-3.348,0,9.133,9.133,0,0,1,3.348,0" transform="translate(-41.017 -30.738)" fill="#e0e0e0"/>
              <path id="Trazado_212415" data-name="Trazado 212415" d="M166.785,103.695a9.133,9.133,0,0,1-3.348,0,9.133,9.133,0,0,1,3.348,0" transform="translate(-48.519 -30.738)" fill="#e0e0e0"/>
              <path id="Trazado_212416" data-name="Trazado 212416" d="M192.056,103.695a9.133,9.133,0,0,1-3.348,0,9.133,9.133,0,0,1,3.348,0" transform="translate(-56.021 -30.738)" fill="#e0e0e0"/>
              <path id="Trazado_212417" data-name="Trazado 212417" d="M217.326,103.695a9.133,9.133,0,0,1-3.348,0,9.133,9.133,0,0,1,3.348,0" transform="translate(-63.523 -30.738)" fill="#e0e0e0"/>
              <path id="Trazado_212418" data-name="Trazado 212418" d="M242.6,103.695a9.133,9.133,0,0,1-3.348,0,9.133,9.133,0,0,1,3.348,0" transform="translate(-71.025 -30.738)" fill="#e0e0e0"/>
              <path id="Trazado_212419" data-name="Trazado 212419" d="M265.195,103.695a9.133,9.133,0,0,1-3.348,0,9.133,9.133,0,0,1,3.348,0" transform="translate(-77.734 -30.738)" fill="#e0e0e0"/>
              <path id="Trazado_212420" data-name="Trazado 212420" d="M287.793,103.695a9.133,9.133,0,0,1-3.348,0,9.133,9.133,0,0,1,3.348,0" transform="translate(-84.443 -30.738)" fill="#e0e0e0"/>
              <path id="Trazado_212421" data-name="Trazado 212421" d="M124.205,96.452a5.986,5.986,0,0,1-2.7,0,5.987,5.987,0,0,1,2.7,0" transform="translate(-36.07 -28.587)" fill="#e0e0e0"/>
              <path id="Trazado_212422" data-name="Trazado 212422" d="M124.205,86.746a5.987,5.987,0,0,1-2.7,0,5.987,5.987,0,0,1,2.7,0" transform="translate(-36.07 -25.706)" fill="#e0e0e0"/>
              <path id="Trazado_212423" data-name="Trazado 212423" d="M124.205,77.041a5.987,5.987,0,0,1-2.7,0,5.987,5.987,0,0,1,2.7,0" transform="translate(-36.07 -22.825)" fill="#e0e0e0"/>
              <path id="Trazado_212424" data-name="Trazado 212424" d="M124.205,67.335a5.987,5.987,0,0,1-2.7,0,5.987,5.987,0,0,1,2.7,0" transform="translate(-36.07 -19.944)" fill="#e0e0e0"/>
              <path id="Trazado_212425" data-name="Trazado 212425" d="M124.205,57.63a5.987,5.987,0,0,1-2.7,0,5.987,5.987,0,0,1,2.7,0" transform="translate(-36.07 -17.062)" fill="#e0e0e0"/>
              <path id="Trazado_212426" data-name="Trazado 212426" d="M124.205,47.924a5.987,5.987,0,0,1-2.7,0,5.987,5.987,0,0,1,2.7,0" transform="translate(-36.07 -14.181)" fill="#e0e0e0"/>
              <path id="Trazado_212427" data-name="Trazado 212427" d="M124.205,38.219a5.987,5.987,0,0,1-2.7,0,5.987,5.987,0,0,1,2.7,0" transform="translate(-36.07 -11.3)" fill="#e0e0e0"/>
              <path id="Trazado_212428" data-name="Trazado 212428" d="M128.673,87l-.193-.551,17.285-6.075,17.472-11.794,17.386,5.767L198.14,62.8l17.542-.051.075.053,16.666,11.774L248.571,63.9l.321.487-16.48,10.89-.162-.115L215.5,63.33l-17.182.05L180.709,74.993l-17.384-5.766L145.993,80.915Z" transform="translate(-38.142 -18.627)" fill="#039d95"/>
              <path id="Trazado_212429" data-name="Trazado 212429" d="M232.646,75.686,215.63,64.119H198.093L180.546,52.538l-17.014-.153-17.384,17.6H128.918V69.4H145.9l17.386-17.6,17.433.157,17.545,11.579H215.81l16.641,11.313,16.621-29.207.507.288Z" transform="translate(-38.271 -13.55)" fill="#455a64"/>
              <path id="Trazado_212430" data-name="Trazado 212430" d="M287.972,24.073c0,.084-6.555.152-14.638.152s-14.639-.068-14.639-.152,6.553-.152,14.639-.152,14.638.068,14.638.152" transform="translate(-76.798 -7.101)" fill="#263238"/>
              <path id="Trazado_212431" data-name="Trazado 212431" d="M85.355,133.543l-2.05,2.564v-4.411h-6.46s-.718,10.1-.564,12.255,2.563,8.3,2.563,8.3a23.787,23.787,0,0,0,6.511-5.69C88.226,142.873,93,133.881,93,133.881l-4.975-3Z" transform="translate(-22.639 -38.853)" fill="#ffc09d"/>
              <path id="Trazado_212432" data-name="Trazado 212432" d="M87.067,133.993a7.381,7.381,0,0,1-.844,1.127c-.544.675-1.3,1.606-2.163,2.613s-1.678,1.893-2.311,2.493a4.676,4.676,0,0,1-1.1.889,10.791,10.791,0,0,1,.944-1.04c.589-.634,1.372-1.538,2.234-2.541a31.827,31.827,0,0,1,3.237-3.542" transform="translate(-23.943 -39.778)" fill="#ff9b6c"/>
              <path id="Trazado_212433" data-name="Trazado 212433" d="M84.063,104.168s-1.841-15.074-9.116-16.614l-3.769,14.489,3.131,10.449L84.7,111.074Z" transform="translate(-21.13 -25.992)" fill="#039d95"/>
              <path id="Trazado_212434" data-name="Trazado 212434" d="M21.138,113.027l.344,1.077,7.151,22.4s17.623,6.7,23.956,4.047a24.128,24.128,0,0,0,9.264-6.42L60.44,86.449,50.391,84.926,33.062,83.655,21.454,87.379Z" transform="translate(-6.275 -24.834)" fill="#039d95"/>
              <g id="Grupo_148956" data-name="Grupo 148956" transform="translate(14.863 85.688)" opacity="0.3">
                <g id="Grupo_148955" data-name="Grupo 148955">
                  <g id="Grupo_148954" data-name="Grupo 148954" clip-path="url(#clip-path-4)">
                    <path id="Trazado_212435" data-name="Trazado 212435" d="M43.01,133.1a74.6,74.6,0,0,1-18.322-11.236l-3.549,1.893c2.668,5.382,4.887,10.3,8.563,15.046a12.531,12.531,0,0,0,4.9,3.929,8.186,8.186,0,0,0,8.224-1.673c2.112-1.965,3.694-7.736,3-12.444-1.185.064-1.714,4.937-2.811,4.485" transform="translate(-21.138 -121.866)"/>
                  </g>
                </g>
              </g>
              <path id="Trazado_212436" data-name="Trazado 212436" d="M76.9,114.454A22.606,22.606,0,0,0,75.7,109.7a22.677,22.677,0,0,0-2.465-4.236,4.86,4.86,0,0,1,1,1.065A13.18,13.18,0,0,1,76.865,113a4.876,4.876,0,0,1,.03,1.458" transform="translate(-21.742 -31.309)" fill="#263238"/>
              <path id="Trazado_212437" data-name="Trazado 212437" d="M70.128,57.921A2.585,2.585,0,0,1,67.7,56.837a3.082,3.082,0,0,0,1.866-.1c.564-.288.884-1.119.442-1.573-.346-.354-.915-.293-1.408-.329a3.047,3.047,0,0,1-2.59-1.988c-.417-1.2-.035-2.508.115-3.769a10.382,10.382,0,0,0-4.346-9.582l-7.9-4.568c-2.866,3.668-3.76,8.611-3.165,13.227a34.851,34.851,0,0,0,4.906,12.971A15.4,15.4,0,0,0,58,64.4a6.1,6.1,0,0,0,3.551,1.822,3.661,3.661,0,0,0-.585-3.307,7.976,7.976,0,0,0,5.877-2.1l-1.694-1.3a6.186,6.186,0,0,0,4.978-1.593" transform="translate(-15.003 -10.368)" fill="#263238"/>
              <path id="Trazado_212438" data-name="Trazado 212438" d="M35.112,45.143a7.4,7.4,0,0,1,5.373-6.974l9.905-2.831c4.3-.589,7.33,4.634,7.737,8.954.451,4.8.789,9.868.329,13.474-.924,7.25-6.425,8.338-6.425,8.338s.1,3.433.153,5.541l-1.614,9.444L37.509,69.94l-2.42-24.708c-.006-.124.016.076.023-.089" transform="translate(-10.416 -10.477)" fill="#ffc09d"/>
              <path id="Trazado_212439" data-name="Trazado 212439" d="M65.293,55.592a.926.926,0,0,1-.864.961.884.884,0,0,1-.979-.805.925.925,0,0,1,.861-.961.887.887,0,0,1,.982.805" transform="translate(-18.836 -16.263)" fill="#263238"/>
              <path id="Trazado_212440" data-name="Trazado 212440" d="M64.883,51.769c-.111.124-.828-.373-1.824-.339s-1.71.553-1.822.435c-.054-.053.056-.275.367-.515a2.535,2.535,0,0,1,1.453-.5,2.435,2.435,0,0,1,1.456.421c.314.226.424.441.369.5" transform="translate(-18.176 -15.096)" fill="#263238"/>
              <path id="Trazado_212441" data-name="Trazado 212441" d="M52.891,55.608a.926.926,0,0,1-.863.961.886.886,0,0,1-.979-.805.927.927,0,0,1,.863-.962.886.886,0,0,1,.98.806" transform="translate(-15.154 -16.268)" fill="#263238"/>
              <path id="Trazado_212442" data-name="Trazado 212442" d="M51.433,52.153c-.112.124-.829-.373-1.824-.339s-1.71.553-1.822.435c-.055-.053.054-.274.366-.515a2.545,2.545,0,0,1,1.454-.5,2.443,2.443,0,0,1,1.456.421c.312.226.423.441.369.5" transform="translate(-14.182 -15.21)" fill="#263238"/>
              <path id="Trazado_212443" data-name="Trazado 212443" d="M57.419,60.04a6.636,6.636,0,0,1,1.608-.342c.254-.034.493-.091.53-.266a1.3,1.3,0,0,0-.193-.748l-.811-1.913a33.37,33.37,0,0,1-1.845-5.012,33.2,33.2,0,0,1,2.244,4.852q.408,1.008.78,1.926a1.472,1.472,0,0,1,.162.994.637.637,0,0,1-.406.385,1.716,1.716,0,0,1-.43.073,6.43,6.43,0,0,1-1.639.053" transform="translate(-16.832 -15.365)" fill="#263238"/>
              <path id="Trazado_212444" data-name="Trazado 212444" d="M45.469,75.851s2.49,4.889,9.69,3.992l-.046-1.7a18.187,18.187,0,0,1-9.643-2.294" transform="translate(-13.498 -22.518)" fill="#ff9b6c"/>
              <path id="Trazado_212445" data-name="Trazado 212445" d="M50.475,47.145c-.09.274-1.088.176-2.251.353-1.168.153-2.1.524-2.262.286-.072-.114.084-.374.456-.648a3.963,3.963,0,0,1,3.439-.487c.434.16.656.366.618.5" transform="translate(-13.639 -13.791)" fill="#263238"/>
              <path id="Trazado_212446" data-name="Trazado 212446" d="M64.408,47.424c-.168.231-.861.018-1.686.032-.826-.015-1.519.2-1.687-.033-.075-.112.029-.342.328-.566a2.441,2.441,0,0,1,2.718,0c.3.224.4.453.328.566" transform="translate(-18.112 -13.788)" fill="#263238"/>
              <path id="Trazado_212447" data-name="Trazado 212447" d="M52.4,65.868a1.3,1.3,0,0,1,1.314-1.024,1.358,1.358,0,0,1,1.066.713,1.667,1.667,0,0,1,.1,1.3l-.018.094a1.481,1.481,0,0,1-1.655.4,1.384,1.384,0,0,1-.8-1.482" transform="translate(-15.55 -19.249)" fill="#ff9b6c"/>
              <path id="Trazado_212448" data-name="Trazado 212448" d="M55.735,66.673c0-.151-1.008-.075-1.789-.879s-.755-1.884-.9-1.881c-.065-.008-.177.255-.154.708a2.511,2.511,0,0,0,.691,1.574,2.188,2.188,0,0,0,1.5.673c.423,0,.664-.127.653-.195" transform="translate(-15.702 -18.974)" fill="#263238"/>
              <path id="Trazado_212449" data-name="Trazado 212449" d="M39.858,31.211a10.045,10.045,0,0,1,5.808-3.979,5.475,5.475,0,0,1,5.31,1.4A5.842,5.842,0,0,0,53.3,30.013c1.126.219,2.069.033,3.412.721,1.836.939,2.641,3.394,3.492,5.273,1.057,2.334,2.564,4.482,3.253,6.95s.323,5.5-1.757,7c.4-2.107.726-4.45-.432-6.255-.882-1.377-2.454-2.138-3.586-3.319-1.365-1.423-1.543-3.328-2.974-4.686-3.266-3.1-9.017,2.354-14.855-4.485" transform="translate(-11.833 -8.039)" fill="#263238"/>
              <path id="Trazado_212450" data-name="Trazado 212450" d="M61.4,42.854a21.071,21.071,0,0,0-3.22-5.831,11.338,11.338,0,0,0-15.073-1.932l-.57.049a9.567,9.567,0,0,0,7.437,3.583c1.7-.008,3.537-.443,4.992.429,1.4.838,1.929,2.6,3.08,3.755.783.786,1.834,1.269,2.6,2.078A8.5,8.5,0,0,1,62.249,48.1c.507-1.735-.16-3.573-.849-5.244" transform="translate(-12.628 -9.817)" fill="#263238"/>
              <path id="Trazado_212451" data-name="Trazado 212451" d="M40.749,36.23l-4.625-4.068c-3.606-.188-5.919,3.22-7.157,5.85-.92,1.955-1.206,4.143-1.9,6.19-.712,2.1-1.849,4.044-2.5,6.166s-.736,4.589.541,6.4l.806-1.483a8.967,8.967,0,0,0,2.426,5.537q.155-.773.311-1.545a8.7,8.7,0,0,0,3.481,3.749L34.3,68.82c3.2-9.748-5.039-10.487,6.446-32.59" transform="translate(-7.157 -9.546)" fill="#263238"/>
              <path id="Trazado_212452" data-name="Trazado 212452" d="M41.05,37.15a20.981,20.981,0,0,1-1.086,3.871,7.443,7.443,0,0,1-2.38,3.186c-1.583,1.148-3.62,1.384-5.521,1.841s-3.926,1.335-4.708,3.125a44.753,44.753,0,0,1,1.621-7.76c.848-2.791,2.07-5.636,4.4-7.4a8.057,8.057,0,0,1,7.594-1.133" transform="translate(-8.121 -9.616)" fill="#263238"/>
              <path id="Trazado_212453" data-name="Trazado 212453" d="M37.931,57.114c-.1-.242-4.585-1.718-4.509,3.005.074,4.589,4.677,3.554,4.682,3.423s-.173-6.428-.173-6.428" transform="translate(-9.922 -16.834)" fill="#ffc09d"/>
              <path id="Trazado_212454" data-name="Trazado 212454" d="M37.142,62.468c-.02-.014-.079.058-.213.122a.8.8,0,0,1-.6.024,1.976,1.976,0,0,1-.949-1.757,2.633,2.633,0,0,1,.2-1.148.924.924,0,0,1,.589-.626.407.407,0,0,1,.476.21c.064.127.037.219.061.227s.1-.079.056-.268a.509.509,0,0,0-.186-.284.6.6,0,0,0-.444-.108,1.121,1.121,0,0,0-.821.728,2.71,2.71,0,0,0-.253,1.284,2.076,2.076,0,0,0,1.2,1.96A.855.855,0,0,0,37,62.7c.14-.116.162-.219.146-.227" transform="translate(-10.408 -17.472)" fill="#ff9b6c"/>
              <path id="Trazado_212455" data-name="Trazado 212455" d="M36.872,65.164a.9.9,0,1,0,.216.062" transform="translate(-10.637 -19.342)" fill="#fff"/>
              <path id="Trazado_212456" data-name="Trazado 212456" d="M37.049,65.211a1.24,1.24,0,0,1,.43.6.778.778,0,0,1-.159.725.8.8,0,0,1-1.423-.409.776.776,0,0,1,.25-.7,1.235,1.235,0,0,1,.686-.283c0-.011-.072-.046-.217-.044a.936.936,0,0,0-.567.217.917.917,0,0,0-.345.837.986.986,0,0,0,1.763.506.917.917,0,0,0,.153-.892.937.937,0,0,0-.366-.484c-.122-.078-.2-.088-.207-.077" transform="translate(-10.597 -19.328)" fill="#263238"/>
              <path id="Trazado_212457" data-name="Trazado 212457" d="M32.349,59.867c-.007.008-.056-.028-.141-.1a3.1,3.1,0,0,1-.351-.353,5.507,5.507,0,0,1-.956-1.564,5.4,5.4,0,0,1-.364-2.7,4.6,4.6,0,0,1,1.625-2.9,11.159,11.159,0,0,1,2.869-1.685c.932-.4,1.768-.755,2.435-1.119a9.92,9.92,0,0,0,1.988-1.436,2,2,0,0,1-.42.524,7.157,7.157,0,0,1-1.463,1.1,26.154,26.154,0,0,1-2.426,1.187,11.488,11.488,0,0,0-2.784,1.658,4.4,4.4,0,0,0-1.548,2.709,5.355,5.355,0,0,0,.288,2.583,8.028,8.028,0,0,0,1.247,2.1" transform="translate(-9.053 -14.252)" fill="#455a64"/>
              <path id="Trazado_212458" data-name="Trazado 212458" d="M32.4,57.362a1.177,1.177,0,0,1-.206-.447,3.732,3.732,0,0,1-.165-1.336,4.261,4.261,0,0,1,.562-1.922,4.2,4.2,0,0,1,1.8-1.67,23.649,23.649,0,0,1,2.242-.907,6.278,6.278,0,0,0,1.678-.93,3.705,3.705,0,0,0,1.05-1.4,1.015,1.015,0,0,1-.11.482,3.005,3.005,0,0,1-.8,1.086,6,6,0,0,1-1.712,1.026c-.687.291-1.466.534-2.208.917A4.035,4.035,0,0,0,32.829,53.8a4.27,4.27,0,0,0-.59,1.8,6.264,6.264,0,0,0,.158,1.768" transform="translate(-9.506 -14.471)" fill="#455a64"/>
              <path id="Trazado_212459" data-name="Trazado 212459" d="M45.36,37.415a13.474,13.474,0,0,0-1.794-2.962,13.42,13.42,0,0,0-2.693-2.178,2.556,2.556,0,0,1,.968.387A7.449,7.449,0,0,1,45.107,36.4a2.566,2.566,0,0,1,.253,1.011" transform="translate(-12.134 -9.58)" fill="#455a64"/>
              <path id="Trazado_212460" data-name="Trazado 212460" d="M74.044,59.108a2.24,2.24,0,0,1-.589-.079,11.869,11.869,0,0,1-1.566-.42,6.822,6.822,0,0,1-1.034-.459,2.777,2.777,0,0,1-1.007-.864,1.746,1.746,0,0,1-.273-.69c-.017-.116-.034-.233-.052-.351a2.412,2.412,0,0,1-.042-.385,4.784,4.784,0,0,1,.28-1.531,5.758,5.758,0,0,0,.319-1.437,2.222,2.222,0,0,0-.358-1.256,9.592,9.592,0,0,0-1.588-1.725,13.51,13.51,0,0,0-1.212-1.043,4.009,4.009,0,0,1-.475-.349,5.289,5.289,0,0,1,1.832,1.233,8.947,8.947,0,0,1,1.682,1.738,2.48,2.48,0,0,1,.418,1.413,5.852,5.852,0,0,1-.326,1.515,4.618,4.618,0,0,0-.273,1.434,2.231,2.231,0,0,0,.034.337c.016.12.033.238.049.356a1.478,1.478,0,0,0,.221.588,2.583,2.583,0,0,0,.9.8,7.138,7.138,0,0,0,.983.476c1.261.476,2.093.644,2.079.7" transform="translate(-19.726 -14.403)" fill="#455a64"/>
              <path id="Trazado_212461" data-name="Trazado 212461" d="M53.993,338.036l.254-6.438,11.219-.422-.171,7.878-4.08,2.461Z" transform="translate(-16.029 -98.316)" fill="#ffc09d"/>
              <path id="Trazado_212462" data-name="Trazado 212462" d="M65.236,340.141l0,.738s12.456,5.142,12.567,7.516l-24.828-.365.459-8.257a14.206,14.206,0,0,0,11.806.368" transform="translate(-15.725 -100.867)" fill="#039d95"/>
              <g id="Grupo_148959" data-name="Grupo 148959" transform="translate(37.245 238.905)" opacity="0.3">
                <g id="Grupo_148958" data-name="Grupo 148958">
                  <g id="Grupo_148957" data-name="Grupo 148957" clip-path="url(#clip-path-5)">
                    <path id="Trazado_212463" data-name="Trazado 212463" d="M65.236,340.141l0,.738s12.456,5.142,12.567,7.516l-24.828-.365.459-8.257a14.206,14.206,0,0,0,11.806.368" transform="translate(-52.971 -339.772)"/>
                  </g>
                </g>
              </g>
              <g id="Grupo_148962" data-name="Grupo 148962" transform="translate(39.443 241.544)" opacity="0.6">
                <g id="Grupo_148961" data-name="Grupo 148961">
                  <g id="Grupo_148960" data-name="Grupo 148960" clip-path="url(#clip-path-6)">
                    <path id="Trazado_212464" data-name="Trazado 212464" d="M56.833,343.565a1.013,1.013,0,0,0-.718,1.147.974.974,0,0,0,1.13.721A1.069,1.069,0,0,0,58,344.215a1.012,1.012,0,0,0-1.259-.621" transform="translate(-56.096 -343.526)" fill="#fff"/>
                  </g>
                </g>
              </g>
              <g id="Grupo_148965" data-name="Grupo 148965" transform="translate(37.245 245.176)" opacity="0.6">
                <g id="Grupo_148964" data-name="Grupo 148964">
                  <g id="Grupo_148963" data-name="Grupo 148963" clip-path="url(#clip-path-7)">
                    <path id="Trazado_212465" data-name="Trazado 212465" d="M52.97,350.677l.11-1.986,23.756,1.076s1.1.5.962,1.274Z" transform="translate(-52.97 -348.691)" fill="#fff"/>
                  </g>
                </g>
              </g>
              <path id="Trazado_212466" data-name="Trazado 212466" d="M69.567,341.4c-.006.121-.612.167-1.215.548-.612.365-.927.886-1.039.836-.111-.025.08-.747.818-1.2s1.464-.3,1.436-.188" transform="translate(-19.975 -101.314)" fill="#263238"/>
              <path id="Trazado_212467" data-name="Trazado 212467" d="M73.507,343.011c.026.118-.5.316-.922.823s-.546,1.047-.667,1.04c-.114.018-.188-.694.346-1.314s1.242-.664,1.242-.549" transform="translate(-21.326 -101.814)" fill="#263238"/>
              <path id="Trazado_212468" data-name="Trazado 212468" d="M76.191,346.619c-.11.025-.27-.584.051-1.243s.892-.915.942-.813c.067.1-.307.451-.562,1s-.31,1.05-.431,1.06" transform="translate(-22.578 -102.283)" fill="#263238"/>
              <path id="Trazado_212469" data-name="Trazado 212469" d="M39.648,338.244l.254-6.438,11.219-.422-.171,7.878-4.08,2.461Z" transform="translate(-11.77 -98.377)" fill="#ffc09d"/>
              <path id="Trazado_212470" data-name="Trazado 212470" d="M50.891,340.349l0,.738s12.456,5.142,12.567,7.516l-24.828-.365.459-8.257a14.206,14.206,0,0,0,11.806.368" transform="translate(-11.467 -100.929)" fill="#039d95"/>
              <g id="Grupo_148968" data-name="Grupo 148968" transform="translate(29.356 241.69)" opacity="0.6">
                <g id="Grupo_148967" data-name="Grupo 148967">
                  <g id="Grupo_148966" data-name="Grupo 148966" clip-path="url(#clip-path-6)">
                    <path id="Trazado_212471" data-name="Trazado 212471" d="M42.488,343.773a1.013,1.013,0,0,0-.718,1.147.974.974,0,0,0,1.13.721,1.069,1.069,0,0,0,.754-1.218A1.012,1.012,0,0,0,42.4,343.8" transform="translate(-41.751 -343.734)" fill="#fff"/>
                  </g>
                </g>
              </g>
              <g id="Grupo_148971" data-name="Grupo 148971" transform="translate(27.159 245.322)" opacity="0.6">
                <g id="Grupo_148970" data-name="Grupo 148970">
                  <g id="Grupo_148969" data-name="Grupo 148969" clip-path="url(#clip-path-7)">
                    <path id="Trazado_212472" data-name="Trazado 212472" d="M38.626,350.884l.11-1.986,23.756,1.077s1.1.5.962,1.274Z" transform="translate(-38.626 -348.898)" fill="#fff"/>
                  </g>
                </g>
              </g>
              <path id="Trazado_212473" data-name="Trazado 212473" d="M55.222,341.6c-.006.121-.612.167-1.215.548-.612.365-.927.886-1.039.836-.111-.025.08-.747.818-1.2s1.464-.3,1.436-.188" transform="translate(-15.716 -101.376)" fill="#263238"/>
              <path id="Trazado_212474" data-name="Trazado 212474" d="M59.163,343.218c.026.118-.5.316-.921.823-.435.494-.546,1.047-.667,1.04-.114.018-.188-.694.346-1.314s1.242-.664,1.242-.549" transform="translate(-17.068 -101.875)" fill="#263238"/>
              <path id="Trazado_212475" data-name="Trazado 212475" d="M61.847,346.825c-.11.025-.27-.584.051-1.243s.892-.915.942-.813c.067.1-.307.451-.562,1s-.31,1.05-.431,1.06" transform="translate(-18.319 -102.344)" fill="#263238"/>
              <path id="Trazado_212476" data-name="Trazado 212476" d="M15.68,109.818s9.333,14.467,14.234,20.3,12.95.7,13.884-7.234.7-22.634.7-22.634l-6.519-3.881L33.764,116.44l-5.25-9.771Z" transform="translate(-4.655 -28.609)" fill="#ffc09d"/>
              <path id="Trazado_212477" data-name="Trazado 212477" d="M53.912,93.556l2.8-7a11.213,11.213,0,0,0,1.654-.956c.411-.385.33-2.894.213-3.361s.454-1.75.052-1.984-1.527,0-1.569-.467c-.009-.1.58-1.287-.235-1.877a3.559,3.559,0,0,0-1.291-.232l-.458-2.325s-1.867-2.443-2.917-1.166c0,0-3.967,4.783-4.317,5.483S47.393,88.48,47.393,90" transform="translate(-14.069 -21.915)" fill="#ffc09d"/>
              <path id="Trazado_212478" data-name="Trazado 212478" d="M47.374,89.937a2.221,2.221,0,0,1-.028-.422c0-.307-.009-.709-.015-1.212,0-1.053,0-2.579.053-4.468.027-.944.059-1.979.143-3.094.026-.279.048-.562.1-.855a1.826,1.826,0,0,1,.409-.825c.35-.484.725-.967,1.112-1.46.776-.987,1.605-2.01,2.472-3.067a3.6,3.6,0,0,1,.747-.78,1.239,1.239,0,0,1,1.143.011A5.083,5.083,0,0,1,55.181,75.2l.021.026.008.037.14.711.317,1.614-.146-.122a5.769,5.769,0,0,1,.911.093,1.272,1.272,0,0,1,.471.174,1.184,1.184,0,0,1,.329.374,1.472,1.472,0,0,1,.136.935,2.863,2.863,0,0,1-.1.44l-.065.205-.013.043c0-.008,0-.025,0-.01s0,.029.015.038c.024.05.153.095.276.115s.264.031.4.041.279.018.425.04a.8.8,0,0,1,.464.191.679.679,0,0,1,.123.489,3.138,3.138,0,0,1-.053.42c-.049.269-.113.527-.146.774a1,1,0,0,0,0,.341,3.621,3.621,0,0,1,.052.4c.021.26.03.516.034.77a10.136,10.136,0,0,1-.075,1.484,1.812,1.812,0,0,1-.221.726,2.17,2.17,0,0,1-.586.434c-.393.229-.781.425-1.162.61l.057-.061c-.873,2.125-1.586,3.86-2.094,5.1l-.587,1.385a3.03,3.03,0,0,1-.226.475,3.137,3.137,0,0,1,.165-.5q.2-.525.529-1.408l2-5.135.015-.04.041-.02c.371-.186.757-.387,1.137-.613a2.122,2.122,0,0,0,.508-.371,1.686,1.686,0,0,0,.169-.615,10.007,10.007,0,0,0,.06-1.444c-.006-.248-.018-.5-.039-.75a3.137,3.137,0,0,0-.049-.365,1.263,1.263,0,0,1-.008-.438c.036-.272.1-.531.144-.789a2.833,2.833,0,0,0,.047-.381.437.437,0,0,0-.053-.287.627.627,0,0,0-.292-.094c-.127-.019-.263-.027-.4-.037s-.281-.018-.431-.044a.688.688,0,0,1-.468-.235.36.36,0,0,1-.064-.155.231.231,0,0,1,0-.114l.018-.059.063-.2a2.553,2.553,0,0,0,.088-.4,1.176,1.176,0,0,0-.1-.749.884.884,0,0,0-.245-.277,1.046,1.046,0,0,0-.353-.122,5.541,5.541,0,0,0-.858-.085l-.122,0-.023-.118c-.1-.53-.211-1.069-.318-1.613l-.14-.712.028.063a4.828,4.828,0,0,0-1.555-1.349.941.941,0,0,0-.872-.027,3.559,3.559,0,0,0-.667.709c-.869,1.054-1.7,2.072-2.483,3.051-.39.489-.767.969-1.116,1.443a1.583,1.583,0,0,0-.37.718c-.049.274-.075.555-.1.83-.094,1.1-.138,2.138-.179,3.079-.062,1.862-.113,3.377-.148,4.462-.017.5-.03.9-.041,1.211a2.27,2.27,0,0,1-.032.422" transform="translate(-14.051 -21.855)" fill="#ff9b6c"/>
              <path id="Trazado_212479" data-name="Trazado 212479" d="M55.973,79.3c.01.051-.485.123-1.226.368a9.164,9.164,0,0,0-1.246.6,6.222,6.222,0,0,1-1.7.4,3.289,3.289,0,0,0-2.48,1.477,3.537,3.537,0,0,0-.412,1.174,1.623,1.623,0,0,1,.226-1.283,3.2,3.2,0,0,1,.966-1.068,3.584,3.584,0,0,1,1.652-.6,6.667,6.667,0,0,0,1.628-.356,7.378,7.378,0,0,1,1.3-.549,3.387,3.387,0,0,1,1.29-.163" transform="translate(-14.507 -23.538)" fill="#ff9b6c"/>
              <path id="Trazado_212480" data-name="Trazado 212480" d="M56.345,79.142c-.063.052-.321-.184-.386-.589s.1-.712.176-.682.067.307.124.633.157.588.086.638" transform="translate(-16.608 -23.117)" fill="#ff9b6c"/>
              <path id="Trazado_212481" data-name="Trazado 212481" d="M58.805,82.379a10.751,10.751,0,0,1-3.684.539,3.679,3.679,0,0,0-1.369.134,1.482,1.482,0,0,0-.733.764,8.819,8.819,0,0,0-.266,1.026,1.654,1.654,0,0,1,.068-1.106,1.635,1.635,0,0,1,.817-.939,3.586,3.586,0,0,1,1.48-.183c2.036-.017,3.67-.323,3.687-.235" transform="translate(-15.644 -24.451)" fill="#ff9b6c"/>
              <path id="Trazado_212482" data-name="Trazado 212482" d="M60.764,85.269a2,2,0,0,1-.889.207c-.561.063-1.337.041-2.173.066a4.832,4.832,0,0,0-1.145.143,1.381,1.381,0,0,0-.74.475,1.321,1.321,0,0,0-.233.8c-.016.007-.076-.067-.1-.233a1.035,1.035,0,0,1,.16-.682,1.512,1.512,0,0,1,.833-.621,4.365,4.365,0,0,1,1.219-.179c.861-.025,1.623.03,2.173.023a4.406,4.406,0,0,1,.9.008" transform="translate(-16.467 -25.303)" fill="#ff9b6c"/>
              <path id="Trazado_212483" data-name="Trazado 212483" d="M61.021,88.21c.059.026-.252.546-1,.714l.119-.161c.015.135.029.264.044.4a4.3,4.3,0,0,1,0,1.6,4.328,4.328,0,0,1-.305-1.571c-.012-.132-.022-.261-.034-.4l-.011-.141.131-.021a5.232,5.232,0,0,0,1.055-.425" transform="translate(-17.763 -26.185)" fill="#ff9b6c"/>
              <path id="Trazado_212484" data-name="Trazado 212484" d="M61.985,154.235s8.3,18.325,8.3,29.786S62.1,232.958,62.1,232.958s-1.092,10.369-2.183,24.2a165.184,165.184,0,0,1-4.184,25.65H47.547l-13.28.364s-5.639-23.1-5.276-31.836,1.819-18.738,1.819-18.738-7.095-28.925-8.368-34.2a55.581,55.581,0,0,1-.768-10.2,66.907,66.907,0,0,1,4.684-25.212l2.318-5.882Z" transform="translate(-6.433 -45.787)" fill="#263238"/>
              <path id="Trazado_212485" data-name="Trazado 212485" d="M59.872,206.345c-.09,0-1.076,20.511-2.2,45.815s-1.968,45.83-1.878,45.834,1.076-20.507,2.2-45.82,1.967-45.826,1.877-45.83" transform="translate(-16.561 -61.257)" fill="#455a64"/>
              <path id="Trazado_212486" data-name="Trazado 212486" d="M63.39,183.747a6.179,6.179,0,0,0,.181-1.013c.1-.655.207-1.609.307-2.789a62.409,62.409,0,0,0,.057-9.255,62.393,62.393,0,0,0-1.321-9.163c-.259-1.157-.5-2.086-.684-2.721a6.115,6.115,0,0,0-.319-.979,6.329,6.329,0,0,0,.2,1.01c.15.644.352,1.579.581,2.737a73.74,73.74,0,0,1,1.221,9.137,73.819,73.819,0,0,1,.039,9.217c-.07,1.179-.142,2.133-.2,2.791a6.2,6.2,0,0,0-.056,1.028" transform="translate(-18.289 -46.854)" fill="#455a64"/>
              <path id="Trazado_212487" data-name="Trazado 212487" d="M24.469,175.771a1.6,1.6,0,0,0,.57.345,4.222,4.222,0,0,0,1.792.3,10.39,10.39,0,0,0,5.48-2.235A12.8,12.8,0,0,0,36.1,169.62a10.893,10.893,0,0,0,.667-1.677,2.591,2.591,0,0,0,.142-.647c-.063-.021-.3.9-1.014,2.218a13.592,13.592,0,0,1-3.78,4.407,10.784,10.784,0,0,1-5.3,2.264,4.949,4.949,0,0,1-2.349-.414" transform="translate(-7.264 -49.665)" fill="#455a64"/>
              <path id="Trazado_212488" data-name="Trazado 212488" d="M73.232,163.83a2.109,2.109,0,0,0,.134.584,11.691,11.691,0,0,0,.572,1.528,16.354,16.354,0,0,0,7.254,7.739,11.711,11.711,0,0,0,1.488.67,2.111,2.111,0,0,0,.574.172c.023-.055-.77-.364-1.95-1.043a18,18,0,0,1-7.157-7.636c-.6-1.222-.859-2.032-.915-2.014" transform="translate(-21.739 -48.636)" fill="#455a64"/>
              <path id="Trazado_212489" data-name="Trazado 212489" d="M56.564,162.576c.027,0,.037-.127.106-.333a1.425,1.425,0,0,1,.527-.708,1.317,1.317,0,0,1,1.226-.156,1.279,1.279,0,0,1,0,2.393,1.318,1.318,0,0,1-1.226-.156,1.427,1.427,0,0,1-.526-.708c-.07-.206-.079-.333-.106-.333s-.053.128-.017.364a1.419,1.419,0,0,0,.51.86,1.529,1.529,0,0,0,1.468.255,1.566,1.566,0,0,0,0-2.957,1.531,1.531,0,0,0-1.468.255,1.422,1.422,0,0,0-.51.861c-.036.236,0,.364.017.364" transform="translate(-16.783 -47.799)" fill="#455a64"/>
              <path id="Trazado_212490" data-name="Trazado 212490" d="M40.472,264.919a40.451,40.451,0,0,0,4.4,2.629,40.361,40.361,0,0,0,4.56,2.344,40.368,40.368,0,0,0-4.4-2.629,40.423,40.423,0,0,0-4.56-2.344" transform="translate(-12.015 -78.645)" fill="#455a64"/>
              <path id="Trazado_212491" data-name="Trazado 212491" d="M83.475,100.2c-2.534,3.852-12.8,19.455-15.83,24.069a.713.713,0,0,0,.687,1.1l18.229-2.294a.714.714,0,0,0,.487-.286l17.412-23.781a.714.714,0,0,0-.629-1.133L85.076,99.265a2.1,2.1,0,0,0-1.6.939" transform="translate(-20.047 -29.056)" fill="#e0e0e0"/>
              <path id="Trazado_212492" data-name="Trazado 212492" d="M83.417,100.154a1.227,1.227,0,0,1,.146-.219,2.026,2.026,0,0,1,.589-.5,2.56,2.56,0,0,1,1.215-.3l1.7-.139,10.813-.849,3.583-.275,1.906-.146c.169-.009.31-.031.5-.031a.812.812,0,0,1,.525.218.837.837,0,0,1,.139,1.071l-5.068,6.951-11.627,15.9c-.264.357-.5.693-.787,1.065a.859.859,0,0,1-.324.219,1.433,1.433,0,0,1-.354.07l-.643.081-2.55.321-4.987.625L68.764,125.4c-.2.021-.358.052-.579.064a.839.839,0,0,1-.6-.251.865.865,0,0,1-.249-.6,1,1,0,0,1,.219-.584l1.2-1.822,2.3-3.482,4.131-6.248,6-9.035L82.827,101l.434-.633a1.671,1.671,0,0,1,.157-.21,1.735,1.735,0,0,1-.131.227l-.409.649-1.6,2.479-5.92,9.088-4.1,6.268-2.287,3.49-1.2,1.825a.723.723,0,0,0-.173.433.59.59,0,0,0,.172.4.555.555,0,0,0,.406.167c.154-.008.364-.043.545-.063l9.425-1.195,4.986-.63,2.55-.321.643-.081a1.169,1.169,0,0,0,.282-.052.56.56,0,0,0,.21-.142l.765-1.038,11.645-15.885,5.083-6.923a.587.587,0,0,0-.095-.752.565.565,0,0,0-.367-.154c-.135,0-.319.02-.474.028l-1.907.137-3.585.255-10.821.752-1.7.112a2.541,2.541,0,0,0-1.192.259,2.41,2.41,0,0,0-.764.662" transform="translate(-19.988 -29.005)" fill="#263238"/>
              <path id="Trazado_212493" data-name="Trazado 212493" d="M105.019,99.487a2.127,2.127,0,0,1-.382.057l-1.107.112-4.12.366L85.4,101.165l.112-.065c-.877,1.3-1.782,2.656-2.689,4.053-3.7,5.683-6.926,10.906-9.365,14.622-1.212,1.863-2.22,3.353-2.922,4.378l-.823,1.171a3.18,3.18,0,0,1-.3.4,3.049,3.049,0,0,1,.253-.431l.775-1.2,2.84-4.429c2.391-3.744,5.591-8.984,9.291-14.672.908-1.4,1.817-2.751,2.7-4.054l.04-.059.072-.006L99.4,99.828l4.127-.277,1.11-.061a2.118,2.118,0,0,1,.386,0" transform="translate(-20.606 -29.533)" fill="#263238"/>
              <path id="Trazado_212494" data-name="Trazado 212494" d="M103.98,104.325h0l.007,0Z" transform="translate(-30.868 -30.97)" fill="#fff"/>
              <path id="Trazado_212495" data-name="Trazado 212495" d="M104.154,104.6a.368.368,0,0,0-.451-.271.978.978,0,0,0-.489.274.488.488,0,0,0-.089.624c.182.226.556.143.776-.046a.637.637,0,0,0,.253-.581" transform="translate(-30.591 -30.968)" fill="#fff"/>
              <path id="Trazado_212496" data-name="Trazado 212496" d="M91.2,123.039s-.719-1.715,1.107-1.936a63.157,63.157,0,0,1,6.619,0s2.621.276,2.068,2.158c0,0,1.549,1.383.719,2.877s-1.162,1.051-1.162,1.051.221,1.826-1.162,2.1c0,0-1.5,1.77-2.88,1.659s-7.245-2.932-7.632-3.485-.941-.868-.608-1.485c0,0-.719-1.619.83-1.865,0,0,.11-1.352,2.1-1.076" transform="translate(-26.155 -35.922)" fill="#ffc09d"/>
              <path id="Trazado_212497" data-name="Trazado 212497" d="M100.857,124.463a5.023,5.023,0,0,1-1.233.089c-.761.016-1.813.017-2.974,0a17.63,17.63,0,0,1-2.988-.178c-.788-.183-1.1-.645-1.06-.655a3.123,3.123,0,0,0,1.1.444c.724.122,1.788.047,2.948.084,1.162.018,2.213.051,2.973.09a4.993,4.993,0,0,1,1.23.126" transform="translate(-27.49 -36.727)" fill="#ff9b6c"/>
              <path id="Trazado_212498" data-name="Trazado 212498" d="M98.6,127.527a.923.923,0,0,1-.4.137,4.268,4.268,0,0,1-1.141.07,8.042,8.042,0,0,1-1.664-.3c-.612-.169-1.264-.4-1.951-.615a8.7,8.7,0,0,0-1.964-.4,3.022,3.022,0,0,1-1.673-.338.958.958,0,0,1-.4-.57.791.791,0,0,1,.07-.518c.144-.264.34-.279.335-.264.015.023-.141.079-.228.312a.715.715,0,0,0,.342.862,3,3,0,0,0,1.568.236,8.168,8.168,0,0,1,2.037.394l1.941.637a9.232,9.232,0,0,0,1.6.356,10.517,10.517,0,0,0,1.519.006" transform="translate(-26.538 -37.025)" fill="#ff9b6c"/>
              <path id="Trazado_212499" data-name="Trazado 212499" d="M96.273,130.917a4.946,4.946,0,0,1-1.232-.238c-.75-.189-1.777-.483-2.9-.849s-2.123-.738-2.84-1.029a4.922,4.922,0,0,1-1.134-.536c.031-.081,1.833.546,4.068,1.276s4.058,1.293,4.036,1.377" transform="translate(-26.174 -38.075)" fill="#ff9b6c"/>
              <path id="Trazado_212500" data-name="Trazado 212500" d="M97.647,134.037a2.709,2.709,0,0,1-1.022-.117,12.2,12.2,0,0,1-2.337-.823c-.879-.4-1.646-.809-2.2-1.1a3.638,3.638,0,0,1-.875-.529,19.239,19.239,0,0,1,3.2,1.356c1.727.828,3.244,1.138,3.233,1.217" transform="translate(-27.078 -39.025)" fill="#ff9b6c"/>
              <path id="Trazado_212501" data-name="Trazado 212501" d="M19.081,88.951S11.58,92.074,13.442,102s2.831,13.239,2.831,13.239l14.786-7.781Z" transform="translate(-3.902 -26.407)" fill="#039d95"/>
              <path id="Trazado_212502" data-name="Trazado 212502" d="M32.065,115.505a2.661,2.661,0,0,1-.54.351c-.358.209-.88.5-1.528.859-1.3.713-3.1,1.68-5.1,2.732s-3.816,1.989-5.138,2.654c-.662.332-1.2.6-1.574.773a2.648,2.648,0,0,1-.6.248,2.621,2.621,0,0,1,.541-.352c.357-.209.88-.5,1.528-.859,1.3-.714,3.1-1.68,5.1-2.732s3.814-1.988,5.136-2.653c.662-.333,1.2-.6,1.574-.773a2.689,2.689,0,0,1,.6-.248" transform="translate(-5.223 -34.289)" fill="#263238"/>
              <path id="Trazado_212503" data-name="Trazado 212503" d="M35.938,111.5a9.628,9.628,0,0,1-.808-1.375l-1.878-3.348-1.893-3.344a8.351,8.351,0,0,1-.718-1.425,8.3,8.3,0,0,1,.9,1.316c.524.833,1.228,2,1.971,3.3s1.378,2.51,1.8,3.4a7.306,7.306,0,0,1,.617,1.473" transform="translate(-9.096 -30.283)" fill="#263238"/>
            </g>
          </g>
        </g>
      </g>
    </g>
  </g>
</svg>
