<svg xmlns="http://www.w3.org/2000/svg" xmlns:xlink="http://www.w3.org/1999/xlink" width="295" height="373.479" viewBox="0 0 295 373.479">
  <defs>
    <clipPath id="clip-path">
      <rect id="Rectángulo_39715" data-name="Rectángulo 39715" width="295" height="283.09" fill="none"/>
    </clipPath>
    <filter id="Trazado_212223" x="22.035" y="18.049" width="250.93" height="252.992" filterUnits="userSpaceOnUse">
      <feOffset dy="3" input="SourceAlpha"/>
      <feGaussianBlur stdDeviation="3" result="blur"/>
      <feFlood flood-opacity="0.161"/>
      <feComposite operator="in" in2="blur"/>
      <feComposite in="SourceGraphic"/>
    </filter>
    <clipPath id="clip-path-2">
      <rect id="Rectángulo_39720" data-name="Rectángulo 39720" width="134.795" height="163.279" fill="none"/>
    </clipPath>
  </defs>
  <g id="Grupo_149980" data-name="Grupo 149980" transform="translate(-180 -921)">
    <g id="Grupo_148909" data-name="Grupo 148909" transform="translate(180 921)">
      <g id="Grupo_148908" data-name="Grupo 148908" clip-path="url(#clip-path)">
        <path id="Trazado_212222" data-name="Trazado 212222" d="M290.569,141.545A141.545,141.545,0,1,1,149.023,0,141.545,141.545,0,0,1,290.569,141.545" transform="translate(-1.523)" fill="#015e59"/>
        <rect id="Rectángulo_39714" data-name="Rectángulo 39714" width="295" height="63.214" transform="translate(0 109.939)" fill="#015e59"/>
        <g transform="matrix(1, 0, 0, 1, 0, 0)" filter="url(#Trazado_212223)">
          <path id="Trazado_212223-2" data-name="Trazado 212223" d="M271.9,147.7c0,64.891-52.144,117.5-116.465,117.5S38.973,212.587,38.973,147.7,91.116,30.2,155.438,30.2,271.9,82.805,271.9,147.7" transform="translate(-7.94 -6.15)" fill="#fff"/>
        </g>
        <path id="Trazado_212224" data-name="Trazado 212224" d="M162.756,24.978l17.895,17.894,17.894-17.894Z" transform="translate(-33.151 -5.088)" fill="#015e59"/>
        <path id="Trazado_212225" data-name="Trazado 212225" d="M198.546,325.946l-17.895-17.895-17.894,17.895Z" transform="translate(-33.151 -62.745)" fill="#015e59"/>
      </g>
    </g>
    <line id="Línea_179" data-name="Línea 179" y2="76.979" transform="translate(327.5 1217.5)" fill="none" stroke="#707070" stroke-width="2"/>
    <circle id="Elipse_4769" data-name="Elipse 4769" cx="9.5" cy="9.5" r="9.5" transform="translate(318 1208)" fill="#015e59"/>
    <g id="Grupo_148918" data-name="Grupo 148918" transform="translate(265 980.905)">
      <g id="Grupo_148917" data-name="Grupo 148917" clip-path="url(#clip-path-2)">
        <path id="Trazado_212226" data-name="Trazado 212226" d="M77.041,105.825c-2.26-24.575-13.516-42.4-20.265-51.406l-3.307-.875q-6.423-13.7-12.85-27.406c.462-4.192.6-11.981-4.05-18.974C35.07,4.913,31.435-.55,27.283.045c-4.206.6-6.227,7.033-6.756,10.086-.167.959-1.643,10.376,5.242,15.264,4.662,3.31,10.023,2.315,11.157,2.079l39.379,101.9a96.624,96.624,0,0,0,.736-23.544m-41.9-82.884c-1.811,1.015-4.928-1.286-6.307-2.678A10.971,10.971,0,0,1,25.9,12.354c.019-1.136.085-4.954,1.9-5.645,2.145-.816,5.932,3.036,7.54,6.952,1.306,3.183,1.876,8.123-.19,9.28" fill="#70a9cf"/>
        <path id="Trazado_212227" data-name="Trazado 212227" d="M111.674,98.8v37.571A11.932,11.932,0,0,1,99.742,148.3H11.932A11.932,11.932,0,0,1,0,136.371V98.8A11.931,11.931,0,0,1,11.932,86.869h87.81A11.931,11.931,0,0,1,111.674,98.8" fill="#b58555"/>
        <path id="Trazado_212228" data-name="Trazado 212228" d="M73.1,124.482a29.6,29.6,0,0,1-12.01,23.82H25.867A29.625,29.625,0,1,1,73.1,124.482" fill="#c49668"/>
        <path id="Trazado_212229" data-name="Trazado 212229" d="M104.534,111.234A29.624,29.624,0,1,1,58.062,86.868h33.7a29.591,29.591,0,0,1,12.772,24.366" fill="#c49668"/>
        <path id="Trazado_212230" data-name="Trazado 212230" d="M52.492,138.234a4.061,4.061,0,0,1-4.062,4.061H38.874a4.061,4.061,0,1,1,0-8.122H48.43a4.061,4.061,0,0,1,4.062,4.061" fill="#f9eed1"/>
        <path id="Trazado_212231" data-name="Trazado 212231" d="M28.123,138.234a4.061,4.061,0,0,1-4.061,4.061H14.505a4.061,4.061,0,0,1,0-8.122h9.557a4.061,4.061,0,0,1,4.061,4.061" fill="#f9eed1"/>
        <path id="Trazado_212232" data-name="Trazado 212232" d="M76.861,138.234a4.061,4.061,0,0,1-4.061,4.061H63.243a4.061,4.061,0,0,1,0-8.122H72.8a4.061,4.061,0,0,1,4.061,4.061" fill="#f9eed1"/>
        <path id="Trazado_212233" data-name="Trazado 212233" d="M101.23,138.234a4.061,4.061,0,0,1-4.061,4.061H87.612a4.061,4.061,0,0,1,0-8.122h9.557a4.061,4.061,0,0,1,4.061,4.061" fill="#f9eed1"/>
        <path id="Trazado_212234" data-name="Trazado 212234" d="M30.1,98.243V102.8a4.891,4.891,0,0,1-4.89,4.89H13.354a4.891,4.891,0,0,1-4.89-4.89V98.243a4.891,4.891,0,0,1,4.89-4.891H25.213a4.891,4.891,0,0,1,4.89,4.891" fill="#e8d1a7"/>
        <rect id="Rectángulo_39716" data-name="Rectángulo 39716" width="93.188" height="1.839" transform="translate(8.465 127.519)" fill="#4d3636"/>
        <rect id="Rectángulo_39717" data-name="Rectángulo 39717" width="93.188" height="1.839" transform="translate(8.465 124.174)" fill="#4d3636"/>
        <path id="Trazado_212235" data-name="Trazado 212235" d="M34.947,131.2Q54.636,80.25,74.326,29.3c1.134.236,6.5,1.23,11.157-2.079,6.885-4.888,5.409-14.306,5.242-15.265-.529-3.052-2.55-9.482-6.756-10.086-4.152-.6-7.787,4.868-9.285,7.119-4.653,6.994-4.513,14.783-4.051,18.975q-6.426,13.7-12.85,27.4l-3.307.876c-6.748,9-18.005,26.83-20.264,51.406a96.62,96.62,0,0,0,.735,23.543M75.916,15.489c1.607-3.916,5.395-7.768,7.54-6.952,1.816.69,1.882,4.509,1.9,5.645a10.97,10.97,0,0,1-2.944,7.908c-1.379,1.392-4.5,3.693-6.307,2.679-2.066-1.158-1.5-6.1-.19-9.28" fill="#70a9cf"/>
        <path id="Trazado_212236" data-name="Trazado 212236" d="M56.4,76.447l-.514-.2L61.781,61l.515.2Zm-5.41-14.781-.46-.305c1.178-1.779,2.431-3.555,3.724-5.28l.057-.076,3.274-.868.512-1.091.5.234L57.978,55.6l-3.338.884c-1.266,1.692-2.493,3.433-3.648,5.177" fill="#538bb0"/>
        <path id="Trazado_212237" data-name="Trazado 212237" d="M58.675,63.324A3.127,3.127,0,1,1,55.548,60.2a3.127,3.127,0,0,1,3.127,3.127" fill="#e8d1a7"/>
        <path id="Trazado_212238" data-name="Trazado 212238" d="M112.319,99.964c2.352,1.234-1.077,7.862-1.736,9.334-.732,1.636-1.508,3.268-2.369,4.84-1.312,2.394-2.931,1.237-5.145.84-1.636-.293-3.279-.533-4.916-.817-3.051-.527-6.885-.576-9.765-1.687q-8.906-3.435-8.589-5.357.18-1.105,3.417-1.711l1.974,3.686c.315.591,7.553.021,8.5.024,2.007.005,4.014.015,6.021.015,1.488,0,2.839.357,3.8-1a23.32,23.32,0,0,0,1.878-4c.184-.42,2.679-6.355,2.816-6.287l4.117,2.12" fill="#fcb4a8"/>
        <path id="Trazado_212239" data-name="Trazado 212239" d="M110.275,102.116a5.461,5.461,0,0,1-4.448-.955,5.284,5.284,0,0,1-1.874-3.1L112.4,92.8l-2.127,9.317" fill="#f9eed1"/>
        <path id="Trazado_212240" data-name="Trazado 212240" d="M58.212,153.435q-1.278,2.661-2.558,5.322a13.13,13.13,0,0,0-5.2,2.765,12.311,12.311,0,0,0,8.808-.811l.051-3.429q-.549-1.923-1.1-3.847" fill="#fcb4a8"/>
        <path id="Trazado_212241" data-name="Trazado 212241" d="M59.472,160.137c.16.3.7,1.357.248,2.057-.385.6-1.3.629-1.744.643-7.837.241-8.939.361-9.057-.172-.093-.423.458-1.154,3.264-2.5a4.8,4.8,0,0,0,.893.577c2.616,1.308,5.65-.206,6.4-.6" fill="#4d3636"/>
        <path id="Trazado_212242" data-name="Trazado 212242" d="M127.409,132.782A13.109,13.109,0,0,1,131.326,138a16.6,16.6,0,0,1,0,9.852c-1.638,5.345-10.371,12.085-19.584,11.513-10.536-.655-17.225-10.592-21.84-17.448a53.971,53.971,0,0,1-5.7-11.038,117.743,117.743,0,0,1-9.139,12.107A117.747,117.747,0,0,1,59.28,158.182l-3.917.237A249.712,249.712,0,0,1,67.945,129.1c2.968-5.853,6.088-11.636,9.5-17.242,2.572-4.218,5.159-11.735,10.8-7.606,3.391,2.481,5.583,6.18,8.3,9.3A103,103,0,0,1,112.335,138l-1.661-2.73,16.735-2.492" fill="#039d95"/>
        <rect id="Rectángulo_39718" data-name="Rectángulo 39718" width="0.356" height="17.489" transform="translate(104.288 123.91) rotate(-29.699)" fill="#039d95"/>
        <path id="Trazado_212243" data-name="Trazado 212243" d="M60.942,153.672l-2.558,5.322a13.113,13.113,0,0,0-5.2,2.765,12.325,12.325,0,0,0,8.808-.811q.026-1.716.05-3.43-.547-1.923-1.1-3.846" fill="#fcb4a8"/>
        <path id="Trazado_212244" data-name="Trazado 212244" d="M62.2,160.374c.16.3.7,1.358.249,2.058-.385.6-1.3.628-1.744.642-7.838.242-8.939.361-9.057-.172-.093-.423.459-1.154,3.264-2.5a4.834,4.834,0,0,0,.892.576c2.617,1.308,5.651-.205,6.4-.6" fill="#4d3636"/>
        <path id="Trazado_212245" data-name="Trazado 212245" d="M130.139,133.02a13.11,13.11,0,0,1,3.917,5.222,16.6,16.6,0,0,1,0,9.852c-1.638,5.345-10.371,12.085-19.584,11.513-10.536-.655-17.225-10.592-21.84-17.448a53.971,53.971,0,0,1-5.7-11.038A117.485,117.485,0,0,1,77.8,143.227,117.7,117.7,0,0,1,62.01,158.42l-3.917.237A249.642,249.642,0,0,1,70.675,129.34c2.968-5.854,6.088-11.636,9.5-17.242,2.572-4.218,5.159-11.735,10.8-7.606,3.391,2.481,5.583,6.18,8.3,9.3a103,103,0,0,1,15.786,24.45q-.831-1.365-1.661-2.73l16.735-2.492" fill="#039d95"/>
        <path id="Trazado_212246" data-name="Trazado 212246" d="M58.295,158.622l-.335-.119A250.629,250.629,0,0,1,70.516,129.26c3.4-6.695,6.418-12.177,9.513-17.255.406-.666.809-1.409,1.236-2.195,1.436-2.647,3.064-5.646,5.352-6.472l.121.335c-2.161.78-3.754,3.716-5.16,6.307-.429.79-.834,1.536-1.245,2.211-3.091,5.069-6.109,10.544-9.5,17.229a250.345,250.345,0,0,0-12.539,29.2" fill="#015e59"/>
        <path id="Trazado_212247" data-name="Trazado 212247" d="M114.814,159.8c-.118-.005-.236-.011-.353-.019-4.7-.292-9.037-2.4-13.253-6.447a66.866,66.866,0,0,1-8.723-11.078,54.147,54.147,0,0,1-5.592-10.751,118.263,118.263,0,0,1-8.962,11.836,118.194,118.194,0,0,1-15.337,14.836l-.224-.277A117.815,117.815,0,0,0,77.661,143.11a117.716,117.716,0,0,0,9.125-12.088l.192-.291.124.326a53.83,53.83,0,0,0,5.678,11c4.482,6.658,11.255,16.72,21.7,17.369.115.007.231.013.346.018Z" fill="#015e59"/>
        <rect id="Rectángulo_39719" data-name="Rectángulo 39719" width="0.356" height="17.49" transform="translate(107.018 124.146) rotate(-29.695)" fill="#015e59"/>
        <path id="Trazado_212248" data-name="Trazado 212248" d="M118.385,79.9a5.362,5.362,0,0,1-3.8-1.5,1.761,1.761,0,0,1-1.144,1.724,3.9,3.9,0,0,1-2.191.105,10.581,10.581,0,0,1-4.942-2.34c-.719-.613-1.315-1.858-.521-2.371-1.439.628-2.982-.73-3.688-2.132a6.157,6.157,0,0,1-.707-3.75,4.207,4.207,0,0,1,2.048-2.856c-1.326-1.972-2.448-3.9-1.639-6.4s2.972-3.743,5.419-4.131c2.215-.352,2.627-2.818,5.135-2.8a13.433,13.433,0,0,1,4.556,1.327,1.975,1.975,0,0,0,.727.17,2.34,2.34,0,0,0,.641-.147,9.6,9.6,0,0,1,6.6.291c1.492.646,1.821,1.856,2.221,3.248.221.769-.08.773.411,1.4.473.6,1.4.716,1.866,1.524a3.437,3.437,0,0,1,.124,3.121.864.864,0,0,0-.133.491.816.816,0,0,0,.255.4,5.02,5.02,0,0,1,1.406,3.357,4.948,4.948,0,0,1-4.744,4.679c.717,1.545-.644,3.238-2.007,4.26a11.054,11.054,0,0,1-4.769,2.253,6.574,6.574,0,0,1-1.123.083" fill="#4d3636"/>
        <path id="Trazado_212249" data-name="Trazado 212249" d="M111.932,93.851A17.2,17.2,0,0,0,120,96.818c2.084.193,6.325.589,9.5-2.255a9.546,9.546,0,0,0,2.611-4.035c-.927-.3-6.809-2.328-9.02-8.19a12.927,12.927,0,0,1-.712-6.053l-2.966.462-3.621.566-1.01.158c.081.145.166.3.252.47a13.855,13.855,0,0,1,1.529,5.7c.007.171.017.389.021.646a11.555,11.555,0,0,1-2.158,7.188,10.54,10.54,0,0,1-2.492,2.374" fill="#fcb4a8"/>
        <path id="Trazado_212250" data-name="Trazado 212250" d="M115.032,77.942a13.866,13.866,0,0,1,1.529,5.7c.007.171.016.388.021.646a5.255,5.255,0,0,0,3.065-.646,6.274,6.274,0,0,0,2.611-6.409,14.852,14.852,0,0,0-2.847-.487s-2.45-.176-3.621.566l-.06.039a3.921,3.921,0,0,0-.7.589" fill="#d68b8b"/>
        <path id="Trazado_212251" data-name="Trazado 212251" d="M118.7,81.982c-1.992.2-3.6-1.432-5.1-2.967-.786-.8-6.176-6.461-4.629-13.293.308-1.361.9-3.993,3.205-5.342,3.288-1.927,7.274.4,7.6.594,3.587,2.164,4.306,6.322,4.629,8.19a13.721,13.721,0,0,1-.237,5.934c-.183.647-1.908,6.526-5.46,6.884" fill="#fcb4a8"/>
        <path id="Trazado_212252" data-name="Trazado 212252" d="M132.228,89.816a18.48,18.48,0,0,1-4.273,2.73c-7.059,3.233-14.115.958-16.379.119a25.014,25.014,0,0,1-.713,2.967c-.444,1.453-.728,2.07-1.305,3.68a20.4,20.4,0,0,0-.831,2.967c-.462,2.6,1.461,4.51,3.205,7.477.935,1.591,4,6.8,3.442,12.463a22.905,22.905,0,0,1-2.136,6.528,30.169,30.169,0,0,1-1.5,2.848,12.859,12.859,0,0,0,4.629,6.291c5.9,4.134,13.152.991,13.768.712a14.4,14.4,0,0,0,3.086-1.9,32.793,32.793,0,0,1-5.151-13.769c-.477-3.827-.374-6.731.831-12.7.974-4.827,2.225-11.725,3.323-20.415" fill="#f9eed1"/>
        <path id="Trazado_212253" data-name="Trazado 212253" d="M114.908,117.5a25.629,25.629,0,0,0-3.129-7.659c-.408-.693-.822-1.323-1.222-1.932-1.325-2.016-2.371-3.608-2-5.667a20.606,20.606,0,0,1,.838-3c.2-.548.361-.985.507-1.371.282-.752.5-1.346.8-2.3.07-.228.137-.46.2-.688l.343.094c-.064.231-.131.466-.2.7-.295.965-.52,1.563-.8,2.321-.145.384-.308.82-.5,1.367a20.541,20.541,0,0,0-.824,2.937c-.34,1.92.671,3.46,1.953,5.41.4.613.818,1.246,1.23,1.947a25.923,25.923,0,0,1,3.172,7.767Z" fill="#e8d1a7"/>
        <path id="Trazado_212254" data-name="Trazado 212254" d="M123.326,62.161a11,11,0,0,1,2.73,5.816c-4.363-2.619-6.894-2.491-8.427-1.781-1.7.786-2.613,2.488-4.511,2.374-1.607-.1-2.161-1.389-3.2-1.187-.823.16-1.832,1.228-2.493,5.46-.188-.286-4.221-6.6-1.662-10.92,2.942-4.963,12.993-4.607,17.567.238" fill="#4d3636"/>
        <path id="Trazado_212255" data-name="Trazado 212255" d="M118.3,76.282l-1.477-.132-1-4.808.232-.049.965,4.636,1.3.117Z" fill="#4d3636"/>
        <path id="Trazado_212256" data-name="Trazado 212256" d="M112.46,72.977c.172.691.656,1.167,1.083,1.061s.634-.752.462-1.444-.656-1.166-1.083-1.061-.633.752-.462,1.444" fill="#4d3636"/>
        <path id="Trazado_212257" data-name="Trazado 212257" d="M111.335,72.745l-.195-.136a2.87,2.87,0,0,1,3.8-.844l-.119.206a2.633,2.633,0,0,0-3.484.774" fill="#4d3636"/>
        <path id="Trazado_212258" data-name="Trazado 212258" d="M118.24,71.571c.171.692.656,1.167,1.082,1.061s.634-.752.462-1.444-.656-1.166-1.082-1.061-.633.752-.462,1.444" fill="#4d3636"/>
        <path id="Trazado_212259" data-name="Trazado 212259" d="M117.16,71.328l-.2-.136a2.873,2.873,0,0,1,3.8-.844l-.119.206a2.633,2.633,0,0,0-3.484.774" fill="#4d3636"/>
        <path id="Trazado_212260" data-name="Trazado 212260" d="M116.749,78.4l-.139-.192a3.7,3.7,0,0,1,1.349-.613,3.775,3.775,0,0,1,2.083.122l-.078.225a3.529,3.529,0,0,0-1.952-.116,3.461,3.461,0,0,0-1.263.574" fill="#4d3636"/>
        <path id="Trazado_212261" data-name="Trazado 212261" d="M116.207,69.759a.177.177,0,0,0,.249,0,4.945,4.945,0,0,1,1.364-.91,5.308,5.308,0,0,1,3.392-.272.178.178,0,0,0,.214-.126.2.2,0,0,0,.007-.048.178.178,0,0,0-.135-.171,5.646,5.646,0,0,0-3.623.292,5.357,5.357,0,0,0-1.466.979.178.178,0,0,0,0,.254" fill="#4d3636"/>
        <path id="Trazado_212262" data-name="Trazado 212262" d="M109.294,71.323a.178.178,0,0,0,.248.012,4.983,4.983,0,0,1,1.4-.859,5.315,5.315,0,0,1,3.4-.143.177.177,0,0,0,.218-.117.167.167,0,0,0,.008-.049.176.176,0,0,0-.128-.176,5.649,5.649,0,0,0-3.63.155,5.334,5.334,0,0,0-1.5.923.178.178,0,0,0-.011.254" fill="#4d3636"/>
        <path id="Trazado_212263" data-name="Trazado 212263" d="M130.479,103.166l-2.632,6.472a36.981,36.981,0,0,0-1.565,3.982,3.869,3.869,0,0,1-.656,1.435A5.318,5.318,0,0,1,122.18,117c-9,1.891-22.436.279-22.436.279a23.9,23.9,0,0,0-8.552.632c-.257.08-.537.171-.836.276a31.444,31.444,0,0,0-3.135,1.323c-2.355,1.087-2.636,1.251-3.295,1.252a9.495,9.495,0,0,1-1.6-.2c-.191-.032-.7-.193-1.722-.513a1.162,1.162,0,0,1-.6-.4c-.053-.072-.167-.227-.119-.314.093-.171.751.04,1.228.162a8.456,8.456,0,0,0,2.879.253c0-.01-.881-.06-2.084-.286-1.336-.251-2.054-.529-2.49-1.119-.077-.1-.257-.349-.179-.47.145-.225,1.076.112,1.878.453a4.393,4.393,0,0,0,1.928.345c.633-.032,1.323-.21,1.315-.32-.014-.176-1.811.258-3.324-.712a6.674,6.674,0,0,1-1.1-1.017c-.273-.282-1.668-1.726-1.413-2.067.089-.118.35-.061.53-.022.632.14.928.58,1.478,1.055a7.442,7.442,0,0,0,1.2.8,4.35,4.35,0,0,0,3.145.242,5.257,5.257,0,0,1-2.961-.94c-1.081-.774-2.016-2.14-1.75-2.478.086-.108.275-.087.422-.07.931.1,1.147,1.108,2.139,1.611a3.351,3.351,0,0,0,1.445.259,7.009,7.009,0,0,0,2.955-.494c-.253-.708-.562-1.59-.9-2.619-.216-.643-.373-1.137-.115-1.483a.791.791,0,0,1,.784-.3c.461.125.495.789.862,1.559a5.335,5.335,0,0,0,1.727,1.947,6.752,6.752,0,0,0,2.815,1.264c4.617-.955,8.382-1.507,10.975-1.835,2.679-.339,5.341-.825,8.03-1.077,4.457-.416,6.621-.315,8.046-1.98.417-.487.5-.811,1.281-3.718,1.286-4.806,1.943-7.215,2.609-7.546,1.938-.958,5.6,2.666,7.249,4.428" fill="#fcb4a8"/>
        <path id="Trazado_212264" data-name="Trazado 212264" d="M98.986,113.849l-.056-.352c1.438-.228,2.889-.435,4.311-.615,1.03-.13,2.075-.285,3.086-.435,1.618-.24,3.292-.487,4.951-.642l.34-.032.032.355-.34.031c-1.648.155-3.317.4-4.93.64-1.014.15-2.061.3-3.094.436-1.419.18-2.865.386-4.3.614" fill="#d68b8b"/>
        <path id="Trazado_212265" data-name="Trazado 212265" d="M131.917,89.829a17.027,17.027,0,0,1,1.156,15.993,13.1,13.1,0,0,1-3.094.1c-5.884-.513-9.712-4.929-10.929-6.468l12.867-9.625" fill="#f9eed1"/>
        <path id="Trazado_212266" data-name="Trazado 212266" d="M131.1,106.149c-.379,0-.757-.016-1.132-.049-5.5-.479-9.286-4.3-11.054-6.534l-.113-.144,4.988-3.732.213.286L119.3,99.487c1.779,2.206,5.441,5.8,10.692,6.258a12.965,12.965,0,0,0,3.051-.1l.053.353a13.515,13.515,0,0,1-2,.15" fill="#e8d1a7"/>
        <path id="Trazado_212267" data-name="Trazado 212267" d="M81.238,105.483v1.068a6.725,6.725,0,0,1,2.255.356c.2.072.343.135.356.238.036.285-.935.694-1.78.83-.2.032-1.941.313-2.255-.356-.229-.486.332-1.405,1.424-2.136" fill="#fcb4a8"/>
        <path id="Trazado_212268" data-name="Trazado 212268" d="M79.814,107.619c-.955.489-.956.865-.95.95.04.539,1.247.988,2.255.83.719-.112,1.479-.555,1.425-.83-.037-.186-.46-.385-2.374-.356l-.356-.594" fill="#fcb4a8"/>
        <path id="Trazado_212269" data-name="Trazado 212269" d="M78.983,108.688a1.1,1.1,0,0,0-.712,1.068c.066.529.658.763.831.831a1.777,1.777,0,0,0,1.186,0c.468-.132,1.112-.471,1.069-.712-.029-.159-.365-.33-1.781-.356l-.593-.831" fill="#fcb4a8"/>
        <path id="Trazado_212270" data-name="Trazado 212270" d="M78.271,109.875c-.4.729-.423,1.411-.119,1.662a.869.869,0,0,0,.594.118c.489-.015,1.074-.249,1.068-.475-.006-.2-.459-.384-1.068-.474q-.239-.416-.475-.831" fill="#fcb4a8"/>
      </g>
    </g>
  </g>
</svg>
