<svg xmlns="http://www.w3.org/2000/svg" xmlns:xlink="http://www.w3.org/1999/xlink" width="295" height="373.479" viewBox="0 0 295 373.479">
  <defs>
    <clipPath id="clip-path">
      <rect id="Rectángulo_39715" data-name="Rectángulo 39715" width="295" height="283.09" fill="none"/>
    </clipPath>
    <filter id="Trazado_212223" x="22.035" y="18.049" width="250.93" height="252.992" filterUnits="userSpaceOnUse">
      <feOffset dy="3" input="SourceAlpha"/>
      <feGaussianBlur stdDeviation="3" result="blur"/>
      <feFlood flood-opacity="0.161"/>
      <feComposite operator="in" in2="blur"/>
      <feComposite in="SourceGraphic"/>
    </filter>
    <clipPath id="clip-path-2">
      <rect id="Rectángulo_39728" data-name="Rectángulo 39728" width="124.38" height="127.683" fill="none"/>
    </clipPath>
    <clipPath id="clip-path-4">
      <rect id="Rectángulo_39722" data-name="Rectángulo 39722" width="5.152" height="17.433" transform="translate(86.396 89.801)" fill="none"/>
    </clipPath>
    <clipPath id="clip-path-5">
      <rect id="Rectángulo_39723" data-name="Rectángulo 39723" width="8.076" height="16.027" transform="translate(96.119 84.472)" fill="none"/>
    </clipPath>
    <clipPath id="clip-path-6">
      <rect id="Rectángulo_39725" data-name="Rectángulo 39725" width="34.659" height="16.668" transform="translate(70.361 76.031)" fill="none"/>
    </clipPath>
    <clipPath id="clip-path-7">
      <rect id="Rectángulo_39726" data-name="Rectángulo 39726" width="31.864" height="14.805" transform="translate(67.447 38.047)" fill="none"/>
    </clipPath>
  </defs>
  <g id="Grupo_149981" data-name="Grupo 149981" transform="translate(-495 -921)">
    <g id="Grupo_148910" data-name="Grupo 148910" transform="translate(495 921)">
      <g id="Grupo_148908" data-name="Grupo 148908" clip-path="url(#clip-path)">
        <path id="Trazado_212222" data-name="Trazado 212222" d="M290.569,141.545A141.545,141.545,0,1,1,149.023,0,141.545,141.545,0,0,1,290.569,141.545" transform="translate(-1.523)" fill="#167a7a"/>
        <rect id="Rectángulo_39714" data-name="Rectángulo 39714" width="295" height="63.214" transform="translate(0 109.939)" fill="#167a7a"/>
        <g transform="matrix(1, 0, 0, 1, 0, 0)" filter="url(#Trazado_212223)">
          <path id="Trazado_212223-2" data-name="Trazado 212223" d="M271.9,147.7c0,64.891-52.144,117.5-116.465,117.5S38.973,212.587,38.973,147.7,91.116,30.2,155.438,30.2,271.9,82.805,271.9,147.7" transform="translate(-7.94 -6.15)" fill="#fff"/>
        </g>
        <path id="Trazado_212224" data-name="Trazado 212224" d="M162.756,24.978l17.895,17.894,17.894-17.894Z" transform="translate(-33.151 -5.088)" fill="#167a7a"/>
        <path id="Trazado_212225" data-name="Trazado 212225" d="M198.546,325.946l-17.895-17.895-17.894,17.895Z" transform="translate(-33.151 -62.745)" fill="#167a7a"/>
      </g>
    </g>
    <line id="Línea_180" data-name="Línea 180" y2="76.979" transform="translate(642.5 1217.5)" fill="none" stroke="#707070" stroke-width="2"/>
    <circle id="Elipse_4770" data-name="Elipse 4770" cx="9.5" cy="9.5" r="9.5" transform="translate(633 1208)" fill="#027d77"/>
    <g id="Grupo_148934" data-name="Grupo 148934" transform="translate(580.62 998.704)">
      <g id="Grupo_148933" data-name="Grupo 148933" clip-path="url(#clip-path-2)">
        <g id="Grupo_148932" data-name="Grupo 148932">
          <g id="Grupo_148931" data-name="Grupo 148931" clip-path="url(#clip-path-2)">
            <path id="Trazado_212271" data-name="Trazado 212271" d="M111.061,49.747a7.52,7.52,0,0,0-1.908-.458c-3.924-.437-5.383,3.061-6.006,6.8l-.015.088c-.735,4.93-1.176,13.906,2.18,16.19-1.291,1.546-1.907,3.785-.469,7.137.045.107.089.2.137.313,0,.011.037.03.031.057.395.8.839,1.576,1.309,2.35.162.264.339.525.519.8.932,1.482,1.943,2.912,2.75,4.289,1.38,2.287,2.571,5.138,4.953,6.847a6.477,6.477,0,0,0,3.2,1.112,26.592,26.592,0,0,1,2.114,5.688c.519,2.153,2.574,8.409-1.415,10.956-4.375,2.75-10.656-5.371-12.338-7.961-.395-.525-.789-1.058-1.185-1.636l.052.177c1.138,4.029,3.152,13.563-2.465,15.883-4.318,1.778-8.618-3.543-11.188-8.366.57,4.493.008,9.7-3.641,10.546-5.017,1.158-7.4-5.235-8.633-8.937A31.235,31.235,0,0,1,78.135,96C69.122,87.3,65.215,76.906,65.05,69.8,64.643,64,69.3,57.131,73.6,53.309c5.812-5.408,18.147-12.949,37.457-3.562" fill="#e4bcab"/>
            <rect id="Rectángulo_39721" data-name="Rectángulo 39721" width="32.057" height="25.839" transform="translate(63.665 35.077) rotate(-17.026)" fill="#e4bcab"/>
            <g id="Grupo_148921" data-name="Grupo 148921" opacity="0.66" style="mix-blend-mode: multiply;isolation: isolate">
              <g id="Grupo_148920" data-name="Grupo 148920">
                <g id="Grupo_148919" data-name="Grupo 148919" clip-path="url(#clip-path-4)">
                  <path id="Trazado_212272" data-name="Trazado 212272" d="M86.514,92.278c.966,4.78,2.087,9.52,3.5,14.206.421,1.4,1.826.615,1.484-.52C90.087,101.28,89.923,96.037,88.7,91.3c-.694-2.677-2.83-1.415-2.188.975" fill="#eed6c0"/>
                </g>
              </g>
            </g>
            <g id="Grupo_148924" data-name="Grupo 148924" opacity="0.66" style="mix-blend-mode: multiply;isolation: isolate">
              <g id="Grupo_148923" data-name="Grupo 148923">
                <g id="Grupo_148922" data-name="Grupo 148922" clip-path="url(#clip-path-5)">
                  <path id="Trazado_212273" data-name="Trazado 212273" d="M96.378,87.034c1.341,4.112,4.808,9.217,6.578,13.12.392.863,1.583-.051,1.144-1.016-1.772-3.9-4.348-9.344-5.741-13.442-.868-2.551-2.97-.624-1.981,1.338" fill="#eed6c0"/>
                </g>
              </g>
            </g>
            <path id="Trazado_212274" data-name="Trazado 212274" d="M101.338,37.054,64.362,48.374,44.473,0h45.52Z" fill="#8fd5e6"/>
            <path id="Trazado_212275" data-name="Trazado 212275" d="M107.8,69.568a5.5,5.5,0,0,0-.572.341,4.012,4.012,0,0,0-.5.417,2.981,2.981,0,0,0-.218.217c-.01.011-.01.02-.019.02s-.022.024-.022.034a.909.909,0,0,0-.166.207.183.183,0,0,0-.044.053h-.006v.01c-.014,0-.014,0-.014.01a1.117,1.117,0,0,0-.083.124c-.007,0-.007.01-.007.01s-.014.02-.024.03c-.029.053-.061.093-.092.146s-.06.094-.083.144v.013a.093.093,0,0,1-.022.017.411.411,0,0,1-.03.063c-.01.011-.01.011-.01.023a.805.805,0,0,0-.072.135,4.385,4.385,0,0,0-.177.423,4.061,4.061,0,0,0-.2.811.97.97,0,0,0-.03.241c-.01.124-.022.271-.022.4a4.382,4.382,0,0,0,.074.818,3.554,3.554,0,0,0,.237.791l.083.207a188.924,188.924,0,0,1-30.028,9.948c-7.664,1.726-15.392,2.651-21.238,1.485-.446-.08-.883-.174-1.3-.287-.044-4.533-2.119-10.635-5.3-17.348-2.089-4.4-4.644-9.067-7.4-13.72a.037.037,0,0,0-.021-.01c-1.745-2.938-3.562-5.868-5.4-8.726h-.01c-1.59-2.473-3.179-4.88-4.746-7.187-.821-1.2-1.633-2.387-2.422-3.532L59.012,48.7h.01l16.13,6.637L101.586,66.22l.271.117.114.05Z" fill="#e5e5e5"/>
            <path id="Trazado_212276" data-name="Trazado 212276" d="M105.636,72a7.888,7.888,0,0,1-3.759-.65c-11.83-4.01-24.679-7.5-35.534-10.192C52,57.611,41.1,55.451,40.524,55.348a.038.038,0,0,0-.022-.01l-5.41-8.726H35.1a258.725,258.725,0,0,1,25.831,6.71c3.666,1.145,7.23,2.316,10.637,3.511a363.525,363.525,0,0,1,34.678,14.021h.009a.79.79,0,0,1-.62,1.151" fill="#ccc"/>
            <path id="Trazado_212277" data-name="Trazado 212277" d="M53.22,86.4l-3.463,3.127L43.78,127.683H.01V18.729H15.4s5.6,7.2,12.526,17.157c2.3,3.323,4.75,6.945,7.164,10.725l5.4,8.727a.019.019,0,0,1,.019.019c1.127,1.9,2.236,3.8,3.264,5.7,5.384,9.736,9.38,19.057,9.44,25.349" fill="#039d95"/>
            <rect id="Rectángulo_39724" data-name="Rectángulo 39724" width="15.402" height="18.724" fill="#8fd5e6"/>
            <path id="Trazado_212278" data-name="Trazado 212278" d="M124.283,90.3c-.721,4.449-6.011,6.379-9.741,3.832-2.383-1.712-3.569-4.56-4.947-6.85-.808-1.382-1.824-2.81-2.752-4.286-.183-.27-.366-.541-.527-.8-.463-.774-.906-1.552-1.3-2.347-.01-.036-.032-.053-.036-.069-.045-.108-.086-.2-.135-.305-2.083-4.876.146-7.407,2.519-8.846,5.742-3.481,9.42,2.928,11.646,6.666,1.98,3.465,6.05,8.717,5.271,13" fill="#edccb5"/>
            <path id="Trazado_212279" data-name="Trazado 212279" d="M109.182,72.47c-7.446,3.05-6.968-9.948-6.035-16.281l.013-.086c.626-3.735,2.085-7.234,6.01-6.79,5.253.574,5.633,5.234,5.419,9.808-.321,3.992-.931,11.339-5.407,13.349" fill="#f4d7c5"/>
            <g id="Grupo_148927" data-name="Grupo 148927" opacity="0.8" style="mix-blend-mode: multiply;isolation: isolate">
              <g id="Grupo_148926" data-name="Grupo 148926">
                <g id="Grupo_148925" data-name="Grupo 148925" clip-path="url(#clip-path-6)">
                  <path id="Trazado_212280" data-name="Trazado 212280" d="M105.02,79.916A29.275,29.275,0,0,1,98.2,85.344c-.669.407-1.347.788-2.041,1.139a51.915,51.915,0,0,1-8.44,3.388c-.314.106-.627.2-.942.276A86.8,86.8,0,0,1,75,92.7a46.633,46.633,0,0,1-4.644-6.409c1.778-.3,3.585-.654,5.378-1.062A185.841,185.841,0,0,0,104,76.031a10.926,10.926,0,0,0,.1,1.1c.027.143.066.287.1.444V77.6a9.906,9.906,0,0,0,.624,1.909c.052.1.093.2.147.314,0,.013.025.026.025.053s.013.024.025.04" fill="#eed6c0"/>
                </g>
              </g>
            </g>
            <g id="Grupo_148930" data-name="Grupo 148930" opacity="0.46" style="mix-blend-mode: multiply;isolation: isolate">
              <g id="Grupo_148929" data-name="Grupo 148929">
                <g id="Grupo_148928" data-name="Grupo 148928" clip-path="url(#clip-path-7)">
                  <path id="Trazado_212281" data-name="Trazado 212281" d="M98.1,38.047,99.311,42l-30.2,10.856L67.446,47.43Z" fill="#eed6c0"/>
                </g>
              </g>
            </g>
          </g>
        </g>
      </g>
    </g>
  </g>
</svg>
