<svg xmlns="http://www.w3.org/2000/svg" xmlns:xlink="http://www.w3.org/1999/xlink" width="295" height="373.479" viewBox="0 0 295 373.479">
  <defs>
    <clipPath id="clip-path">
      <rect id="Rectángulo_39715" data-name="Rectángulo 39715" width="295" height="283.09" fill="none"/>
    </clipPath>
    <filter id="Trazado_212223" x="22.035" y="18.049" width="250.93" height="252.992" filterUnits="userSpaceOnUse">
      <feOffset dy="3" input="SourceAlpha"/>
      <feGaussianBlur stdDeviation="3" result="blur"/>
      <feFlood flood-opacity="0.161"/>
      <feComposite operator="in" in2="blur"/>
      <feComposite in="SourceGraphic"/>
    </filter>
    <clipPath id="clip-path-2">
      <rect id="Rectángulo_39730" data-name="Rectángulo 39730" width="134.007" height="160.542" fill="none"/>
    </clipPath>
  </defs>
  <g id="Grupo_149982" data-name="Grupo 149982" transform="translate(-810 -921)">
    <g id="Grupo_148911" data-name="Grupo 148911" transform="translate(810 921)">
      <g id="Grupo_148908" data-name="Grupo 148908" clip-path="url(#clip-path)">
        <path id="Trazado_212222" data-name="Trazado 212222" d="M290.569,141.545A141.545,141.545,0,1,1,149.023,0,141.545,141.545,0,0,1,290.569,141.545" transform="translate(-1.523)" fill="#039d95"/>
        <rect id="Rectángulo_39714" data-name="Rectángulo 39714" width="295" height="63.214" transform="translate(0 109.939)" fill="#039d95"/>
        <g transform="matrix(1, 0, 0, 1, 0, 0)" filter="url(#Trazado_212223)">
          <path id="Trazado_212223-2" data-name="Trazado 212223" d="M271.9,147.7c0,64.891-52.144,117.5-116.465,117.5S38.973,212.587,38.973,147.7,91.116,30.2,155.438,30.2,271.9,82.805,271.9,147.7" transform="translate(-7.94 -6.15)" fill="#fff"/>
        </g>
        <path id="Trazado_212224" data-name="Trazado 212224" d="M162.756,24.978l17.895,17.894,17.894-17.894Z" transform="translate(-33.151 -5.088)" fill="#039d95"/>
        <path id="Trazado_212225" data-name="Trazado 212225" d="M198.546,325.946l-17.895-17.895-17.894,17.895Z" transform="translate(-33.151 -62.745)" fill="#039d95"/>
      </g>
    </g>
    <line id="Línea_181" data-name="Línea 181" y2="76.979" transform="translate(957.5 1217.5)" fill="none" stroke="#707070" stroke-width="2"/>
    <circle id="Elipse_4771" data-name="Elipse 4771" cx="9.5" cy="9.5" r="9.5" transform="translate(948 1208)" fill="#039d95"/>
    <g id="Grupo_148937" data-name="Grupo 148937" transform="translate(885.993 980.905)">
      <path id="Trazado_212282" data-name="Trazado 212282" d="M8.265,150.169l-4.74-3.413,41.127-57.11,19.511,23.648,41.8-63.4,4.876,3.216-46.152,70L44.967,99.2Z" fill="#039d95"/>
      <path id="Trazado_212283" data-name="Trazado 212283" d="M0,155.846l30.623-16.192-2.729-5.163L7.7,145.168l5.164-30.979-5.762-.96Z" fill="#039d95"/>
      <g id="Grupo_148936" data-name="Grupo 148936">
        <g id="Grupo_148935" data-name="Grupo 148935" clip-path="url(#clip-path-2)">
          <path id="Trazado_212284" data-name="Trazado 212284" d="M89.943,5.756a3.9,3.9,0,0,0-1.057,1.13c-.377.685-.357,1.429.111,3.451.5,2.146.83,3.583,1.1,3.551.328-.039.625-2.216.3-4.34-.209-1.353-.533-1.85-.246-2.7.45-1.327,1.8-1.905,1.7-2.055-.083-.125-1.057.268-1.911.962" fill="#fcb4a8"/>
          <path id="Trazado_212285" data-name="Trazado 212285" d="M93.151,11.007c-.717-1.866-.955-1.94-.912-2.557.089-1.284,1.2-2.1.917-2.429-.163-.188-.628-.019-.684,0-.832.311-1.092,1.427-1.191,1.882a8.271,8.271,0,0,0,.178,3.246A4.514,4.514,0,0,1,90.737,9.2a2.716,2.716,0,0,1,.03-1.811,6.267,6.267,0,0,1,.749-.89c.264-.29.5-.535.887-.959.593-.652.746-.855.682-1.027s-.321-.226-.378-.238c-.615-.127-1.229.477-2.013,1.269A4.5,4.5,0,0,0,89.5,7.089a3.553,3.553,0,0,0-.2,1.641c.108,1.415.261,3.5.494,6.081a28.222,28.222,0,0,1-3.264,4.9c-1.22,1.469-1.592,1.638-5.455,5.174-.844.773-2.813,3.118-6.751,7.808a2.412,2.412,0,0,0-.762,1.79c.23,1.582,3.258,2.913,5.677,2.387,1.432-.311,2.464-1.232,3.723-2.767,5.314-6.482,6.852-14.37,9.336-16.4a4.38,4.38,0,0,0,1.3-1.613,4.657,4.657,0,0,0,.351-2.35,9.938,9.938,0,0,0-.8-2.732" fill="#fcb4a8"/>
          <path id="Trazado_212286" data-name="Trazado 212286" d="M89.32,11.119c-.058-.742-.108-1.4-.151-1.973l-.03-.4a3.69,3.69,0,0,1,.212-1.712,4.594,4.594,0,0,1,1.228-1.6c.217-.22.412-.416.6-.591l.219.238c-.184.171-.377.364-.591.581a4.4,4.4,0,0,0-1.157,1.485,3.408,3.408,0,0,0-.19,1.569l.031.4c.042.57.092,1.23.151,1.972Z" fill="#d68b8b"/>
          <path id="Trazado_212287" data-name="Trazado 212287" d="M73.574,33.918a14.892,14.892,0,0,0,1.481,4.188c3.415,6.38,10.342,7.823,11.471,8.049,2.5.5,5.552,1.112,7.327-.789,1.52-1.63,1.591-4.559.271-7.378a12.9,12.9,0,0,1-9.163-.942,12.488,12.488,0,0,1-4.784-4.473l-6.6,1.345" fill="#fcb4a8"/>
          <path id="Trazado_212288" data-name="Trazado 212288" d="M84.444,35.805a20.206,20.206,0,0,0,10.968-.47,17.327,17.327,0,0,1,3,13.627l-7.145-1.111a25.194,25.194,0,0,1-6.828-12.046" fill="#f9eed1"/>
          <path id="Trazado_212289" data-name="Trazado 212289" d="M87.743,154.688l-2.646-.96a5.92,5.92,0,0,1-.589,3.337,5.694,5.694,0,0,1-1.14,1.525l4.984.28a6.025,6.025,0,0,1-.609-4.182" fill="#fcb4a8"/>
          <path id="Trazado_212290" data-name="Trazado 212290" d="M88.217,157.553c.865,1.465.674,2.135.5,2.431-.379.652-1.3.587-5.7.514-2.769-.046-4.243-.051-4.331-.491-.041-.2.234-.428.475-.624a3.753,3.753,0,0,1,2.01-.746,8.346,8.346,0,0,0,3.124-1.113,2.519,2.519,0,0,0,1.045.721,3.2,3.2,0,0,0,2.879-.692" fill="#4d3636"/>
          <path id="Trazado_212291" data-name="Trazado 212291" d="M89.859,13.581c-1.874-.741-2.659-5-1.215-8.027,1.564-3.281,5.325-4.228,7.745-4.837.94-.236,7.286-1.843,10.739.7,4.389,3.234,4.268,13.828-2.393,25.245-4.073-12.1-7.292-15.094-9.666-15.024-2.163.064-3.553,2.6-5.21,1.94" fill="#4d3636"/>
          <path id="Trazado_212292" data-name="Trazado 212292" d="M111.47,34.271a12.6,12.6,0,0,1-6.631,3.66,12.886,12.886,0,0,1-9.323-1.879c1.382-1.2,4.1-3.851,4.566-7.038.062-.424.082-.842.084-.883a9.8,9.8,0,0,0-1.68-5.855c-.153-.228-.286-.4-.379-.526q1.626-.949,3.291-1.974,2.365-1.458,4.563-2.919a19.563,19.563,0,0,0-.566,6.186,14.429,14.429,0,0,0,2.342,7.717,12.643,12.643,0,0,0,3.733,3.511" fill="#fcb4a8"/>
          <path id="Trazado_212293" data-name="Trazado 212293" d="M102.567,26.433a10.012,10.012,0,0,1-2.484,2.581c.041-.285.07-.58.083-.883a9.8,9.8,0,0,0-1.68-5.855,10.9,10.9,0,0,1,5.435-1.314,8.742,8.742,0,0,1-1.354,5.471" fill="#d68b8b"/>
          <path id="Trazado_212294" data-name="Trazado 212294" d="M101.348,25.255c1.135-.346,1.835-1.4,2.834-2.895a17.128,17.128,0,0,0,1.356-2.445,2.375,2.375,0,0,0,1.29-.59c.827-.78.72-2.008.627-3.077a3.351,3.351,0,0,0-.851-2.393c-.156-.139-.811-.725-1.41-.466a1.343,1.343,0,0,0-.631,1.434,11.368,11.368,0,0,0-.714-4.225c-.441-1.174-1.833-4.878-4.9-5.529-2.5-.532-5.186,1.175-6.5,3.091C88.919,13.337,93.922,22.2,98.13,24.582a4.233,4.233,0,0,0,3.218.673" fill="#fcb4a8"/>
          <path id="Trazado_212295" data-name="Trazado 212295" d="M92.34,17.715a12.987,12.987,0,0,1-1.222-6.041l.324.023a12.657,12.657,0,0,0,1.195,5.888Z" fill="#d68b8b"/>
          <path id="Trazado_212296" data-name="Trazado 212296" d="M99.262,18.962l-1.347-.089L96.9,14.518l.21-.049.978,4.2,1.187.079Z" fill="#4d3636"/>
          <path id="Trazado_212297" data-name="Trazado 212297" d="M93.879,16.078c.17.626.622,1.048,1.008.943s.56-.7.39-1.324-.622-1.048-1.008-.943-.561.7-.39,1.324" fill="#4d3636"/>
          <path id="Trazado_212298" data-name="Trazado 212298" d="M92.85,15.891l-.18-.119a2.611,2.611,0,0,1,3.439-.849l-.1.19a2.4,2.4,0,0,0-3.155.778" fill="#4d3636"/>
          <path id="Trazado_212299" data-name="Trazado 212299" d="M99.11,14.676c.171.626.622,1.048,1.008.942s.561-.7.39-1.323-.622-1.048-1.008-.943-.56.7-.39,1.324" fill="#4d3636"/>
          <path id="Trazado_212300" data-name="Trazado 212300" d="M98.121,14.477l-.18-.12a2.615,2.615,0,0,1,3.439-.848l-.1.19a2.4,2.4,0,0,0-3.155.778" fill="#4d3636"/>
          <path id="Trazado_212301" data-name="Trazado 212301" d="M100.9,20.532c-.03-.479-.837-.817-1.457-.823-.751-.006-1.605.47-1.6.93.008.506,1.054,1.042,1.923.855.521-.111,1.159-.522,1.131-.962" fill="#4d3636"/>
          <path id="Trazado_212302" data-name="Trazado 212302" d="M97.221,13.07a.163.163,0,0,0,.227,0,4.477,4.477,0,0,1,1.222-.857,4.819,4.819,0,0,1,3.081-.319.161.161,0,0,0,.192-.119.18.18,0,0,0,.006-.045.163.163,0,0,0-.127-.153,5.149,5.149,0,0,0-3.291.343,4.827,4.827,0,0,0-1.313.922.161.161,0,0,0,0,.231" fill="#4d3636"/>
          <path id="Trazado_212303" data-name="Trazado 212303" d="M90.962,14.639a.161.161,0,0,0,.226.005,4.513,4.513,0,0,1,1.254-.81,4.825,4.825,0,0,1,3.092-.2.163.163,0,0,0,.2-.112.167.167,0,0,0,.006-.044.161.161,0,0,0-.12-.158,5.149,5.149,0,0,0-3.3.218,4.871,4.871,0,0,0-1.347.872.16.16,0,0,0-.005.231" fill="#4d3636"/>
          <path id="Trazado_212304" data-name="Trazado 212304" d="M88.441,6.982a5.056,5.056,0,0,0,2.61,5.058,4.86,4.86,0,0,0,2.461.131,10.792,10.792,0,0,0,4.336-1.411c1.345-.8,1.426-1.256,2.423-1.475a4.729,4.729,0,0,1,2.632.3,8.743,8.743,0,0,1,3.8,2.622,9.995,9.995,0,0,0-2.147-7.64,9.238,9.238,0,0,0-4.58-2.876C95.167.441,88.988,3.3,88.441,6.982" fill="#4d3636"/>
          <path id="Trazado_212305" data-name="Trazado 212305" d="M115.081,154.688l-2.862.012a2.2,2.2,0,0,1,0,2.486,2.248,2.248,0,0,1-1.729.864l5.2.82q-.306-2.091-.61-4.182" fill="#fcb4a8"/>
          <path id="Trazado_212306" data-name="Trazado 212306" d="M115.555,157.553c.865,1.465.674,2.135.5,2.431-.38.652-1.3.587-5.7.514-2.769-.046-4.243-.051-4.331-.491-.041-.2.234-.428.475-.624a3.753,3.753,0,0,1,2.01-.746,8.343,8.343,0,0,0,3.123-1.113,2.524,2.524,0,0,0,1.046.721,3.2,3.2,0,0,0,2.879-.692" fill="#593f3f"/>
          <path id="Trazado_212307" data-name="Trazado 212307" d="M101.953,81.869l13.637-6.7a24.542,24.542,0,0,1,6.051,7.24c4.047,7.458,2.884,15.2,2.269,19.342-1.852,12.494-4.511,31.345-8.428,54.893h-3.263L101.953,81.869" fill="#826049"/>
          <path id="Trazado_212308" data-name="Trazado 212308" d="M93.249,80.851l22.968,2.855c-1.553,5.326-3.794,12.852-6.632,21.855-4.1,13.026-6.216,19.678-9.036,26.447A169.763,169.763,0,0,1,87.8,156.645l-3.162-.81c2.341-10.279,4.434-21.643,5.971-33.985a345.3,345.3,0,0,0,2.642-41" fill="#826049"/>
          <path id="Trazado_212309" data-name="Trazado 212309" d="M95.412,35.335a12.619,12.619,0,0,0,3.3,1.021c5.949.968,10.777-2.731,12.07-3.791,3.149,10.024,6.178,20.594,9,31.691q2.888,11.352,5.187,22.152a82.03,82.03,0,0,1-20.307,2.177,81.777,81.777,0,0,1-14.185-1.5q2.468-25.872,4.934-51.746" fill="#f9eed1"/>
          <path id="Trazado_212310" data-name="Trazado 212310" d="M79.52,36.966l-.086-.313a6.734,6.734,0,0,0,3.283-2.512l.25.207a7.017,7.017,0,0,1-3.447,2.618" fill="#d68b8b"/>
          <rect id="Rectángulo_39729" data-name="Rectángulo 39729" width="0.324" height="61.738" transform="translate(103.598 95.561) rotate(-7.846)" fill="#4d3636"/>
          <path id="Trazado_212311" data-name="Trazado 212311" d="M107.36,2.658a3.926,3.926,0,0,1,1.421.612c.619.477.9,1.166,1.281,3.206.405,2.166.676,3.616.414,3.7-.317.1-1.461-1.781-2.012-3.858-.35-1.323-.252-1.909-.856-2.571-.944-1.035-2.415-1.023-2.384-1.2a3.506,3.506,0,0,1,2.136.115" fill="#fcb4a8"/>
          <path id="Trazado_212312" data-name="Trazado 212312" d="M106.524,8.755c-.09-2,.1-2.16-.189-2.708-.6-1.142-1.94-1.448-1.812-1.858.073-.237.566-.269.626-.272.887-.048,1.572.869,1.846,1.247a8.271,8.271,0,0,1,1.137,3.045,4.508,4.508,0,0,0-.118-2.072,2.722,2.722,0,0,0-.753-1.647,6.2,6.2,0,0,0-1.044-.516c-.357-.16-.672-.29-1.2-.523-.805-.36-1.026-.484-1.036-.667s.2-.337.25-.37c.514-.363,1.318-.055,2.353.356a4.506,4.506,0,0,1,1.71.933,3.552,3.552,0,0,1,.842,1.423c.469,1.34,1.163,3.31,1.985,5.769a28.24,28.24,0,0,0,4.952,3.18c1.706.857,2.114.862,7.071,2.554,1.083.37,3.826,1.729,9.313,4.449a2.411,2.411,0,0,1,1.416,1.334c.423,1.542-1.818,3.975-4.244,4.463-1.437.289-2.752-.142-4.521-1.045-7.465-3.809-12.035-10.42-15.124-11.282a4.386,4.386,0,0,1-1.836-.957,4.655,4.655,0,0,1-1.265-2.013,10.01,10.01,0,0,1-.363-2.823" fill="#fcb4a8"/>
          <path id="Trazado_212313" data-name="Trazado 212313" d="M109.772,7.428c-.246-.71-.467-1.34-.658-1.884l-.127-.365a3.414,3.414,0,0,0-.8-1.361,4.413,4.413,0,0,0-1.655-.9c-.284-.113-.538-.213-.775-.3l.106-.306c.243.084.5.186.788.3a4.607,4.607,0,0,1,1.764.969,3.7,3.7,0,0,1,.881,1.484l.128.365c.19.544.411,1.174.657,1.885Z" fill="#d68b8b"/>
          <path id="Trazado_212314" data-name="Trazado 212314" d="M133.641,21.9a14.877,14.877,0,0,1,.32,4.432c-.572,7.213-6.341,11.311-7.284,11.97-2.091,1.461-4.643,3.244-7.029,2.213-2.047-.884-3.285-3.54-3.205-6.651a12.89,12.89,0,0,0,8.017-4.535,12.5,12.5,0,0,0,2.592-6.015l6.589-1.414" fill="#fcb4a8"/>
          <path id="Trazado_212315" data-name="Trazado 212315" d="M110.782,32.564a12.765,12.765,0,0,0,9.325-1.158,8.582,8.582,0,0,0,7.455,8.753,39.292,39.292,0,0,1-16.856,6.267q.038-6.93.076-13.862" fill="#f9eed1"/>
          <path id="Trazado_212316" data-name="Trazado 212316" d="M28.689,53a8.5,8.5,0,1,1-8.5-8.5,8.5,8.5,0,0,1,8.5,8.5" fill="#f0dc4a"/>
          <path id="Trazado_212317" data-name="Trazado 212317" d="M20.185,60.737a7.738,7.738,0,1,1,5.472-2.267,7.687,7.687,0,0,1-5.472,2.267m0-14.249a6.509,6.509,0,1,0,4.6,1.907,6.468,6.468,0,0,0-4.6-1.907" fill="#c7b52d"/>
          <path id="Trazado_212318" data-name="Trazado 212318" d="M21.967,54.9q0,1.61-1.249,1.858V57.9H20v-1.11a1.571,1.571,0,0,1-1.17-.541,2.577,2.577,0,0,1-.406-1.635v-.48h1.234v.6q0,.991.5.991a.435.435,0,0,0,.387-.176,1.113,1.113,0,0,0,.119-.6,1.864,1.864,0,0,0-.684-1.377c-.013-.014-.12-.109-.32-.288s-.316-.284-.349-.317a2.585,2.585,0,0,1-.917-1.967q0-1.719,1.556-1.819V48.094h.714v1.139a1.338,1.338,0,0,1,.763.446,2.6,2.6,0,0,1,.4,1.63v.436H20.664v-.49a1.89,1.89,0,0,0-.114-.751.391.391,0,0,0-.379-.245.477.477,0,0,0-.392.154.837.837,0,0,0-.126.524,1.505,1.505,0,0,0,.525,1.1l.7.639A3,3,0,0,1,21.967,54.9" fill="#c7b52d"/>
          <path id="Trazado_212319" data-name="Trazado 212319" d="M74.293,78.128a8.5,8.5,0,1,1-8.5-8.5,8.5,8.5,0,0,1,8.5,8.5" fill="#f0dc4a"/>
          <path id="Trazado_212320" data-name="Trazado 212320" d="M65.79,85.866A7.738,7.738,0,1,1,71.262,83.6a7.687,7.687,0,0,1-5.472,2.267m0-14.249a6.509,6.509,0,1,0,4.6,1.907,6.468,6.468,0,0,0-4.6-1.907" fill="#c7b52d"/>
          <path id="Trazado_212321" data-name="Trazado 212321" d="M67.571,80.026q0,1.609-1.249,1.858v1.15h-.713v-1.11a1.571,1.571,0,0,1-1.17-.541,2.577,2.577,0,0,1-.406-1.635v-.48h1.234v.6q0,.992.505.991a.435.435,0,0,0,.387-.176,1.113,1.113,0,0,0,.119-.6,1.864,1.864,0,0,0-.684-1.377c-.013-.014-.12-.109-.32-.288s-.316-.284-.349-.317a2.585,2.585,0,0,1-.917-1.967q0-1.719,1.556-1.819V73.223h.714v1.139a1.338,1.338,0,0,1,.763.446,2.6,2.6,0,0,1,.4,1.63v.436H66.268v-.49a1.89,1.89,0,0,0-.114-.751.391.391,0,0,0-.379-.245.477.477,0,0,0-.392.154.837.837,0,0,0-.126.524,1.505,1.505,0,0,0,.525,1.1l.7.639a3,3,0,0,1,1.085,2.225" fill="#c7b52d"/>
          <path id="Trazado_212322" data-name="Trazado 212322" d="M56.61,26.939a4.316,4.316,0,1,1-4.315-4.315,4.315,4.315,0,0,1,4.315,4.315" fill="#f0dc4a"/>
          <path id="Trazado_212323" data-name="Trazado 212323" d="M52.294,30.866a3.926,3.926,0,1,1,2.777-1.15,3.9,3.9,0,0,1-2.777,1.15m0-7.231a3.3,3.3,0,1,0,2.336.968,3.285,3.285,0,0,0-2.336-.968" fill="#c7b52d"/>
          <path id="Trazado_212324" data-name="Trazado 212324" d="M53.2,27.9q0,.818-.634.943v.584H52.2v-.564a.8.8,0,0,1-.593-.274,1.306,1.306,0,0,1-.207-.83v-.244h.627v.305q0,.5.256.5a.218.218,0,0,0,.2-.09.563.563,0,0,0,.061-.3.949.949,0,0,0-.347-.7l-.163-.146c-.1-.09-.16-.144-.177-.161a1.311,1.311,0,0,1-.465-1q0-.873.79-.923v-.556h.362v.579a.671.671,0,0,1,.387.226,1.314,1.314,0,0,1,.2.827V26.3h-.6v-.249a.963.963,0,0,0-.058-.381.2.2,0,0,0-.193-.124.241.241,0,0,0-.2.078.424.424,0,0,0-.064.266.765.765,0,0,0,.266.557l.357.324A1.524,1.524,0,0,1,53.2,27.9" fill="#c7b52d"/>
          <path id="Trazado_212325" data-name="Trazado 212325" d="M70.105,133.97a4.316,4.316,0,1,1-4.315-4.315,4.315,4.315,0,0,1,4.315,4.315" fill="#f0dc4a"/>
          <path id="Trazado_212326" data-name="Trazado 212326" d="M65.79,137.9a3.926,3.926,0,1,1,2.777-1.15,3.9,3.9,0,0,1-2.777,1.15m0-7.231a3.3,3.3,0,1,0,2.336.968,3.285,3.285,0,0,0-2.336-.968" fill="#c7b52d"/>
          <path id="Trazado_212327" data-name="Trazado 212327" d="M66.694,134.933q0,.817-.634.943v.584H65.7V135.9a.8.8,0,0,1-.593-.274,1.306,1.306,0,0,1-.207-.83v-.244h.627v.3q0,.5.256.5a.218.218,0,0,0,.2-.09.563.563,0,0,0,.061-.3.949.949,0,0,0-.347-.7l-.163-.146c-.1-.09-.16-.144-.177-.161a1.311,1.311,0,0,1-.465-1q0-.873.79-.923v-.556h.362v.579a.671.671,0,0,1,.387.226,1.314,1.314,0,0,1,.2.827v.221h-.6v-.249a.963.963,0,0,0-.058-.381.2.2,0,0,0-.193-.124.241.241,0,0,0-.2.078.424.424,0,0,0-.064.266.765.765,0,0,0,.266.557l.357.324a1.524,1.524,0,0,1,.551,1.129" fill="#c7b52d"/>
          <path id="Trazado_212328" data-name="Trazado 212328" d="M15.659,96.742a4.316,4.316,0,1,1-4.315-4.315,4.315,4.315,0,0,1,4.315,4.315" fill="#f0dc4a"/>
          <path id="Trazado_212329" data-name="Trazado 212329" d="M11.343,100.669a3.926,3.926,0,1,1,2.777-1.15,3.9,3.9,0,0,1-2.777,1.15m0-7.231a3.3,3.3,0,1,0,2.336.968,3.285,3.285,0,0,0-2.336-.968" fill="#c7b52d"/>
          <path id="Trazado_212330" data-name="Trazado 212330" d="M12.247,97.705q0,.817-.634.943v.583h-.362v-.563a.8.8,0,0,1-.593-.274,1.306,1.306,0,0,1-.207-.83V97.32h.627v.305q0,.5.256.5a.218.218,0,0,0,.2-.09.563.563,0,0,0,.061-.3.949.949,0,0,0-.347-.7l-.163-.146c-.1-.09-.16-.144-.177-.161a1.311,1.311,0,0,1-.465-1q0-.873.79-.923v-.556h.362v.579a.671.671,0,0,1,.387.226,1.314,1.314,0,0,1,.2.827v.221h-.6v-.249a.963.963,0,0,0-.058-.381.2.2,0,0,0-.193-.124.241.241,0,0,0-.2.078.424.424,0,0,0-.064.266.765.765,0,0,0,.266.557l.357.324a1.524,1.524,0,0,1,.551,1.129" fill="#c7b52d"/>
        </g>
      </g>
    </g>
  </g>
</svg>
