<svg xmlns="http://www.w3.org/2000/svg" xmlns:xlink="http://www.w3.org/1999/xlink" width="262.413" height="260.888" viewBox="0 0 262.413 260.888">
  <defs>
    <clipPath id="clip-path">
      <rect id="Rectángulo_39586" data-name="Rectángulo 39586" width="134.917" height="150.609" fill="none"/>
    </clipPath>
    <clipPath id="clip-path-3">
      <rect id="Rectángulo_39566" data-name="Rectángulo 39566" width="24.955" height="16.131" transform="translate(0 121.903)" fill="none"/>
    </clipPath>
    <clipPath id="clip-path-5">
      <rect id="Rectángulo_39568" data-name="Rectángulo 39568" width="25.06" height="14.512" transform="translate(91.67 19.233)" fill="none"/>
    </clipPath>
    <clipPath id="clip-path-6">
      <rect id="Rectángulo_39569" data-name="Rectángulo 39569" width="13.525" height="66.856" transform="translate(103.242 25.958)" fill="none"/>
    </clipPath>
    <clipPath id="clip-path-8">
      <rect id="Rectángulo_39571" data-name="Rectángulo 39571" width="25.069" height="14.517" transform="translate(76.056 36.933)" fill="none"/>
    </clipPath>
    <clipPath id="clip-path-9">
      <rect id="Rectángulo_39572" data-name="Rectángulo 39572" width="13.518" height="58.204" transform="translate(87.607 43.658)" fill="none"/>
    </clipPath>
    <clipPath id="clip-path-11">
      <rect id="Rectángulo_39574" data-name="Rectángulo 39574" width="25.068" height="14.517" transform="translate(60.43 54.088)" fill="none"/>
    </clipPath>
    <clipPath id="clip-path-12">
      <rect id="Rectángulo_39575" data-name="Rectángulo 39575" width="13.555" height="50.092" transform="translate(71.944 60.813)" fill="none"/>
    </clipPath>
    <clipPath id="clip-path-14">
      <rect id="Rectángulo_39577" data-name="Rectángulo 39577" width="25.068" height="14.517" transform="translate(44.599 71.729)" fill="none"/>
    </clipPath>
    <clipPath id="clip-path-15">
      <rect id="Rectángulo_39578" data-name="Rectángulo 39578" width="13.607" height="41.494" transform="translate(56.171 78.454)" fill="none"/>
    </clipPath>
    <clipPath id="clip-path-17">
      <rect id="Rectángulo_39580" data-name="Rectángulo 39580" width="25.068" height="14.517" transform="translate(29.043 88.625)" fill="none"/>
    </clipPath>
    <clipPath id="clip-path-18">
      <rect id="Rectángulo_39581" data-name="Rectángulo 39581" width="13.5" height="33.642" transform="translate(40.615 95.35)" fill="none"/>
    </clipPath>
    <clipPath id="clip-path-20">
      <rect id="Rectángulo_39583" data-name="Rectángulo 39583" width="25.068" height="14.517" transform="translate(13.417 105.682)" fill="none"/>
    </clipPath>
    <clipPath id="clip-path-21">
      <rect id="Rectángulo_39584" data-name="Rectángulo 39584" width="13.53" height="25.628" transform="translate(24.955 112.407)" fill="none"/>
    </clipPath>
  </defs>
  <g id="Grupo_149958" data-name="Grupo 149958" transform="translate(-820.523 -4697.591)">
    <g id="Grupo_148618" data-name="Grupo 148618" transform="translate(819.941 4675.242)">
      <g id="Grupo_147888" data-name="Grupo 147888" transform="translate(0 87.438) rotate(-19)">
        <path id="Trazado_114141" data-name="Trazado 114141" d="M64.839,137.1c42.387,11.295,46.145,76.023,83.729,68.671,71-13.888,40.833-105.048,33.708-163.164-10.483-85.5-121.7-17.442-146.006-1.833S-43.761,108.169,64.839,137.1" transform="translate(0.06 0.82)" fill="#039d95" fill-rule="evenodd"/>
      </g>
      <g id="Grupo_147889" data-name="Grupo 147889" transform="translate(0 87.438) rotate(-19)">
        <path id="Trazado_114141-2" data-name="Trazado 114141" d="M64.811,137.109c42.386,11.288,46.13,76.025,83.717,68.664,71.009-13.906,40.858-105.074,33.745-163.2-10.465-85.515-121.7-17.418-146.012-1.8S-43.787,108.2,64.811,137.109" transform="translate(0.036 0.807)" fill="#039d95" fill-rule="evenodd"/>
        <path id="Trazado_209723" data-name="Trazado 209723" d="M7.378,64.974c-28.5,60.873,32.454,108.3,104.412,88.986,141.138-37.883,122.44-90.673,8.978-143.616C71-12.877,24.631,2.974,7.378,64.974" transform="translate(9.383 7.144)" fill="#ffc631" fill-rule="evenodd"/>
      </g>
    </g>
    <g id="Grupo_148729" data-name="Grupo 148729" transform="translate(879 4738)">
      <g id="Grupo_148728" data-name="Grupo 148728" clip-path="url(#clip-path)">
        <g id="Grupo_148679" data-name="Grupo 148679">
          <g id="Grupo_148678" data-name="Grupo 148678" clip-path="url(#clip-path)">
            <g id="Grupo_148677" data-name="Grupo 148677" opacity="0.4">
              <g id="Grupo_148676" data-name="Grupo 148676">
                <g id="Grupo_148675" data-name="Grupo 148675" clip-path="url(#clip-path-3)">
                  <path id="Trazado_211772" data-name="Trazado 211772" d="M0,132.514l9.561,5.52H24.955l-2.288-10.441-4.288-5.69Z" fill="#ada6a3"/>
                </g>
              </g>
            </g>
          </g>
        </g>
        <path id="Trazado_211773" data-name="Trazado 211773" d="M118.942,83.771,107.37,77.046l-.086-69.259,11.571,6.725Z" fill="#44af8f"/>
        <path id="Trazado_211774" data-name="Trazado 211774" d="M120.771,0,107.284,7.787l11.571,6.725,13.488-7.787Z" fill="#9ac9bd"/>
        <path id="Trazado_211775" data-name="Trazado 211775" d="M122.487,1V12.416l9.856-5.691Z" fill="#83c9b4"/>
        <path id="Trazado_211776" data-name="Trazado 211776" d="M132.343,6.725l.087,69.259-13.488,7.787-.087-69.259Z" fill="#5ac9ae"/>
        <path id="Trazado_211777" data-name="Trazado 211777" d="M103.279,92.814,91.707,86.089,91.67,27.02l11.572,6.725Z" fill="#44af8f"/>
        <g id="Grupo_148687" data-name="Grupo 148687">
          <g id="Grupo_148686" data-name="Grupo 148686" clip-path="url(#clip-path)">
            <g id="Grupo_148682" data-name="Grupo 148682" style="mix-blend-mode: screen;isolation: isolate">
              <g id="Grupo_148681" data-name="Grupo 148681">
                <g id="Grupo_148680" data-name="Grupo 148680" clip-path="url(#clip-path-5)">
                  <path id="Trazado_211778" data-name="Trazado 211778" d="M103.242,33.745,91.67,27.02l13.488-7.787,11.572,6.725Z" fill="#9ac9bd"/>
                </g>
              </g>
            </g>
            <g id="Grupo_148685" data-name="Grupo 148685" opacity="0.95">
              <g id="Grupo_148684" data-name="Grupo 148684">
                <g id="Grupo_148683" data-name="Grupo 148683" clip-path="url(#clip-path-6)">
                  <path id="Trazado_211779" data-name="Trazado 211779" d="M116.73,25.958l.037,59.069-13.488,7.787-.037-59.069Z" fill="#5ac9ae"/>
                </g>
              </g>
            </g>
          </g>
        </g>
        <path id="Trazado_211780" data-name="Trazado 211780" d="M87.607,101.862,76.213,95.137l-.157-50.412L87.628,51.45Z" fill="#44af8f"/>
        <g id="Grupo_148695" data-name="Grupo 148695">
          <g id="Grupo_148694" data-name="Grupo 148694" clip-path="url(#clip-path)">
            <g id="Grupo_148690" data-name="Grupo 148690" style="mix-blend-mode: screen;isolation: isolate">
              <g id="Grupo_148689" data-name="Grupo 148689">
                <g id="Grupo_148688" data-name="Grupo 148688" clip-path="url(#clip-path-8)">
                  <path id="Trazado_211781" data-name="Trazado 211781" d="M89.553,36.933l11.572,6.725-13.5,7.792L76.056,44.725Z" fill="#9ac9bd"/>
                </g>
              </g>
            </g>
            <g id="Grupo_148693" data-name="Grupo 148693" opacity="0.95">
              <g id="Grupo_148692" data-name="Grupo 148692">
                <g id="Grupo_148691" data-name="Grupo 148691" clip-path="url(#clip-path-9)">
                  <path id="Trazado_211782" data-name="Trazado 211782" d="M101.125,43.658,101.1,94.07l-13.5,7.792.02-50.412Z" fill="#5ac9ae"/>
                </g>
              </g>
            </g>
          </g>
        </g>
        <path id="Trazado_211783" data-name="Trazado 211783" d="M71.944,110.905,60.372,104.18l.058-42.3L72,68.605Z" fill="#44af8f"/>
        <g id="Grupo_148703" data-name="Grupo 148703">
          <g id="Grupo_148702" data-name="Grupo 148702" clip-path="url(#clip-path)">
            <g id="Grupo_148698" data-name="Grupo 148698" style="mix-blend-mode: screen;isolation: isolate">
              <g id="Grupo_148697" data-name="Grupo 148697">
                <g id="Grupo_148696" data-name="Grupo 148696" clip-path="url(#clip-path-11)">
                  <path id="Trazado_211784" data-name="Trazado 211784" d="M72,68.605,60.43,61.88l13.5-7.792L85.5,60.813Z" fill="#9ac9bd"/>
                </g>
              </g>
            </g>
            <g id="Grupo_148701" data-name="Grupo 148701" opacity="0.95">
              <g id="Grupo_148700" data-name="Grupo 148700">
                <g id="Grupo_148699" data-name="Grupo 148699" clip-path="url(#clip-path-12)">
                  <path id="Trazado_211785" data-name="Trazado 211785" d="M85.5,60.813l-.058,42.3-13.5,7.792L72,68.605Z" fill="#5ac9ae"/>
                </g>
              </g>
            </g>
          </g>
        </g>
        <path id="Trazado_211786" data-name="Trazado 211786" d="M56.281,119.948l-11.572-6.725-.11-33.7,11.572,6.725Z" fill="#44af8f"/>
        <g id="Grupo_148711" data-name="Grupo 148711">
          <g id="Grupo_148710" data-name="Grupo 148710" clip-path="url(#clip-path)">
            <g id="Grupo_148706" data-name="Grupo 148706" style="mix-blend-mode: screen;isolation: isolate">
              <g id="Grupo_148705" data-name="Grupo 148705">
                <g id="Grupo_148704" data-name="Grupo 148704" clip-path="url(#clip-path-14)">
                  <path id="Trazado_211787" data-name="Trazado 211787" d="M56.171,86.246,44.6,79.521l13.5-7.792,11.572,6.725Z" fill="#9ac9bd"/>
                </g>
              </g>
            </g>
            <g id="Grupo_148709" data-name="Grupo 148709" opacity="0.95">
              <g id="Grupo_148708" data-name="Grupo 148708">
                <g id="Grupo_148707" data-name="Grupo 148707" clip-path="url(#clip-path-15)">
                  <path id="Trazado_211788" data-name="Trazado 211788" d="M69.667,78.454l.11,33.7-13.5,7.792-.111-33.7Z" fill="#5ac9ae"/>
                </g>
              </g>
            </g>
          </g>
        </g>
        <path id="Trazado_211789" data-name="Trazado 211789" d="M40.618,128.991l-11.572-6.725,0-25.849,11.572,6.725Z" fill="#44af8f"/>
        <g id="Grupo_148719" data-name="Grupo 148719">
          <g id="Grupo_148718" data-name="Grupo 148718" clip-path="url(#clip-path)">
            <g id="Grupo_148714" data-name="Grupo 148714" style="mix-blend-mode: screen;isolation: isolate">
              <g id="Grupo_148713" data-name="Grupo 148713">
                <g id="Grupo_148712" data-name="Grupo 148712" clip-path="url(#clip-path-17)">
                  <path id="Trazado_211790" data-name="Trazado 211790" d="M40.615,103.142,29.043,96.417l13.5-7.792L54.112,95.35Z" fill="#9ac9bd"/>
                </g>
              </g>
            </g>
            <g id="Grupo_148717" data-name="Grupo 148717" opacity="0.95">
              <g id="Grupo_148716" data-name="Grupo 148716">
                <g id="Grupo_148715" data-name="Grupo 148715" clip-path="url(#clip-path-18)">
                  <path id="Trazado_211791" data-name="Trazado 211791" d="M54.111,95.35l0,25.85-13.5,7.792,0-25.85Z" fill="#5ac9ae"/>
                </g>
              </g>
            </g>
          </g>
        </g>
        <path id="Trazado_211792" data-name="Trazado 211792" d="M24.955,138.035,13.383,131.31l.033-17.835L24.988,120.2Z" fill="#44af8f"/>
        <g id="Grupo_148727" data-name="Grupo 148727">
          <g id="Grupo_148726" data-name="Grupo 148726" clip-path="url(#clip-path)">
            <g id="Grupo_148722" data-name="Grupo 148722" style="mix-blend-mode: screen;isolation: isolate">
              <g id="Grupo_148721" data-name="Grupo 148721">
                <g id="Grupo_148720" data-name="Grupo 148720" clip-path="url(#clip-path-20)">
                  <path id="Trazado_211793" data-name="Trazado 211793" d="M24.989,120.2l-11.572-6.725,13.5-7.792,11.572,6.725Z" fill="#9ac9bd"/>
                </g>
              </g>
            </g>
            <g id="Grupo_148725" data-name="Grupo 148725" opacity="0.95">
              <g id="Grupo_148724" data-name="Grupo 148724">
                <g id="Grupo_148723" data-name="Grupo 148723" clip-path="url(#clip-path-21)">
                  <path id="Trazado_211794" data-name="Trazado 211794" d="M38.485,112.407l-.033,17.835-13.5,7.793.033-17.836Z" fill="#5ac9ae"/>
                </g>
              </g>
            </g>
          </g>
        </g>
        <path id="Trazado_211795" data-name="Trazado 211795" d="M129.365,53.347,122.6,49.418l.479.273,6.76,3.929Z" fill="#2a926f"/>
        <path id="Trazado_211796" data-name="Trazado 211796" d="M102.61,90.6,95.849,86.67l8.38-14.724,6.76,3.929Z" fill="#2ca77d"/>
        <path id="Trazado_211797" data-name="Trazado 211797" d="M110.989,75.875l-6.761-3.929,8.139-4.7,6.761,3.929Z" fill="#35bb90"/>
        <path id="Trazado_211798" data-name="Trazado 211798" d="M84.991,108.8l-6.761-3.929,6.988-12.061,6.761,3.929Z" fill="#2ca77d"/>
        <path id="Trazado_211799" data-name="Trazado 211799" d="M91.979,96.737l-6.761-3.929L95.849,86.67,102.61,90.6Z" fill="#35bb90"/>
        <path id="Trazado_211800" data-name="Trazado 211800" d="M73.306,115.544l-6.761-3.929,11.685-6.746,6.761,3.929Z" fill="#35bb90"/>
        <path id="Trazado_211801" data-name="Trazado 211801" d="M68.31,124.179l-6.761-3.929,5-8.635,6.761,3.929Z" fill="#2ca77d"/>
        <path id="Trazado_211802" data-name="Trazado 211802" d="M39.511,146.68l6.761,3.928-.479-.281L39.032,146.4Z" fill="#237e60"/>
        <path id="Trazado_211803" data-name="Trazado 211803" d="M39.032,146.4l6.761,3.929L57.18,130.606l-6.761-3.929Z" fill="#2ca77d"/>
        <path id="Trazado_211804" data-name="Trazado 211804" d="M119.128,71.177l-8.139,4.7L102.61,90.6,91.979,96.737,84.991,108.8l-11.685,6.746-5,8.636-11.13,6.426L45.793,150.328l.479.281,11.187-19.377L68.6,124.8l5-8.635,11.685-6.746,6.988-12.07,10.623-6.134,8.38-14.715,8.146-4.7L129.843,53.62l-.478-.273Z" fill="#32ac86"/>
        <path id="Trazado_211805" data-name="Trazado 211805" d="M57.179,130.606l-6.761-3.929,11.131-6.426,6.761,3.929Z" fill="#35bb90"/>
        <path id="Trazado_211806" data-name="Trazado 211806" d="M118,46.993l4.506,2.6L112.366,67.248l6.761,3.929L129.274,53.5l5.624,3.247.019-20.566Z" fill="#2ca77d"/>
      </g>
    </g>
  </g>
</svg>
