<svg xmlns="http://www.w3.org/2000/svg" xmlns:xlink="http://www.w3.org/1999/xlink" width="400" height="255.504" viewBox="0 0 400 255.504">
  <defs>
    <clipPath id="clip-path">
      <path id="Trazado_114145" data-name="Trazado 114145" d="M64.851,54.415C29.336,72.828-52.142,133.838,106.188,167.533c61.8,13.154,67.049,89.208,121.905,80.463,103.633-16.52,59.943-123.562,49.755-191.837C272.309,19.041,246.624,6.6,214.655,6.6,160.1,6.6,87.241,42.806,64.851,54.415" transform="translate(-12.084 -6.6)" fill="none"/>
    </clipPath>
    <clipPath id="clip-path-2">
      <rect id="Rectángulo_34068" data-name="Rectángulo 34068" width="169.926" height="135.267" fill="none"/>
    </clipPath>
    <clipPath id="clip-path-3">
      <rect id="Rectángulo_34069" data-name="Rectángulo 34069" width="252.575" height="153.658" fill="none"/>
    </clipPath>
    <clipPath id="clip-path-4">
      <rect id="Rectángulo_39209" data-name="Rectángulo 39209" width="171.936" height="237.136" fill="none"/>
    </clipPath>
    <clipPath id="clip-path-6">
      <rect id="Rectángulo_39206" data-name="Rectángulo 39206" width="17.557" height="16.565" fill="none"/>
    </clipPath>
    <clipPath id="clip-path-7">
      <rect id="Rectángulo_39207" data-name="Rectángulo 39207" width="9.63" height="12.291" fill="none"/>
    </clipPath>
    <clipPath id="clip-path-8">
      <rect id="Rectángulo_39233" data-name="Rectángulo 39233" width="172.324" height="131.898" fill="none"/>
    </clipPath>
    <clipPath id="clip-path-10">
      <rect id="Rectángulo_39223" data-name="Rectángulo 39223" width="5.86" height="28.339" fill="none"/>
    </clipPath>
    <clipPath id="clip-path-11">
      <rect id="Rectángulo_39225" data-name="Rectángulo 39225" width="5.86" height="41.257" fill="none"/>
    </clipPath>
    <clipPath id="clip-path-12">
      <rect id="Rectángulo_39227" data-name="Rectángulo 39227" width="5.86" height="22.08" fill="none"/>
    </clipPath>
    <clipPath id="clip-path-13">
      <rect id="Rectángulo_39229" data-name="Rectángulo 39229" width="5.86" height="31.567" fill="none"/>
    </clipPath>
    <clipPath id="clip-path-14">
      <rect id="Rectángulo_39231" data-name="Rectángulo 39231" width="5.86" height="25.286" fill="none"/>
    </clipPath>
  </defs>
  <g id="Grupo_149961" data-name="Grupo 149961" transform="translate(-600 -5408.311)">
    <g id="Grupo_149960" data-name="Grupo 149960">
      <g id="Grupo_147813" data-name="Grupo 147813">
        <g id="Grupo_147793" data-name="Grupo 147793">
          <path id="Trazado_210189" data-name="Trazado 210189" d="M50.681,139.445C7.229,225.125,99.558,291.624,208.8,264.248c214.266-53.7,186.075-127.869,14.1-201.964-75.432-32.5-131.4,3.475-172.223,77.162" transform="matrix(1, 0, 0, 1, 560.295, 5363.145)" fill="#ffebb7" fill-rule="evenodd"/>
          <g id="Grupo_147782" data-name="Grupo 147782" transform="translate(716.4 5408.311)">
            <g id="Grupo_80948" data-name="Grupo 80948" clip-path="url(#clip-path)">
              <path id="Trazado_114142" data-name="Trazado 114142" d="M106.188,167.533c61.8,13.154,67.049,89.208,121.905,80.463,103.634-16.52,59.943-123.562,49.755-191.837C262.858-44.291,100.364,36,64.851,54.415s-116.993,79.424,41.337,113.118" transform="translate(-12.084 -6.6)" fill="#039d95" fill-rule="evenodd"/>
              <g id="Grupo_80944" data-name="Grupo 80944" transform="translate(-13.184 40.521)" opacity="0.5" style="mix-blend-mode: multiply;isolation: isolate">
                <g id="Grupo_80943" data-name="Grupo 80943">
                  <g id="Grupo_80942" data-name="Grupo 80942" clip-path="url(#clip-path-2)">
                    <path id="Trazado_114143" data-name="Trazado 114143" d="M169.926,120.89c0,37.353-38.038,67.634-84.963,67.634S0,158.243,0,120.89,38.041,53.258,84.963,53.258s84.963,30.28,84.963,67.632" transform="translate(0 -53.258)" fill="#99c8f2"/>
                  </g>
                </g>
              </g>
              <g id="Grupo_80947" data-name="Grupo 80947" transform="translate(76.216 86.651)" opacity="0.5" style="mix-blend-mode: multiply;isolation: isolate">
                <g id="Grupo_80946" data-name="Grupo 80946">
                  <g id="Grupo_80945" data-name="Grupo 80945" clip-path="url(#clip-path-3)">
                    <path id="Trazado_114144" data-name="Trazado 114144" d="M332.608,159.77c12.012,40.4-33.939,83.638-102.631,96.579S95.859,247.031,83.849,206.634,117.789,123,186.484,110.054s134.117,9.32,146.125,49.715" transform="translate(-81.942 -106.373)" fill="#99c8f2"/>
                  </g>
                </g>
              </g>
            </g>
          </g>
          <g id="Grupo_147792" data-name="Grupo 147792" transform="translate(772.232 5426.68)">
            <g id="Grupo_147791" data-name="Grupo 147791" clip-path="url(#clip-path-4)">
              <rect id="Rectángulo_39194" data-name="Rectángulo 39194" width="117.726" height="88.004" transform="translate(0.536 35.559)" fill="#fff"/>
              <rect id="Rectángulo_39195" data-name="Rectángulo 39195" width="117.726" height="10.878" transform="translate(0.165 35.559)" fill="#e0e0e0"/>
              <g id="Grupo_147790" data-name="Grupo 147790">
                <g id="Grupo_147789" data-name="Grupo 147789" clip-path="url(#clip-path-4)">
                  <path id="Trazado_210190" data-name="Trazado 210190" d="M11.08,63.695a1.568,1.568,0,1,1-1.568-1.568,1.568,1.568,0,0,1,1.568,1.568" transform="translate(-2.902 -22.696)" fill="#fff"/>
                  <path id="Trazado_210191" data-name="Trazado 210191" d="M19.408,63.695a1.568,1.568,0,1,1-1.568-1.568,1.568,1.568,0,0,1,1.568,1.568" transform="translate(-5.945 -22.696)" fill="#fff"/>
                  <path id="Trazado_210192" data-name="Trazado 210192" d="M27.736,63.695a1.568,1.568,0,1,1-1.568-1.568,1.568,1.568,0,0,1,1.568,1.568" transform="translate(-8.987 -22.696)" fill="#fff"/>
                  <path id="Trazado_210193" data-name="Trazado 210193" d="M117.891,143.936s-.01-.552-.015-1.61-.009-2.628-.016-4.674c-.008-4.1-.02-10.1-.034-17.777-.017-15.334-.041-37.319-.071-63.942l.136.136L.175,56.1H.166l.165-.166c-.006,31.628-.011,61.586-.016,88l-.149-.149,84.975.074,24.135.04,6.4.018,1.65.008c.371,0,.564.009.564.009s-.182.006-.547.009l-1.633.008-6.372.018-24.1.04-85.072.074H.016v-.149c0-26.418-.01-56.376-.016-88v-.165H.175l117.716.03h.136v.135c-.029,26.658-.053,48.672-.07,64.027-.015,7.661-.027,13.658-.035,17.747-.006,2.035-.011,3.594-.015,4.648s-.015,1.582-.015,1.582" transform="translate(0 -20.373)" fill="#263238"/>
                  <path id="Trazado_210194" data-name="Trazado 210194" d="M115.3,139.5c0,.091-23.429.165-52.322.165s-52.327-.074-52.327-.165,23.423-.165,52.327-.165,52.322.074,52.322.165" transform="translate(-3.89 -50.9)" fill="#e0e0e0"/>
                  <path id="Trazado_210195" data-name="Trazado 210195" d="M115.3,125.261c0,.091-23.429.165-52.322.165s-52.327-.074-52.327-.165,23.423-.165,52.327-.165,52.322.074,52.322.165" transform="translate(-3.89 -45.7)" fill="#e0e0e0"/>
                  <path id="Trazado_210196" data-name="Trazado 210196" d="M115.3,111.027c0,.091-23.429.165-52.322.165s-52.327-.074-52.327-.165,23.423-.165,52.327-.165,52.322.074,52.322.165" transform="translate(-3.89 -40.5)" fill="#e0e0e0"/>
                  <path id="Trazado_210197" data-name="Trazado 210197" d="M115.3,96.792c0,.091-23.429.165-52.322.165s-52.327-.074-52.327-.165,23.423-.165,52.327-.165,52.322.074,52.322.165" transform="translate(-3.89 -35.3)" fill="#e0e0e0"/>
                  <rect id="Rectángulo_39196" data-name="Rectángulo 39196" width="8.706" height="17.509" transform="translate(15.613 84.501)" fill="#ffc631"/>
                  <rect id="Rectángulo_39197" data-name="Rectángulo 39197" width="8.706" height="17.509" transform="translate(46.861 84.501)" fill="#455a64"/>
                  <rect id="Rectángulo_39198" data-name="Rectángulo 39198" width="8.706" height="11.54" transform="translate(94.259 90.469)" fill="#455a64"/>
                  <rect id="Rectángulo_39199" data-name="Rectángulo 39199" width="8.706" height="25.801" transform="translate(78.108 76.208)" fill="#e0e0e0"/>
                  <rect id="Rectángulo_39200" data-name="Rectángulo 39200" width="8.706" height="35.845" transform="translate(62.133 66.164)" fill="#ffc631"/>
                  <rect id="Rectángulo_39201" data-name="Rectángulo 39201" width="8.706" height="25.801" transform="translate(30.614 76.208)" fill="#e0e0e0"/>
                  <path id="Trazado_210198" data-name="Trazado 210198" d="M113.875,133.5s-.132.011-.39.017l-1.143.016-4.395.031-16.164.053-53.328.048-28.13-.011h-.154V133.5c.024-13.868.045-25.688.06-34.055.018-4.169.034-7.476.044-9.754.01-1.123.018-1.993.024-2.594.006-.286.01-.506.013-.668s.013-.226.013-.226.009.076.013.226.007.382.013.668c.006.6.013,1.471.024,2.594.01,2.279.025,5.586.044,9.754.015,8.367.036,20.187.06,34.055l-.154-.154,28.13-.011,53.328.048,16.164.053,4.395.031,1.143.016c.258.006.39.017.39.017" transform="translate(-3.716 -31.492)" fill="#263238"/>
                  <rect id="Rectángulo_39202" data-name="Rectángulo 39202" width="3.825" height="3.825" transform="translate(24.908 110.892)" fill="#ffc631"/>
                  <rect id="Rectángulo_39203" data-name="Rectángulo 39203" width="3.825" height="3.825" transform="translate(48.291 110.77)" fill="#e0e0e0"/>
                  <rect id="Rectángulo_39204" data-name="Rectángulo 39204" width="3.825" height="3.825" transform="translate(73.586 110.892)" fill="#455a64"/>
                  <path id="Trazado_210199" data-name="Trazado 210199" d="M59.239,177.448a41.2,41.2,0,0,1-5.209.165,41.2,41.2,0,0,1-5.209-.165,41.2,41.2,0,0,1,5.209-.165,41.2,41.2,0,0,1,5.209.165" transform="translate(-17.835 -64.765)" fill="#263238"/>
                  <path id="Trazado_210200" data-name="Trazado 210200" d="M95.8,177.448a41.2,41.2,0,0,1-5.209.165,41.2,41.2,0,0,1-5.209-.165,41.2,41.2,0,0,1,5.209-.165,41.2,41.2,0,0,1,5.209.165" transform="translate(-31.192 -64.765)" fill="#263238"/>
                  <path id="Trazado_210201" data-name="Trazado 210201" d="M134.724,177.448a41.2,41.2,0,0,1-5.209.165,41.2,41.2,0,0,1-5.209-.165,41.2,41.2,0,0,1,5.209-.165,41.2,41.2,0,0,1,5.209.165" transform="translate(-45.412 -64.765)" fill="#263238"/>
                  <rect id="Rectángulo_39205" data-name="Rectángulo 39205" width="40.679" height="40.678" transform="translate(61.32 8.059)" fill="#fff"/>
                  <path id="Trazado_210202" data-name="Trazado 210202" d="M137.2,53.282s-.005-.069-.008-.2,0-.324-.008-.566c0-.508-.01-1.24-.017-2.192-.008-1.922-.021-4.723-.037-8.281-.018-7.119-.043-17.27-.073-29.443l.143.143-40.674.022h0l.166-.165c-.008,14.895-.016,28.853-.022,40.678l-.143-.143,29.445.073,8.28.037,2.191.017.566.008c.128,0,.2.008.2.008a1.406,1.406,0,0,1-.181.008l-.55.008-2.164.017-8.248.037-29.536.073h-.143v-.143c-.006-11.825-.014-25.783-.022-40.678v-.166h.169l40.674.022h.143V12.6c-.03,12.211-.055,22.393-.073,29.534-.016,3.544-.029,6.333-.037,8.248-.007.939-.013,1.663-.017,2.164,0,.235-.006.417-.008.55a1.574,1.574,0,0,1-.008.181" transform="translate(-35.2 -4.544)" fill="#263238"/>
                  <path id="Trazado_210203" data-name="Trazado 210203" d="M124.537,37.564a6.557,6.557,0,0,0,3.907-6.066,6.162,6.162,0,1,0-12.3-.057,6.546,6.546,0,0,0,3.918,6.123c-9.463,1.425-9.033,11.71-9.033,11.71l22.377.1s.51-10.4-8.87-11.813" transform="translate(-40.561 -9.101)" fill="#ffc631"/>
                  <path id="Trazado_210204" data-name="Trazado 210204" d="M256.753,8.285a1.588,1.588,0,0,0-1.087-.47,5.761,5.761,0,0,0-3.379.654,4.938,4.938,0,0,0,.683-5.91,5.576,5.576,0,0,0-5.513-2.5,6.418,6.418,0,0,0-4.8,3.839,7.575,7.575,0,0,0,.271,6.217l3.528.925a9.881,9.881,0,0,0,5.55,1.707,2.907,2.907,0,0,0,2.186-.718c.533-.583.443-1.728-.31-1.968a3.662,3.662,0,0,0,2.2.031c.687-.289,1.14-1.227.672-1.807" transform="translate(-88.45 0)" fill="#263238"/>
                  <path id="Trazado_210205" data-name="Trazado 210205" d="M219.023,5.012a8.612,8.612,0,0,0-6.633.685,5.119,5.119,0,0,0-8.837,1.352A4.478,4.478,0,0,0,198.2,8.867a4.478,4.478,0,0,0,1,5.564,5.565,5.565,0,0,0-2.327,8.463c-1.667.809-1.953,3.066-1.707,4.9s.775,3.8-.049,5.465c-.636,1.282-1.948,2.075-2.845,3.19s-1.211,3.036,0,3.791a3.871,3.871,0,1,0,1.4,7.605,4.745,4.745,0,0,0,.5,4.552,7.645,7.645,0,0,0,3.806,2.774,11.374,11.374,0,0,0,12.425-3.5l13.7-42.348a8.611,8.611,0,0,0-5.088-4.309" transform="translate(-69.021 -1.361)" fill="#263238"/>
                  <path id="Trazado_210206" data-name="Trazado 210206" d="M232.884,20.9l.183-2.285-13.582-3.44c-4.209-.7-9.045,3.267-9.569,7.5-.582,4.706-1.106,10.473-.759,14.031.7,7.155,6.076,8.383,6.076,8.383l-.393,7.037,15.661,1.14Z" transform="translate(-76.369 -5.513)" fill="#c27460"/>
                  <path id="Trazado_210207" data-name="Trazado 210207" d="M213.03,36.474a.911.911,0,0,0,.821.97.871.871,0,0,0,.986-.763.91.91,0,0,0-.819-.97.871.871,0,0,0-.988.764" transform="translate(-77.823 -13.043)" fill="#263238"/>
                  <path id="Trazado_210208" data-name="Trazado 210208" d="M212.485,31.436c.105.125.825-.343,1.8-.281s1.665.593,1.778.48c.056-.05-.046-.27-.345-.517a2.5,2.5,0,0,0-1.415-.531,2.4,2.4,0,0,0-1.444.372c-.315.213-.429.421-.377.477" transform="translate(-77.621 -11.173)" fill="#263238"/>
                  <path id="Trazado_210209" data-name="Trazado 210209" d="M227.019,37.232a.911.911,0,0,0,.821.97.872.872,0,0,0,.986-.763.912.912,0,0,0-.821-.97.871.871,0,0,0-.987.764" transform="translate(-82.933 -13.32)" fill="#263238"/>
                  <path id="Trazado_210210" data-name="Trazado 210210" d="M227.615,32.635c.106.125.826-.343,1.8-.282s1.665.594,1.779.48c.055-.05-.046-.27-.346-.517a2.491,2.491,0,0,0-1.415-.531,2.4,2.4,0,0,0-1.444.372c-.314.213-.429.421-.377.477" transform="translate(-83.148 -11.611)" fill="#263238"/>
                  <path id="Trazado_210211" data-name="Trazado 210211" d="M219.931,39.542a6.512,6.512,0,0,0-1.571-.382c-.248-.041-.482-.1-.513-.277a1.278,1.278,0,0,1,.211-.731l.853-1.857a32.673,32.673,0,0,0,1.958-4.874,32.8,32.8,0,0,0-2.346,4.706q-.43.979-.823,1.87a1.448,1.448,0,0,0-.189.972.629.629,0,0,0,.389.39,1.684,1.684,0,0,0,.42.084,6.384,6.384,0,0,0,1.61.1" transform="translate(-79.45 -11.478)" fill="#263238"/>
                  <path id="Trazado_210212" data-name="Trazado 210212" d="M218.74,61.26a18.8,18.8,0,0,0,9.886-1.961s-2.692,4.818-9.988,3.727Z" transform="translate(-79.873 -21.663)" fill="#7c4236"/>
                  <path id="Trazado_210213" data-name="Trazado 210213" d="M227.975,27.384c.1.267,1.075.14,2.225.279,1.152.116,2.079.452,2.232.213.068-.115-.093-.365-.468-.623a3.9,3.9,0,0,0-3.395-.374c-.422.17-.634.38-.593.506" transform="translate(-83.282 -9.736)" fill="#263238"/>
                  <path id="Trazado_210214" data-name="Trazado 210214" d="M212.854,27.591c.157.234.846.05,1.656.095.812.016,1.485.253,1.659.031.077-.108-.016-.338-.3-.569a2.4,2.4,0,0,0-2.671-.1c-.3.209-.412.431-.343.545" transform="translate(-77.753 -9.75)" fill="#263238"/>
                  <path id="Trazado_210215" data-name="Trazado 210215" d="M209.066,16.454a11.9,11.9,0,0,1,6.47-4.272l11.474,1.443.977-.017c.215-.723,1.434-1.1,1.434-1.1,1.078-.827,4.813-.872,7.416,1.849a8.86,8.86,0,0,1,1.628,4.808c.008.514-.543,1.219-.113,1.5a13.147,13.147,0,0,0,1.566.111c2.918.639,4.742,3.227,4.214,7.1a1.97,1.97,0,0,0-.063.584,1.6,1.6,0,0,0,.512.76,5.065,5.065,0,0,1,.8,5.636,5.994,5.994,0,0,0-.781,1.691c-.177,1.1.629,2.087,1.253,3.014,1.872,2.78,2.274,6.818.077,9.348a5.292,5.292,0,0,0-1.423,1.954,4.683,4.683,0,0,0-.063,1.189c.014,2.019-1.051,4.278-3.024,4.7-1.1.236-2.426-.073-3.206.732a4.757,4.757,0,0,0-.7,1.279A4.1,4.1,0,0,1,232.8,60.8c-1.78-.549-2.371-7.773-2.113-9.618-2.156-.784-3.752-.923-3.651-3.215,0,0,.333-3.945-.305-5.867s.642-6.012,1.373-8-.14-6.61-.336-8.449a6.692,6.692,0,0,1,.152-1.573v0l0-.006c.079-.447.184-.95.307-1.49.045-.5.459-3.186.452-3.656-.029-1.738-2.186-.809-3.833-.255a4.224,4.224,0,0,1-1.236.223,4.4,4.4,0,0,1-3.543-1.679,6.335,6.335,0,0,1-6.253,1.71,17.243,17.243,0,0,1-2.966,3.45,5.81,5.81,0,0,1-4.2,1.445,11.9,11.9,0,0,1,2.419-7.365" transform="translate(-75.492 -4.387)" fill="#263238"/>
                  <path id="Trazado_210216" data-name="Trazado 210216" d="M222.408,47.538a1.731,1.731,0,0,1,1.517-.72,1.58,1.58,0,0,1,1.119.53,1,1,0,0,1,.134,1.139,1.161,1.161,0,0,1-1.241.381,3.634,3.634,0,0,1-1.263-.67,1.065,1.065,0,0,1-.288-.27.321.321,0,0,1-.017-.357" transform="translate(-81.219 -17.103)" fill="#7c4236"/>
                  <path id="Trazado_210217" data-name="Trazado 210217" d="M224.45,45.167c-.156,0-.106,1.04-.96,1.823s-1.968.725-1.969.871c-.011.066.257.19.726.179a2.6,2.6,0,0,0,1.646-.668,2.261,2.261,0,0,0,.739-1.526c.018-.437-.111-.689-.182-.68" transform="translate(-80.926 -16.5)" fill="#263238"/>
                  <path id="Trazado_210218" data-name="Trazado 210218" d="M184.046,338.906l1.291,13.448s-14.658,5.476-14.817,8.185l27.713.076-.016-2.027-1.162-6.919-1.713-13.438Z" transform="translate(-62.294 -123.563)" fill="#455a64"/>
                  <path id="Trazado_210219" data-name="Trazado 210219" d="M206.213,357.168a1.158,1.158,0,0,1,.8,1.319,1.113,1.113,0,0,1-1.3.809,1.221,1.221,0,0,1-.844-1.4,1.156,1.156,0,0,1,1.446-.691" transform="translate(-74.829 -130.463)" fill="#e0e0e0"/>
                  <path id="Trazado_210220" data-name="Trazado 210220" d="M198.225,372.333l-.016-2.027-26.58.51s-1.261.553-1.116,1.441Z" transform="translate(-62.287 -135.28)" fill="#263238"/>
                  <path id="Trazado_210221" data-name="Trazado 210221" d="M193.141,360.184c.005.138.7.2,1.38.643.694.426,1.047,1.025,1.174.97.128-.027-.081-.855-.916-1.377s-1.668-.362-1.637-.235" transform="translate(-70.558 -131.535)" fill="#263238"/>
                  <path id="Trazado_210222" data-name="Trazado 210222" d="M188.458,362.175c-.031.135.569.368,1.041.953.489.571.609,1.2.747,1.2.13.022.224-.79-.376-1.5s-1.409-.777-1.412-.645" transform="translate(-68.847 -132.29)" fill="#263238"/>
                  <path id="Trazado_210223" data-name="Trazado 210223" d="M185.171,366.45c.126.029.317-.663-.041-1.42s-1.006-1.058-1.064-.942c-.078.114.343.52.628,1.146s.34,1.2.477,1.217" transform="translate(-67.239 -133)" fill="#263238"/>
                  <path id="Trazado_210224" data-name="Trazado 210224" d="M191.589,354.875c.058.126.693-.067,1.476-.015.784.035,1.394.3,1.465.178.08-.1-.516-.612-1.439-.659s-1.571.388-1.5.5" transform="translate(-69.99 -129.46)" fill="#263238"/>
                  <path id="Trazado_210225" data-name="Trazado 210225" d="M237.765,339.551l1.187,13.219s-14.433,5.291-14.607,7.953l27.225.241,0-1.991-1.1-6.8-1.6-13.212Z" transform="translate(-81.958 -123.828)" fill="#455a64"/>
                  <path id="Trazado_210226" data-name="Trazado 210226" d="M259.506,357.543a1.137,1.137,0,0,1,.782,1.3,1.093,1.093,0,0,1-1.283.786,1.2,1.2,0,0,1-.821-1.382,1.135,1.135,0,0,1,1.425-.67" transform="translate(-94.304 -130.6)" fill="#e0e0e0"/>
                  <path id="Trazado_210227" data-name="Trazado 210227" d="M251.565,372.485l0-1.991-26.116.34s-1.242.535-1.1,1.41Z" transform="translate(-81.953 -135.349)" fill="#263238"/>
                  <path id="Trazado_210228" data-name="Trazado 210228" d="M246.649,360.424c0,.136.684.2,1.352.64.679.423,1.022,1.014,1.147.96.126-.026-.074-.84-.892-1.358s-1.636-.366-1.607-.241" transform="translate(-90.106 -131.625)" fill="#263238"/>
                  <path id="Trazado_210229" data-name="Trazado 210229" d="M242.037,362.353c-.032.131.557.365,1.017.942.477.564.592,1.186.727,1.181.128.022.225-.775-.361-1.481s-1.379-.771-1.383-.642" transform="translate(-88.421 -132.355)" fill="#263238"/>
                  <path id="Trazado_210230" data-name="Trazado 210230" d="M238.78,366.532c.124.029.315-.649-.031-1.4s-.982-1.045-1.04-.932c-.077.112.334.513.61,1.13s.326,1.184.461,1.2" transform="translate(-86.836 -133.043)" fill="#263238"/>
                  <path id="Trazado_210231" data-name="Trazado 210231" d="M245.155,355.2c.056.124.682-.061,1.45-.006.77.039,1.367.3,1.439.183.079-.1-.5-.6-1.41-.656s-1.545.371-1.479.479" transform="translate(-89.559 -129.586)" fill="#263238"/>
                  <path id="Trazado_210232" data-name="Trazado 210232" d="M186.907,155.02s-6.569,19.024-6.795,33.176-.453,36.656,2.491,61.48,4.3,34.8,4.3,34.8h14.949a292.716,292.716,0,0,0,1.359-29.464c-.226-13.92-1.314-18.328.022-33.64s3.453-24.509,5.68-29.149a31.952,31.952,0,0,0,6.624-17.4,49.069,49.069,0,0,0-3.108-18.709Z" transform="translate(-65.754 -56.632)" fill="#263238"/>
                  <path id="Trazado_210233" data-name="Trazado 210233" d="M211.819,182.208c.249.764,4.685,31.954,7.921,45.71s6.837,17.4,7.468,28.589c.726,12.871,4.26,28.467,4.26,28.467h15.918s-2.239-23.791-4.477-42.388-5.472-41.526-4.975-48.4,1.741-15.373,0-25.01-5.505-12.178-5.505-12.178l-13.5-.611Z" transform="translate(-77.382 -57.13)" fill="#263238"/>
                  <path id="Trazado_210234" data-name="Trazado 210234" d="M229.093,168.965a3.341,3.341,0,0,1,.247.484,9.594,9.594,0,0,1,.54,1.464,19.4,19.4,0,0,1,.525,5.7,37.608,37.608,0,0,1-1.309,8.393,26.975,26.975,0,0,1-1.737,4.722,33.63,33.63,0,0,1-2.876,4.564,27.7,27.7,0,0,0-4.042,9.441,67.286,67.286,0,0,0-1.511,8.322c-.294,2.394-.47,4.34-.6,5.684q-.1.972-.155,1.547a3.288,3.288,0,0,1-.076.538,3.348,3.348,0,0,1,.01-.543q.034-.578.093-1.552c.092-1.347.232-3.3.5-5.7a63.979,63.979,0,0,1,1.447-8.37,40.7,40.7,0,0,1,1.506-4.8,23.789,23.789,0,0,1,1.111-2.426,25.094,25.094,0,0,1,1.448-2.332,33.837,33.837,0,0,0,2.857-4.52,26.993,26.993,0,0,0,1.734-4.659,38.54,38.54,0,0,0,1.37-8.321,20.274,20.274,0,0,0-.415-5.659,11.364,11.364,0,0,0-.477-1.47,3.379,3.379,0,0,1-.185-.511" transform="translate(-79.673 -61.726)" fill="#455a64"/>
                  <path id="Trazado_210235" data-name="Trazado 210235" d="M132.818,85.02a45.261,45.261,0,0,0,7.7,3.178l5.558-4.442s-3.976-7.266-5.256-9.325a11.005,11.005,0,0,1-1.036-2.2c-.43-1.547-1.564-.889-1.774.33a6.627,6.627,0,0,0,.346,1.961,5.747,5.747,0,0,1,.388,2.356s-.4-.345-1.4-1.017c-1.088-.732-4.766-3.8-6.32-5.083-2.321-1.919-3.491-.729-3.188.012.376.922,6.139,4.957,5.932,5.647,0,0-1.109.63-1.266,1.349a3.645,3.645,0,0,0,.011,1.429s-1.04.1-1.318.769a2.594,2.594,0,0,0,.079,1.608s-.963.09-1.074.614.556,1.578,2.621,2.813" transform="translate(-46.683 -25.478)" fill="#c27460"/>
                  <path id="Trazado_210236" data-name="Trazado 210236" d="M150.417,81.133c.084.251,11.917,12.367,11.917,12.367s9.876-11.124,12.881-15.216,7.566-9.11,11.491-10.05,9.379,1.589,9.379,1.589l-6.952,14.3-8.777,12.067s-9.484,11.912-13.993,13.75-8.927-.8-10.848-2.806S142.2,87.8,142.2,87.8Z" transform="translate(-51.949 -24.851)" fill="#ffc631"/>
                  <path id="Trazado_210237" data-name="Trazado 210237" d="M233.889,73.073l-27.232-4.719s-7.561,13.312-10.39,27.3-6.052,27.962-6.052,27.962l25.154,3.1a28.99,28.99,0,0,0,7.879-.109l2.621-.4-2.155-8.882a179.717,179.717,0,0,0,7.777-22.98c3.38-13.742,2.4-21.276,2.4-21.276" transform="translate(-69.489 -24.971)" fill="#ffc631"/>
                  <path id="Trazado_210238" data-name="Trazado 210238" d="M208.206,96.745a3.188,3.188,0,0,1-.442.6l-1.277,1.56c-1.079,1.316-2.541,3.158-4.16,5.191s-3.114,3.855-4.241,5.136c-.562.641-1.027,1.151-1.359,1.493a3.2,3.2,0,0,1-.54.51,3.153,3.153,0,0,1,.443-.6l1.276-1.56c1.079-1.316,2.541-3.158,4.16-5.192s3.114-3.854,4.24-5.135c.562-.641,1.027-1.151,1.36-1.493a3.184,3.184,0,0,1,.539-.51" transform="translate(-71.67 -35.343)" fill="#263238"/>
                  <path id="Trazado_210239" data-name="Trazado 210239" d="M235.44,146.149a7.386,7.386,0,0,1-1.709.491,25.32,25.32,0,0,1-8.545.329,7.4,7.4,0,0,1-1.741-.358,13.142,13.142,0,0,1,1.766.126,34.224,34.224,0,0,0,8.478-.327,13.152,13.152,0,0,1,1.751-.261" transform="translate(-81.629 -53.388)" fill="#263238"/>
                  <path id="Trazado_210240" data-name="Trazado 210240" d="M173.435,115.562a18.1,18.1,0,0,1-.116-3.45,18.134,18.134,0,0,1,.215-3.446,18.111,18.111,0,0,1,.116,3.451,18.131,18.131,0,0,1-.215,3.446" transform="translate(-63.314 -39.698)" fill="#263238"/>
                  <g id="Grupo_147785" data-name="Grupo 147785" transform="translate(146.311 49.674)" opacity="0.3">
                    <g id="Grupo_147784" data-name="Grupo 147784">
                      <g id="Grupo_147783" data-name="Grupo 147783" clip-path="url(#clip-path-6)">
                        <path id="Trazado_210241" data-name="Trazado 210241" d="M247.739,79.784l-17.015-1.518a2.839,2.839,0,0,0,1.8,3.708,5.508,5.508,0,0,0,4.371,8.214,5.09,5.09,0,0,1,1.356.169c.943.34,1.394,1.375,1.961,2.2a5.153,5.153,0,0,0,3.172,2.2,3.762,3.762,0,0,0,3.58-1.187A6.231,6.231,0,0,0,248,89.845a66.334,66.334,0,0,0-.264-10.062" transform="translate(-230.528 -78.266)"/>
                      </g>
                    </g>
                  </g>
                  <g id="Grupo_147788" data-name="Grupo 147788" transform="translate(125.749 62.392)" opacity="0.3">
                    <g id="Grupo_147787" data-name="Grupo 147787">
                      <g id="Grupo_147786" data-name="Grupo 147786" clip-path="url(#clip-path-7)">
                        <path id="Trazado_210242" data-name="Trazado 210242" d="M198.13,110.6a12.017,12.017,0,0,0,9.62-12.291c-3.562,3.862-6.566,8.811-9.62,12.291" transform="translate(-198.13 -98.305)"/>
                      </g>
                    </g>
                  </g>
                  <path id="Trazado_210243" data-name="Trazado 210243" d="M251.464,54.832l-14.52-16.159c.531,4.1-1.014,8.181-2.871,11.875-1.057,2.1-2.236,4.6-1.126,6.679a13.763,13.763,0,0,0-2.4,3.276,4.654,4.654,0,0,0-.156,3.939,2.85,2.85,0,0,0,3.381,1.533,4.429,4.429,0,0,0,6.109,5.494A7.023,7.023,0,0,0,242.6,75.7a4.659,4.659,0,0,0,4.864.318A3.515,3.515,0,0,0,248.9,71.58c3.194-.706,5.19-4.15,5.285-7.42s-1.279-6.389-2.716-9.329" transform="translate(-84.033 -14.128)" fill="#263238"/>
                  <path id="Trazado_210244" data-name="Trazado 210244" d="M214.462,16.744c0,.011-.077.043-.24.1a2.023,2.023,0,0,1-.739.051,2.936,2.936,0,0,1-2.2-1.512,2.839,2.839,0,0,1-.3-1.874,3.8,3.8,0,0,1,1-1.936,4.135,4.135,0,0,1,2.084-1.2,5.6,5.6,0,0,1,2.574.026,7.174,7.174,0,0,1,1.414.5l-.223.087a5.949,5.949,0,0,1,3.041-3.134,5.731,5.731,0,0,1,5.661.585,3.82,3.82,0,0,1,.487.409c.1.1.152.161.145.168s-.241-.185-.7-.479a5.993,5.993,0,0,0-2.13-.834,5.49,5.49,0,0,0-3.342.416,5.716,5.716,0,0,0-2.859,2.991l-.065.161-.158-.075a6.954,6.954,0,0,0-1.347-.476,5.334,5.334,0,0,0-2.423-.033,3.852,3.852,0,0,0-1.939,1.092,3.552,3.552,0,0,0-.948,1.775,2.61,2.61,0,0,0,.24,1.716,2.854,2.854,0,0,0,2.008,1.5,3.382,3.382,0,0,0,.963-.02" transform="translate(-77.06 -2.688)" fill="#455a64"/>
                  <path id="Trazado_210245" data-name="Trazado 210245" d="M256.786,28.6c-.026-.013.122-.3.277-.856a5.746,5.746,0,0,0,.128-2.425,5.235,5.235,0,0,0-1.7-3.132,5.511,5.511,0,0,0-4.158-1.354l-.243.025.069-.236a6.524,6.524,0,0,0,.249-1.491,6.769,6.769,0,0,0-1.577-4.681,6.5,6.5,0,0,0-3.492-2.089,7,7,0,0,0-2.792-.086c-.656.118-1.006.255-1.017.224a.854.854,0,0,1,.246-.119,4.865,4.865,0,0,1,.746-.232,6.811,6.811,0,0,1,6.54,2.1,7,7,0,0,1,1.676,4.9,6.813,6.813,0,0,1-.266,1.57l-.175-.21a5.752,5.752,0,0,1,4.388,1.462,5.39,5.39,0,0,1,1.724,3.317,5.506,5.506,0,0,1-.232,2.492,3.81,3.81,0,0,1-.265.623c-.074.135-.117.2-.126.2" transform="translate(-88.602 -4.377)" fill="#455a64"/>
                  <path id="Trazado_210246" data-name="Trazado 210246" d="M228.428,17.708c-.008.014-.168-.044-.406-.233a2.832,2.832,0,0,1-.776-1.017,3.329,3.329,0,0,1-.262-1.888,3.545,3.545,0,0,1,1.139-2.036,4.03,4.03,0,0,1,2.1-1,4.615,4.615,0,0,1,3.058.63c.255.159.375.274.364.289a12.144,12.144,0,0,0-1.586-.569,4.66,4.66,0,0,0-1.787-.05,3.87,3.87,0,0,0-1.931.946,3.345,3.345,0,0,0-1.061,1.842,3.232,3.232,0,0,0,.176,1.744,4.056,4.056,0,0,0,.967,1.343" transform="translate(-82.908 -4.195)" fill="#455a64"/>
                  <path id="Trazado_210247" data-name="Trazado 210247" d="M241.754,71.6c-.007.009-.076-.034-.2-.124a4.145,4.145,0,0,1-.516-.443,5.957,5.957,0,0,1-1.462-5.812,6.116,6.116,0,0,1,2.853-3.5,5.789,5.789,0,0,1,1.783-.651l-.091.27a4.617,4.617,0,0,1-1.109-3.693,4.308,4.308,0,0,1,1.516-2.706,4.376,4.376,0,0,1,1.847-.929,2.923,2.923,0,0,1,.552-.079c.127,0,.193,0,.194.008,0,.027-.262.048-.715.183a4.6,4.6,0,0,0-1.735.979,4.147,4.147,0,0,0-1.373,2.581,4.366,4.366,0,0,0,1.065,3.435l.2.217-.288.054a5.513,5.513,0,0,0-1.681.619,5.883,5.883,0,0,0-2.724,3.3,5.746,5.746,0,0,0,.06,3.53,6.236,6.236,0,0,0,1.205,2.1c.385.432.644.63.625.655" transform="translate(-87.434 -19.703)" fill="#455a64"/>
                  <path id="Trazado_210248" data-name="Trazado 210248" d="M239.245,24.572l-.453-2.049a14.968,14.968,0,0,0-1.458,9.616c.281,1.51.783,3.13.129,4.519-.447.949-1.362,1.6-1.886,2.507-.663,1.149-.174,4.177-.345,4.773-.388,1.358-1.7,2.225-2.013,3.866s.084,3.623,1.558,4.407c2.775-4.577,5.614-9.332,6.267-14.645.538-4.375-.46-8.8-1.8-12.994" transform="translate(-85.164 -8.228)" fill="#263238"/>
                  <path id="Trazado_210249" data-name="Trazado 210249" d="M252.616,36.036a.624.624,0,0,1-.237.013,5.093,5.093,0,0,1-.674-.07,4.633,4.633,0,0,1-2.273-1.022,3.522,3.522,0,0,1-.993-1.443,2.687,2.687,0,0,1,.034-2.018,2.464,2.464,0,0,1,1.713-1.427,1.8,1.8,0,0,1,1.223.175A1.144,1.144,0,0,1,252,31.394a.932.932,0,0,1-.372.6,1.232,1.232,0,0,1-.639.2,2.375,2.375,0,0,1-1.183-.282,5.682,5.682,0,0,1-1.736-1.371,5.616,5.616,0,0,1-.936-5.874,4.557,4.557,0,0,1,.313-.6c.085-.129.135-.194.144-.188.026.015-.142.293-.337.837a5.889,5.889,0,0,0-.324,2.392,5.556,5.556,0,0,0,3.022,4.516,2.072,2.072,0,0,0,1.02.244.675.675,0,0,0,.7-.526.816.816,0,0,0-.43-.815,1.485,1.485,0,0,0-1-.142,2.17,2.17,0,0,0-1.5,1.235,2.421,2.421,0,0,0-.053,1.8,3.333,3.333,0,0,0,.891,1.361,4.779,4.779,0,0,0,2.142,1.07c.563.131.887.155.885.183" transform="translate(-90.122 -8.723)" fill="#455a64"/>
                </g>
              </g>
            </g>
          </g>
        </g>
        <g id="Grupo_147812" data-name="Grupo 147812" transform="translate(617.676 5452.438)">
          <g id="Grupo_147811" data-name="Grupo 147811" clip-path="url(#clip-path-8)">
            <rect id="Rectángulo_39210" data-name="Rectángulo 39210" width="137.893" height="82.885" transform="translate(0.201 48.828)" fill="#fff"/>
            <rect id="Rectángulo_39211" data-name="Rectángulo 39211" width="137.893" height="12.741" transform="translate(0.201 48.827)" fill="#e0e0e0"/>
            <g id="Grupo_147810" data-name="Grupo 147810">
              <g id="Grupo_147809" data-name="Grupo 147809" clip-path="url(#clip-path-8)">
                <path id="Trazado_210250" data-name="Trazado 210250" d="M13.012,86.122a1.836,1.836,0,1,1-1.836-1.837,1.836,1.836,0,0,1,1.836,1.837" transform="translate(-3.426 -30.924)" fill="#fff"/>
                <path id="Trazado_210251" data-name="Trazado 210251" d="M22.791,86.122a1.836,1.836,0,1,1-1.837-1.837,1.836,1.836,0,0,1,1.837,1.837" transform="translate(-7.014 -30.924)" fill="#fff"/>
                <path id="Trazado_210252" data-name="Trazado 210252" d="M32.57,86.122a1.836,1.836,0,1,1-1.837-1.837,1.836,1.836,0,0,1,1.837,1.837" transform="translate(-10.602 -30.924)" fill="#fff"/>
                <path id="Trazado_210253" data-name="Trazado 210253" d="M138.093,159.893s-.011-.512-.016-1.494-.01-2.441-.018-4.344c-.009-3.812-.022-9.414-.039-16.6-.02-14.366-.048-35.068-.082-60.445l.156.156L.211,77.207H.2l.2-.2C.4,106.369.391,134.391.386,159.893L.2,159.707l99.232.091,28.455.05,7.578.023,1.957.011c.441,0,.67.011.67.011s-.215.008-.648.011l-1.936.011-7.541.023-28.412.05L.2,160.078H.015v-.186c0-25.5-.009-53.523-.015-82.885v-.2H.211l137.882.044h.156v.156c-.034,25.417-.063,46.153-.082,60.541-.017,7.174-.03,12.764-.039,16.568-.008,1.89-.013,3.335-.018,4.314s-.016,1.462-.016,1.462" transform="translate(0 -28.18)" fill="#263238"/>
                <rect id="Rectángulo_39212" data-name="Rectángulo 39212" width="5.86" height="42.914" transform="translate(15.305 75.527)" fill="#ffc631"/>
                <rect id="Rectángulo_39213" data-name="Rectángulo 39213" width="5.861" height="28.339" transform="translate(26.618 90.102)" fill="#ffc631"/>
                <rect id="Rectángulo_39214" data-name="Rectángulo 39214" width="5.86" height="37.798" transform="translate(37.932 80.861)" fill="#ffc631"/>
                <rect id="Rectángulo_39215" data-name="Rectángulo 39215" width="5.86" height="41.258" transform="translate(49.246 77.184)" fill="#ffc631"/>
                <rect id="Rectángulo_39216" data-name="Rectángulo 39216" width="5.861" height="27.467" transform="translate(60.56 90.975)" fill="#ffc631"/>
                <rect id="Rectángulo_39217" data-name="Rectángulo 39217" width="5.86" height="22.08" transform="translate(71.873 96.361)" fill="#ffc631"/>
                <rect id="Rectángulo_39218" data-name="Rectángulo 39218" width="5.861" height="38.51" transform="translate(83.187 79.931)" fill="#ffc631"/>
                <rect id="Rectángulo_39219" data-name="Rectángulo 39219" width="5.86" height="31.567" transform="translate(94.501 86.875)" fill="#ffc631"/>
                <rect id="Rectángulo_39220" data-name="Rectángulo 39220" width="5.861" height="37.115" transform="translate(105.814 81.326)" fill="#ffc631"/>
                <rect id="Rectángulo_39221" data-name="Rectángulo 39221" width="5.86" height="25.286" transform="translate(117.128 93.156)" fill="#ffc631"/>
                <g id="Grupo_147796" data-name="Grupo 147796" transform="translate(26.618 90.102)" opacity="0.3">
                  <g id="Grupo_147795" data-name="Grupo 147795">
                    <g id="Grupo_147794" data-name="Grupo 147794" clip-path="url(#clip-path-10)">
                      <rect id="Rectángulo_39222" data-name="Rectángulo 39222" width="5.861" height="28.339" transform="translate(0 0)" fill="#fff"/>
                    </g>
                  </g>
                </g>
                <g id="Grupo_147799" data-name="Grupo 147799" transform="translate(49.246 77.184)" opacity="0.3">
                  <g id="Grupo_147798" data-name="Grupo 147798">
                    <g id="Grupo_147797" data-name="Grupo 147797" clip-path="url(#clip-path-11)">
                      <rect id="Rectángulo_39224" data-name="Rectángulo 39224" width="5.86" height="41.258" transform="translate(0 0)" fill="#fff"/>
                    </g>
                  </g>
                </g>
                <g id="Grupo_147802" data-name="Grupo 147802" transform="translate(71.873 96.361)" opacity="0.3">
                  <g id="Grupo_147801" data-name="Grupo 147801">
                    <g id="Grupo_147800" data-name="Grupo 147800" clip-path="url(#clip-path-12)">
                      <rect id="Rectángulo_39226" data-name="Rectángulo 39226" width="5.86" height="22.08" transform="translate(0 0)" fill="#fff"/>
                    </g>
                  </g>
                </g>
                <g id="Grupo_147805" data-name="Grupo 147805" transform="translate(94.501 86.874)" opacity="0.3">
                  <g id="Grupo_147804" data-name="Grupo 147804">
                    <g id="Grupo_147803" data-name="Grupo 147803" clip-path="url(#clip-path-13)">
                      <rect id="Rectángulo_39228" data-name="Rectángulo 39228" width="5.86" height="31.567" transform="translate(0 0.001)" fill="#fff"/>
                    </g>
                  </g>
                </g>
                <g id="Grupo_147808" data-name="Grupo 147808" transform="translate(117.128 93.155)" opacity="0.3">
                  <g id="Grupo_147807" data-name="Grupo 147807">
                    <g id="Grupo_147806" data-name="Grupo 147806" clip-path="url(#clip-path-14)">
                      <rect id="Rectángulo_39230" data-name="Rectángulo 39230" width="5.86" height="25.286" transform="translate(0 0)" fill="#fff"/>
                    </g>
                  </g>
                </g>
                <path id="Trazado_210254" data-name="Trazado 210254" d="M136.957,186.963c0,.111-27.274.2-60.91.2s-60.916-.09-60.916-.2,27.268-.2,60.916-.2,60.91.089,60.91.2" transform="translate(-5.551 -68.522)" fill="#263238"/>
                <path id="Trazado_210255" data-name="Trazado 210255" d="M230.84,35.569A35.67,35.67,0,1,1,194.6.315,35.8,35.8,0,0,1,230.84,35.569m-52.717.851A17.055,17.055,0,1,0,194.9,19.013,17.111,17.111,0,0,0,178.122,36.42" transform="translate(-58.522 -0.114)" fill="#f5f5f5"/>
                <path id="Trazado_210256" data-name="Trazado 210256" d="M251.178,35.569a35.8,35.8,0,0,1-35.092,36.4l-.3-18.7a17.134,17.134,0,0,0-.548-34.262l-.3-18.7a35.785,35.785,0,0,1,36.237,35.253" transform="translate(-78.861 -0.114)" fill="#455a64"/>
                <path id="Trazado_210257" data-name="Trazado 210257" d="M188.9,47.145a1.155,1.155,0,0,1-.016-.277c0-.211,0-.481,0-.815a7.935,7.935,0,0,1,.089-1.323,12.12,12.12,0,0,1,.3-1.788,16.252,16.252,0,0,1,1.774-4.634,17.1,17.1,0,0,1,20.54-7.83,16.2,16.2,0,0,1,4.418,2.292,15.944,15.944,0,0,1,3.716,3.626,17.287,17.287,0,0,1,.329,20.5,15.958,15.958,0,0,1-3.6,3.745,16.169,16.169,0,0,1-4.342,2.433,17.15,17.15,0,0,1-20.783-7.162,16.281,16.281,0,0,1-1.921-4.574,12.161,12.161,0,0,1-.353-1.777,7.869,7.869,0,0,1-.131-1.319c-.012-.336-.022-.6-.03-.815a1.175,1.175,0,0,1,.007-.278,26.813,26.813,0,0,0,.692,4.139,16.438,16.438,0,0,0,1.971,4.48,17.01,17.01,0,0,0,4.382,4.734,16.722,16.722,0,0,0,16,2.148,15.719,15.719,0,0,0,4.218-2.382,18.692,18.692,0,0,0,1.878-1.664,19.062,19.062,0,0,0,1.613-1.986,16.847,16.847,0,0,0-.32-19.926,19.23,19.23,0,0,0-1.676-1.932,18.927,18.927,0,0,0-1.93-1.6,15.778,15.778,0,0,0-4.292-2.244,16.715,16.715,0,0,0-15.923,2.665,17,17,0,0,0-4.229,4.872,16.447,16.447,0,0,0-1.827,4.541,26.856,26.856,0,0,0-.56,4.159" transform="translate(-69.301 -10.839)" fill="#263238"/>
                <path id="Trazado_210258" data-name="Trazado 210258" d="M230.7,35.456s-.03-.2-.063-.577c-.033-.4-.079-.962-.137-1.695l-.095-1.248c-.055-.456-.161-.95-.25-1.488a26.1,26.1,0,0,0-.8-3.676,34.293,34.293,0,0,0-4.1-9.421,35.613,35.613,0,0,0-9.183-9.973A35.226,35.226,0,0,0,201.029.936a32.872,32.872,0,0,0-4.5-.451c-.766-.014-1.539-.077-2.317-.052l-2.349.161c-.393.034-.792.036-1.185.1l-1.181.2c-.788.146-1.591.249-2.382.432a36.927,36.927,0,0,0-4.709,1.478,37.329,37.329,0,0,0-4.591,2.124c-.738.428-1.45.91-2.184,1.366a18.616,18.616,0,0,0-2.113,1.519,39.5,39.5,0,0,0-3.958,3.5l-1.768,2.02-.444.508-.4.549-.793,1.1-.8,1.107-.692,1.182-.693,1.188-.348.6-.291.627-1.162,2.524-.917,2.646A38.114,38.114,0,0,0,159.616,36.6a38.112,38.112,0,0,0,2,11.175l1,2.615,1.242,2.487.31.618.367.585.731,1.166L166,56.4l.832,1.081.828,1.076.413.536.461.494,1.832,1.963a39.445,39.445,0,0,0,4.07,3.375,18.66,18.66,0,0,0,2.16,1.451c.748.432,1.476.891,2.227,1.294a37.331,37.331,0,0,0,4.658,1.975,36.98,36.98,0,0,0,4.755,1.325c.8.157,1.6.235,2.4.355l1.187.165c.4.048.793.037,1.188.059l2.353.085c.777,0,1.549-.088,2.314-.127a32.937,32.937,0,0,0,4.484-.6,35.247,35.247,0,0,0,14.828-6.926,35.625,35.625,0,0,0,8.856-10.264,34.278,34.278,0,0,0,3.792-9.547,26.141,26.141,0,0,0,.683-3.7c.072-.541.162-1.038.2-1.5l.055-1.25c.035-.733.063-1.3.083-1.7.022-.383.045-.579.045-.579s.01.2.005.579c-.008.4-.019.967-.034,1.7q-.014.564-.032,1.255c-.032.461-.115.96-.179,1.5a25.616,25.616,0,0,1-.642,3.724,34.1,34.1,0,0,1-3.738,9.64,35.936,35.936,0,0,1-23.841,17.454,33.358,33.358,0,0,1-4.534.617c-.775.042-1.555.131-2.342.134l-2.382-.079c-.4-.022-.8-.01-1.2-.058l-1.2-.164c-.8-.12-1.619-.2-2.426-.354a39.11,39.11,0,0,1-9.541-3.326c-.762-.408-1.5-.871-2.259-1.308a18.856,18.856,0,0,1-2.191-1.467,39.859,39.859,0,0,1-4.127-3.415l-1.859-1.987-.467-.5-.418-.543-.841-1.09-.844-1.1-.74-1.175-.741-1.181-.372-.593-.315-.626-1.26-2.52-1.017-2.651a38.551,38.551,0,0,1-2.032-11.328,38.52,38.52,0,0,1,1.671-11.384l.931-2.682,1.179-2.558.3-.636.353-.6.7-1.2.7-1.2.808-1.121.8-1.116.4-.556.451-.514,1.794-2.046a39.862,39.862,0,0,1,4.015-3.545A18.889,18.889,0,0,1,175.374,5.9c.743-.461,1.466-.948,2.215-1.38A39.114,39.114,0,0,1,187.016.893c.8-.184,1.614-.287,2.413-.432l1.2-.2c.4-.061.8-.063,1.2-.1L194.2.005c.787-.023,1.569.042,2.344.058a33.209,33.209,0,0,1,4.552.47,35.921,35.921,0,0,1,24.392,16.673,34.1,34.1,0,0,1,4.047,9.516,25.641,25.641,0,0,1,.76,3.7c.082.541.18,1.038.227,1.5q.04.69.072,1.254c.039.734.068,1.3.089,1.7.017.383.013.579.013.579" transform="translate(-58.381 0)" fill="#263238"/>
                <path id="Trazado_210259" data-name="Trazado 210259" d="M197.625,94.316a40.754,40.754,0,0,1-41.73-40.6l21.774-.351c.177,11.051,8.586,18.009,19.586,17.831Z" transform="translate(-57.197 -19.58)" fill="#ffc631"/>
                <path id="Trazado_210260" data-name="Trazado 210260" d="M197.478,94.175a4.013,4.013,0,0,1-.026-.429c-.01-.3-.023-.7-.04-1.22-.028-1.09-.068-2.648-.12-4.636-.088-4.018-.213-9.769-.367-16.83l.186.18a24.306,24.306,0,0,1-6.551-.8,18.732,18.732,0,0,1-6.492-3.162,16.88,16.88,0,0,1-4.924-6.007,18.973,18.973,0,0,1-1.861-8.041l.243.236-16.861.279-4.913.079.242-.25a45.668,45.668,0,0,0,2.218,12.877l1.1,2.939c.411.95.9,1.855,1.333,2.77a21.371,21.371,0,0,0,1.484,2.612,24.146,24.146,0,0,0,1.613,2.45l1.735,2.275c.608.716,1.262,1.376,1.877,2.052l.927,1,1,.888,1.959,1.729a41.887,41.887,0,0,0,8.078,4.983l1.928.893c.643.249,1.284.454,1.9.674l1.8.626c.586.186,1.173.3,1.73.44l1.619.392.764.186c.253.047.5.073.746.11l2.667.375a16.525,16.525,0,0,0,2.122.17l1.564.08.975.055a3.252,3.252,0,0,1,.346.028,2.12,2.12,0,0,1-.313.007l-.959-.009-1.585-.024a15.538,15.538,0,0,1-2.168-.124l-2.686-.336c-.245-.034-.5-.057-.752-.1l-.77-.177-1.633-.375c-.562-.139-1.155-.243-1.746-.425L183.05,92c-.622-.216-1.269-.417-1.92-.663l-1.951-.884A41.859,41.859,0,0,1,171,85.473l-1.987-1.737-1.017-.893-.941-1c-.624-.68-1.288-1.345-1.906-2.066l-1.762-2.294a24.519,24.519,0,0,1-1.638-2.472,21.579,21.579,0,0,1-1.508-2.637c-.444-.924-.938-1.839-1.355-2.8L157.761,66.6A45.931,45.931,0,0,1,155.5,53.581l-.007-.246.249,0,4.913-.08,16.861-.265.24,0,0,.239a18.539,18.539,0,0,0,1.8,7.847,16.47,16.47,0,0,0,4.774,5.863,18.372,18.372,0,0,0,6.335,3.117,24.021,24.021,0,0,0,6.437.824h.185l0,.18c.072,7.108.132,12.9.173,16.945.011,1.971.021,3.515.027,4.6,0,.5,0,.895,0,1.187a2.888,2.888,0,0,1-.013.392" transform="translate(-57.05 -19.439)" fill="#263238"/>
              </g>
            </g>
          </g>
        </g>
      </g>
    </g>
  </g>
</svg>
