<svg xmlns="http://www.w3.org/2000/svg" xmlns:xlink="http://www.w3.org/1999/xlink" width="262.413" height="260.888" viewBox="0 0 262.413 260.888">
  <defs>
    <clipPath id="clip-path">
      <rect id="Rectángulo_39565" data-name="Rectángulo 39565" width="150.41" height="96.965" fill="none"/>
    </clipPath>
    <clipPath id="clip-path-2">
      <rect id="Rectángulo_39558" data-name="Rectángulo 39558" width="150.409" height="96.966" fill="none"/>
    </clipPath>
    <clipPath id="clip-path-3">
      <rect id="Rectángulo_39557" data-name="Rectángulo 39557" width="90.906" height="56.475" fill="none"/>
    </clipPath>
    <clipPath id="clip-path-5">
      <rect id="Rectángulo_39559" data-name="Rectángulo 39559" width="26.661" height="10.891" fill="none"/>
    </clipPath>
    <clipPath id="clip-path-6">
      <rect id="Rectángulo_39562" data-name="Rectángulo 39562" width="18.964" height="10.769" fill="none"/>
    </clipPath>
    <clipPath id="clip-path-7">
      <rect id="Rectángulo_39560" data-name="Rectángulo 39560" width="18.964" height="3.001" fill="none"/>
    </clipPath>
    <clipPath id="clip-path-8">
      <rect id="Rectángulo_39561" data-name="Rectángulo 39561" width="18.96" height="7.768" fill="none"/>
    </clipPath>
    <clipPath id="clip-path-9">
      <rect id="Rectángulo_39563" data-name="Rectángulo 39563" width="18.966" height="7.894" fill="none"/>
    </clipPath>
  </defs>
  <g id="Grupo_149957" data-name="Grupo 149957" transform="translate(-505.523 -4697.591)">
    <g id="Grupo_148617" data-name="Grupo 148617" transform="translate(504.941 4675.242)">
      <g id="Grupo_147888" data-name="Grupo 147888" transform="translate(0 87.438) rotate(-19)">
        <path id="Trazado_114141" data-name="Trazado 114141" d="M64.839,137.1c42.387,11.295,46.145,76.023,83.729,68.671,71-13.888,40.833-105.048,33.708-163.164-10.483-85.5-121.7-17.442-146.006-1.833S-43.761,108.169,64.839,137.1" transform="translate(0.06 0.82)" fill="#039d95" fill-rule="evenodd"/>
      </g>
      <g id="Grupo_147889" data-name="Grupo 147889" transform="translate(0 87.438) rotate(-19)">
        <path id="Trazado_114141-2" data-name="Trazado 114141" d="M64.811,137.109c42.386,11.288,46.13,76.025,83.717,68.664,71.009-13.906,40.858-105.074,33.745-163.2-10.465-85.515-121.7-17.418-146.012-1.8S-43.787,108.2,64.811,137.109" transform="translate(0.036 0.807)" fill="#039d95" fill-rule="evenodd"/>
        <path id="Trazado_209723" data-name="Trazado 209723" d="M7.378,64.974c-28.5,60.873,32.454,108.3,104.412,88.986,141.138-37.883,122.44-90.673,8.978-143.616C71-12.877,24.631,2.974,7.378,64.974" transform="translate(9.383 7.144)" fill="#ffc631" fill-rule="evenodd"/>
      </g>
    </g>
    <g id="Grupo_148652" data-name="Grupo 148652" transform="translate(566.168 4768.229)">
      <g id="Grupo_148674" data-name="Grupo 148674" clip-path="url(#clip-path)">
        <g id="Grupo_148656" data-name="Grupo 148656" transform="translate(0 0)">
          <g id="Grupo_148655" data-name="Grupo 148655" clip-path="url(#clip-path-2)">
            <g id="Grupo_148654" data-name="Grupo 148654" transform="translate(0 34.131)" opacity="0.4">
              <g id="Grupo_148653" data-name="Grupo 148653">
                <g id="Grupo_148652-2" data-name="Grupo 148652" clip-path="url(#clip-path-3)">
                  <path id="Trazado_211622" data-name="Trazado 211622" d="M15.809,22.674,0,31.8,82.01,79.149h8.9Z" transform="translate(0 -22.674)" fill="#ada6a3"/>
                </g>
              </g>
            </g>
          </g>
        </g>
        <path id="Trazado_211623" data-name="Trazado 211623" d="M88.687,79.113,4.816,30.69l.006-7.945L88.687,39.264Z" transform="translate(2.433 11.493)" fill="#d2cfcc"/>
        <path id="Trazado_211624" data-name="Trazado 211624" d="M60.534,34.5V74.356l59.29-34.232V32.163Z" transform="translate(30.587 16.251)" fill="#e9e6e6"/>
        <path id="Trazado_211625" data-name="Trazado 211625" d="M64.12,0,4.819,34.238,88.674,82.652l59.3-34.239Z" transform="translate(2.435 0)" fill="#f8f5f4"/>
        <path id="Trazado_211626" data-name="Trazado 211626" d="M18.159,26.132l-.551.318-4.344-2.508.551-.319Z" transform="translate(6.702 11.936)" fill="#7b9fe1"/>
        <path id="Trazado_211627" data-name="Trazado 211627" d="M18.317,25.773l-.59.34-3.637-2.1.59-.34Z" transform="translate(7.12 11.962)" fill="#2d6ad8"/>
        <path id="Trazado_211628" data-name="Trazado 211628" d="M19.5,25.22l-.551.318-3.991-2.3.551-.318Z" transform="translate(7.558 11.579)" fill="#7b9fe1"/>
        <path id="Trazado_211629" data-name="Trazado 211629" d="M20.08,25.106l-.59.34-4.541-2.622.59-.34Z" transform="translate(7.553 11.361)" fill="#2d6ad8"/>
        <path id="Trazado_211630" data-name="Trazado 211630" d="M21.528,24.7l-.551.318-5.669-3.272.551-.318Z" transform="translate(7.735 10.827)" fill="#7b9fe1"/>
        <path id="Trazado_211631" data-name="Trazado 211631" d="M21.407,24.18l-.59.34-4.127-2.383.589-.34Z" transform="translate(8.433 11.013)" fill="#2d6ad8"/>
        <path id="Trazado_211632" data-name="Trazado 211632" d="M22.775,23.733l-.551.318-5.032-2.905.549-.318Z" transform="translate(8.687 10.524)" fill="#7b9fe1"/>
        <path id="Trazado_211633" data-name="Trazado 211633" d="M22.96,23.39l-.59.34-4.4-2.542.589-.34Z" transform="translate(9.078 10.534)" fill="#2d6ad8"/>
        <path id="Trazado_211634" data-name="Trazado 211634" d="M27.209,21.226l-.551.318-5.171-2.985.551-.318Z" transform="translate(10.857 9.217)" fill="#7b9fe1"/>
        <path id="Trazado_211635" data-name="Trazado 211635" d="M27.469,20.926l-.59.34-4.764-2.75.59-.34Z" transform="translate(11.174 9.184)" fill="#2d6ad8"/>
        <path id="Trazado_211636" data-name="Trazado 211636" d="M28.184,20.1l-.551.318-3.715-2.145.551-.318Z" transform="translate(12.085 9.072)" fill="#7b9fe1"/>
        <path id="Trazado_211637" data-name="Trazado 211637" d="M29.044,20.147l-.59.34-5.1-2.943.59-.342Z" transform="translate(11.801 8.692)" fill="#2d6ad8"/>
        <path id="Trazado_211638" data-name="Trazado 211638" d="M30.755,19.9l-.551.318L23.187,16.16l.549-.318Z" transform="translate(11.716 8.005)" fill="#7b9fe1"/>
        <path id="Trazado_211639" data-name="Trazado 211639" d="M30.762,19.449l-.59.34-5.859-3.382.59-.34Z" transform="translate(12.285 8.118)" fill="#2d6ad8"/>
        <path id="Trazado_211640" data-name="Trazado 211640" d="M31.921,18.879l-.551.318-6.134-3.542.551-.318Z" transform="translate(12.751 7.75)" fill="#7b9fe1"/>
        <path id="Trazado_211641" data-name="Trazado 211641" d="M31.954,18.448l-.59.34-5.052-2.917.589-.34Z" transform="translate(13.295 7.848)" fill="#2d6ad8"/>
        <path id="Trazado_211642" data-name="Trazado 211642" d="M32.579,17.57l-.551.318L28.293,15.73l.551-.318Z" transform="translate(14.296 7.788)" fill="#7b9fe1"/>
        <path id="Trazado_211643" data-name="Trazado 211643" d="M33.252,17.508l-.59.34L28.1,15.216l.59-.34Z" transform="translate(14.199 7.516)" fill="#2d6ad8"/>
        <path id="Trazado_211644" data-name="Trazado 211644" d="M23.44,22.429l-.551.318-2.66-1.535.549-.319Z" transform="translate(10.222 10.557)" fill="#7b9fe1"/>
        <path id="Trazado_211645" data-name="Trazado 211645" d="M24.51,22.6l-.59.34-4.666-2.693.59-.342Z" transform="translate(9.729 10.056)" fill="#2d6ad8"/>
        <path id="Trazado_211646" data-name="Trazado 211646" d="M24.9,21.586l-.551.318-2.66-1.535.549-.319Z" transform="translate(10.96 10.13)" fill="#7b9fe1"/>
        <path id="Trazado_211647" data-name="Trazado 211647" d="M22.535,20.45l1.928,1.112.589-.34L23.125,20.11Z" transform="translate(11.387 10.161)" fill="#2d6ad8"/>
        <path id="Trazado_211648" data-name="Trazado 211648" d="M40.62,16.666,16.126,30.808l-.5-.288L40.122,16.379Z" transform="translate(7.897 8.276)" fill="#7b9fe1"/>
        <path id="Trazado_211649" data-name="Trazado 211649" d="M35.917,15.631l-.551.318L31.66,13.808l.551-.318Z" transform="translate(15.997 6.817)" fill="#7b9fe1"/>
        <path id="Trazado_211650" data-name="Trazado 211650" d="M36.076,15.272l-.59.34-3-1.731.59-.34Z" transform="translate(16.415 6.842)" fill="#2d6ad8"/>
        <path id="Trazado_211651" data-name="Trazado 211651" d="M34.652,13.851l1.4.808.549-.318-1.4-.808Z" transform="translate(17.509 6.838)" fill="#7b9fe1"/>
        <path id="Trazado_211652" data-name="Trazado 211652" d="M34.644,13.442l1.949,1.126.59-.342L35.232,13.1Z" transform="translate(17.505 6.619)" fill="#2d6ad8"/>
        <path id="Trazado_211653" data-name="Trazado 211653" d="M39.035,14.054l-.551.318L34.2,11.9l.549-.318Z" transform="translate(17.282 5.852)" fill="#7b9fe1"/>
        <path id="Trazado_211654" data-name="Trazado 211654" d="M38.693,13.406l-.59.34-2.082-1.2.59-.34Z" transform="translate(18.201 6.167)" fill="#2d6ad8"/>
        <path id="Trazado_211655" data-name="Trazado 211655" d="M37.526,12.132l1.48.853.549-.318-1.478-.853Z" transform="translate(18.961 5.969)" fill="#7b9fe1"/>
        <path id="Trazado_211656" data-name="Trazado 211656" d="M40.268,12.629l-.59.34-2.422-1.4.59-.34Z" transform="translate(18.825 5.675)" fill="#2d6ad8"/>
        <path id="Trazado_211657" data-name="Trazado 211657" d="M45.265,10.9l-.551.318L39.3,8.087l.549-.318Z" transform="translate(19.857 3.926)" fill="#7b9fe1"/>
        <path id="Trazado_211658" data-name="Trazado 211658" d="M45.415,10.533l-.59.34-4.683-2.7.59-.34Z" transform="translate(20.283 3.956)" fill="#2d6ad8"/>
        <path id="Trazado_211659" data-name="Trazado 211659" d="M47.44,10.464l-.551.318L39.35,6.428l.551-.318Z" transform="translate(19.883 3.088)" fill="#7b9fe1"/>
        <path id="Trazado_211660" data-name="Trazado 211660" d="M47.678,10.151l-.59.34L40.021,6.411l.589-.34Z" transform="translate(20.222 3.067)" fill="#2d6ad8"/>
        <path id="Trazado_211661" data-name="Trazado 211661" d="M48.015,9.106l-.551.318L42.571,6.6l.551-.319Z" transform="translate(21.511 3.174)" fill="#7b9fe1"/>
        <path id="Trazado_211662" data-name="Trazado 211662" d="M48.1,8.707l-.59.34L43.537,6.754l.59-.342Z" transform="translate(21.999 3.24)" fill="#2d6ad8"/>
        <path id="Trazado_211663" data-name="Trazado 211663" d="M49.729,8.407l-.551.318L43.536,5.467l.551-.318Z" transform="translate(21.998 2.602)" fill="#7b9fe1"/>
        <path id="Trazado_211664" data-name="Trazado 211664" d="M49.762,7.976l-.59.34L44.611,5.683l.59-.34Z" transform="translate(22.541 2.7)" fill="#2d6ad8"/>
        <path id="Trazado_211665" data-name="Trazado 211665" d="M50.238,7.012l-.551.318-2.8-1.618.551-.318Z" transform="translate(23.691 2.725)" fill="#7b9fe1"/>
        <path id="Trazado_211666" data-name="Trazado 211666" d="M50.525,6.727l-.59.34L47.46,5.639l.59-.34Z" transform="translate(23.981 2.677)" fill="#2d6ad8"/>
        <path id="Trazado_211667" data-name="Trazado 211667" d="M42.086,12.441l-.551.318-4.663-2.691.551-.319Z" transform="translate(18.631 4.925)" fill="#7b9fe1"/>
        <path id="Trazado_211668" data-name="Trazado 211668" d="M42.733,12.364l-.59.34-5.41-3.123.59-.34Z" transform="translate(18.56 4.669)" fill="#2d6ad8"/>
        <path id="Trazado_211669" data-name="Trazado 211669" d="M43.49,11.563l-.551.318L38.447,9.287,39,8.97Z" transform="translate(19.427 4.532)" fill="#7b9fe1"/>
        <path id="Trazado_211670" data-name="Trazado 211670" d="M43.64,11.2l-.59.34L39.291,9.37l.59-.34Z" transform="translate(19.853 4.563)" fill="#2d6ad8"/>
        <path id="Trazado_211671" data-name="Trazado 211671" d="M58.593,6.289,34.1,20.431l-.5-.288L58.095,6Z" transform="translate(16.979 3.033)" fill="#7b9fe1"/>
        <path id="Trazado_211672" data-name="Trazado 211672" d="M38.245,21.365l-18.184,10.5L17.473,30.37l18.184-10.5Z" transform="translate(8.829 10.04)" fill="#2d6ad8"/>
        <path id="Trazado_211673" data-name="Trazado 211673" d="M21.744,27.694l-1.683.971-2.588-1.495,1.683-.971Z" transform="translate(8.829 13.238)" fill="#f25a5a"/>
        <path id="Trazado_211674" data-name="Trazado 211674" d="M49.26,15.005,31.077,25.5,28.489,24.01l18.184-10.5Z" transform="translate(14.395 6.827)" fill="#2d6ad8"/>
        <path id="Trazado_211675" data-name="Trazado 211675" d="M32.759,21.335l-1.681.971-2.589-1.493,1.683-.972Z" transform="translate(14.395 10.025)" fill="#97cc66"/>
        <path id="Trazado_211676" data-name="Trazado 211676" d="M60.276,8.646l-18.184,10.5L39.5,17.65l18.184-10.5Z" transform="translate(19.961 3.613)" fill="#2d6ad8"/>
        <path id="Trazado_211677" data-name="Trazado 211677" d="M43.775,14.975l-1.683.971L39.5,14.451l1.683-.971Z" transform="translate(19.961 6.811)" fill="#44bfe5"/>
        <path id="Trazado_211678" data-name="Trazado 211678" d="M44.556,12.492,41.82,14.072l-.294-.17,2.737-1.581Z" transform="translate(20.982 6.226)" fill="#e1e9f4"/>
        <path id="Trazado_211679" data-name="Trazado 211679" d="M43.642,12.37l.294.17,1.138-.658-.292-.169Z" transform="translate(22.051 5.919)" fill="#e1e9f4"/>
        <path id="Trazado_211680" data-name="Trazado 211680" d="M42.352,14.139l.292.17,1.5-.866-.292-.169Z" transform="translate(21.4 6.708)" fill="#e1e9f4"/>
        <path id="Trazado_211681" data-name="Trazado 211681" d="M47.3,11.983l-3.364,1.942-.294-.169,3.364-1.943Z" transform="translate(22.052 5.969)" fill="#e1e9f4"/>
        <path id="Trazado_211682" data-name="Trazado 211682" d="M46.178,12l.294.17L48.326,11.1l-.292-.17Z" transform="translate(23.333 5.522)" fill="#e1e9f4"/>
        <path id="Trazado_211683" data-name="Trazado 211683" d="M33.643,18.792l-2.737,1.581-.294-.17,2.737-1.579Z" transform="translate(15.468 9.41)" fill="#e1e9f4"/>
        <path id="Trazado_211684" data-name="Trazado 211684" d="M32.729,18.672l.294.17,1.138-.658-.292-.17Z" transform="translate(16.537 9.102)" fill="#e1e9f4"/>
        <path id="Trazado_211685" data-name="Trazado 211685" d="M31.439,20.44l.292.169,1.5-.864-.292-.169Z" transform="translate(15.885 9.892)" fill="#e1e9f4"/>
        <path id="Trazado_211686" data-name="Trazado 211686" d="M36.388,18.284l-3.364,1.942-.294-.169,3.364-1.943Z" transform="translate(16.538 9.152)" fill="#e1e9f4"/>
        <path id="Trazado_211687" data-name="Trazado 211687" d="M35.265,18.3l.294.17L37.413,17.4l-.294-.169Z" transform="translate(17.819 8.706)" fill="#e1e9f4"/>
        <path id="Trazado_211688" data-name="Trazado 211688" d="M22.729,25.094l-2.737,1.581L19.7,26.5l2.737-1.581Z" transform="translate(9.954 12.593)" fill="#e1e9f4"/>
        <path id="Trazado_211689" data-name="Trazado 211689" d="M21.815,24.973l.294.169,1.138-.656-.294-.17Z" transform="translate(11.023 12.286)" fill="#e1e9f4"/>
        <path id="Trazado_211690" data-name="Trazado 211690" d="M20.525,26.741l.292.17,1.5-.864-.294-.169Z" transform="translate(10.371 13.076)" fill="#e1e9f4"/>
        <path id="Trazado_211691" data-name="Trazado 211691" d="M25.474,24.585,22.11,26.527l-.294-.169,3.364-1.943Z" transform="translate(11.023 12.336)" fill="#e1e9f4"/>
        <path id="Trazado_211692" data-name="Trazado 211692" d="M24.351,24.6l.292.169L26.5,23.7l-.294-.169Z" transform="translate(12.304 11.89)" fill="#e1e9f4"/>
        <g id="Grupo_148673" data-name="Grupo 148673" transform="translate(0 0)">
          <g id="Grupo_148672" data-name="Grupo 148672" clip-path="url(#clip-path-2)">
            <path id="Trazado_211693" data-name="Trazado 211693" d="M77.528,32.384c-7.313,4.222-19.171,4.222-26.484,0s-7.313-11.068,0-15.291,19.171-4.222,26.484,0,7.313,11.068,0,15.291" transform="translate(23.02 7.037)" fill="#4188ef"/>
            <path id="Trazado_211694" data-name="Trazado 211694" d="M75.687,28.788c-7.313,4.222-19.171,4.222-26.484,0v1.5c7.313,4.222,19.171,4.222,26.484,0,3.7-2.136,5.529-4.945,5.484-7.745v-1.5c.045,2.8-1.784,5.609-5.484,7.745" transform="translate(24.861 10.633)" fill="#2d6ad8"/>
            <path id="Trazado_211695" data-name="Trazado 211695" d="M62.731,20.382l-.113,4.806-.322.1L49.2,17.733l.009-5.083Z" transform="translate(24.861 6.392)" fill="#2d6ad8"/>
            <path id="Trazado_211696" data-name="Trazado 211696" d="M58.118,20.378V25.41l13.24-7.648.009-5.083Z" transform="translate(29.366 6.407)" fill="#2d6ad8"/>
            <g id="Grupo_148659" data-name="Grupo 148659" transform="translate(74.072 15.895)" opacity="0.4">
              <g id="Grupo_148658" data-name="Grupo 148658">
                <g id="Grupo_148657" data-name="Grupo 148657" clip-path="url(#clip-path-5)">
                  <path id="Trazado_211697" data-name="Trazado 211697" d="M75.87,13.75,62.62,21.45,49.208,13.706c7.382-4.21,19.266-4.2,26.662.044" transform="translate(-49.208 -10.559)" fill="#4188ef"/>
                </g>
              </g>
            </g>
            <g id="Grupo_148668" data-name="Grupo 148668" transform="translate(68.52 20.855)">
              <g id="Grupo_148667" data-name="Grupo 148667">
                <g id="Grupo_148666" data-name="Grupo 148666" clip-path="url(#clip-path-6)">
                  <g id="Grupo_148662" data-name="Grupo 148662" transform="translate(0 7.768)">
                    <g id="Grupo_148661" data-name="Grupo 148661">
                      <g id="Grupo_148660" data-name="Grupo 148660" clip-path="url(#clip-path-7)">
                        <path id="Trazado_211698" data-name="Trazado 211698" d="M45.526,19.015l-.006,2.621,18.964.379v-3Z" transform="translate(-45.52 -19.015)" fill="#2d6ad8"/>
                      </g>
                    </g>
                  </g>
                  <g id="Grupo_148665" data-name="Grupo 148665" transform="translate(0.003)" opacity="0.4">
                    <g id="Grupo_148664" data-name="Grupo 148664">
                      <g id="Grupo_148663" data-name="Grupo 148663" clip-path="url(#clip-path-8)">
                        <path id="Trazado_211699" data-name="Trazado 211699" d="M51.06,13.854c-3.682,2.154-5.536,4.957-5.538,7.769H64.483Z" transform="translate(-45.522 -13.854)" fill="#4188ef"/>
                      </g>
                    </g>
                  </g>
                </g>
              </g>
            </g>
            <path id="Trazado_211700" data-name="Trazado 211700" d="M51.046,27.709c-2.652-1.531-4.552-3.528-5.27-5.819a6.428,6.428,0,0,1-.251-1.8l-.008.456a21.335,21.335,0,0,0,.257,4.118l.026.1c.578,2.255,2.366,4.334,5.371,6.069.12.069.244.134.367.2l0-3.051c-.169-.09-.333-.182-.5-.275" transform="translate(22.998 10.153)" fill="#2d6ad8"/>
            <path id="Trazado_211701" data-name="Trazado 211701" d="M62.467,20.107l0,1.552-12.948,7.87,0-1.552Z" transform="translate(25.019 10.16)" fill="#2d6ad8"/>
            <g id="Grupo_148671" data-name="Grupo 148671" transform="translate(68.52 30.243)" opacity="0.4">
              <g id="Grupo_148670" data-name="Grupo 148670">
                <g id="Grupo_148669" data-name="Grupo 148669" clip-path="url(#clip-path-9)">
                  <path id="Trazado_211702" data-name="Trazado 211702" d="M64.485,20.115l-12.947,7.87c-.169-.089-.333-.182-.5-.275a10.891,10.891,0,0,1-5.271-5.818,6.549,6.549,0,0,1-.251-1.8Z" transform="translate(-45.52 -20.091)" fill="#4188ef"/>
                </g>
              </g>
            </g>
            <path id="Trazado_211703" data-name="Trazado 211703" d="M35.8,27.867l-9.139,5.276-.941-.543,9.139-5.276Z" transform="translate(12.995 13.807)" fill="#f25a5a"/>
            <path id="Trazado_211704" data-name="Trazado 211704" d="M32.254,30.342,27.819,32.9l-.941-.543,4.435-2.56Z" transform="translate(13.581 15.057)" fill="#f25a5a"/>
            <path id="Trazado_211705" data-name="Trazado 211705" d="M43.36,27.2,28.98,35.5l-.941-.543,14.38-8.3Z" transform="translate(14.168 13.468)" fill="#97cc66"/>
            <path id="Trazado_211706" data-name="Trazado 211706" d="M51.265,25.281,30.14,37.476l-.941-.542,21.125-12.2Z" transform="translate(14.754 12.5)" fill="#97cc66"/>
            <path id="Trazado_211707" data-name="Trazado 211707" d="M50.813,26.569,31.3,37.835l-.941-.543L49.872,26.026Z" transform="translate(15.341 13.151)" fill="#97cc66"/>
            <path id="Trazado_211708" data-name="Trazado 211708" d="M49.194,28.306,32.461,37.966l-.941-.543,16.733-9.661Z" transform="translate(15.927 14.028)" fill="#2d6ad8"/>
            <path id="Trazado_211709" data-name="Trazado 211709" d="M47.062,30.239,33.623,38l-.941-.543L46.121,29.7Z" transform="translate(16.514 15.005)" fill="#2d6ad8"/>
            <path id="Trazado_211710" data-name="Trazado 211710" d="M45.4,31.991l-10.617,6.13-.941-.543,10.617-6.13Z" transform="translate(17.1 15.89)" fill="#44bfe5"/>
            <path id="Trazado_211711" data-name="Trazado 211711" d="M52.676,30.316,35.944,39.977,35,39.433l16.733-9.661Z" transform="translate(17.686 15.044)" fill="#44bfe5"/>
            <path id="Trazado_211712" data-name="Trazado 211712" d="M54.581,30.7,37.1,40.791l-.941-.543L53.64,30.157Z" transform="translate(18.273 15.238)" fill="#86b1ff"/>
            <path id="Trazado_211713" data-name="Trazado 211713" d="M52.713,32.532,38.265,40.873l-.941-.542,14.448-8.342Z" transform="translate(18.859 16.164)" fill="#86b1ff"/>
            <path id="Trazado_211714" data-name="Trazado 211714" d="M51.32,34.182,39.425,41.049l-.941-.543,11.895-6.867Z" transform="translate(19.446 16.997)" fill="#2d6ad8"/>
            <path id="Trazado_211715" data-name="Trazado 211715" d="M57.386,32.971l-16.8,9.7-.941-.542,16.8-9.7Z" transform="translate(20.032 16.385)" fill="#f25a5a"/>
            <path id="Trazado_211716" data-name="Trazado 211716" d="M59.579,33.245l-17.832,10.3L40.807,43,58.638,32.7Z" transform="translate(20.619 16.524)" fill="#f25a5a"/>
            <path id="Trazado_211717" data-name="Trazado 211717" d="M50.187,44.694l-.567.328L25.228,30.939l.566-.328Z" transform="translate(12.747 15.468)" fill="#86b1ff"/>
            <path id="Trazado_211718" data-name="Trazado 211718" d="M47.727,42.6a.631.631,0,0,1,0,1.2,2.289,2.289,0,0,1-2.07,0,.631.631,0,0,1,0-1.2,2.289,2.289,0,0,1,2.07,0" transform="translate(22.853 21.399)" fill="#2d6ad8"/>
            <path id="Trazado_211719" data-name="Trazado 211719" d="M51.075,44.53a.631.631,0,0,1,0,1.2,2.289,2.289,0,0,1-2.07,0,.631.631,0,0,1,0-1.2,2.29,2.29,0,0,1,2.07,0" transform="translate(24.545 22.376)" fill="#2d6ad8"/>
            <path id="Trazado_211720" data-name="Trazado 211720" d="M54.378,46.436a.631.631,0,0,1,0,1.2,2.289,2.289,0,0,1-2.07,0,.631.631,0,0,1,0-1.2,2.289,2.289,0,0,1,2.07,0" transform="translate(26.214 23.339)" fill="#2d6ad8"/>
            <path id="Trazado_211721" data-name="Trazado 211721" d="M57.7,48.357a.631.631,0,0,1,0,1.2,2.289,2.289,0,0,1-2.07,0,.631.631,0,0,1,0-1.2,2.29,2.29,0,0,1,2.07,0" transform="translate(27.894 24.309)" fill="#2d6ad8"/>
            <path id="Trazado_211722" data-name="Trazado 211722" d="M61,50.263a.631.631,0,0,1,0,1.2,2.289,2.289,0,0,1-2.07,0,.631.631,0,0,1,0-1.2,2.289,2.289,0,0,1,2.07,0" transform="translate(29.562 25.273)" fill="#2d6ad8"/>
            <path id="Trazado_211723" data-name="Trazado 211723" d="M73.262,35l3-1.733-.388-.224-3,1.733ZM59.88,42.725,66.6,38.846l-.388-.224L59.492,42.5Zm7.246-4.183L72.733,35.3l-.388-.224-5.607,3.238Zm-7.775,4.487-.388-.224-9.524,5.5.388.224ZM76.79,32.961,81.053,30.5l-.388-.224L76.4,32.737ZM48.337,47.608l3.143-1.815-.388-.224-3.143,1.815ZM75.822,31.291l.388.224,3.735-2.156-.388-.224Zm-6.9,4.435,6.763-3.9-.388-.224-6.763,3.9Zm-3.528,2.037,3-1.733L68,35.8l-3,1.733Zm-4.26,2.46,3.733-2.154-.388-.224L60.742,40Zm-9.122,5.267,8.6-4.963-.388-.224-8.6,4.963Z" transform="translate(24.228 14.722)" fill="#86b1ff"/>
            <path id="Trazado_211724" data-name="Trazado 211724" d="M68.417,39.631l.39.224,5.607-3.239-.388-.224Zm-.138.528-.388-.224-6.72,3.879.388.224Zm1.194.641.39.226,3.732-2.156-.388-.224Zm4.26-2.458.388.224,3-1.733-.388-.224ZM84.024,32.4,77.26,36.3l.39.224,6.762-3.9ZM60.21,46.6l-.388-.224-7.215,4.165.388.224ZM80.717,32.529l-6.163,3.558.388.224L81.1,32.753ZM61.032,44.344l-.388-.224-9.592,5.536.388.224ZM81.245,32.225l.388.224,3.6-2.079-.388-.224ZM69.334,41.33l-.388-.224-8.6,4.963.388.224Z" transform="translate(25.796 15.233)" fill="#86b1ff"/>
            <path id="Trazado_211725" data-name="Trazado 211725" d="M69.044,42.79l.388.224,3.733-2.154-.388-.224Zm.926,1.7-.388-.224-6.637,3.831.39.224ZM76.306,38.6l-3,1.733.388.224,3-1.733Zm.527-.306.388.224,6.763-3.9-.388-.224Zm7.048-1.839,3.927-2.267-.388-.224L83.492,36.23Zm-24.1,12.133-.388-.224L54.532,51.17l.388.224ZM68.518,43.1l-8.6,4.963.388.224,8.6-4.963Zm1.591.861.388.224,6.72-3.879-.388-.224Zm12.855-7.421-5.609,3.238.388.224,5.609-3.238Zm3.178-3.616-2.017,1.165.388.224,2.017-1.165Zm-23.335,15.7-.388-.224-6.367,3.676.388.224Z" transform="translate(27.554 16.634)" fill="#86b1ff"/>
            <path id="Trazado_211726" data-name="Trazado 211726" d="M69.773,48.437l6.718-3.879-.388-.224-6.718,3.879Zm7.246-4.185,5.609-3.238-.39-.224-5.607,3.238Zm-7.775,4.489-.388-.224-9.524,5.5.388.224ZM58.23,53.32,61.373,51.5l-.388-.224L57.842,53.1ZM85.715,37l.388.224,3.735-2.156-.388-.224Zm-6.9,4.435,6.763-3.9-.388-.224-6.763,3.9Zm-3.528,2.037,3-1.733-.388-.224-3,1.733Zm-4.26,2.46,3.733-2.156-.388-.224-3.733,2.156ZM61.9,51.2l8.6-4.963-.388-.224-8.6,4.963Z" transform="translate(29.227 17.608)" fill="#86b1ff"/>
            <path id="Trazado_211727" data-name="Trazado 211727" d="M75.264,41.809l.388.224L81.261,38.8l-.388-.224Z" transform="translate(38.03 19.49)" fill="#86b1ff"/>
            <path id="Trazado_211728" data-name="Trazado 211728" d="M71.822,44.616l.388.224,3.732-2.156-.388-.224Z" transform="translate(36.29 21.455)" fill="#86b1ff"/>
            <path id="Trazado_211729" data-name="Trazado 211729" d="M77.169,40.925,70.45,44.8l.39.224,6.718-3.879Z" transform="translate(35.597 20.679)" fill="#86b1ff"/>
            <path id="Trazado_211730" data-name="Trazado 211730" d="M80.452,40.034l-5.8,3.349.388.224,5.8-3.349Z" transform="translate(37.72 20.229)" fill="#86b1ff"/>
            <path id="Trazado_211731" data-name="Trazado 211731" d="M75.037,43.928l-.388-.224L61.1,51.527l.388.224Z" transform="translate(30.872 22.083)" fill="#86b1ff"/>
            <path id="Trazado_211732" data-name="Trazado 211732" d="M79.341,38.95l.388.224,3-1.733-.388-.224Z" transform="translate(40.09 18.806)" fill="#86b1ff"/>
            <path id="Trazado_211733" data-name="Trazado 211733" d="M67.431,47.818l-.388-.224L62.181,50.4l.388.224Z" transform="translate(31.419 24.049)" fill="#86b1ff"/>
            <path id="Trazado_211734" data-name="Trazado 211734" d="M74.356,44.1l-8.6,4.963.388.224,8.6-4.963Z" transform="translate(33.228 22.281)" fill="#86b1ff"/>
            <path id="Trazado_211735" data-name="Trazado 211735" d="M81.685,37.509l.388.224,2.545-1.469-.388-.224Z" transform="translate(41.274 18.211)" fill="#86b1ff"/>
            <path id="Trazado_211736" data-name="Trazado 211736" d="M14.017,41.834l-.006-1.886-7.12-4.177L6.9,37.659a.925.925,0,0,0,.384.847L14.4,42.682a.924.924,0,0,1-.385-.847" transform="translate(3.482 18.075)" fill="#5169ce"/>
            <path id="Trazado_211737" data-name="Trazado 211737" d="M15.208,31.736a.933.933,0,0,0-.939.092L7.763,35.585l7.12,4.176L21.389,36a.933.933,0,0,1,.939-.093Z" transform="translate(3.923 15.991)" fill="#788eff"/>
            <path id="Trazado_211738" data-name="Trazado 211738" d="M14.012,40.71l-7.12-4.176A2.881,2.881,0,0,1,8.2,34.263l7.12,4.176a2.889,2.889,0,0,0-1.311,2.271" transform="translate(3.482 17.313)" fill="#788eff"/>
            <path id="Trazado_211739" data-name="Trazado 211739" d="M19.439,34.6c.727-.42,1.32-.086,1.323.751l0,1.886a2.892,2.892,0,0,1-1.314,2.276l-6.506,3.757c-.727.42-1.317.08-1.32-.756l0-1.888a2.885,2.885,0,0,1,1.311-2.271Z" transform="translate(5.872 17.393)" fill="#252321"/>
            <path id="Trazado_211740" data-name="Trazado 211740" d="M48.1,52.068,14.321,32.49a1.072,1.072,0,0,1,1.084-.107l33.78,19.578a1.076,1.076,0,0,0-1.084.107" transform="translate(7.236 16.311)" fill="#373431"/>
            <path id="Trazado_211741" data-name="Trazado 211741" d="M42.114,58.8l-.006-2.178L8.328,37.041l.006,2.178a1.067,1.067,0,0,0,.444.977l33.78,19.579a1.069,1.069,0,0,1-.444-.978" transform="translate(4.208 18.717)" fill="#1e1b19"/>
            <path id="Trazado_211742" data-name="Trazado 211742" d="M43.113,56.333,9.333,36.755l7.508-4.335L50.621,52Z" transform="translate(4.716 16.382)" fill="#2d2b29"/>
            <path id="Trazado_211743" data-name="Trazado 211743" d="M42.108,57.5,8.328,37.921A3.332,3.332,0,0,1,9.841,35.3l33.78,19.578A3.328,3.328,0,0,0,42.108,57.5" transform="translate(4.208 17.837)" fill="#373431"/>
            <path id="Trazado_211744" data-name="Trazado 211744" d="M39.79,45.5c.84-.485,1.523-.1,1.526.866l.006,2.178a3.342,3.342,0,0,1-1.516,2.627L32.3,55.5c-.84.485-1.522.093-1.523-.872l-.006-2.178a3.328,3.328,0,0,1,1.513-2.621Z" transform="translate(15.547 22.883)" fill="#252321"/>
            <path id="Trazado_211745" data-name="Trazado 211745" d="M39.956,46.34a.783.783,0,0,0-.786.077l-6.4,3.7a2.41,2.41,0,0,0-1.1,1.9l0,1.579A.772.772,0,0,0,32,54.3l8.937,1.773A1.239,1.239,0,0,0,41.717,56l1.573-.908c.61-.352.7-2.878.7-2.878Z" transform="translate(16.003 23.378)" fill="#1e1b19"/>
            <path id="Trazado_211746" data-name="Trazado 211746" d="M43.349,52.445l-4.328-2.538a.561.561,0,0,1,.571-.056l4.328,2.538a.565.565,0,0,0-.571.056" transform="translate(19.717 25.162)" fill="#373431"/>
            <path id="Trazado_211747" data-name="Trazado 211747" d="M41.64,55.154l0-1.147-4.328-2.538,0,1.147a.563.563,0,0,0,.233.515l4.328,2.538a.563.563,0,0,1-.233-.515" transform="translate(18.852 26.007)" fill="#1e1b19"/>
            <path id="Trazado_211748" data-name="Trazado 211748" d="M42.166,53.436,37.838,50.9l1.781-1.028,4.328,2.538Z" transform="translate(19.119 25.199)" fill="#2d2b29"/>
            <path id="Trazado_211749" data-name="Trazado 211749" d="M41.636,54.471l-4.328-2.538a1.754,1.754,0,0,1,.8-1.38l4.329,2.538a1.754,1.754,0,0,0-.8,1.38" transform="translate(18.851 25.544)" fill="#373431"/>
            <path id="Trazado_211750" data-name="Trazado 211750" d="M42.761,51.593c.443-.256.8-.053.8.456l0,1.147a1.766,1.766,0,0,1-.8,1.383l-1.781,1.028c-.443.256-.8.048-.8-.459l0-1.147a1.752,1.752,0,0,1,.8-1.38Z" transform="translate(20.304 26.014)" fill="#252321"/>
            <path id="Trazado_211751" data-name="Trazado 211751" d="M42.819,51.928l-2.2,1.281,0,1.538,2.533,1.463a.259.259,0,0,0,.376-.148l.546-1.76a.664.664,0,0,0,.03-.2l0-1.17a.463.463,0,0,0-.232-.4Z" transform="translate(20.521 26.239)" fill="#788eff"/>
            <path id="Trazado_211752" data-name="Trazado 211752" d="M21.249,40.648,13,35.888l2.541-1.468,8.246,4.76Z" transform="translate(6.571 17.392)" fill="#3f474f"/>
            <path id="Trazado_211753" data-name="Trazado 211753" d="M23.077,40.133l.987.57-.2.113-.987-.569Zm-.885.62.2-.114-.771-.444-.506-.294-.2.114.506.292Zm-1.442-1.06-1.263-.73-.2.113,1.263.73Zm1.239.039.53.306.2-.113L21.8,39.4l-1.526-.881-.2.114Zm-.717-1.316,1.245.718.2-.114L21.47,38.3l-.4-.232-.2.113.4.233Zm2.484,1.433.4.232.2-.114-.528-.306-.75-.432-.2.113Zm3.518,1.8-.552-.319-.2.114.554.319Zm-.914-.527-.477-.275-.2.113.476.275Zm.141.984-.909-.525-.2.114.908.524Zm-2.144-.336-.388-.224-.2.114.388.224Zm.361.209-.2.114,1.009.581.2-.113Z" transform="translate(9.747 19.237)" fill="#3f474f"/>
            <path id="Trazado_211754" data-name="Trazado 211754" d="M9.265,51.456,9.257,49.57l-7.12-4.177.006,1.888a.926.926,0,0,0,.385.847L9.648,52.3a.921.921,0,0,1-.384-.847" transform="translate(1.08 22.937)" fill="#ce307c"/>
            <path id="Trazado_211755" data-name="Trazado 211755" d="M10.454,41.357a.933.933,0,0,0-.939.092L3.009,45.206l7.12,4.176,6.506-3.756a.933.933,0,0,1,.939-.093Z" transform="translate(1.52 20.852)" fill="#ff398f"/>
            <path id="Trazado_211756" data-name="Trazado 211756" d="M9.258,50.331l-7.12-4.176a2.881,2.881,0,0,1,1.311-2.271l7.12,4.176a2.885,2.885,0,0,0-1.311,2.271" transform="translate(1.08 22.174)" fill="#ff398f"/>
            <path id="Trazado_211757" data-name="Trazado 211757" d="M14.685,44.224c.727-.42,1.32-.086,1.323.751l0,1.886A2.894,2.894,0,0,1,14.7,49.137L8.193,52.894c-.727.42-1.317.08-1.32-.756l0-1.888A2.885,2.885,0,0,1,8.179,47.98Z" transform="translate(3.47 22.254)" fill="#252321"/>
            <path id="Trazado_211758" data-name="Trazado 211758" d="M43.347,61.689,9.567,42.111A1.072,1.072,0,0,1,10.651,42l33.78,19.578a1.076,1.076,0,0,0-1.084.107" transform="translate(4.834 21.173)" fill="#373431"/>
            <path id="Trazado_211759" data-name="Trazado 211759" d="M37.36,68.418l-.006-2.178L3.574,46.662,3.58,48.84a1.067,1.067,0,0,0,.444.977L37.8,69.4a1.069,1.069,0,0,1-.444-.978" transform="translate(1.806 23.578)" fill="#1e1b19"/>
            <path id="Trazado_211760" data-name="Trazado 211760" d="M38.359,65.954,4.579,46.376l7.508-4.335,33.78,19.578Z" transform="translate(2.314 21.243)" fill="#2d2b29"/>
            <path id="Trazado_211761" data-name="Trazado 211761" d="M37.354,67.12,3.574,47.543a3.328,3.328,0,0,1,1.513-2.621L38.867,64.5a3.328,3.328,0,0,0-1.513,2.621" transform="translate(1.806 22.699)" fill="#373431"/>
            <path id="Trazado_211762" data-name="Trazado 211762" d="M35.036,55.117c.84-.485,1.523-.1,1.526.866l.006,2.178a3.342,3.342,0,0,1-1.516,2.627l-7.51,4.335c-.84.485-1.52.093-1.522-.872l-.006-2.178a3.328,3.328,0,0,1,1.513-2.621Z" transform="translate(13.145 27.744)" fill="#252321"/>
            <path id="Trazado_211763" data-name="Trazado 211763" d="M35.2,55.961a.78.78,0,0,0-.786.077l-6.4,3.7a2.411,2.411,0,0,0-1.1,1.9l0,1.579a.772.772,0,0,0,.322.709L36.182,65.7a1.239,1.239,0,0,0,.783-.077l1.573-.908c.61-.352.7-2.878.7-2.878Z" transform="translate(13.601 28.239)" fill="#1e1b19"/>
            <path id="Trazado_211764" data-name="Trazado 211764" d="M38.595,62.066l-4.328-2.538a.565.565,0,0,1,.571-.057l4.328,2.539a.561.561,0,0,0-.571.056" transform="translate(17.315 30.023)" fill="#373431"/>
            <path id="Trazado_211765" data-name="Trazado 211765" d="M36.886,64.776l0-1.147-4.328-2.538,0,1.147a.563.563,0,0,0,.233.515l4.328,2.538a.566.566,0,0,1-.233-.515" transform="translate(16.449 30.869)" fill="#1e1b19"/>
            <path id="Trazado_211766" data-name="Trazado 211766" d="M37.412,63.057l-4.328-2.538,1.781-1.028,4.328,2.538Z" transform="translate(16.717 30.06)" fill="#2d2b29"/>
            <path id="Trazado_211767" data-name="Trazado 211767" d="M36.883,64.092l-4.328-2.538a1.744,1.744,0,0,1,.795-1.38l4.328,2.538a1.751,1.751,0,0,0-.795,1.38" transform="translate(16.449 30.405)" fill="#373431"/>
            <path id="Trazado_211768" data-name="Trazado 211768" d="M38.007,61.214c.443-.256.8-.053.8.456l0,1.147a1.766,1.766,0,0,1-.8,1.383l-1.781,1.028c-.443.256-.8.048-.8-.459l0-1.147a1.75,1.75,0,0,1,.8-1.38Z" transform="translate(17.902 30.875)" fill="#252321"/>
            <path id="Trazado_211769" data-name="Trazado 211769" d="M38.065,61.549l-2.2,1.279,0,1.54,2.533,1.463a.259.259,0,0,0,.376-.148l.546-1.761a.646.646,0,0,0,.03-.194l0-1.17a.46.46,0,0,0-.232-.4Z" transform="translate(18.118 31.1)" fill="#ff398f"/>
            <path id="Trazado_211770" data-name="Trazado 211770" d="M16.495,50.269,8.25,45.51l2.541-1.468,8.246,4.76Z" transform="translate(4.169 22.254)" fill="#3f474f"/>
            <path id="Trazado_211771" data-name="Trazado 211771" d="M18.323,49.754l.987.571-.2.113-.987-.569Zm-.885.62.2-.114-.771-.444-.506-.294-.2.114.506.292ZM16,49.315l-1.263-.73-.2.113,1.263.73Zm1.239.039.53.306.2-.113-.914-.528-1.525-.881-.2.114Zm-.715-1.316,1.243.718.2-.114-1.245-.718-.4-.232-.2.113ZM19,49.471l.4.23.2-.113-.528-.306-.75-.432-.2.113Zm3.519,1.8-.554-.319-.2.114.554.319Zm-.915-.528-.477-.274-.2.113.477.275Zm.141.986-.908-.525-.2.114.908.524ZM19.6,51.4l-.388-.224-.2.114.388.224Zm.361.209-.2.114,1.009.581.2-.113Z" transform="translate(7.345 24.098)" fill="#3f474f"/>
          </g>
        </g>
      </g>
    </g>
  </g>
</svg>
