<svg xmlns="http://www.w3.org/2000/svg" width="84" height="84" viewBox="0 0 84 84">
  <g id="Grupo_149976" data-name="Grupo 149976" transform="translate(-1021 -5364)">
    <circle id="Elipse_4779" data-name="Elipse 4779" cx="42" cy="42" r="42" transform="translate(1021 5364)" fill="#ffc631"/>
    <g id="pasivo" transform="translate(1032.535 5377.853)">
      <path id="Trazado_214472" data-name="Trazado 214472" d="M48.476,72.511V70.394a3.677,3.677,0,0,1,1.6.844L50.84,70.2a4.187,4.187,0,0,0-2.364-1.046v-.7H47.452v.687a2.4,2.4,0,0,0-2.319,2.319c0,1.328.935,1.824,2.319,2.183v2.2a3.849,3.849,0,0,1-1.812-.968l-.811,1a4.616,4.616,0,0,0,2.623,1.2v.754h1.024v-.719c1.632-.112,2.567-1.058,2.567-2.352,0-1.373-1.024-1.9-2.567-2.251Zm-1.024-.271c-.608-.214-.9-.45-.9-.9a1.063,1.063,0,0,1,.9-.968Zm1.024,3.67v-2c.8.238,1.16.473,1.16.992C49.636,75.392,49.242,75.82,48.476,75.91Z" transform="translate(-21.97 -38.542)"/>
      <path id="Trazado_214473" data-name="Trazado 214473" d="M37.006,54.323a10.3,10.3,0,1,0,10.3,10.3,10.3,10.3,0,0,0-10.3-10.3Zm0,19.207a8.909,8.909,0,1,1,8.909-8.909,8.909,8.909,0,0,1-8.909,8.909Z" transform="translate(-11.039 -30.017)"/>
      <path id="Trazado_214474" data-name="Trazado 214474" d="M41.589,61.922A7.282,7.282,0,1,0,48.872,69.2a7.282,7.282,0,0,0-7.282-7.282Zm0,13.175A5.894,5.894,0,1,1,47.483,69.2,5.894,5.894,0,0,1,41.589,75.1Z" transform="translate(-15.623 -34.6)"/>
      <path id="Trazado_214475" data-name="Trazado 214475" d="M32.005,17.773V15.3l3.308-7.424a.694.694,0,0,0-.206-.829c-.129-.1-3.24-2.489-9.142-2.489s-9.012,2.387-9.141,2.489a.694.694,0,0,0-.206.829L19.927,15.3v2.475c-1.922,1.191-10.956,7.393-11.5,18.976a13.747,13.747,0,0,0,9.389,13.776,26.564,26.564,0,0,0,8.153,1.212,26.57,26.57,0,0,0,8.152-1.212,13.747,13.747,0,0,0,9.389-13.776c-.546-11.583-9.58-17.785-11.5-18.976ZM21.316,15.844h9.3v1.627h-9.3Zm4.65-9.9a15.385,15.385,0,0,1,7.839,1.9L30.86,14.455H21.073l-2.947-6.61A15.277,15.277,0,0,1,25.966,5.946ZM33.693,49.2a25.173,25.173,0,0,1-7.727,1.145A25.168,25.168,0,0,1,18.24,49.2,12.355,12.355,0,0,1,9.812,36.815c.536-11.323,9.726-17.194,11-17.954H31.124c1.27.754,10.461,6.607,11,17.953A12.354,12.354,0,0,1,33.693,49.2Z" transform="translate(0 0)"/>
      <path id="Trazado_214476" data-name="Trazado 214476" d="M87.536,8.918a7.934,7.934,0,1,0,7.934,7.934,7.934,7.934,0,0,0-7.934-7.934Zm.694,14.441v-.638a.694.694,0,0,0-1.389,0v.637a6.555,6.555,0,0,1-5.811-5.812h.635a.694.694,0,0,0,0-1.389H81.03a6.556,6.556,0,0,1,5.811-5.813v.637a.694.694,0,0,0,1.389,0v-.637a6.556,6.556,0,0,1,5.812,5.813h-.635a.694.694,0,1,0,0,1.389h.635A6.555,6.555,0,0,1,88.23,23.359Z" transform="translate(-42.943 -2.63)"/>
      <path id="Trazado_214477" data-name="Trazado 214477" d="M99.233,22.448v-3.08a.694.694,0,0,0-1.389,0v3.368a.694.694,0,0,0,.2.491l2.381,2.381a.694.694,0,1,0,.982-.982Z" transform="translate(-53.946 -8.515)"/>
    </g>
  </g>
</svg>
