<svg xmlns="http://www.w3.org/2000/svg" xmlns:xlink="http://www.w3.org/1999/xlink" width="262.413" height="260.888" viewBox="0 0 262.413 260.888">
  <defs>
    <clipPath id="clip-path">
      <rect id="Rectángulo_39556" data-name="Rectángulo 39556" width="167.853" height="128.422" fill="none"/>
    </clipPath>
    <clipPath id="clip-path-2">
      <rect id="Rectángulo_39544" data-name="Rectángulo 39544" width="167.853" height="128.423" fill="none"/>
    </clipPath>
    <clipPath id="clip-path-3">
      <rect id="Rectángulo_39543" data-name="Rectángulo 39543" width="129.344" height="73.651" fill="none"/>
    </clipPath>
    <clipPath id="clip-path-5">
      <rect id="Rectángulo_39545" data-name="Rectángulo 39545" width="96.419" height="67.227" fill="none"/>
    </clipPath>
    <clipPath id="clip-path-6">
      <path id="Trazado_211547" data-name="Trazado 211547" d="M31.362,20.973c-8.067,4.688-12.1,10.838-12.122,17l-.018,6.542c.017-6.159,4.056-12.309,12.122-16.994,16.243-9.442,42.754-9.436,59.1,0,8.226,4.748,12.335,11,12.317,17.235l.018-6.542c.018-6.24-4.091-12.487-12.317-17.237C82.287,16.254,71.573,13.9,60.871,13.9s-21.388,2.358-29.509,7.077" transform="translate(-19.222 -13.896)" fill="none"/>
    </clipPath>
    <linearGradient id="linear-gradient" x1="-0.351" y1="3.476" x2="-0.332" y2="3.476" gradientUnits="objectBoundingBox">
      <stop offset="0" stop-color="#e4e2e2"/>
      <stop offset="1" stop-color="#d6d5d4"/>
    </linearGradient>
    <clipPath id="clip-path-7">
      <path id="Trazado_211615" data-name="Trazado 211615" d="M31.355,23.938c-16.237,9.436-16.15,24.795.192,34.229s42.862,9.438,59.1,0,16.151-24.793-.194-34.231c-8.171-4.717-18.886-7.078-29.587-7.078s-21.388,2.361-29.511,7.08" transform="translate(-19.234 -16.858)" fill="none"/>
    </clipPath>
    <clipPath id="clip-path-9">
      <path id="Trazado_211617" data-name="Trazado 211617" d="M18.73,36.229c-.018,6.351,4.162,12.713,12.536,17.548,16.638,9.6,43.627,9.6,60.157,0C99.639,49,103.752,42.739,103.77,36.47l.017-6.54c-.017,6.269-4.129,12.529-12.346,17.305-16.529,9.605-43.517,9.605-60.157,0C22.912,42.4,18.73,36.039,18.748,29.689Z" transform="translate(-18.73 -29.689)" fill="none"/>
    </clipPath>
    <linearGradient id="linear-gradient-2" x1="-0.335" y1="2.468" x2="-0.317" y2="2.468" gradientUnits="objectBoundingBox">
      <stop offset="0" stop-color="#d6d5d4"/>
      <stop offset="1" stop-color="#e4e2e2"/>
    </linearGradient>
    <clipPath id="clip-path-10">
      <path id="Trazado_211618" data-name="Trazado 211618" d="M31.805,55.357c-16.342-9.439-16.429-24.8-.192-34.234s42.754-9.436,59.1,0,16.438,24.793.194,34.234C82.785,60.073,72.1,62.432,61.4,62.432s-21.417-2.359-29.59-7.075m-.724-34.54c-16.529,9.605-16.441,25.238.2,34.847s43.627,9.605,60.157,0,16.449-25.243-.189-34.848c-8.319-4.8-19.224-7.206-30.117-7.206s-21.779,2.4-30.047,7.208" transform="translate(-18.742 -13.609)" fill="none"/>
    </clipPath>
    <linearGradient id="linear-gradient-3" x1="-0.261" y1="2.045" x2="-0.245" y2="2.045" gradientUnits="objectBoundingBox">
      <stop offset="0" stop-color="#f0efec"/>
      <stop offset="1" stop-color="#fffefb"/>
    </linearGradient>
    <clipPath id="clip-path-12">
      <path id="Trazado_211620" data-name="Trazado 211620" d="M70.558,49.872a6.5,6.5,0,0,0-1.5,3.632,1.81,1.81,0,0,0,.858,1.681l38.2,21.916a2.028,2.028,0,0,0,.643.232c2.006.373,5.248-1.486,7.256-4.162a6.5,6.5,0,0,0,1.5-3.632,1.844,1.844,0,0,0-.742-1.61c-.207-.143-38.319-21.989-38.319-21.989a2.134,2.134,0,0,0-.64-.232,2.989,2.989,0,0,0-.544-.047c-2.01,0-4.877,1.765-6.712,4.211" transform="translate(-69.058 -45.661)" fill="none"/>
    </clipPath>
    <linearGradient id="linear-gradient-4" x1="-2.172" y1="1.836" x2="-2.141" y2="1.836" gradientUnits="objectBoundingBox">
      <stop offset="0" stop-color="#312f2c"/>
      <stop offset="1" stop-color="#252321"/>
    </linearGradient>
    <clipPath id="clip-path-14">
      <rect id="Rectángulo_39554" data-name="Rectángulo 39554" width="5.834" height="4.979" fill="none"/>
    </clipPath>
    <clipPath id="clip-path-15">
      <path id="Trazado_211621" data-name="Trazado 211621" d="M101.648,60.968c-.431-.527-2.041.07-3.592,1.338S95.6,65.033,96.03,65.563s2.041-.072,3.592-1.341,2.458-2.725,2.026-3.254" transform="translate(-95.922 -60.776)" fill="none"/>
    </clipPath>
    <linearGradient id="linear-gradient-5" x1="-16.839" y1="4.4" x2="-16.662" y2="4.4" xlink:href="#linear-gradient-4"/>
  </defs>
  <g id="Grupo_149956" data-name="Grupo 149956" transform="translate(1659.477 7002.409)">
    <g id="Grupo_147899" data-name="Grupo 147899" transform="translate(-1660.059 -7024.758)">
      <g id="Grupo_147888" data-name="Grupo 147888" transform="translate(0 87.438) rotate(-19)">
        <path id="Trazado_114141" data-name="Trazado 114141" d="M64.839,137.1c42.387,11.295,46.145,76.023,83.729,68.671,71-13.888,40.833-105.048,33.708-163.164-10.483-85.5-121.7-17.442-146.006-1.833S-43.761,108.169,64.839,137.1" transform="translate(0.06 0.82)" fill="#039d95" fill-rule="evenodd"/>
      </g>
      <g id="Grupo_147889" data-name="Grupo 147889" transform="translate(0 87.438) rotate(-19)">
        <path id="Trazado_114141-2" data-name="Trazado 114141" d="M64.811,137.109c42.386,11.288,46.13,76.025,83.717,68.664,71.009-13.906,40.858-105.074,33.745-163.2-10.465-85.515-121.7-17.418-146.012-1.8S-43.787,108.2,64.811,137.109" transform="translate(0.036 0.807)" fill="#039d95" fill-rule="evenodd"/>
        <path id="Trazado_209723" data-name="Trazado 209723" d="M7.378,64.974c-28.5,60.873,32.454,108.3,104.412,88.986,141.138-37.883,122.44-90.673,8.978-143.616C71-12.877,24.631,2.974,7.378,64.974" transform="translate(9.383 7.144)" fill="#ffc631" fill-rule="evenodd"/>
      </g>
    </g>
    <g id="Grupo_148620" data-name="Grupo 148620" transform="translate(-1602.782 -6957.878)">
      <g id="Grupo_148651" data-name="Grupo 148651" clip-path="url(#clip-path)">
        <g id="Grupo_148624" data-name="Grupo 148624" transform="translate(0 -0.001)">
          <g id="Grupo_148623" data-name="Grupo 148623" clip-path="url(#clip-path-2)">
            <g id="Grupo_148622" data-name="Grupo 148622" transform="translate(0 54.772)" opacity="0.4">
              <g id="Grupo_148621" data-name="Grupo 148621">
                <g id="Grupo_148620-2" data-name="Grupo 148620" clip-path="url(#clip-path-3)">
                  <path id="Trazado_211410" data-name="Trazado 211410" d="M125.438,102.267a1.545,1.545,0,0,1,.533.172l-34.505-20a1.545,1.545,0,0,0-.533-.172,8.271,8.271,0,0,0-3.3.5l-8.654-5.016c.311-.171.645-.319.95-.5,16.255-9.447,16.17-24.816-.187-34.258-8.52-4.92-19.8-7.252-30.955-7.045C37.626,35.741,26.367,38.075,17.9,43c-16.25,9.444-16.164,24.812.192,34.255,8.522,4.92,19.8,7.252,30.957,7.045A67.79,67.79,0,0,0,70.172,81.43l9.735,5.642a5.175,5.175,0,0,0-.858,1.043c-.319.569-.288,1.015.137,1.262l34.505,20a1.6,1.6,0,0,0,.533.174c1.817.279,5.784-1.116,8.883-3.123a9.429,9.429,0,0,0,3-2.727c.422-.751.232-1.289-.671-1.434m-76.393-18.4c-10.067-.191-20.049-2.48-27.738-6.92C5.239,67.674,5.155,52.574,21.118,43.3c7.642-4.441,17.6-6.731,27.66-6.921,10.067.191,20.047,2.481,27.738,6.921,16.066,9.276,16.158,24.371.189,33.652-7.639,4.44-17.595,6.729-27.66,6.92" transform="translate(3.022 -35.936)" fill="#ada6a3"/>
                  <path id="Trazado_211411" data-name="Trazado 211411" d="M14.865,45.319,0,53.9,77.109,98.42h8.366Z" transform="translate(0 -31.018)" fill="#ada6a3"/>
                </g>
              </g>
            </g>
          </g>
        </g>
        <path id="Trazado_211412" data-name="Trazado 211412" d="M83.333,98.386,4.472,52.855l0-7.47L83.333,60.916Z" transform="translate(2.344 23.788)" fill="#d2cfcc"/>
        <path id="Trazado_211413" data-name="Trazado 211413" d="M111.96,61.616,56.213,93.8V56.332l55.747-2.2Z" transform="translate(29.464 28.373)" fill="#e9e6e6"/>
        <path id="Trazado_211414" data-name="Trazado 211414" d="M139.079,69.785,83.321,101.978,4.475,56.457,60.235,24.264Z" transform="translate(2.346 12.718)" fill="#f8f5f4"/>
        <path id="Trazado_211415" data-name="Trazado 211415" d="M46.721,42.986l-1.107.171.562.325L35.8,49.471l.544.314L46.721,43.8l.514.3.3-.639.3-.639Z" transform="translate(18.767 22.441)" fill="#86b1ff"/>
        <path id="Trazado_211416" data-name="Trazado 211416" d="M40.87,50.841l.3-.639.562.325L52.1,44.538l.544.314L42.274,50.841l.514.3-1.107.171-1.108.171Z" transform="translate(21.266 23.345)" fill="#2d6ad8"/>
        <path id="Trazado_211417" data-name="Trazado 211417" d="M31.689,51.953l.3.639.562-.325,8.241,4.758.544-.314-8.241-4.758.514-.3L32.5,51.485l-1.108-.171Z" transform="translate(16.454 26.896)" fill="#2d6ad8"/>
        <path id="Trazado_211418" data-name="Trazado 211418" d="M55.132,42.423l-1.107-.171.562-.325-8.243-4.76.544-.314,8.243,4.758.514-.3.3.639.3.639Z" transform="translate(24.292 19.317)" fill="#86b1ff"/>
        <path id="Trazado_211419" data-name="Trazado 211419" d="M45.982,49.251,28.029,59.616l-8.454-4.882L37.528,44.37Z" transform="translate(10.26 23.257)" fill="#86b1ff"/>
        <path id="Trazado_211420" data-name="Trazado 211420" d="M65.832,37.79,47.88,48.156l-8.454-4.882L57.378,32.91Z" transform="translate(20.665 17.249)" fill="#86b1ff"/>
        <path id="Trazado_211421" data-name="Trazado 211421" d="M39.72,45.635,37.528,44.37,19.574,54.736,21.767,56Z" transform="translate(10.26 23.256)" fill="#2d6ad8"/>
        <path id="Trazado_211422" data-name="Trazado 211422" d="M59.57,34.174l-2.192-1.265L39.425,43.275l2.192,1.265Z" transform="translate(20.665 17.249)" fill="#2d6ad8"/>
        <path id="Trazado_211423" data-name="Trazado 211423" d="M53.975,53.866,36.022,64.231,27.567,59.35,45.52,48.984Z" transform="translate(14.449 25.675)" fill="#86b1ff"/>
        <path id="Trazado_211424" data-name="Trazado 211424" d="M73.825,42.4,55.872,52.771l-8.454-4.882L65.371,37.523Z" transform="translate(24.854 19.668)" fill="#86b1ff"/>
        <path id="Trazado_211425" data-name="Trazado 211425" d="M47.712,50.25,45.52,48.984,27.568,59.35l2.192,1.265Z" transform="translate(14.449 25.675)" fill="#2d6ad8"/>
        <path id="Trazado_211426" data-name="Trazado 211426" d="M67.562,38.789l-2.192-1.265L47.418,47.89l2.192,1.265Z" transform="translate(24.854 19.668)" fill="#2d6ad8"/>
        <path id="Trazado_211427" data-name="Trazado 211427" d="M41.314,63.761l2.1,1.215.3-.175-2.1-1.215Z" transform="translate(21.654 33.328)" fill="#7b9fe1"/>
        <path id="Trazado_211428" data-name="Trazado 211428" d="M43.06,64.768l2.1,1.215.3-.175-2.1-1.213Z" transform="translate(22.57 33.857)" fill="#7b9fe1"/>
        <path id="Trazado_211429" data-name="Trazado 211429" d="M44.806,65.778l2.1,1.213.3-.174L45.11,65.6Z" transform="translate(23.485 34.386)" fill="#7b9fe1"/>
        <path id="Trazado_211430" data-name="Trazado 211430" d="M46.553,66.786,48.657,68l.3-.175-2.1-1.215Z" transform="translate(24.4 34.914)" fill="#7b9fe1"/>
        <path id="Trazado_211431" data-name="Trazado 211431" d="M48.3,67.793l2.1,1.215.3-.175L48.6,67.62Z" transform="translate(25.316 35.443)" fill="#7b9fe1"/>
        <path id="Trazado_211432" data-name="Trazado 211432" d="M50.044,68.8l2.1,1.215.3-.177-2.1-1.213Z" transform="translate(26.231 35.971)" fill="#7b9fe1"/>
        <path id="Trazado_211433" data-name="Trazado 211433" d="M63.736,56.71,43.66,68.3l-1.51-.872L62.225,55.838Z" transform="translate(22.093 29.268)" fill="#44bfe5"/>
        <path id="Trazado_211434" data-name="Trazado 211434" d="M63.326,58.535,45.407,68.881l-1.512-.872L61.816,57.663Z" transform="translate(23.008 30.224)" fill="#86b1ff"/>
        <path id="Trazado_211435" data-name="Trazado 211435" d="M55.312,63.241l-8.16,4.711-1.51-.872,8.16-4.711Z" transform="translate(23.923 32.691)" fill="#86b1ff"/>
        <path id="Trazado_211436" data-name="Trazado 211436" d="M63.21,61.919,48.9,70.181l-1.51-.872L61.7,61.047Z" transform="translate(24.838 31.998)" fill="#97cc66"/>
        <path id="Trazado_211437" data-name="Trazado 211437" d="M64.048,63.271l-13.4,7.738-1.51-.872,13.4-7.738Z" transform="translate(25.754 32.706)" fill="#f25a5a"/>
        <path id="Trazado_211438" data-name="Trazado 211438" d="M63.088,65.3l-10.7,6.176-1.51-.872,10.7-6.176Z" transform="translate(26.669 33.772)" fill="#86b1ff"/>
        <g id="Grupo_148629" data-name="Grupo 148629" transform="translate(0 -0.001)">
          <g id="Grupo_148628" data-name="Grupo 148628" clip-path="url(#clip-path-2)">
            <path id="Trazado_211439" data-name="Trazado 211439" d="M53.142,61.962a.287.287,0,0,1,0,.544,1.046,1.046,0,0,1-.942,0,.287.287,0,0,1,0-.544,1.037,1.037,0,0,1,.942,0" transform="translate(27.258 32.419)" fill="#86b1ff"/>
            <path id="Trazado_211440" data-name="Trazado 211440" d="M58.957,60.624a.287.287,0,0,1,0,.544,1.046,1.046,0,0,1-.942,0,.287.287,0,0,1,0-.544,1.037,1.037,0,0,1,.942,0" transform="translate(30.306 31.717)" fill="#97cc66"/>
            <path id="Trazado_211441" data-name="Trazado 211441" d="M60.129,61.993a.288.288,0,0,1,0,.546,1.046,1.046,0,0,1-.942,0,.288.288,0,0,1,0-.546,1.056,1.056,0,0,1,.942,0" transform="translate(30.92 32.436)" fill="#f25a5a"/>
            <path id="Trazado_211442" data-name="Trazado 211442" d="M57.408,55.479a.287.287,0,0,1,0,.544,1.046,1.046,0,0,1-.942,0,.287.287,0,0,1,0-.544,1.046,1.046,0,0,1,.942,0" transform="translate(29.494 29.021)" fill="#44bfe5"/>
            <path id="Trazado_211443" data-name="Trazado 211443" d="M60.053,64.049a.287.287,0,0,1,0,.544,1.046,1.046,0,0,1-.942,0,.287.287,0,0,1,0-.544,1.036,1.036,0,0,1,.942,0" transform="translate(30.881 33.513)" fill="#86b1ff"/>
            <path id="Trazado_211444" data-name="Trazado 211444" d="M57.791,57.253a.287.287,0,0,1,0,.544,1.037,1.037,0,0,1-.942,0,.287.287,0,0,1,0-.544,1.046,1.046,0,0,1,.942,0" transform="translate(29.695 29.951)" fill="#86b1ff"/>
            <path id="Trazado_211445" data-name="Trazado 211445" d="M17.987,49.175l-.518.3L11.122,45.81l.518-.3Z" transform="translate(5.83 23.855)" fill="#7b9fe1"/>
            <path id="Trazado_211446" data-name="Trazado 211446" d="M18.126,48.837l-.555.32-5.681-3.28.555-.32Z" transform="translate(6.232 23.88)" fill="#2d6ad8"/>
            <path id="Trazado_211447" data-name="Trazado 211447" d="M19.227,48.327l-.518.3L12.7,45.153l.517-.3Z" transform="translate(6.655 23.511)" fill="#7b9fe1"/>
            <path id="Trazado_211448" data-name="Trazado 211448" d="M19.774,48.224l-.555.32-6.531-3.771.555-.32Z" transform="translate(6.65 23.301)" fill="#2d6ad8"/>
            <path id="Trazado_211449" data-name="Trazado 211449" d="M21.13,47.854l-.518.3-7.59-4.383.517-.3Z" transform="translate(6.825 22.786)" fill="#7b9fe1"/>
            <path id="Trazado_211450" data-name="Trazado 211450" d="M20.223,46.912l-.555.32-3.882-2.241.555-.32Z" transform="translate(8.274 23.415)" fill="#2d6ad8"/>
            <path id="Trazado_211451" data-name="Trazado 211451" d="M22.281,46.952l-.518.3L14.77,43.214l.517-.3Z" transform="translate(7.742 22.495)" fill="#7b9fe1"/>
            <path id="Trazado_211452" data-name="Trazado 211452" d="M22.446,46.629l-.555.32-6.4-3.7.555-.32Z" transform="translate(8.119 22.504)" fill="#2d6ad8"/>
            <path id="Trazado_211453" data-name="Trazado 211453" d="M26.4,44.625l-.518.3L18.76,40.812l.518-.3Z" transform="translate(9.833 21.236)" fill="#7b9fe1"/>
            <path id="Trazado_211454" data-name="Trazado 211454" d="M25.86,43.9l-.555.32-4.479-2.586.555-.32Z" transform="translate(10.916 21.653)" fill="#2d6ad8"/>
            <path id="Trazado_211455" data-name="Trazado 211455" d="M27.288,43.569l-.517.3-5.755-3.323.517-.3Z" transform="translate(11.016 21.096)" fill="#7b9fe1"/>
            <path id="Trazado_211456" data-name="Trazado 211456" d="M27.327,43.173l-.555.32-4.793-2.768.555-.32Z" transform="translate(11.52 21.179)" fill="#2d6ad8"/>
            <path id="Trazado_211457" data-name="Trazado 211457" d="M29.715,43.4l-.518.3-8.86-5.115.517-.3Z" transform="translate(10.66 20.069)" fill="#7b9fe1"/>
            <path id="Trazado_211458" data-name="Trazado 211458" d="M29.709,42.98l-.555.32-7.77-4.486.555-.32Z" transform="translate(11.208 20.177)" fill="#2d6ad8"/>
            <path id="Trazado_211459" data-name="Trazado 211459" d="M30.787,42.452l-.518.3-8.028-4.635.517-.3Z" transform="translate(11.658 19.823)" fill="#7b9fe1"/>
            <path id="Trazado_211460" data-name="Trazado 211460" d="M30.806,42.045l-.555.32-7.013-4.048.555-.32Z" transform="translate(12.181 19.917)" fill="#2d6ad8"/>
            <path id="Trazado_211461" data-name="Trazado 211461" d="M31.37,41.22l-.518.3-5.773-3.333.518-.3Z" transform="translate(13.145 19.859)" fill="#7b9fe1"/>
            <path id="Trazado_211462" data-name="Trazado 211462" d="M32.005,41.169l-.555.32L24.9,37.708l.555-.32Z" transform="translate(13.052 19.597)" fill="#2d6ad8"/>
            <path id="Trazado_211463" data-name="Trazado 211463" d="M22.094,45.277l-.518.3-2.5-1.443.518-.3Z" transform="translate(9.998 22.975)" fill="#7b9fe1"/>
            <path id="Trazado_211464" data-name="Trazado 211464" d="M23.111,45.446l-.555.32L18.17,43.233l.555-.32Z" transform="translate(9.524 22.493)" fill="#2d6ad8"/>
            <path id="Trazado_211465" data-name="Trazado 211465" d="M23.451,44.493l-.518.3-2.5-1.445.518-.3Z" transform="translate(10.709 22.565)" fill="#7b9fe1"/>
            <path id="Trazado_211466" data-name="Trazado 211466" d="M23.582,44.151l-.555.32-1.811-1.046.555-.32Z" transform="translate(11.121 22.594)" fill="#2d6ad8"/>
            <path id="Trazado_211467" data-name="Trazado 211467" d="M38.3,39.91l-23.03,13.3-.468-.27,23.03-13.3Z" transform="translate(7.759 20.778)" fill="#7b9fe1"/>
            <path id="Trazado_211468" data-name="Trazado 211468" d="M33.692,38.971l-.518.3L29.69,37.258l.517-.3Z" transform="translate(15.562 19.373)" fill="#7b9fe1"/>
            <path id="Trazado_211469" data-name="Trazado 211469" d="M33.832,38.633l-.555.32-2.82-1.628.555-.32Z" transform="translate(15.964 19.397)" fill="#2d6ad8"/>
            <path id="Trazado_211470" data-name="Trazado 211470" d="M34.3,37.758l-.518.3L32.468,37.3l.517-.3Z" transform="translate(17.018 19.393)" fill="#7b9fe1"/>
            <path id="Trazado_211471" data-name="Trazado 211471" d="M34.848,37.655l-.555.32L32.46,36.916l.555-.32Z" transform="translate(17.014 19.183)" fill="#2d6ad8"/>
            <path id="Trazado_211472" data-name="Trazado 211472" d="M36.595,37.511l-.518.3L32.05,35.484l.518-.3Z" transform="translate(16.799 18.443)" fill="#7b9fe1"/>
            <path id="Trazado_211473" data-name="Trazado 211473" d="M36.251,36.894l-.555.32-1.957-1.129.555-.32Z" transform="translate(17.685 18.747)" fill="#2d6ad8"/>
            <path id="Trazado_211474" data-name="Trazado 211474" d="M37.044,36.2l-.517.3-1.392-.8.518-.3Z" transform="translate(18.417 18.556)" fill="#7b9fe1"/>
            <path id="Trazado_211475" data-name="Trazado 211475" d="M37.718,36.175l-.555.32-2.277-1.315.555-.32Z" transform="translate(18.285 18.272)" fill="#2d6ad8"/>
            <path id="Trazado_211476" data-name="Trazado 211476" d="M43.17,35.035l-.518.3L35.3,31.088l.518-.3Z" transform="translate(18.502 16.139)" fill="#7b9fe1"/>
            <path id="Trazado_211477" data-name="Trazado 211477" d="M43.3,34.693l-.555.32-6.665-3.847.555-.322Z" transform="translate(18.912 16.168)" fill="#2d6ad8"/>
            <path id="Trazado_211478" data-name="Trazado 211478" d="M45.215,34.647l-.518.3-9.351-5.4.518-.3Z" transform="translate(18.527 15.331)" fill="#7b9fe1"/>
            <path id="Trazado_211479" data-name="Trazado 211479" d="M45.431,34.354l-.555.32-8.907-5.142.555-.32Z" transform="translate(18.853 15.312)" fill="#2d6ad8"/>
            <path id="Trazado_211480" data-name="Trazado 211480" d="M45.717,33.369l-.517.3-6.862-3.961.517-.3Z" transform="translate(20.095 15.415)" fill="#7b9fe1"/>
            <path id="Trazado_211481" data-name="Trazado 211481" d="M45.79,32.992l-.555.32-6-3.463.555-.322Z" transform="translate(20.565 15.478)" fill="#2d6ad8"/>
            <path id="Trazado_211482" data-name="Trazado 211482" d="M46.541,32.276l-.518.3-5.3-3.064.517-.3Z" transform="translate(21.342 15.312)" fill="#7b9fe1"/>
            <path id="Trazado_211483" data-name="Trazado 211483" d="M46.56,31.868l-.555.32-4.289-2.475.555-.32Z" transform="translate(21.865 15.407)" fill="#2d6ad8"/>
            <path id="Trazado_211484" data-name="Trazado 211484" d="M46.981,30.961l-.518.3-2.634-1.521.517-.3Z" transform="translate(22.973 15.432)" fill="#7b9fe1"/>
            <path id="Trazado_211485" data-name="Trazado 211485" d="M47.243,30.694l-.555.32-2.326-1.343.553-.32Z" transform="translate(23.252 15.385)" fill="#2d6ad8"/>
            <path id="Trazado_211486" data-name="Trazado 211486" d="M39.432,36.014l-.518.3L34.53,33.782l.517-.3Z" transform="translate(18.099 17.551)" fill="#7b9fe1"/>
            <path id="Trazado_211487" data-name="Trazado 211487" d="M40.042,35.948l-.555.32L34.4,33.331l.555-.32Z" transform="translate(18.031 17.304)" fill="#2d6ad8"/>
            <path id="Trazado_211488" data-name="Trazado 211488" d="M40.734,35.2l-.518.3-4.223-2.439.517-.3Z" transform="translate(18.865 17.172)" fill="#7b9fe1"/>
            <path id="Trazado_211489" data-name="Trazado 211489" d="M40.865,34.857l-.555.32-3.535-2.041.555-.32Z" transform="translate(19.276 17.201)" fill="#2d6ad8"/>
            <path id="Trazado_211490" data-name="Trazado 211490" d="M54.991,30.274l-23.03,13.3-.468-.27L54.523,30Z" transform="translate(16.507 15.728)" fill="#7b9fe1"/>
            <path id="Trazado_211491" data-name="Trazado 211491" d="M76.87,46.786c-7.377-.485-14.037,2.576-14.877,6.836s4.461,8.1,11.84,8.589S87.87,59.635,88.71,55.376s-4.461-8.105-11.84-8.59m5.975,8.2c-.471,2.39-4.207,4.106-8.346,3.835s-7.112-2.429-6.641-4.819S72.065,49.9,76.2,50.173s7.112,2.428,6.641,4.818" transform="translate(32.448 24.497)" fill="#2d6ad8"/>
            <path id="Trazado_211492" data-name="Trazado 211492" d="M87.422,55.121c.779-3.954-4.141-7.525-10.991-7.974S63.4,49.538,62.618,53.494s4.143,7.525,10.992,7.974,13.033-2.391,13.812-6.347M65.113,53.657c.622-3.16,5.562-5.429,11.033-5.069s9.4,3.211,8.781,6.371-5.562,5.427-11.033,5.069-9.4-3.211-8.781-6.371" transform="translate(32.779 24.688)" fill="#2d6ad8"/>
            <path id="Trazado_211493" data-name="Trazado 211493" d="M72.953,48.611c0-.008,1.692.108,2.244.2l.761-1.382c-.7-.122-2.757-.354-3.074-.376a20.888,20.888,0,0,0-5.26.607L68.606,49a22.322,22.322,0,0,1,4.347-.384" transform="translate(35.445 24.665)" fill="#86b1ff"/>
            <path id="Trazado_211494" data-name="Trazado 211494" d="M65.554,52.416l.079-.154a8.851,8.851,0,0,1,5.3-3.423l-.985-1.334c-3.076.788-5.467,2.07-6.857,4.155,0,0-.666,1.218-.472,1.521l2.5.165a3.387,3.387,0,0,1,.44-.93" transform="translate(32.802 24.9)" fill="#f25a5a"/>
            <path id="Trazado_211495" data-name="Trazado 211495" d="M79.525,53.549l2.515-.159a6.734,6.734,0,0,0-3.521-4.268l-.482-.268a16.1,16.1,0,0,0-4.467-1.513l-.761,1.382a12.938,12.938,0,0,1,3.507,1.186l.733.472a6.049,6.049,0,0,1,2.475,3.167" transform="translate(38.163 24.814)" fill="#97cc66"/>
            <path id="Trazado_211496" data-name="Trazado 211496" d="M77.245,59.167l-.465-1.439a17.438,17.438,0,0,1-2.888.067,11.888,11.888,0,0,1-7.5-2.836l-.518-.6a3.648,3.648,0,0,1-.776-2.838l-2.5-.165a4.609,4.609,0,0,0,1.065,3.707l.084.355.445.241c1.91,1.917,5.315,3.3,9.413,3.573a21.487,21.487,0,0,0,3.637-.069" transform="translate(32.78 26.921)" fill="#44bfe5"/>
            <path id="Trazado_211497" data-name="Trazado 211497" d="M87.823,55.2c.8-4.042-4.254-7.706-11.256-8.165s-13.348,2.457-14.144,6.5,4.252,7.7,11.254,8.165,13.348-2.455,14.146-6.5m-25.1-1.648c.779-3.954,6.964-6.8,13.813-6.345S88.3,51.227,87.525,55.181s-6.962,6.795-13.812,6.345-11.771-4.019-10.992-7.974" transform="translate(32.676 24.629)" fill="#2d6ad8"/>
            <path id="Trazado_211498" data-name="Trazado 211498" d="M84.063,54.46c.622-3.16-3.309-6.011-8.781-6.371S64.871,50,64.249,53.158s3.309,6.011,8.781,6.371,10.411-1.911,11.033-5.069M64.547,53.178c.6-3.059,5.4-5.264,10.7-4.917s9.119,3.12,8.517,6.179-5.4,5.264-10.7,4.917-9.119-3.12-8.517-6.179" transform="translate(33.642 25.187)" fill="#2d6ad8"/>
            <path id="Trazado_211499" data-name="Trazado 211499" d="M82.372,52.838a4.7,4.7,0,0,0,.052-1.385l-2.474.136a3.343,3.343,0,0,1-.026,1.09c-.48,2.44-3.664,4.455-7.8,4.978l.43,1.4c5.2-.633,9.212-3.16,9.816-6.222" transform="translate(37.805 26.97)" fill="#86b1ff"/>
            <path id="Trazado_211500" data-name="Trazado 211500" d="M36.046,44.288l-17.1,9.872-2.433-1.405,17.1-9.872Z" transform="translate(8.657 22.478)" fill="#2d6ad8"/>
            <path id="Trazado_211501" data-name="Trazado 211501" d="M20.531,50.166l-1.582.913-2.433-1.405L18.1,48.76Z" transform="translate(8.657 25.558)" fill="#f25a5a"/>
            <path id="Trazado_211502" data-name="Trazado 211502" d="M46.275,38.382l-17.1,9.872-2.433-1.405,17.1-9.872Z" transform="translate(14.018 19.382)" fill="#2d6ad8"/>
            <path id="Trazado_211503" data-name="Trazado 211503" d="M30.76,44.26l-1.582.913-2.433-1.405,1.581-.913Z" transform="translate(14.018 22.463)" fill="#97cc66"/>
            <path id="Trazado_211504" data-name="Trazado 211504" d="M56.5,32.476l-17.1,9.872-2.433-1.405,17.1-9.872Z" transform="translate(19.38 16.287)" fill="#2d6ad8"/>
            <path id="Trazado_211505" data-name="Trazado 211505" d="M40.989,38.354l-1.582.913-2.433-1.405,1.581-.913Z" transform="translate(19.38 19.367)" fill="#44bfe5"/>
            <path id="Trazado_211506" data-name="Trazado 211506" d="M54.963,70.774a.335.335,0,0,1,0,.636,1.217,1.217,0,0,1-1.1,0,.335.335,0,0,1,0-.636,1.217,1.217,0,0,1,1.1,0" transform="translate(28.112 37.028)" fill="#7b9fe1"/>
            <path id="Trazado_211507" data-name="Trazado 211507" d="M56.724,71.791a.336.336,0,0,1,0,.636,1.22,1.22,0,0,1-1.1,0,.336.336,0,0,1,0-.636,1.22,1.22,0,0,1,1.1,0" transform="translate(29.035 37.561)" fill="#7b9fe1"/>
            <path id="Trazado_211508" data-name="Trazado 211508" d="M72.376,60.726a.336.336,0,0,1,0,.636,1.22,1.22,0,0,1-1.1,0,.336.336,0,0,1,0-.636,1.22,1.22,0,0,1,1.1,0" transform="translate(37.239 31.761)" fill="#7b9fe1"/>
            <path id="Trazado_211509" data-name="Trazado 211509" d="M74.136,61.742a.336.336,0,0,1,0,.637,1.227,1.227,0,0,1-1.1,0,.336.336,0,0,1,0-.637,1.217,1.217,0,0,1,1.1,0" transform="translate(38.162 32.294)" fill="#7b9fe1"/>
            <path id="Trazado_211510" data-name="Trazado 211510" d="M68.53,66.818l1.6-.921-.207-.12-1.6.922Zm-7.119,4.111,3.574-2.064-.206-.119L61.2,70.81ZM65.267,68.7l2.983-1.722-.207-.119-2.983,1.722ZM61.13,71.092l-.207-.12L55.857,73.9l.207.119Zm9.277-5.357,2.268-1.309-.207-.119L70.2,65.616ZM55.271,73.528l1.672-.966-.207-.119-1.672.965Zm14.621-8.682.206.12,1.987-1.148L71.88,63.7Zm-3.672,2.359,3.6-2.077-.206-.119-3.6,2.077Zm-1.878,1.084,1.6-.922-.206-.119-1.6.922ZM62.077,69.6l1.986-1.146-.207-.12-1.984,1.146Zm-4.853,2.8L61.8,69.76l-.207-.119-4.572,2.64Z" transform="translate(28.862 33.389)" fill="#7b9fe1"/>
            <path id="Trazado_211511" data-name="Trazado 211511" d="M65.934,69.278l.207.119,2.983-1.722-.206-.12Zm-.073.28-.207-.119L62.079,71.5l.206.119Zm.636.341.206.12,1.986-1.146-.207-.12Zm2.265-1.308.207.119,1.6-.922-.206-.119Zm5.476-3.161-3.6,2.077.207.119,3.6-2.077ZM61.569,72.985l-.207-.12-3.838,2.216.206.119ZM72.477,65.5,69.2,67.393l.207.119,3.278-1.893ZM62,71.786l-.206-.12-5.1,2.946.207.119Zm10.754-6.447.206.119,1.916-1.107-.207-.119Zm-6.337,4.844-.206-.119L61.642,72.7l.207.119Z" transform="translate(29.717 33.668)" fill="#7b9fe1"/>
            <path id="Trazado_211512" data-name="Trazado 211512" d="M78.779,60.855l3.574-2.064-.206-.119-3.576,2.064Zm3.856-2.225,2.983-1.722-.207-.12-2.983,1.724ZM78.5,61.018l-.207-.12-5.066,2.926.207.119Zm-5.859,2.436,1.672-.966-.207-.119-1.672.965ZM87.26,54.772l.206.12,1.987-1.148-.206-.119Zm-3.672,2.359,3.6-2.077-.206-.119-3.6,2.077Zm-1.878,1.084,1.6-.922-.206-.119-1.6.922Zm-2.266,1.308,1.986-1.146-.207-.119L79.239,59.4Zm-4.853,2.8,4.572-2.64-.207-.119-4.572,2.64Z" transform="translate(37.965 28.109)" fill="#7b9fe1"/>
            <path id="Trazado_211513" data-name="Trazado 211513" d="M81.612,57.321l.207.119L84.8,55.717,84.6,55.6Z" transform="translate(42.777 29.143)" fill="#7b9fe1"/>
            <path id="Trazado_211514" data-name="Trazado 211514" d="M79.8,58.788l.207.119L82,57.761l-.206-.119Z" transform="translate(41.829 30.214)" fill="#7b9fe1"/>
            <path id="Trazado_211515" data-name="Trazado 211515" d="M82.657,56.835,79.083,58.9l.206.119,3.576-2.064Z" transform="translate(41.451 29.791)" fill="#7b9fe1"/>
            <path id="Trazado_211516" data-name="Trazado 211516" d="M84.376,56.367,81.29,58.149l.207.119,3.086-1.782Z" transform="translate(42.608 29.545)" fill="#7b9fe1"/>
            <path id="Trazado_211517" data-name="Trazado 211517" d="M81.584,58.414l-.207-.119-7.208,4.161.206.12Z" transform="translate(38.876 30.556)" fill="#7b9fe1"/>
            <path id="Trazado_211518" data-name="Trazado 211518" d="M83.754,55.809l.207.119,1.6-.921-.207-.12Z" transform="translate(43.9 28.77)" fill="#7b9fe1"/>
            <path id="Trazado_211519" data-name="Trazado 211519" d="M77.531,60.458l-.207-.119-2.586,1.494.207.119Z" transform="translate(39.174 31.628)" fill="#7b9fe1"/>
            <path id="Trazado_211520" data-name="Trazado 211520" d="M81.192,58.5l-4.572,2.64.207.119L81.4,58.62Z" transform="translate(40.16 30.664)" fill="#7b9fe1"/>
            <path id="Trazado_211521" data-name="Trazado 211521" d="M84.986,55.05l.207.119,1.353-.782-.207-.119Z" transform="translate(44.545 28.445)" fill="#7b9fe1"/>
            <path id="Trazado_211522" data-name="Trazado 211522" d="M57.752,65.735l-.291-.168,6.674-3.853.291.168ZM55.98,66.759l-.291-.169,1.236-.713.291.168Zm-7.791,4.5-.291-.168,7.255-4.19.291.169Zm-5.19,3-.291-.168L47.361,71.4l.291.168Zm15.97-11.477,6.674-3.853.291.168L59.26,62.946Zm7.211-4.162,2.83-1.634.291.168-2.83,1.634Zm-8.692,5.354L57.2,63.8l1.236-.715.291.169Zm-7.791,4.5L49.4,68.3,56.66,64.11l.291.168Zm-8.36,4.825-.291-.168,7.823-4.518.291.169ZM83.989,46.8l-.291-.168,3.929-2.268.291.168Zm-5.345,3.086-.291-.168,4.809-2.777.291.168Zm-3.263,1.884-.291-.168,2.727-1.574.291.168Zm-5.289,3.053L69.8,54.66l4.752-2.743.291.168Zm-4.85,2.8-.291-.169,4.313-2.49.291.169Zm-5.728,3.306-.291-.168,5.191-3,.291.168ZM53.854,64.2l-.293-.169,5.126-2.958.291.169ZM46.73,68.317l-.293-.168,6.587-3.8.293.168Zm-7.007,4.045-.291-.168,6.47-3.736.291.169ZM75.542,49.818l-.291-.168,10.762-6.214.291.169ZM70.2,52.906l-.291-.169,4.809-2.777.293.169Zm-5.761,3.326-.293-.168,5.226-3.018.291.169Zm-2.789,1.611-.291-.169,2.251-1.3.293.169ZM58.28,59.786l-.291-.168,2.83-1.634.291.168ZM51.069,63.95l-.291-.169,6.674-3.853.291.168ZM49.3,64.973l-.291-.168,1.236-.715.291.169Zm-7.791,4.5-.293-.169,7.256-4.188.291.168Zm-3.394,1.959-.291-.168,2.858-1.651.291.169ZM83.325,43.464l-.291-.169,1.367-.79.291.169Zm-2.6,1.5-.291-.168L82.5,43.606l.291.168Zm-5.345,3.086-.291-.168L79.9,45.1l.291.168Zm-5.763,3.327-.291-.168,5.226-3.018.291.169ZM66.83,52.987l-.291-.169,2.253-1.3.291.168Zm-4.85,2.8-.291-.169L66,53.129l.291.168Zm-5.728,3.306-.291-.168,5.191-3,.291.168Zm-5.661,3.269-.291-.168,5.124-2.96.291.169Zm-7.124,4.114-.291-.169,6.587-3.8.291.168ZM36.5,70.5l-.291-.168,6.435-3.716.291.169Zm37.616-23.58-.291-.168,8.965-5.178.293.169Zm-5.347,3.086-.291-.168,4.81-2.777.291.168ZM63,53.333l-.291-.168,5.226-3.018.291.168Zm-2.789,1.609-.291-.168,2.253-1.3.291.168Zm-3.367,1.945-.291-.169,2.83-1.634.291.169ZM49.638,61.05l-.291-.168,6.674-3.853.291.168Zm-1.773,1.024-.291-.168,1.236-.715.291.168Zm-7.791,4.5-.291-.168,7.255-4.188.291.168Zm-5.19,3-.291-.168,4.653-2.687.291.169Z" transform="translate(18.132 21.792)" fill="#7b9fe1"/>
            <path id="Trazado_211523" data-name="Trazado 211523" d="M41.7,36.032l-2.574,1.486-.276-.16,2.574-1.485Z" transform="translate(20.364 18.804)" fill="#e1e9f4"/>
            <path id="Trazado_211524" data-name="Trazado 211524" d="M42.163,35.467l-1.07.619-.276-.16,1.07-.617Z" transform="translate(21.394 18.508)" fill="#e1e9f4"/>
            <path id="Trazado_211525" data-name="Trazado 211525" d="M41.3,36.918l-1.407.812-.276-.16,1.407-.811Z" transform="translate(20.766 19.268)" fill="#e1e9f4"/>
            <path id="Trazado_211526" data-name="Trazado 211526" d="M44.256,35.56l-3.163,1.826-.276-.159L43.981,35.4Z" transform="translate(21.395 18.556)" fill="#e1e9f4"/>
            <path id="Trazado_211527" data-name="Trazado 211527" d="M45.192,34.738l-1.745,1.007-.276-.16,1.745-1.007Z" transform="translate(22.628 18.125)" fill="#e1e9f4"/>
            <path id="Trazado_211528" data-name="Trazado 211528" d="M31.566,41.883l-2.574,1.486-.276-.16,2.574-1.485Z" transform="translate(15.052 21.871)" fill="#e1e9f4"/>
            <path id="Trazado_211529" data-name="Trazado 211529" d="M32.028,41.318l-1.07.619-.276-.16,1.07-.617Z" transform="translate(16.082 21.575)" fill="#e1e9f4"/>
            <path id="Trazado_211530" data-name="Trazado 211530" d="M31.165,42.769l-1.405.812-.276-.16,1.405-.811Z" transform="translate(15.454 22.335)" fill="#e1e9f4"/>
            <path id="Trazado_211531" data-name="Trazado 211531" d="M34.122,41.411l-3.163,1.826-.276-.159,3.163-1.826Z" transform="translate(16.083 21.623)" fill="#e1e9f4"/>
            <path id="Trazado_211532" data-name="Trazado 211532" d="M35.057,40.589,33.312,41.6l-.276-.16,1.745-1.006Z" transform="translate(17.316 21.192)" fill="#e1e9f4"/>
            <path id="Trazado_211533" data-name="Trazado 211533" d="M21.431,47.735l-2.574,1.486-.274-.16,2.573-1.485Z" transform="translate(9.74 24.938)" fill="#e1e9f4"/>
            <path id="Trazado_211534" data-name="Trazado 211534" d="M21.894,47.17l-1.07.619-.276-.16,1.07-.617Z" transform="translate(10.77 24.642)" fill="#e1e9f4"/>
            <path id="Trazado_211535" data-name="Trazado 211535" d="M21.031,48.62l-1.407.812-.274-.16,1.405-.811Z" transform="translate(10.142 25.402)" fill="#e1e9f4"/>
            <path id="Trazado_211536" data-name="Trazado 211536" d="M23.987,47.262l-3.163,1.826-.276-.159L23.711,47.1Z" transform="translate(10.771 24.69)" fill="#e1e9f4"/>
            <path id="Trazado_211537" data-name="Trazado 211537" d="M24.923,46.441l-1.745,1.007-.276-.16,1.745-1.007Z" transform="translate(12.004 24.259)" fill="#e1e9f4"/>
            <path id="Trazado_211538" data-name="Trazado 211538" d="M58.036,36.028l.931-.538-.235-.136-.931.538ZM49.946,40.7l4.062-2.346-.235-.136-4.062,2.346Zm4.38-2.53,3.39-1.957-.235-.136-3.39,1.957Zm-4.7,2.715-.235-.136-5.757,3.324.235.136Zm-6.657,2.768,1.9-1.1-.235-.136-1.9,1.1ZM55.41,36.467l2.625-1.515-.235-.136-2.625,1.515ZM53.278,37.7l1.814-1.047-.235-.136-1.814,1.047ZM50.7,39.186l2.257-1.3-.235-.136-2.257,1.3ZM45.188,42.37l5.2-3-.235-.136-5.2,3Z" transform="translate(22.399 18.25)" fill="#e1e9f4"/>
            <path id="Trazado_211539" data-name="Trazado 211539" d="M59.014,35.532l.235.136-2.192,1.265-.235-.137Zm-5.325,4.15.235.136,2.257-1.3-.235-.136Zm2.815-2.7-4.062,2.346.235.136,4.062-2.346Zm1.847.009L56.264,38.2l.235.134,2.087-1.2Zm-5.994,2.655-.235-.134-8.191,4.728.235.134ZM48.09,43.186l-.235-.136-2.94,1.7.235.136Zm5.28-3.321-5.2,3,.235.136,5.2-3Z" transform="translate(23.026 18.625)" fill="#e1e9f4"/>
            <path id="Trazado_211540" data-name="Trazado 211540" d="M38.341,56.218l6.58-3.8-.235-.136-6.58,3.8Zm-.32.184-.235-.136L32.03,59.591l.235.136ZM31.364,59.17l1.9-1.1-.236-.136-1.9,1.1Zm10.309-5.953,1.814-1.047-.235-.136-1.814,1.047ZM39.1,54.7l2.257-1.3-.235-.136-2.257,1.3Zm-5.514,3.184,5.2-3-.235-.136-5.2,3Z" transform="translate(16.316 27.274)" fill="#e1e9f4"/>
            <path id="Trazado_211541" data-name="Trazado 211541" d="M40.376,55.977l.236.136,2.751-1.588-.235-.136Zm3.033-2.827-2.573,1.486.235.136,2.573-1.486Zm-2.657,1.806-.235-.136L32.325,59.55l.235.136ZM36.484,58.5l-.235-.136-2.94,1.7.236.136Zm3.573-2.333-3.489,2.013.235.136L40.292,56.3Z" transform="translate(16.943 27.859)" fill="#e1e9f4"/>
            <path id="Trazado_211542" data-name="Trazado 211542" d="M61.545,42.059l.235.136,3.172-1.832-.235-.136Zm-.084.32-.235-.136-4.281,2.471.235.136Zm-2.205,2.077.235.136,2.257-1.3-.236-.136Zm2.576-1.486.235.136L66.589,40.5l-.235-.136ZM56.366,46.4l-.236-.136-4.361,2.518.235.136Zm9.541-6.856-.872.5.236.136.87-.5Zm-9.046,5.493-.235-.136-5.8,3.347.235.136Zm2.311-.258-.235-.136L56.45,46.077l.235.136Z" transform="translate(26.642 20.726)" fill="#e1e9f4"/>
            <path id="Trazado_211543" data-name="Trazado 211543" d="M59.276,46.106l4.062-2.346-.235-.136-4.062,2.346Zm4.38-2.53,3.085-1.78-.235-.136-3.085,1.78Zm-4.7,2.715-.236-.136-5.757,3.324.235.136ZM52.3,49.058l1.9-1.1-.235-.136-1.9,1.1Zm12.443-7.185,2.618-1.512-.235-.136-2.62,1.512Zm-2.134,1.232,1.814-1.047-.235-.136-1.814,1.047Zm-2.576,1.488,2.257-1.3-.235-.136-2.257,1.3Zm-5.514,3.184,5.2-3-.235-.136-5.2,3Z" transform="translate(27.289 21.085)" fill="#e1e9f4"/>
            <path id="Trazado_211544" data-name="Trazado 211544" d="M33.563,48.812l.235.136,3.172-1.832-.235-.136Zm-.084.32L33.245,49l-4.281,2.471.235.136Zm-2.205,2.077.235.136,2.256-1.3-.235-.136Zm2.576-1.486.235.136,4.522-2.611-.235-.136ZM28.384,53.15l-.235-.136-4.362,2.518.235.136Zm9.541-6.856-.87.5.233.136.872-.5ZM28.88,51.787l-.235-.136L22.847,55l.235.136Zm2.311-.258-.235-.136L28.468,52.83l.235.136Z" transform="translate(11.975 24.266)" fill="#e1e9f4"/>
            <path id="Trazado_211545" data-name="Trazado 211545" d="M31.294,52.859l4.062-2.346-.235-.136L31.06,52.724Zm4.38-2.53,3.085-1.78-.235-.136-3.085,1.78Zm-4.7,2.715-.235-.136-5.757,3.324.235.136Zm-6.657,2.768,1.9-1.1-.235-.136-1.9,1.1ZM36.76,48.627l2.618-1.512-.235-.136-2.62,1.512Zm-2.134,1.232,1.814-1.047-.235-.136-1.814,1.047ZM32.05,51.346l2.257-1.3-.235-.136-2.257,1.3ZM26.536,54.53l5.2-3-.235-.136-5.2,3Z" transform="translate(12.623 24.625)" fill="#e1e9f4"/>
            <g id="Grupo_148627" data-name="Grupo 148627" transform="translate(11.979 48.836)" opacity="0.4" style="mix-blend-mode: multiply;isolation: isolate">
              <g id="Grupo_148626" data-name="Grupo 148626">
                <g id="Grupo_148625" data-name="Grupo 148625" clip-path="url(#clip-path-5)">
                  <path id="Trazado_211546" data-name="Trazado 211546" d="M93.529,78.545l10.75,6.231v7.485L92.144,99.268,92.13,91.79,81.249,85.483c-.425-.247-.456-.692-.137-1.262a5.175,5.175,0,0,1,.858-1.043l-9.735-5.642a67.763,67.763,0,0,1-21,2.865l-.791-.456c.221.006.44.024.661.029,10.064-.191,20.02-2.48,27.66-6.92C94.736,63.775,94.645,48.68,78.577,39.4c-7.689-4.44-17.669-6.731-27.736-6.921a65.051,65.051,0,0,0-19.154,3.161l3.807-2.2a70.649,70.649,0,0,1,15.351-1.392C62,31.847,73.28,34.179,81.8,39.1c16.356,9.442,16.443,24.812.186,34.258-.3.177-.637.325-.948.5l8.654,5.016a8.271,8.271,0,0,1,3.3-.5,1.556,1.556,0,0,1,.533.172M10.245,48.024A15.644,15.644,0,0,0,7.86,55.357l3.455,2c-.389-4.508,1.421-9.063,5.421-13.077Z" transform="translate(-7.859 -32.041)" fill="#ada6a3"/>
                </g>
              </g>
            </g>
          </g>
        </g>
        <g id="Grupo_148631" data-name="Grupo 148631" transform="translate(29.297 21.18)">
          <g id="Grupo_148630" data-name="Grupo 148630" clip-path="url(#clip-path-6)">
            <rect id="Rectángulo_39547" data-name="Rectángulo 39547" width="83.572" height="30.856" transform="translate(0 -0.001)" fill="url(#linear-gradient)"/>
          </g>
        </g>
        <g id="Grupo_148633" data-name="Grupo 148633" transform="translate(29.316 25.694)">
          <g id="Grupo_148632" data-name="Grupo 148632" clip-path="url(#clip-path-7)">
            <path id="Trazado_211548" data-name="Trazado 211548" d="M142.044,45.774l-69.113,39.9L3.462,45.568l69.113-39.9Z" transform="translate(-27.501 -22.725)" fill="#f8f5f4"/>
            <path id="Trazado_211549" data-name="Trazado 211549" d="M78.307,24.321l-1.954.3.992.573L59.031,35.771l.962.555L78.307,25.751l.907.524.524-1.128.523-1.128Z" transform="translate(1.625 -13.104)" fill="#86b1ff"/>
            <path id="Trazado_211550" data-name="Trazado 211550" d="M67.977,38.191l.523-1.128.994.573L87.808,27.062l.962.555L70.454,38.191l.908.524-1.955.3-1.954.3Z" transform="translate(6.039 -11.51)" fill="#2d6ad8"/>
            <path id="Trazado_211551" data-name="Trazado 211551" d="M51.765,40.154l.524,1.128.992-.573,14.553,8.4.962-.555-14.553-8.4.907-.524-1.954-.3-1.955-.3Z" transform="translate(-2.458 -5.239)" fill="#2d6ad8"/>
            <path id="Trazado_211552" data-name="Trazado 211552" d="M93.157,23.327l-1.954-.3.992-.573-14.553-8.4.962-.555,14.553,8.4.907-.523.524,1.128.523,1.128Z" transform="translate(11.381 -18.621)" fill="#86b1ff"/>
            <path id="Trazado_211553" data-name="Trazado 211553" d="M77,35.384l-31.7,18.3L30.376,45.066l31.7-18.3Z" transform="translate(-13.394 -11.666)" fill="#86b1ff"/>
            <path id="Trazado_211554" data-name="Trazado 211554" d="M112.052,15.148l-31.7,18.3L65.425,24.831l31.7-18.3Z" transform="translate(4.977 -22.272)" fill="#86b1ff"/>
            <path id="Trazado_211555" data-name="Trazado 211555" d="M65.945,29l-3.87-2.234-31.7,18.3,3.87,2.234Z" transform="translate(-13.394 -11.665)" fill="#2d6ad8"/>
            <path id="Trazado_211556" data-name="Trazado 211556" d="M100.995,8.764l-3.87-2.234-31.7,18.3L69.3,27.066Z" transform="translate(4.976 -22.272)" fill="#2d6ad8"/>
            <path id="Trazado_211557" data-name="Trazado 211557" d="M91.115,43.531l-31.7,18.3L44.488,53.216l31.7-18.3Z" transform="translate(-5.997 -7.395)" fill="#86b1ff"/>
            <path id="Trazado_211558" data-name="Trazado 211558" d="M126.164,23.3l-31.7,18.3L79.537,32.978l31.7-18.3Z" transform="translate(12.373 -18.001)" fill="#86b1ff"/>
            <path id="Trazado_211559" data-name="Trazado 211559" d="M80.057,37.147l-3.87-2.234-31.7,18.3,3.87,2.234Z" transform="translate(-5.997 -7.395)" fill="#2d6ad8"/>
            <path id="Trazado_211560" data-name="Trazado 211560" d="M115.106,16.911l-3.87-2.234-31.7,18.3,3.87,2.234Z" transform="translate(12.373 -18.001)" fill="#2d6ad8"/>
            <path id="Trazado_211561" data-name="Trazado 211561" d="M27.572,35.25l-.914.527-11.206-6.47.914-.527Z" transform="translate(-21.217 -10.609)" fill="#7b9fe1"/>
            <path id="Trazado_211562" data-name="Trazado 211562" d="M27.819,34.654l-.98.565-10.03-5.792.98-.565Z" transform="translate(-20.506 -10.566)" fill="#2d6ad8"/>
            <path id="Trazado_211563" data-name="Trazado 211563" d="M29.762,33.751l-.914.527-10.617-6.13.913-.527Z" transform="translate(-19.76 -11.217)" fill="#7b9fe1"/>
            <path id="Trazado_211564" data-name="Trazado 211564" d="M30.728,33.57l-.979.565L18.216,27.476l.98-.564Z" transform="translate(-19.768 -11.588)" fill="#2d6ad8"/>
            <path id="Trazado_211565" data-name="Trazado 211565" d="M33.123,32.917l-.914.527-13.4-7.738.914-.527Z" transform="translate(-19.459 -12.497)" fill="#7b9fe1"/>
            <path id="Trazado_211566" data-name="Trazado 211566" d="M31.521,31.254l-.979.565-6.854-3.957.979-.565Z" transform="translate(-16.9 -11.386)" fill="#2d6ad8"/>
            <path id="Trazado_211567" data-name="Trazado 211567" d="M35.155,31.325l-.914.527L21.893,24.724l.913-.529Z" transform="translate(-17.841 -13.012)" fill="#7b9fe1"/>
            <path id="Trazado_211568" data-name="Trazado 211568" d="M35.446,30.755l-.979.565-11.3-6.526.979-.565Z" transform="translate(-17.175 -12.995)" fill="#2d6ad8"/>
            <path id="Trazado_211569" data-name="Trazado 211569" d="M42.428,27.216l-.914.527L28.938,20.482l.913-.527Z" transform="translate(-14.148 -15.235)" fill="#7b9fe1"/>
            <path id="Trazado_211570" data-name="Trazado 211570" d="M41.474,25.927l-.979.565-7.91-4.566.98-.565Z" transform="translate(-12.236 -14.498)" fill="#2d6ad8"/>
            <path id="Trazado_211571" data-name="Trazado 211571" d="M44,25.352l-.914.527-10.16-5.866.913-.527Z" transform="translate(-12.06 -15.481)" fill="#7b9fe1"/>
            <path id="Trazado_211572" data-name="Trazado 211572" d="M44.063,24.652l-.98.565L34.62,20.331l.98-.565Z" transform="translate(-11.17 -15.334)" fill="#2d6ad8"/>
            <path id="Trazado_211573" data-name="Trazado 211573" d="M48.28,25.056l-.914.527L31.722,16.551l.913-.527Z" transform="translate(-12.689 -17.295)" fill="#7b9fe1"/>
            <path id="Trazado_211574" data-name="Trazado 211574" d="M48.269,24.311l-.98.565L33.57,16.955l.98-.565Z" transform="translate(-11.72 -17.103)" fill="#2d6ad8"/>
            <path id="Trazado_211575" data-name="Trazado 211575" d="M50.173,23.38l-.914.527L35.084,15.722,36,15.195Z" transform="translate(-10.926 -17.73)" fill="#7b9fe1"/>
            <path id="Trazado_211576" data-name="Trazado 211576" d="M50.207,22.661l-.98.565L36.847,16.078l.98-.565Z" transform="translate(-10.003 -17.563)" fill="#2d6ad8"/>
            <path id="Trazado_211577" data-name="Trazado 211577" d="M51.2,21.2l-.914.527L40.095,15.847l.914-.529Z" transform="translate(-8.3 -17.665)" fill="#7b9fe1"/>
            <path id="Trazado_211578" data-name="Trazado 211578" d="M52.325,21.114l-.98.565L39.781,15l.978-.565Z" transform="translate(-8.465 -18.127)" fill="#2d6ad8"/>
            <path id="Trazado_211579" data-name="Trazado 211579" d="M34.825,28.366l-.914.527-4.417-2.55.914-.527Z" transform="translate(-13.857 -12.163)" fill="#7b9fe1"/>
            <path id="Trazado_211580" data-name="Trazado 211580" d="M36.62,28.664l-.979.565-7.747-4.472.98-.565Z" transform="translate(-14.695 -13.014)" fill="#2d6ad8"/>
            <path id="Trazado_211581" data-name="Trazado 211581" d="M37.221,26.983l-.914.527-4.417-2.55.914-.527Z" transform="translate(-12.601 -12.888)" fill="#7b9fe1"/>
            <path id="Trazado_211582" data-name="Trazado 211582" d="M37.452,26.378l-.98.565-3.2-1.847.979-.565Z" transform="translate(-11.875 -12.836)" fill="#2d6ad8"/>
            <path id="Trazado_211583" data-name="Trazado 211583" d="M63.44,18.892,22.778,42.37l-.828-.479L62.614,18.415Z" transform="translate(-17.811 -16.042)" fill="#7b9fe1"/>
            <path id="Trazado_211584" data-name="Trazado 211584" d="M55.3,17.232l-.914.527-6.153-3.553.914-.527Z" transform="translate(-4.033 -18.524)" fill="#7b9fe1"/>
            <path id="Trazado_211585" data-name="Trazado 211585" d="M55.55,16.636l-.979.565-4.979-2.875.98-.565Z" transform="translate(-3.322 -18.481)" fill="#2d6ad8"/>
            <path id="Trazado_211586" data-name="Trazado 211586" d="M56.379,15.09l-.914.527-2.323-1.341.913-.527Z" transform="translate(-1.462 -18.488)" fill="#7b9fe1"/>
            <path id="Trazado_211587" data-name="Trazado 211587" d="M57.344,14.91l-.979.565L53.127,13.6l.98-.565Z" transform="translate(-1.47 -18.86)" fill="#2d6ad8"/>
            <path id="Trazado_211588" data-name="Trazado 211588" d="M92.909,1.877,52.246,25.355l-.828-.479L92.083,1.4Z" transform="translate(-2.365 -24.96)" fill="#7b9fe1"/>
            <path id="Trazado_211589" data-name="Trazado 211589" d="M59.459,26.621,29.272,44.05l-4.3-2.48L55.163,24.14Z" transform="translate(-16.226 -13.041)" fill="#2d6ad8"/>
            <path id="Trazado_211590" data-name="Trazado 211590" d="M32.064,37l-2.792,1.613-4.3-2.481,2.794-1.613Z" transform="translate(-16.226 -7.602)" fill="#f25a5a"/>
            <path id="Trazado_211591" data-name="Trazado 211591" d="M77.521,16.193,47.333,33.622l-4.3-2.48,30.189-17.43Z" transform="translate(-6.759 -18.507)" fill="#2d6ad8"/>
            <path id="Trazado_211592" data-name="Trazado 211592" d="M50.125,26.571l-2.792,1.613-4.3-2.481,2.792-1.613Z" transform="translate(-6.758 -13.068)" fill="#97cc66"/>
            <path id="Trazado_211593" data-name="Trazado 211593" d="M95.582,5.766,65.395,23.194l-4.3-2.48L91.285,3.284Z" transform="translate(2.708 -23.973)" fill="#2d6ad8"/>
            <path id="Trazado_211594" data-name="Trazado 211594" d="M68.187,16.143l-2.792,1.613-4.3-2.481,2.794-1.613Z" transform="translate(2.708 -18.533)" fill="#44bfe5"/>
            <path id="Trazado_211595" data-name="Trazado 211595" d="M69.443,12.044,64.9,14.668l-.488-.28,4.543-2.625Z" transform="translate(4.446 -19.529)" fill="#e1e9f4"/>
            <path id="Trazado_211596" data-name="Trazado 211596" d="M68.736,13.607,66.253,15.04l-.486-.28,2.481-1.433Z" transform="translate(5.156 -18.709)" fill="#e1e9f4"/>
            <path id="Trazado_211597" data-name="Trazado 211597" d="M51.549,22.375,47.005,25l-.488-.28,4.543-2.623Z" transform="translate(-4.934 -14.113)" fill="#e1e9f4"/>
            <path id="Trazado_211598" data-name="Trazado 211598" d="M52.365,21.377l-1.89,1.091-.488-.282,1.891-1.09Z" transform="translate(-3.115 -14.636)" fill="#e1e9f4"/>
            <path id="Trazado_211599" data-name="Trazado 211599" d="M50.842,23.938l-2.483,1.433-.486-.28,2.481-1.433Z" transform="translate(-4.223 -13.294)" fill="#e1e9f4"/>
            <path id="Trazado_211600" data-name="Trazado 211600" d="M56.062,21.541l-5.584,3.225-.488-.282,5.586-3.225Z" transform="translate(-3.114 -14.551)" fill="#e1e9f4"/>
            <path id="Trazado_211601" data-name="Trazado 211601" d="M57.713,20.09l-3.08,1.779-.486-.282,3.079-1.777Z" transform="translate(-0.935 -15.311)" fill="#e1e9f4"/>
            <path id="Trazado_211602" data-name="Trazado 211602" d="M33.655,32.707,29.11,35.33l-.486-.28,4.543-2.623Z" transform="translate(-14.313 -8.698)" fill="#e1e9f4"/>
            <path id="Trazado_211603" data-name="Trazado 211603" d="M34.471,31.709,32.581,32.8l-.488-.28,1.89-1.091Z" transform="translate(-12.494 -9.221)" fill="#e1e9f4"/>
            <path id="Trazado_211604" data-name="Trazado 211604" d="M32.948,34.27,30.465,35.7l-.486-.28,2.481-1.433Z" transform="translate(-13.603 -7.879)" fill="#e1e9f4"/>
            <path id="Trazado_211605" data-name="Trazado 211605" d="M38.168,31.872,32.583,35.1l-.488-.282,5.584-3.225Z" transform="translate(-12.493 -9.136)" fill="#e1e9f4"/>
            <path id="Trazado_211606" data-name="Trazado 211606" d="M39.819,30.422,36.738,32.2l-.486-.282,3.079-1.779Z" transform="translate(-10.314 -9.896)" fill="#e1e9f4"/>
            <path id="Trazado_211607" data-name="Trazado 211607" d="M98.287,12.034l1.645-.95-.415-.239-1.645.95ZM84,20.282l7.171-4.14-.415-.239-7.171,4.14Zm7.735-4.466,5.985-3.455-.415-.239-5.985,3.455Zm-8.3,4.792-.415-.239L72.859,26.238l.415.239ZM71.683,25.494l3.355-1.937-.415-.239-3.355,1.937ZM93.652,12.81l4.633-2.675L97.871,9.9l-4.633,2.675Zm-3.766,2.175,3.2-1.849-.415-.239-3.2,1.849ZM85.339,17.61l3.984-2.3-.416-.239-3.983,2.3ZM75.6,23.232l9.174-5.3L84.36,17.7l-9.174,5.3Z" transform="translate(8.039 -20.507)" fill="#e1e9f4"/>
            <path id="Trazado_211608" data-name="Trazado 211608" d="M100.011,11.159l.415.239-3.87,2.236-.415-.241Zm-9.4,7.33.415.239,3.983-2.3-.415-.239Zm4.967-4.769-7.171,4.14.415.239,7.171-4.14Zm3.263.017-3.684,2.126.415.239,3.684-2.126ZM88.257,18.425l-.415-.239L73.38,26.536l.415.239Zm-7.534,6.251-.415-.239-5.19,3,.415.239Zm9.323-5.862-9.174,5.3.415.239,9.174-5.3Z" transform="translate(9.146 -19.845)" fill="#e1e9f4"/>
            <path id="Trazado_211609" data-name="Trazado 211609" d="M63.511,47.684,75.13,40.976l-.415-.239L63.1,47.445Zm-.564.326-.415-.239L52.368,53.639l.415.241ZM51.192,52.9l3.355-1.937-.415-.239-3.355,1.937Zm18.2-10.509,3.2-1.849-.416-.241-3.2,1.85Zm-4.547,2.625,3.984-2.3-.416-.239-3.983,2.3ZM55.11,50.635l9.174-5.3-.415-.239L54.7,50.4Z" transform="translate(-2.701 -4.572)" fill="#e1e9f4"/>
            <path id="Trazado_211610" data-name="Trazado 211610" d="M67.1,47.261l.415.239,4.859-2.806-.415-.239Zm5.353-4.992-4.542,2.622.415.239,4.542-2.622Zm-4.69,3.187-.415-.239L52.889,53.566l.415.239Zm-7.535,6.251-.415-.239-5.19,3,.415.239Zm6.308-4.121-6.159,3.556.415.239,6.159-3.556Z" transform="translate(-1.594 -3.539)" fill="#e1e9f4"/>
            <path id="Trazado_211611" data-name="Trazado 211611" d="M104.482,22.686l.415.239,5.6-3.234-.415-.239Zm-.148.564-.415-.239-7.558,4.364.415.239Zm-3.893,3.67.415.239,3.983-2.3-.415-.239Zm4.547-2.626.415.239,7.985-4.611-.415-.239Zm-9.651,6.051-.415-.239-7.7,4.446.415.239Zm16.846-12.106-1.538.889.415.239,1.538-.889Zm-15.97,9.7L95.8,27.7,85.561,33.61l.415.239Zm4.079-.454-.415-.239-4.393,2.536.415.239Z" transform="translate(15.531 -16.134)" fill="#e1e9f4"/>
            <path id="Trazado_211612" data-name="Trazado 211612" d="M100.476,29.831l7.171-4.141-.415-.239-7.171,4.14Zm7.735-4.467,5.446-3.143-.415-.241L107.8,25.125Zm-8.3,4.792-.415-.239L89.333,35.786l.415.239ZM88.157,35.043l3.355-1.937-.415-.239L87.742,34.8Zm21.969-12.684,4.626-2.67-.415-.239-4.626,2.67Zm-3.766,2.175,3.2-1.849-.416-.239-3.2,1.849Zm-4.547,2.625,3.984-2.3-.416-.239-3.983,2.3Zm-9.738,5.623,9.174-5.3-.415-.239-9.174,5.3Z" transform="translate(16.674 -15.5)" fill="#e1e9f4"/>
            <path id="Trazado_211613" data-name="Trazado 211613" d="M55.074,34.609l.416.239,5.6-3.234-.413-.239Zm-.148.564-.415-.239L46.953,39.3l.415.239Zm-3.891,3.67.413.239,3.983-2.3-.415-.241Zm4.545-2.626.415.239,7.985-4.611-.413-.239Zm-9.651,6.051-.415-.239-7.7,4.446.413.239ZM62.775,30.162l-1.538.889.415.239,1.539-.889Zm-15.97,9.7-.415-.239L36.153,45.533l.415.239Zm4.08-.454-.416-.239L46.077,41.7l.416.239Z" transform="translate(-10.366 -9.885)" fill="#e1e9f4"/>
            <path id="Trazado_211614" data-name="Trazado 211614" d="M51.068,41.753l7.171-4.14-.415-.239-7.171,4.14ZM58.8,37.287l5.446-3.143-.415-.241-5.446,3.144Zm-8.3,4.792-.415-.239L39.925,47.708l.415.241ZM38.749,46.966,42.1,45.028l-.415-.239-3.355,1.937ZM60.718,34.282l4.626-2.67-.415-.239L60.3,34.042Zm-3.766,2.175,3.2-1.849-.415-.239-3.2,1.849ZM52.4,39.081l3.984-2.3-.416-.239-3.983,2.3ZM42.667,44.7l9.174-5.3-.415-.239-9.174,5.3Z" transform="translate(-9.223 -9.25)" fill="#e1e9f4"/>
          </g>
        </g>
        <g id="Grupo_148635" data-name="Grupo 148635" transform="translate(0 -0.001)">
          <g id="Grupo_148634" data-name="Grupo 148634" clip-path="url(#clip-path-2)">
            <path id="Trazado_211616" data-name="Trazado 211616" d="M31.353,25.026c16.244-9.439,42.754-9.436,59.1,0,7.557,4.362,11.632,9.991,12.231,15.715.69-6.7-3.384-13.541-12.231-18.649-16.343-9.436-42.853-9.439-59.1,0-8.73,5.072-12.734,11.858-12.036,18.515C19.9,34.93,23.9,29.355,31.353,25.026" transform="translate(10.084 7.87)" fill="#6f96c1"/>
          </g>
        </g>
        <g id="Grupo_148637" data-name="Grupo 148637" transform="translate(28.547 45.25)">
          <g id="Grupo_148636" data-name="Grupo 148636" clip-path="url(#clip-path-9)">
            <rect id="Rectángulo_39549" data-name="Rectángulo 39549" width="85.075" height="33.691" transform="translate(-0.018 0.001)" fill="url(#linear-gradient-2)"/>
          </g>
        </g>
        <g id="Grupo_148639" data-name="Grupo 148639" transform="translate(28.566 20.742)">
          <g id="Grupo_148638" data-name="Grupo 148638" clip-path="url(#clip-path-10)">
            <rect id="Rectángulo_39550" data-name="Rectángulo 39550" width="93.42" height="53.585" transform="translate(-4.19 -1.924)" fill="url(#linear-gradient-3)"/>
          </g>
        </g>
        <g id="Grupo_148641" data-name="Grupo 148641" transform="translate(0 -0.001)">
          <g id="Grupo_148640" data-name="Grupo 148640" clip-path="url(#clip-path-2)">
            <path id="Trazado_211619" data-name="Trazado 211619" d="M79.547,49a1.271,1.271,0,0,1,.4.145L68.531,42.581a1.244,1.244,0,0,0-.4-.145c-1.251-.238-3.281.927-4.531,2.6a4.063,4.063,0,0,0-.939,2.273,1.135,1.135,0,0,0,.537,1.053l11.417,6.565a1.3,1.3,0,0,0,.4.143c1.251.239,3.281-.925,4.533-2.6a4.063,4.063,0,0,0,.939-2.272,1.108,1.108,0,0,0-.939-1.2" transform="translate(32.842 22.228)" fill="#c7c6c4"/>
          </g>
        </g>
        <g id="Grupo_148643" data-name="Grupo 148643" transform="translate(105.255 69.594)">
          <g id="Grupo_148642" data-name="Grupo 148642" clip-path="url(#clip-path-12)">
            <rect id="Rectángulo_39552" data-name="Rectángulo 39552" width="48.457" height="32.045" transform="translate(0 0.001)" fill="url(#linear-gradient-4)"/>
          </g>
        </g>
        <g id="Grupo_148650" data-name="Grupo 148650" transform="translate(0 -0.001)">
          <g id="Grupo_148649" data-name="Grupo 148649" clip-path="url(#clip-path-2)">
            <g id="Grupo_148648" data-name="Grupo 148648" transform="translate(146.2 92.633)" style="mix-blend-mode: screen;isolation: isolate">
              <g id="Grupo_148647" data-name="Grupo 148647">
                <g id="Grupo_148646" data-name="Grupo 148646" clip-path="url(#clip-path-14)">
                  <g id="Grupo_148645" data-name="Grupo 148645" transform="translate(0 0)">
                    <g id="Grupo_148644" data-name="Grupo 148644" clip-path="url(#clip-path-15)">
                      <rect id="Rectángulo_39553" data-name="Rectángulo 39553" width="8.6" height="8.538" transform="translate(-3.135 2.193) rotate(-41.987)" fill="url(#linear-gradient-5)"/>
                    </g>
                  </g>
                </g>
              </g>
            </g>
          </g>
        </g>
      </g>
    </g>
  </g>
</svg>
