<svg xmlns="http://www.w3.org/2000/svg" xmlns:xlink="http://www.w3.org/1999/xlink" width="610" height="610" viewBox="0 0 610 610">
  <defs>
    <clipPath id="clip-path">
      <rect id="Rectángulo_40271" data-name="Rectángulo 40271" width="610" height="610" fill="none"/>
    </clipPath>
    <clipPath id="clip-path-2">
      <path id="Trazado_214324" data-name="Trazado 214324" d="M211.477,211.8a154.445,154.445,0,1,0,109.209-45.236A154.445,154.445,0,0,0,211.477,211.8" transform="translate(-166.241 -166.562)" fill="none"/>
    </clipPath>
    <linearGradient id="linear-gradient" x1="-0.151" y1="1.134" x2="-0.149" y2="1.134" gradientUnits="objectBoundingBox">
      <stop offset="0" stop-color="#fff"/>
      <stop offset="0.316" stop-color="#f4f4f4"/>
      <stop offset="0.865" stop-color="#d8d8d8"/>
      <stop offset="1" stop-color="#d0d0d0"/>
    </linearGradient>
    <clipPath id="clip-path-3">
      <path id="Trazado_214325" data-name="Trazado 214325" d="M218.189,218.51A146.169,146.169,0,1,0,321.547,175.7,146.168,146.168,0,0,0,218.189,218.51" transform="translate(-175.376 -175.697)" fill="none"/>
    </clipPath>
    <linearGradient id="linear-gradient-2" x1="-0.187" y1="1.171" x2="-0.185" y2="1.171" gradientUnits="objectBoundingBox">
      <stop offset="0" stop-color="#e5e5e5"/>
      <stop offset="0.207" stop-color="#eee"/>
      <stop offset="0.61" stop-color="#fafafa"/>
      <stop offset="1" stop-color="#fff"/>
    </linearGradient>
  </defs>
  <g id="Grupo_149988" data-name="Grupo 149988" transform="translate(-495 -510)">
    <g id="Grupo_149946" data-name="Grupo 149946" transform="translate(495 510)">
      <g id="Grupo_149939" data-name="Grupo 149939">
        <g id="Grupo_149938" data-name="Grupo 149938" clip-path="url(#clip-path)">
          <path id="Trazado_214320" data-name="Trazado 214320" d="M333.08,0a310.146,310.146,0,0,0-35.261,2.023l80.642,80.642-75.546,75.547a149.9,149.9,0,0,1,30.166-3.051c72.291,0,132.79,51.46,146.788,119.673l75.546,75.546,80.642-80.642A305.043,305.043,0,0,0,333.08,0" transform="translate(-28.081)" fill="#ffb300"/>
          <path id="Trazado_214321" data-name="Trazado 214321" d="M478.815,302.914a149.98,149.98,0,0,1,3.051,30.167c0,72.29-51.46,132.789-119.673,146.787l-75.546,75.546,80.642,80.642A305.045,305.045,0,0,0,637.027,333.08,310.175,310.175,0,0,0,635,297.818L554.361,378.46Z" transform="translate(-27.027 -28.081)" fill="#99c8f2"/>
          <path id="Trazado_214322" data-name="Trazado 214322" d="M335.377,478.814a149.916,149.916,0,0,1-30.167,3.051c-72.29,0-132.789-51.46-146.787-119.672L82.876,286.646,2.235,367.288A305.043,305.043,0,0,0,305.21,637.026,309.964,309.964,0,0,0,340.472,635L259.83,554.36Z" transform="translate(-0.211 -27.027)" fill="#a7ddda"/>
          <path id="Trazado_214323" data-name="Trazado 214323" d="M158.213,335.377a149.975,149.975,0,0,1-3.051-30.167c0-72.291,51.46-132.79,119.672-146.788l75.546-75.546L269.738,2.234A305.045,305.045,0,0,0,0,305.21a310.135,310.135,0,0,0,2.024,35.261l80.641-80.642Z" transform="translate(0 -0.211)" fill="#039d95"/>
        </g>
      </g>
      <g id="Grupo_149941" data-name="Grupo 149941" transform="translate(150.567 150.857)">
        <g id="Grupo_149940" data-name="Grupo 149940" clip-path="url(#clip-path-2)">
          <rect id="Rectángulo_40272" data-name="Rectángulo 40272" width="468.822" height="468.822" transform="translate(-177.063 161.984) rotate(-45)" fill="url(#linear-gradient)"/>
        </g>
      </g>
      <g id="Grupo_149943" data-name="Grupo 149943" transform="translate(158.84 159.131)">
        <g id="Grupo_149942" data-name="Grupo 149942" clip-path="url(#clip-path-3)">
          <rect id="Rectángulo_40273" data-name="Rectángulo 40273" width="443.707" height="443.707" transform="translate(-167.577 153.306) rotate(-45)" fill="url(#linear-gradient-2)"/>
        </g>
      </g>
      <g id="Grupo_149945" data-name="Grupo 149945">
        <g id="Grupo_149944" data-name="Grupo 149944" clip-path="url(#clip-path)">
          <path id="Trazado_214326" data-name="Trazado 214326" d="M334.093,233.678H264.922V355.962h92.062V251.579c-7.43-15.112-22.891-17.9-22.891-17.9" transform="translate(-24.979 -22.033)" fill="#f4f4f4"/>
          <rect id="Rectángulo_40274" data-name="Rectángulo 40274" width="30.339" height="6.683" transform="translate(292.724 223.967)" fill="#c4c4c4"/>
          <rect id="Rectángulo_40275" data-name="Rectángulo 40275" width="30.339" height="1.859" transform="translate(292.724 232.569)" fill="#c4c4c4"/>
          <rect id="Rectángulo_40276" data-name="Rectángulo 40276" width="30.339" height="1.86" transform="translate(292.724 234.893)" fill="#c4c4c4"/>
          <path id="Trazado_214327" data-name="Trazado 214327" d="M341.294,233.678c6.974,10,3.836,21.272,3.836,21.272,11.276-6.625,19.055-3.37,19.055-3.37-7.43-15.112-22.891-17.9-22.891-17.9" transform="translate(-32.18 -22.033)" fill="#d8d8d8"/>
          <rect id="Rectángulo_40277" data-name="Rectángulo 40277" width="4.417" height="35.105" transform="translate(254.714 247.214)" fill="#42aa92"/>
          <rect id="Rectángulo_40278" data-name="Rectángulo 40278" width="4.417" height="21.931" transform="translate(260.294 260.388)" fill="#342f2d"/>
          <rect id="Rectángulo_40279" data-name="Rectángulo 40279" width="4.417" height="28.284" transform="translate(266.338 254.034)" fill="#41cfc1"/>
          <path id="Trazado_214328" data-name="Trazado 214328" d="M277.32,309.842V261.079h-.581v49.344h49.053v-.581Z" transform="translate(-26.093 -24.617)" fill="#3c3c3b"/>
          <rect id="Rectángulo_40280" data-name="Rectángulo 40280" width="4.417" height="18.249" transform="translate(286.099 264.07)" fill="#42aa92"/>
          <rect id="Rectángulo_40281" data-name="Rectángulo 40281" width="4.417" height="28.284" transform="translate(280.636 254.034)" fill="#342f2d"/>
          <rect id="Rectángulo_40282" data-name="Rectángulo 40282" width="4.417" height="24.643" transform="translate(291.911 257.676)" fill="#41cfc1"/>
          <path id="Trazado_214329" data-name="Trazado 214329" d="M317.742,253.863a7.672,7.672,0,1,1-7.671-7.671,7.671,7.671,0,0,1,7.671,7.671" transform="translate(-28.512 -23.213)" fill="#42aa92"/>
          <rect id="Rectángulo_40283" data-name="Rectángulo 40283" width="5.735" height="5.734" transform="translate(301.365 258.684)" fill="#42aa92"/>
          <rect id="Rectángulo_40284" data-name="Rectángulo 40284" width="5.735" height="5.735" transform="translate(301.365 267.983)" fill="#342f2d"/>
          <rect id="Rectángulo_40285" data-name="Rectángulo 40285" width="5.735" height="5.735" transform="translate(301.365 277.282)" fill="#41cfc1"/>
          <rect id="Rectángulo_40286" data-name="Rectángulo 40286" width="13.174" height="1.705" transform="translate(309.889 258.684)" fill="#c4c4c4"/>
          <rect id="Rectángulo_40287" data-name="Rectángulo 40287" width="13.174" height="2.477" transform="translate(309.889 261.185)" fill="#c4c4c4"/>
          <rect id="Rectángulo_40288" data-name="Rectángulo 40288" width="13.174" height="1.705" transform="translate(309.889 267.983)" fill="#c4c4c4"/>
          <rect id="Rectángulo_40289" data-name="Rectángulo 40289" width="13.174" height="2.477" transform="translate(309.889 270.484)" fill="#c4c4c4"/>
          <rect id="Rectángulo_40290" data-name="Rectángulo 40290" width="13.174" height="1.705" transform="translate(309.889 277.282)" fill="#c4c4c4"/>
          <rect id="Rectángulo_40291" data-name="Rectángulo 40291" width="13.174" height="2.477" transform="translate(309.889 279.783)" fill="#c4c4c4"/>
          <rect id="Rectángulo_40292" data-name="Rectángulo 40292" width="37.661" height="9.532" transform="translate(250.646 290.456)" fill="#c4c4c4"/>
          <rect id="Rectángulo_40293" data-name="Rectángulo 40293" width="15.692" height="14.956" transform="translate(250.646 302.003)" fill="#335951"/>
          <rect id="Rectángulo_40294" data-name="Rectángulo 40294" width="19.761" height="1.007" transform="translate(268.546 302.003)" fill="#c4c4c4"/>
          <rect id="Rectángulo_40295" data-name="Rectángulo 40295" width="19.761" height="1.007" transform="translate(268.546 304.328)" fill="#c4c4c4"/>
          <rect id="Rectángulo_40296" data-name="Rectángulo 40296" width="19.761" height="1.007" transform="translate(268.546 306.652)" fill="#c4c4c4"/>
          <rect id="Rectángulo_40297" data-name="Rectángulo 40297" width="19.761" height="1.007" transform="translate(268.546 308.977)" fill="#c4c4c4"/>
          <rect id="Rectángulo_40298" data-name="Rectángulo 40298" width="19.761" height="1.007" transform="translate(268.546 311.302)" fill="#c4c4c4"/>
          <rect id="Rectángulo_40299" data-name="Rectángulo 40299" width="19.761" height="1.007" transform="translate(268.546 313.626)" fill="#c4c4c4"/>
          <rect id="Rectángulo_40300" data-name="Rectángulo 40300" width="19.761" height="1.007" transform="translate(268.546 315.951)" fill="#c4c4c4"/>
          <rect id="Rectángulo_40301" data-name="Rectángulo 40301" width="37.661" height="3.953" transform="translate(250.646 319.283)" fill="#c4c4c4"/>
          <rect id="Rectángulo_40302" data-name="Rectángulo 40302" width="28.944" height="2.247" transform="translate(294.119 290.457)" fill="#c4c4c4"/>
          <rect id="Rectángulo_40303" data-name="Rectángulo 40303" width="28.944" height="16.584" transform="translate(294.119 295.221)" fill="#c4c4c4"/>
          <rect id="Rectángulo_40304" data-name="Rectángulo 40304" width="19.761" height="1.007" transform="translate(303.302 313.123)" fill="#c4c4c4"/>
          <rect id="Rectángulo_40305" data-name="Rectángulo 40305" width="19.761" height="1.007" transform="translate(303.302 315.448)" fill="#c4c4c4"/>
          <rect id="Rectángulo_40306" data-name="Rectángulo 40306" width="19.761" height="1.007" transform="translate(303.302 317.773)" fill="#c4c4c4"/>
          <path id="Rectángulo_40307" data-name="Rectángulo 40307" d="M3.154,0H59.684a3.153,3.153,0,0,1,3.153,3.153v75.5A3.154,3.154,0,0,1,59.683,81.8H3.153A3.153,3.153,0,0,1,0,78.651V3.154A3.154,3.154,0,0,1,3.154,0Z" transform="translate(325.293 265.453)" fill="#352f2d"/>
          <path id="Trazado_214330" data-name="Trazado 214330" d="M414.449,299.615H367.795a2.857,2.857,0,0,0-2.857,2.857v13.012a2.856,2.856,0,0,0,2.857,2.856h46.654a2.856,2.856,0,0,0,2.857-2.856V302.472a2.857,2.857,0,0,0-2.857-2.857" transform="translate(-34.409 -28.25)" fill="#88bfb7"/>
          <path id="Trazado_214331" data-name="Trazado 214331" d="M407.243,299.615h-6.133l-13.91,18.1a2.613,2.613,0,0,0-.35.621h6.277l13.666-17.786a2.544,2.544,0,0,0,.45-.938" transform="translate(-36.475 -28.25)" fill="#ccfef8"/>
          <path id="Trazado_214332" data-name="Trazado 214332" d="M405.143,310.852a1.379,1.379,0,0,0,1.934-.254l8.44-10.984h-3.479l-7.149,9.3a1.379,1.379,0,0,0,.254,1.934" transform="translate(-38.149 -28.25)" fill="#ccfef8"/>
          <rect id="Rectángulo_40308" data-name="Rectángulo 40308" width="12.854" height="25.073" rx="3.154" transform="translate(369.963 315.877)" fill="#41cfc1"/>
          <rect id="Rectángulo_40309" data-name="Rectángulo 40309" width="11.538" height="11.538" rx="2.189" transform="translate(330.648 329.412)" fill="#776b69"/>
          <rect id="Rectángulo_40310" data-name="Rectángulo 40310" width="11.538" height="11.538" rx="2.189" transform="translate(343.628 329.412)" fill="#776b69"/>
          <rect id="Rectángulo_40311" data-name="Rectángulo 40311" width="11.538" height="11.538" rx="2.189" transform="translate(356.958 329.412)" fill="#776b69"/>
          <rect id="Rectángulo_40312" data-name="Rectángulo 40312" width="11.538" height="11.538" rx="2.189" transform="translate(330.648 315.877)" fill="#776b69"/>
          <rect id="Rectángulo_40313" data-name="Rectángulo 40313" width="11.538" height="11.538" rx="2.189" transform="translate(343.628 315.877)" fill="#776b69"/>
          <rect id="Rectángulo_40314" data-name="Rectángulo 40314" width="11.538" height="11.538" rx="2.189" transform="translate(356.958 315.877)" fill="#776b69"/>
          <rect id="Rectángulo_40315" data-name="Rectángulo 40315" width="11.538" height="11.538" rx="2.189" transform="translate(330.473 302.309)" fill="#776b69"/>
          <rect id="Rectángulo_40316" data-name="Rectángulo 40316" width="11.538" height="11.538" rx="2.189" transform="translate(343.453 302.309)" fill="#776b69"/>
          <rect id="Rectángulo_40317" data-name="Rectángulo 40317" width="11.538" height="11.538" rx="2.189" transform="translate(356.783 302.309)" fill="#776b69"/>
          <rect id="Rectángulo_40318" data-name="Rectángulo 40318" width="12.854" height="11.539" rx="3.154" transform="translate(369.963 302.308)" fill="#42aa92"/>
          <path id="Rectángulo_40319" data-name="Rectángulo 40319" d="M2.9,0H34.952a2.9,2.9,0,0,1,2.9,2.9v0a2.9,2.9,0,0,1-2.9,2.9H2.9A2.9,2.9,0,0,1,0,2.9v0A2.9,2.9,0,0,1,2.9,0Z" transform="translate(330.473 293.422)" fill="#e04327"/>
          <rect id="Rectángulo_40320" data-name="Rectángulo 40320" width="12.049" height="5.991" rx="2.996" transform="translate(370.768 293.422)" fill="#982023"/>
          <path id="Rectángulo_40321" data-name="Rectángulo 40321" d="M2.9,0H4.151A2.894,2.894,0,0,1,7.044,2.894V9.283A2.894,2.894,0,0,1,4.15,12.177H2.9A2.9,2.9,0,0,1,0,9.282V2.9A2.9,2.9,0,0,1,2.9,0Z" transform="translate(220.835 281.851) rotate(-38.099)" fill="#352f2d"/>
          <path id="Trazado_214333" data-name="Trazado 214333" d="M292.013,359.05a2.6,2.6,0,0,0-.418-.777l-30.987-39.517-1.82-2.32-1.609-2.053c-.033-.042-.068-.079-.1-.118a2.619,2.619,0,0,0-3.578-.328l-3.352,2.628a2.621,2.621,0,0,0-.446,3.68l1.61,2.053,1.82,2.32,30.987,39.516a2.607,2.607,0,0,0,.694.615q.151.124.307.237c2.648,1.953,6.331,2.041,6.934,1.567.755-.591,1.5-4.413-.04-7.5" transform="translate(-23.491 -29.548)" fill="#e04327"/>
          <path id="Trazado_214334" data-name="Trazado 214334" d="M298.363,374.173a.874.874,0,0,1-1.226-.149l-2.8-3.567a.873.873,0,1,1,1.375-1.078l2.8,3.567a.873.873,0,0,1-.149,1.226" transform="translate(-27.735 -34.796)" fill="#352f2d"/>
          <path id="Trazado_214335" data-name="Trazado 214335" d="M292.878,366.646c.755-.592,1.5-4.413-.04-7.5a2.618,2.618,0,0,0-.418-.778l-30.987-39.516-1.82-2.32L258,314.474c-.033-.041-.068-.079-.1-.117l28.042,50.723c2.648,1.953,6.331,2.04,6.934,1.567" transform="translate(-24.317 -29.64)" fill="#ed5b48"/>
          <rect id="Rectángulo_40322" data-name="Rectángulo 40322" width="9.502" height="2.948" transform="translate(227.819 292.75) rotate(-38.098)" fill="#352f2d"/>
          <path id="Trazado_214336" data-name="Trazado 214336" d="M267.565,333.276a1.073,1.073,0,0,1-1.508-.182l-11.793-15.039a1.074,1.074,0,0,1,1.691-1.326l11.792,15.039a1.073,1.073,0,0,1-.182,1.508" transform="translate(-23.952 -29.825)" fill="#352f2d"/>
          <path id="Trazado_214337" data-name="Trazado 214337" d="M377.478,241.036v19.139h19.139a19.138,19.138,0,0,0-19.139-19.139" transform="translate(-35.591 -22.727)" fill="#42aa92"/>
          <path id="Trazado_214338" data-name="Trazado 214338" d="M373.908,243.045a19.139,19.139,0,1,0,14.166,32.008l-14.166-12.869Z" transform="translate(-33.45 -22.916)" fill="#015e59"/>
          <path id="Trazado_214339" data-name="Trazado 214339" d="M377.622,263.458l14.166,12.869a19.07,19.07,0,0,0,4.972-12.869Z" transform="translate(-35.605 -24.841)" fill="#342f2d"/>
          <path id="Trazado_214340" data-name="Trazado 214340" d="M353.667,379.171c0-1.458-.855-2.64-1.909-2.64H329.484c-1.054,0-1.909,1.182-1.909,2.64v2.77c0,.082,0,.164.009.245,0,.053-.009.105-.009.158,0,3.21,5.841,5.812,13.046,5.812s13.046-2.6,13.046-5.812c0-.053-.005-.105-.009-.158.005-.081.009-.162.009-.245Z" transform="translate(-30.886 -35.502)" fill="#f4bd31"/>
          <path id="Trazado_214341" data-name="Trazado 214341" d="M353.667,378.4c0,3.21-5.841,5.812-13.046,5.812s-13.046-2.6-13.046-5.812,5.841-5.812,13.046-5.812,13.046,2.6,13.046,5.812" transform="translate(-30.886 -35.13)" fill="#f2d453"/>
          <path id="Trazado_214342" data-name="Trazado 214342" d="M350.466,373.06c0-1.458-.855-2.64-1.909-2.64H326.283c-1.054,0-1.909,1.182-1.909,2.64v2.77c0,.082,0,.164.009.245,0,.053-.009.105-.009.158,0,3.21,5.841,5.812,13.046,5.812s13.046-2.6,13.046-5.812c0-.053-.006-.105-.009-.158.005-.081.009-.162.009-.245Z" transform="translate(-30.584 -34.926)" fill="#f4bd31"/>
          <path id="Trazado_214343" data-name="Trazado 214343" d="M350.466,372.286c0,3.21-5.841,5.812-13.046,5.812s-13.046-2.6-13.046-5.812,5.841-5.812,13.046-5.812,13.046,2.6,13.046,5.812" transform="translate(-30.584 -34.554)" fill="#f2d453"/>
          <path id="Trazado_214344" data-name="Trazado 214344" d="M354.81,367.043c0-1.458-.855-2.641-1.909-2.641H330.627c-1.054,0-1.909,1.183-1.909,2.641v2.77c0,.083,0,.164.009.245,0,.053-.009.105-.009.158,0,3.21,5.841,5.812,13.046,5.812s13.046-2.6,13.046-5.812c0-.053-.005-.105-.009-.158.005-.081.009-.161.009-.245Z" transform="translate(-30.994 -34.359)" fill="#f4bd31"/>
          <path id="Trazado_214345" data-name="Trazado 214345" d="M354.81,366.27c0,3.21-5.841,5.812-13.046,5.812s-13.046-2.6-13.046-5.812,5.841-5.812,13.046-5.812,13.046,2.6,13.046,5.812" transform="translate(-30.994 -33.987)" fill="#f2d453"/>
          <path id="Trazado_214346" data-name="Trazado 214346" d="M320.66,382.595c.031-1.408-.769-2.567-1.786-2.589l-21.494-.475c-1.017-.023-1.868,1.1-1.9,2.508l-.059,2.673c0,.08,0,.158,0,.236,0,.051-.011.1-.012.151-.069,3.1,5.512,5.734,12.465,5.887s12.645-2.233,12.714-5.33c0-.051,0-.1-.005-.151.007-.078.013-.157.014-.236Z" transform="translate(-27.854 -35.785)" fill="#f4bd31"/>
          <path id="Trazado_214347" data-name="Trazado 214347" d="M320.676,381.872c-.068,3.1-5.76,5.484-12.713,5.33s-12.534-2.79-12.465-5.887,5.76-5.484,12.713-5.331,12.534,2.79,12.465,5.888" transform="translate(-27.862 -35.45)" fill="#f2d453"/>
          <path id="Trazado_214348" data-name="Trazado 214348" d="M281.172,374.165c0-1.465-.859-2.654-1.918-2.654h-22.38c-1.059,0-1.918,1.188-1.918,2.654v2.783c0,.082,0,.164.009.245,0,.052-.009.105-.009.158,0,3.224,5.869,5.84,13.108,5.84s13.108-2.616,13.108-5.84c0-.053-.005-.106-.009-.158.005-.082.009-.163.009-.245Z" transform="translate(-24.039 -35.029)" fill="#f4bd31"/>
          <path id="Trazado_214349" data-name="Trazado 214349" d="M281.172,373.387c0,3.225-5.869,5.84-13.108,5.84s-13.108-2.615-13.108-5.84,5.869-5.84,13.108-5.84,13.108,2.615,13.108,5.84" transform="translate(-24.039 -34.655)" fill="#f2d453"/>
          <path id="Trazado_214350" data-name="Trazado 214350" d="M327.347,360.346c-1.018-.979-2.416-1.176-3.123-.439L309.282,375.45c-.707.735-.456,2.126.562,3.1l1.933,1.859q.086.083.177.158c.034.037.067.077.1.112,2.24,2.153,7.974-.178,12.808-5.206s6.935-10.849,4.7-13c-.037-.035-.078-.066-.116-.1-.053-.058-.107-.115-.165-.17Z" transform="translate(-29.124 -33.893)" fill="#f4bd31"/>
          <path id="Trazado_214351" data-name="Trazado 214351" d="M327.045,360.057c2.24,2.153.138,7.975-4.7,13s-10.567,7.358-12.807,5.205-.139-7.975,4.7-13,10.567-7.359,12.807-5.205" transform="translate(-29.101 -33.873)" fill="#f2d453"/>
          <path id="Trazado_214352" data-name="Trazado 214352" d="M278.885,369.008c0-1.465-.859-2.654-1.918-2.654h-22.38c-1.059,0-1.918,1.188-1.918,2.654v2.783c0,.083,0,.165.009.245,0,.053-.009.105-.009.159,0,3.225,5.869,5.84,13.108,5.84s13.108-2.615,13.108-5.84c0-.053-.005-.106-.009-.159.005-.081.009-.162.009-.245Z" transform="translate(-23.823 -34.543)" fill="#f4bd31"/>
          <path id="Trazado_214353" data-name="Trazado 214353" d="M278.885,368.23c0,3.225-5.869,5.84-13.108,5.84s-13.108-2.615-13.108-5.84,5.869-5.84,13.108-5.84,13.108,2.615,13.108,5.84" transform="translate(-23.823 -34.169)" fill="#f2d453"/>
          <path id="Trazado_214354" data-name="Trazado 214354" d="M258.42,421.034h-4.187l-.8,2.387H250.9l4.315-11.589h2.214l4.338,11.589h-2.54Zm-3.542-1.935h2.9l-1.456-4.338Z" transform="translate(-23.656 -38.831)"/>
          <path id="Trazado_214355" data-name="Trazado 214355" d="M265.614,415.1l.072,1a3.008,3.008,0,0,1,2.476-1.155,2.5,2.5,0,0,1,2.037.8,3.742,3.742,0,0,1,.685,2.4v5.565h-2.3v-5.521a1.5,1.5,0,0,0-.318-1.066,1.427,1.427,0,0,0-1.059-.331,1.584,1.584,0,0,0-1.457.83v6.088h-2.3V415.1Z" transform="translate(-24.84 -39.124)"/>
          <path id="Trazado_214356" data-name="Trazado 214356" d="M278.538,423.356a2.572,2.572,0,0,1-.231-.773,2.783,2.783,0,0,1-2.174.932,3.059,3.059,0,0,1-2.1-.733,2.356,2.356,0,0,1-.831-1.847,2.431,2.431,0,0,1,1.015-2.1,5.005,5.005,0,0,1,2.933-.741h1.059V417.6a1.421,1.421,0,0,0-.306-.956,1.2,1.2,0,0,0-.967-.359,1.374,1.374,0,0,0-.912.279.946.946,0,0,0-.33.764h-2.3a2.312,2.312,0,0,1,.462-1.386,3.051,3.051,0,0,1,1.305-1,4.753,4.753,0,0,1,1.895-.363,3.765,3.765,0,0,1,2.528.8,2.8,2.8,0,0,1,.935,2.25v3.733a4.122,4.122,0,0,0,.342,1.855v.135Zm-1.9-1.6a1.969,1.969,0,0,0,.939-.227,1.478,1.478,0,0,0,.637-.608V419.44h-.859q-1.727,0-1.839,1.194l-.008.136a.92.92,0,0,0,.3.708,1.175,1.175,0,0,0,.828.278m.876-10.627h2.508l-2.205,2.468h-1.87Z" transform="translate(-25.76 -38.764)"/>
          <rect id="Rectángulo_40323" data-name="Rectángulo 40323" width="2.309" height="12.227" transform="translate(256.646 372.365)"/>
          <path id="Trazado_214357" data-name="Trazado 214357" d="M287.987,412.534a1.134,1.134,0,0,1,.346-.851,1.49,1.49,0,0,1,1.883,0,1.214,1.214,0,0,1,0,1.711,1.474,1.474,0,0,1-1.869,0,1.125,1.125,0,0,1-.355-.86m2.445,10.842h-2.309v-8.613h2.309Z" transform="translate(-27.154 -38.785)"/>
          <path id="Trazado_214358" data-name="Trazado 214358" d="M297.4,421.336a.737.737,0,0,0-.418-.664,4.737,4.737,0,0,0-1.34-.435q-3.073-.644-3.073-2.611a2.367,2.367,0,0,1,.952-1.915,3.841,3.841,0,0,1,2.487-.768,4.133,4.133,0,0,1,2.623.773,2.435,2.435,0,0,1,.983,2.006h-2.3a1.118,1.118,0,0,0-.318-.817,1.354,1.354,0,0,0-1-.322,1.377,1.377,0,0,0-.9.263.829.829,0,0,0-.319.668.706.706,0,0,0,.363.617,3.686,3.686,0,0,0,1.221.407,10.019,10.019,0,0,1,1.449.386,2.381,2.381,0,0,1,1.823,2.317,2.244,2.244,0,0,1-1.011,1.906,4.36,4.36,0,0,1-2.611.729,4.565,4.565,0,0,1-1.922-.386,3.207,3.207,0,0,1-1.318-1.06,2.454,2.454,0,0,1-.478-1.453h2.181a1.206,1.206,0,0,0,.454.94,1.8,1.8,0,0,0,1.13.326,1.675,1.675,0,0,0,1-.25.783.783,0,0,0,.339-.658" transform="translate(-27.56 -39.124)"/>
          <path id="Trazado_214359" data-name="Trazado 214359" d="M302.015,412.534a1.134,1.134,0,0,1,.346-.851,1.49,1.49,0,0,1,1.883,0,1.216,1.216,0,0,1,0,1.711,1.475,1.475,0,0,1-1.87,0,1.128,1.128,0,0,1-.354-.86m2.444,10.842H302.15v-8.613h2.309Z" transform="translate(-28.476 -38.785)"/>
          <path id="Trazado_214360" data-name="Trazado 214360" d="M311.424,421.336a.737.737,0,0,0-.418-.664,4.737,4.737,0,0,0-1.34-.435q-3.073-.644-3.073-2.611a2.367,2.367,0,0,1,.952-1.915,3.841,3.841,0,0,1,2.487-.768,4.133,4.133,0,0,1,2.623.773,2.435,2.435,0,0,1,.983,2.006h-2.3a1.118,1.118,0,0,0-.318-.817,1.354,1.354,0,0,0-1-.322,1.377,1.377,0,0,0-.9.263.829.829,0,0,0-.319.668.707.707,0,0,0,.363.617,3.686,3.686,0,0,0,1.221.407,10.018,10.018,0,0,1,1.449.386,2.38,2.38,0,0,1,1.823,2.317,2.244,2.244,0,0,1-1.011,1.906,4.359,4.359,0,0,1-2.611.729,4.565,4.565,0,0,1-1.922-.386,3.207,3.207,0,0,1-1.318-1.06,2.454,2.454,0,0,1-.478-1.453H308.5a1.206,1.206,0,0,0,.454.94,1.8,1.8,0,0,0,1.13.326,1.675,1.675,0,0,0,1-.25.784.784,0,0,0,.339-.658" transform="translate(-28.882 -39.124)"/>
          <path id="Trazado_214361" data-name="Trazado 214361" d="M321.1,423.339v-6.925h-1.282v-1.688H321.1v-.732a2.972,2.972,0,0,1,.831-2.249,3.216,3.216,0,0,1,2.328-.8,5.421,5.421,0,0,1,1.17.158l-.024,1.769a2.972,2.972,0,0,0-.7-.072q-1.3,0-1.3,1.229v.7h1.711v1.688h-1.711v6.925Z" transform="translate(-30.155 -38.747)"/>
          <path id="Trazado_214362" data-name="Trazado 214362" d="M326.976,412.534a1.134,1.134,0,0,1,.346-.851,1.49,1.49,0,0,1,1.883,0,1.216,1.216,0,0,1,0,1.711,1.476,1.476,0,0,1-1.87,0,1.128,1.128,0,0,1-.354-.86m2.444,10.842h-2.309v-8.613h2.309Z" transform="translate(-30.83 -38.785)"/>
          <path id="Trazado_214363" data-name="Trazado 214363" d="M333.879,415.1l.072,1a3.007,3.007,0,0,1,2.476-1.155,2.5,2.5,0,0,1,2.037.8,3.742,3.742,0,0,1,.685,2.4v5.565h-2.3v-5.521a1.5,1.5,0,0,0-.318-1.066,1.427,1.427,0,0,0-1.059-.331,1.584,1.584,0,0,0-1.457.83v6.088h-2.3V415.1Z" transform="translate(-31.276 -39.124)"/>
          <path id="Trazado_214364" data-name="Trazado 214364" d="M346.8,423.716a2.522,2.522,0,0,1-.231-.773,2.783,2.783,0,0,1-2.174.931,3.059,3.059,0,0,1-2.1-.732,2.356,2.356,0,0,1-.831-1.847,2.433,2.433,0,0,1,1.015-2.1,5.005,5.005,0,0,1,2.933-.74h1.059v-.494a1.419,1.419,0,0,0-.307-.956,1.205,1.205,0,0,0-.966-.358,1.367,1.367,0,0,0-.912.279.945.945,0,0,0-.33.764h-2.3a2.311,2.311,0,0,1,.462-1.385,3.047,3.047,0,0,1,1.305-1,4.766,4.766,0,0,1,1.895-.362,3.767,3.767,0,0,1,2.528.8,2.8,2.8,0,0,1,.935,2.249v3.733a4.12,4.12,0,0,0,.342,1.855v.136Zm-1.9-1.6a1.969,1.969,0,0,0,.939-.227,1.481,1.481,0,0,0,.637-.609V419.8h-.86q-1.727,0-1.839,1.195l-.008.135a.918.918,0,0,0,.3.708,1.175,1.175,0,0,0,.828.279" transform="translate(-32.196 -39.124)"/>
          <path id="Trazado_214365" data-name="Trazado 214365" d="M353.61,415.1l.072,1a3.007,3.007,0,0,1,2.476-1.155,2.5,2.5,0,0,1,2.037.8,3.742,3.742,0,0,1,.685,2.4v5.565h-2.3v-5.521a1.5,1.5,0,0,0-.318-1.066,1.427,1.427,0,0,0-1.059-.331,1.584,1.584,0,0,0-1.457.83v6.088h-2.3V415.1Z" transform="translate(-33.137 -39.124)"/>
          <path id="Trazado_214366" data-name="Trazado 214366" d="M365.123,422.02a1.509,1.509,0,0,0,1.035-.35,1.227,1.227,0,0,0,.414-.931h2.157a2.945,2.945,0,0,1-.477,1.6,3.147,3.147,0,0,1-1.286,1.13,4.029,4.029,0,0,1-1.8.4,3.738,3.738,0,0,1-2.914-1.175,4.645,4.645,0,0,1-1.067-3.243v-.151a4.6,4.6,0,0,1,1.059-3.176,3.7,3.7,0,0,1,2.905-1.186,3.622,3.622,0,0,1,2.592.919,3.256,3.256,0,0,1,.99,2.447h-2.157a1.582,1.582,0,0,0-.414-1.092,1.539,1.539,0,0,0-2.265.166,3.4,3.4,0,0,0-.41,1.9v.24a3.434,3.434,0,0,0,.407,1.913,1.4,1.4,0,0,0,1.234.582" transform="translate(-34.055 -39.124)"/>
          <path id="Trazado_214367" data-name="Trazado 214367" d="M370.947,412.534a1.134,1.134,0,0,1,.346-.851,1.49,1.49,0,0,1,1.883,0,1.214,1.214,0,0,1,0,1.711,1.474,1.474,0,0,1-1.869,0,1.125,1.125,0,0,1-.355-.86m2.445,10.842h-2.309v-8.613h2.309Z" transform="translate(-34.976 -38.785)"/>
          <path id="Trazado_214368" data-name="Trazado 214368" d="M379.669,423.874a4.224,4.224,0,0,1-3.084-1.162,4.127,4.127,0,0,1-1.191-3.1v-.223a5.2,5.2,0,0,1,.5-2.32,3.684,3.684,0,0,1,1.421-1.577,3.989,3.989,0,0,1,2.1-.553,3.57,3.57,0,0,1,2.781,1.115,4.523,4.523,0,0,1,1.015,3.16v.939h-5.484a2.133,2.133,0,0,0,.673,1.353,2.03,2.03,0,0,0,1.42.51,2.483,2.483,0,0,0,2.078-.964l1.13,1.266a3.437,3.437,0,0,1-1.4,1.141,4.592,4.592,0,0,1-1.958.41m-.263-7.076a1.441,1.441,0,0,0-1.111.464,2.408,2.408,0,0,0-.544,1.328h3.2V418.4a1.71,1.71,0,0,0-.414-1.186,1.48,1.48,0,0,0-1.13-.42" transform="translate(-35.395 -39.124)"/>
          <path id="Trazado_214369" data-name="Trazado 214369" d="M390.307,417.26a6.22,6.22,0,0,0-.828-.063,1.686,1.686,0,0,0-1.712.883v5.636h-2.3V415.1h2.174l.063,1.027a2.132,2.132,0,0,1,1.918-1.186,2.386,2.386,0,0,1,.716.1Z" transform="translate(-36.345 -39.124)"/>
          <path id="Trazado_214370" data-name="Trazado 214370" d="M391.32,419.329a5.122,5.122,0,0,1,.494-2.284,3.61,3.61,0,0,1,1.421-1.552,4.146,4.146,0,0,1,2.153-.549,3.923,3.923,0,0,1,2.846,1.066,4.285,4.285,0,0,1,1.23,2.9l.016.589a4.5,4.5,0,0,1-1.107,3.181,4.289,4.289,0,0,1-5.941,0,4.576,4.576,0,0,1-1.111-3.248Zm2.3.164a3.215,3.215,0,0,0,.461,1.877,1.658,1.658,0,0,0,2.627.008,3.518,3.518,0,0,0,.47-2.053,3.185,3.185,0,0,0-.47-1.865,1.528,1.528,0,0,0-1.321-.662,1.5,1.5,0,0,0-1.305.658,3.578,3.578,0,0,0-.461,2.037" transform="translate(-36.897 -39.124)"/>
          <path id="Trazado_214371" data-name="Trazado 214371" d="M409.5,420.476l1.592-5.357h2.467l-3.463,9.95-.191.454a2.626,2.626,0,0,1-2.547,1.688,3.632,3.632,0,0,1-1.019-.151v-1.744l.35.008a1.9,1.9,0,0,0,.975-.2,1.308,1.308,0,0,0,.505-.661l.271-.708-3.017-8.637H407.9Z" transform="translate(-38.227 -39.141)"/>
          <path id="Trazado_214372" data-name="Trazado 214372" d="M254.021,445.474a4.224,4.224,0,0,1-3.084-1.162,4.128,4.128,0,0,1-1.191-3.1v-.223a5.2,5.2,0,0,1,.5-2.32,3.684,3.684,0,0,1,1.421-1.577,3.989,3.989,0,0,1,2.1-.553,3.57,3.57,0,0,1,2.781,1.115,4.523,4.523,0,0,1,1.015,3.16v.939h-5.484a2.133,2.133,0,0,0,.673,1.353,2.03,2.03,0,0,0,1.42.51,2.483,2.483,0,0,0,2.078-.964l1.13,1.266a3.437,3.437,0,0,1-1.4,1.141,4.592,4.592,0,0,1-1.958.41m-.263-7.076a1.441,1.441,0,0,0-1.111.464,2.407,2.407,0,0,0-.544,1.328h3.2V440a1.71,1.71,0,0,0-.414-1.186,1.48,1.48,0,0,0-1.13-.42" transform="translate(-23.548 -41.161)"/>
          <path id="Trazado_214373" data-name="Trazado 214373" d="M262.847,442.522l1.6-5.8h2.4l-2.906,8.613h-2.2l-2.906-8.613h2.4Z" transform="translate(-24.406 -41.177)"/>
          <path id="Trazado_214374" data-name="Trazado 214374" d="M273.625,445.316a2.522,2.522,0,0,1-.231-.773,2.783,2.783,0,0,1-2.174.931,3.059,3.059,0,0,1-2.1-.732,2.356,2.356,0,0,1-.831-1.847,2.433,2.433,0,0,1,1.015-2.1,5.005,5.005,0,0,1,2.933-.74H273.3v-.494a1.42,1.42,0,0,0-.307-.956,1.205,1.205,0,0,0-.966-.358,1.367,1.367,0,0,0-.912.279.946.946,0,0,0-.33.764h-2.3a2.312,2.312,0,0,1,.462-1.385,3.048,3.048,0,0,1,1.305-1,4.766,4.766,0,0,1,1.895-.362,3.767,3.767,0,0,1,2.528.8,2.8,2.8,0,0,1,.935,2.249v3.733a4.119,4.119,0,0,0,.342,1.855v.136Zm-1.9-1.6a1.97,1.97,0,0,0,.939-.227,1.48,1.48,0,0,0,.637-.609V441.4h-.86q-1.727,0-1.839,1.195l-.008.135a.918.918,0,0,0,.3.708,1.175,1.175,0,0,0,.828.279" transform="translate(-25.297 -41.161)"/>
          <rect id="Rectángulo_40324" data-name="Rectángulo 40324" width="2.309" height="12.227" transform="translate(252.197 391.927)"/>
          <path id="Trazado_214375" data-name="Trazado 214375" d="M288.244,444.457a2.885,2.885,0,0,1-2.357,1.035,2.72,2.72,0,0,1-2.113-.8,3.4,3.4,0,0,1-.745-2.333v-5.644h2.3v5.57q0,1.348,1.226,1.348a1.66,1.66,0,0,0,1.608-.813v-6.1h2.309v8.613h-2.166Z" transform="translate(-26.686 -41.177)"/>
          <path id="Trazado_214376" data-name="Trazado 214376" d="M298.12,445.316a2.522,2.522,0,0,1-.231-.773,2.783,2.783,0,0,1-2.174.931,3.059,3.059,0,0,1-2.1-.732,2.356,2.356,0,0,1-.831-1.847,2.433,2.433,0,0,1,1.015-2.1,5.005,5.005,0,0,1,2.933-.74h1.059v-.494a1.42,1.42,0,0,0-.307-.956,1.205,1.205,0,0,0-.966-.358,1.367,1.367,0,0,0-.912.279.945.945,0,0,0-.33.764h-2.3a2.311,2.311,0,0,1,.462-1.385,3.048,3.048,0,0,1,1.305-1,4.766,4.766,0,0,1,1.895-.362,3.767,3.767,0,0,1,2.528.8,2.8,2.8,0,0,1,.935,2.249v3.733a4.119,4.119,0,0,0,.342,1.855v.136Zm-1.9-1.6a1.97,1.97,0,0,0,.939-.227,1.48,1.48,0,0,0,.637-.609V441.4h-.859q-1.727,0-1.839,1.195l-.008.135a.918.918,0,0,0,.3.708,1.175,1.175,0,0,0,.828.279" transform="translate(-27.606 -41.161)"/>
          <path id="Trazado_214377" data-name="Trazado 214377" d="M306.36,443.619a1.509,1.509,0,0,0,1.035-.351,1.227,1.227,0,0,0,.414-.931h2.156a2.945,2.945,0,0,1-.477,1.6,3.147,3.147,0,0,1-1.286,1.13,4.028,4.028,0,0,1-1.8.4,3.738,3.738,0,0,1-2.914-1.175,4.645,4.645,0,0,1-1.067-3.243V440.9a4.6,4.6,0,0,1,1.059-3.176,3.7,3.7,0,0,1,2.906-1.186,3.621,3.621,0,0,1,2.592.919,3.256,3.256,0,0,1,.99,2.447h-2.156a1.583,1.583,0,0,0-.414-1.092,1.539,1.539,0,0,0-2.265.166,3.4,3.4,0,0,0-.41,1.9v.24a3.434,3.434,0,0,0,.407,1.913,1.4,1.4,0,0,0,1.234.582" transform="translate(-28.514 -41.161)"/>
          <path id="Trazado_214378" data-name="Trazado 214378" d="M312.184,434.134a1.137,1.137,0,0,1,.346-.852,1.493,1.493,0,0,1,1.883,0,1.217,1.217,0,0,1,0,1.712,1.475,1.475,0,0,1-1.87,0,1.129,1.129,0,0,1-.354-.86m2.444,10.841h-2.309v-8.613h2.309Z" transform="translate(-29.435 -40.822)"/>
          <path id="Trazado_214379" data-name="Trazado 214379" d="M316.578,440.569a5.1,5.1,0,0,1,.494-2.284,3.6,3.6,0,0,1,1.42-1.552,4.152,4.152,0,0,1,2.154-.55,3.924,3.924,0,0,1,2.846,1.067,4.285,4.285,0,0,1,1.23,2.9l.016.59a4.506,4.506,0,0,1-1.107,3.181,4.289,4.289,0,0,1-5.942,0,4.577,4.577,0,0,1-1.11-3.248Zm2.3.164a3.214,3.214,0,0,0,.462,1.877,1.658,1.658,0,0,0,2.627.008,3.521,3.521,0,0,0,.47-2.053,3.185,3.185,0,0,0-.47-1.865,1.525,1.525,0,0,0-1.321-.662,1.5,1.5,0,0,0-1.305.658,3.577,3.577,0,0,0-.462,2.037m2.221-8h2.508L321.4,435.2h-1.87Z" transform="translate(-29.849 -40.801)"/>
          <path id="Trazado_214380" data-name="Trazado 214380" d="M329.264,436.7l.072,1a3.007,3.007,0,0,1,2.476-1.155,2.5,2.5,0,0,1,2.037.8,3.742,3.742,0,0,1,.685,2.4v5.565h-2.3v-5.521a1.5,1.5,0,0,0-.318-1.066,1.427,1.427,0,0,0-1.059-.331,1.584,1.584,0,0,0-1.457.83v6.088h-2.3V436.7Z" transform="translate(-30.841 -41.161)"/>
          <path id="Trazado_214381" data-name="Trazado 214381" d="M341.319,440.585a5.186,5.186,0,0,1,.9-3.208,2.929,2.929,0,0,1,2.472-1.194,2.638,2.638,0,0,1,2.077.939v-4.394h2.309v12.227H347l-.111-.916a2.707,2.707,0,0,1-2.213,1.074,2.92,2.92,0,0,1-2.439-1.2,5.352,5.352,0,0,1-.92-3.332m2.3.164a3.419,3.419,0,0,0,.422,1.864,1.373,1.373,0,0,0,1.225.647,1.538,1.538,0,0,0,1.5-.9v-3.414a1.516,1.516,0,0,0-1.488-.9q-1.664,0-1.664,2.711" transform="translate(-32.182 -40.801)"/>
          <path id="Trazado_214382" data-name="Trazado 214382" d="M355.789,445.474a4.224,4.224,0,0,1-3.084-1.162,4.128,4.128,0,0,1-1.191-3.1v-.223a5.2,5.2,0,0,1,.5-2.32,3.684,3.684,0,0,1,1.421-1.577,3.989,3.989,0,0,1,2.1-.553,3.569,3.569,0,0,1,2.781,1.115,4.523,4.523,0,0,1,1.015,3.16v.939h-5.484a2.133,2.133,0,0,0,.673,1.353,2.03,2.03,0,0,0,1.42.51,2.483,2.483,0,0,0,2.078-.964l1.13,1.266a3.436,3.436,0,0,1-1.4,1.141,4.592,4.592,0,0,1-1.958.41m-.263-7.076a1.441,1.441,0,0,0-1.111.464,2.407,2.407,0,0,0-.544,1.328h3.2V440a1.71,1.71,0,0,0-.414-1.186,1.48,1.48,0,0,0-1.13-.42" transform="translate(-33.143 -41.161)"/>
          <rect id="Rectángulo_40325" data-name="Rectángulo 40325" width="2.309" height="12.227" transform="translate(327.613 391.927)"/>
          <path id="Trazado_214383" data-name="Trazado 214383" d="M375.682,438.859a6.219,6.219,0,0,0-.828-.063,1.686,1.686,0,0,0-1.712.883v5.636h-2.3V436.7h2.174l.063,1.027A2.132,2.132,0,0,1,375,436.542a2.387,2.387,0,0,1,.716.1Z" transform="translate(-34.966 -41.161)"/>
          <path id="Trazado_214384" data-name="Trazado 214384" d="M377.39,434.134a1.137,1.137,0,0,1,.346-.852,1.493,1.493,0,0,1,1.883,0,1.217,1.217,0,0,1,0,1.712,1.475,1.475,0,0,1-1.87,0,1.129,1.129,0,0,1-.354-.86m2.444,10.841h-2.309v-8.613h2.309Z" transform="translate(-35.583 -40.822)"/>
          <path id="Trazado_214385" data-name="Trazado 214385" d="M386.112,445.474a4.224,4.224,0,0,1-3.084-1.162,4.128,4.128,0,0,1-1.191-3.1v-.223a5.2,5.2,0,0,1,.5-2.32,3.684,3.684,0,0,1,1.421-1.577,3.989,3.989,0,0,1,2.1-.553,3.569,3.569,0,0,1,2.781,1.115,4.523,4.523,0,0,1,1.015,3.16v.939H384.17a2.133,2.133,0,0,0,.673,1.353,2.03,2.03,0,0,0,1.42.51,2.483,2.483,0,0,0,2.078-.964l1.13,1.266a3.436,3.436,0,0,1-1.4,1.141,4.592,4.592,0,0,1-1.958.41m-.263-7.076a1.441,1.441,0,0,0-1.111.464,2.407,2.407,0,0,0-.544,1.328h3.2V440a1.71,1.71,0,0,0-.414-1.186,1.48,1.48,0,0,0-1.13-.42" transform="translate(-36.003 -41.161)"/>
          <path id="Trazado_214386" data-name="Trazado 214386" d="M396.529,442.935a.737.737,0,0,0-.418-.664,4.738,4.738,0,0,0-1.34-.435q-3.073-.644-3.073-2.611a2.367,2.367,0,0,1,.952-1.915,3.841,3.841,0,0,1,2.487-.768,4.133,4.133,0,0,1,2.623.773,2.435,2.435,0,0,1,.983,2.006h-2.3a1.118,1.118,0,0,0-.318-.817,1.354,1.354,0,0,0-1-.322,1.377,1.377,0,0,0-.9.263.829.829,0,0,0-.319.668.706.706,0,0,0,.363.617,3.686,3.686,0,0,0,1.221.407,10.023,10.023,0,0,1,1.449.386,2.381,2.381,0,0,1,1.823,2.317,2.244,2.244,0,0,1-1.011,1.906,4.36,4.36,0,0,1-2.611.729,4.565,4.565,0,0,1-1.922-.386,3.207,3.207,0,0,1-1.318-1.06,2.454,2.454,0,0,1-.478-1.453h2.181a1.206,1.206,0,0,0,.454.94,1.8,1.8,0,0,0,1.13.326,1.675,1.675,0,0,0,1-.25.784.784,0,0,0,.339-.658" transform="translate(-36.907 -41.161)"/>
          <path id="Trazado_214387" data-name="Trazado 214387" d="M400.795,440.945a5.044,5.044,0,0,1,.944-3.192,3.053,3.053,0,0,1,2.543-1.21,2.679,2.679,0,0,1,2.2.971l.1-.812h2.085v8.326a3.688,3.688,0,0,1-.513,1.966,3.3,3.3,0,0,1-1.445,1.273,5.067,5.067,0,0,1-2.181.438,4.729,4.729,0,0,1-1.847-.379,3.288,3.288,0,0,1-1.361-.975l1.019-1.4a2.694,2.694,0,0,0,2.086.963,1.977,1.977,0,0,0,1.425-.489,1.838,1.838,0,0,0,.51-1.389v-.462a2.662,2.662,0,0,1-2.094.9,3.044,3.044,0,0,1-2.511-1.214,5.036,5.036,0,0,1-.96-3.22Zm2.3.164a3.157,3.157,0,0,0,.47,1.843,1.492,1.492,0,0,0,1.289.668,1.6,1.6,0,0,0,1.505-.792v-3.638a1.593,1.593,0,0,0-1.489-.792,1.5,1.5,0,0,0-1.3.68,3.556,3.556,0,0,0-.474,2.031" transform="translate(-37.79 -41.161)"/>
          <path id="Trazado_214388" data-name="Trazado 214388" d="M411.043,440.928a5.11,5.11,0,0,1,.494-2.284,3.614,3.614,0,0,1,1.42-1.552,4.151,4.151,0,0,1,2.154-.549,3.923,3.923,0,0,1,2.846,1.066,4.285,4.285,0,0,1,1.23,2.9l.016.589a4.5,4.5,0,0,1-1.107,3.181,4.289,4.289,0,0,1-5.941,0,4.576,4.576,0,0,1-1.111-3.248Zm2.3.164a3.215,3.215,0,0,0,.462,1.877,1.658,1.658,0,0,0,2.627.008,3.518,3.518,0,0,0,.47-2.053,3.185,3.185,0,0,0-.47-1.865,1.527,1.527,0,0,0-1.321-.662,1.5,1.5,0,0,0-1.305.658,3.577,3.577,0,0,0-.462,2.037" transform="translate(-38.756 -41.161)"/>
          <path id="Trazado_214389" data-name="Trazado 214389" d="M422.72,103.529l-1.849-.45-1,4.123-2.32-.565,2.742-11.262,4.184,1.019a4.87,4.87,0,0,1,2.861,1.638,3.16,3.16,0,0,1,.471,2.778,3.57,3.57,0,0,1-.966,1.8,3.5,3.5,0,0,1-1.811.858l1.316,5.2-.026.108-2.491-.606Zm-1.391-2.329,1.871.456a1.97,1.97,0,0,0,1.463-.116,1.635,1.635,0,0,0,.777-1.109,1.747,1.747,0,0,0-.147-1.363,1.939,1.939,0,0,0-1.277-.794l-1.865-.454Z" transform="translate(-39.37 -8.993)"/>
          <path id="Trazado_214390" data-name="Trazado 214390" d="M432.2,111.006a4.236,4.236,0,0,1-2.628-1.991,4.136,4.136,0,0,1-.261-3.307l.063-.214a5.222,5.222,0,0,1,1.14-2.083,3.689,3.689,0,0,1,1.811-1.107,3.992,3.992,0,0,1,2.168.064,3.58,3.58,0,0,1,2.351,1.859,4.534,4.534,0,0,1,.076,3.319l-.267.9-5.259-1.558a2.136,2.136,0,0,0,.261,1.489,2.03,2.03,0,0,0,1.218.892,2.484,2.484,0,0,0,2.265-.333l.725,1.533a3.458,3.458,0,0,1-1.667.7,4.614,4.614,0,0,1-1.994-.163m1.758-6.861a1.442,1.442,0,0,0-1.2.13,2.4,2.4,0,0,0-.9,1.119l3.068.908.053-.175a1.713,1.713,0,0,0-.061-1.257,1.482,1.482,0,0,0-.964-.724" transform="translate(-40.457 -9.635)"/>
          <path id="Trazado_214391" data-name="Trazado 214391" d="M441.595,112.084a1.508,1.508,0,0,0,1.092.006,1.228,1.228,0,0,0,.7-.744l2.04.7a2.959,2.959,0,0,1-.975,1.36,3.146,3.146,0,0,1-1.585.648,4.019,4.019,0,0,1-1.835-.208,3.739,3.739,0,0,1-2.37-2.06,4.644,4.644,0,0,1,.051-3.415l.049-.143a4.593,4.593,0,0,1,2.037-2.656,3.7,3.7,0,0,1,3.134-.173,3.624,3.624,0,0,1,2.149,1.715,3.262,3.262,0,0,1,.139,2.637l-2.04-.7a1.587,1.587,0,0,0-.034-1.167,1.539,1.539,0,0,0-2.195-.582,3.4,3.4,0,0,0-1.009,1.664l-.078.226a3.434,3.434,0,0,0-.241,1.941,1.4,1.4,0,0,0,.976.953" transform="translate(-41.332 -9.913)"/>
          <path id="Trazado_214392" data-name="Trazado 214392" d="M447.688,111.386a5.113,5.113,0,0,1,1.3-1.942,3.608,3.608,0,0,1,1.892-.917,4.144,4.144,0,0,1,2.2.283,3.925,3.925,0,0,1,2.252,2.041,4.281,4.281,0,0,1,.073,3.147l-.2.553a4.5,4.5,0,0,1-2.2,2.547,4.289,4.289,0,0,1-5.525-2.188,4.579,4.579,0,0,1,.167-3.429Zm2.078,1a3.218,3.218,0,0,0-.264,1.916,1.658,1.658,0,0,0,2.438.976,3.522,3.522,0,0,0,1.195-1.734,3.185,3.185,0,0,0,.252-1.907,1.527,1.527,0,0,0-.984-1.1,1.5,1.5,0,0,0-1.456.13,3.583,3.583,0,0,0-1.181,1.723" transform="translate(-42.168 -10.228)"/>
          <rect id="Rectángulo_40326" data-name="Rectángulo 40326" width="12.227" height="2.309" transform="translate(412.796 108.848) rotate(-66.362)"/>
          <path id="Trazado_214393" data-name="Trazado 214393" d="M463.542,123.142a4.23,4.23,0,0,1-2.281-2.38,4.123,4.123,0,0,1,.263-3.306l.1-.2a5.2,5.2,0,0,1,1.454-1.877,3.685,3.685,0,0,1,1.962-.809,3.987,3.987,0,0,1,2.131.407,3.573,3.573,0,0,1,2.029,2.205,4.531,4.531,0,0,1-.447,3.289l-.407.848-4.947-2.367a2.136,2.136,0,0,0,.023,1.511,2.035,2.035,0,0,0,1.062,1.072,2.48,2.48,0,0,0,2.29.028l.474,1.629a3.46,3.46,0,0,1-1.757.427,4.6,4.6,0,0,1-1.943-.475m2.816-6.5a1.436,1.436,0,0,0-1.2-.061,2.4,2.4,0,0,0-1.065.962l2.887,1.381.078-.167a1.7,1.7,0,0,0,.139-1.249,1.486,1.486,0,0,0-.839-.867" transform="translate(-43.469 -10.801)"/>
          <path id="Trazado_214394" data-name="Trazado 214394" d="M472.623,125.672a1.5,1.5,0,0,0,1.077.178,1.229,1.229,0,0,0,.8-.627l1.9,1.016a2.96,2.96,0,0,1-1.177,1.19,3.149,3.149,0,0,1-1.667.391,4.016,4.016,0,0,1-1.78-.495,3.74,3.74,0,0,1-2.017-2.407,4.647,4.647,0,0,1,.587-3.364l.071-.134a4.593,4.593,0,0,1,2.43-2.3,3.7,3.7,0,0,1,3.122.322,3.619,3.619,0,0,1,1.852,2.031,3.26,3.26,0,0,1-.278,2.627l-1.9-1.016a1.582,1.582,0,0,0,.149-1.158,1.539,1.539,0,0,0-2.076-.92,3.392,3.392,0,0,0-1.258,1.484l-.112.211a3.434,3.434,0,0,0-.543,1.879,1.4,1.4,0,0,0,.814,1.094" transform="translate(-44.283 -11.211)"/>
          <path id="Trazado_214395" data-name="Trazado 214395" d="M480.777,130.268a1.511,1.511,0,0,0,1.07.225,1.23,1.23,0,0,0,.83-.591l1.857,1.1a2.946,2.946,0,0,1-1.226,1.138,3.148,3.148,0,0,1-1.682.32,4.02,4.02,0,0,1-1.757-.572,3.736,3.736,0,0,1-1.911-2.493,4.644,4.644,0,0,1,.732-3.336l.077-.13a4.593,4.593,0,0,1,2.528-2.2,3.7,3.7,0,0,1,3.1.457,3.622,3.622,0,0,1,1.763,2.109,3.26,3.26,0,0,1-.391,2.612l-1.858-1.1a1.588,1.588,0,0,0,.2-1.151,1.538,1.538,0,0,0-2.033-1.01,3.392,3.392,0,0,0-1.321,1.428l-.122.206a3.445,3.445,0,0,0-.624,1.853,1.4,1.4,0,0,0,.766,1.129" transform="translate(-45.058 -11.651)"/>
          <path id="Trazado_214396" data-name="Trazado 214396" d="M486.735,135.638l-1.948-1.239,4.622-7.268,1.947,1.238Zm3.755-10.461a1.128,1.128,0,0,1,.749-.533,1.491,1.491,0,0,1,1.589,1.01,1.215,1.215,0,0,1-.922,1.442,1.478,1.478,0,0,1-1.579-1,1.129,1.129,0,0,1,.163-.916" transform="translate(-45.709 -11.75)"/>
          <path id="Trazado_214397" data-name="Trazado 214397" d="M490.925,133.211a5.11,5.11,0,0,1,1.7-1.606,3.608,3.608,0,0,1,2.051-.477,4.151,4.151,0,0,1,2.087.764,3.921,3.921,0,0,1,1.743,2.489,4.277,4.277,0,0,1-.622,3.086l-.321.495a4.5,4.5,0,0,1-2.71,2,4.289,4.289,0,0,1-4.9-3.356,4.577,4.577,0,0,1,.92-3.307Zm1.805,1.435a3.234,3.234,0,0,0-.68,1.81,1.658,1.658,0,0,0,2.163,1.492,3.522,3.522,0,0,0,1.548-1.428,3.182,3.182,0,0,0,.667-1.8,1.524,1.524,0,0,0-.716-1.292,1.5,1.5,0,0,0-1.448-.2,3.586,3.586,0,0,0-1.533,1.419m6.357-5.347,2.069,1.417-3.214.79-1.543-1.058Z" transform="translate(-46.192 -12.191)"/>
          <path id="Trazado_214398" data-name="Trazado 214398" d="M503.756,137.234l-.543.837a3.009,3.009,0,0,1,2.672.572,2.5,2.5,0,0,1,1.14,1.87,3.742,3.742,0,0,1-.9,2.33l-3.355,4.439-1.835-1.388,3.329-4.4a1.5,1.5,0,0,0,.388-1.042,1.42,1.42,0,0,0-.645-.9,1.583,1.583,0,0,0-1.662-.217l-3.671,4.857-1.836-1.388,5.194-6.871Z" transform="translate(-46.845 -12.816)"/>
          <path id="Trazado_214399" data-name="Trazado 214399" d="M510.911,148.219a5.193,5.193,0,0,1,2.784-1.832,2.93,2.93,0,0,1,2.65.716,2.64,2.64,0,0,1,.955,2.07l2.878-3.319,1.744,1.512-8.008,9.239-1.57-1.36.516-.765a2.705,2.705,0,0,1-2.376-.638,2.921,2.921,0,0,1-1.059-2.5,5.352,5.352,0,0,1,1.486-3.119m1.631,1.63a3.412,3.412,0,0,0-.9,1.685,1.372,1.372,0,0,0,.5,1.292,1.537,1.537,0,0,0,1.728.3l2.237-2.58a1.517,1.517,0,0,0-.533-1.657q-1.257-1.09-3.033.958" transform="translate(-48.032 -13.752)"/>
          <path id="Trazado_214400" data-name="Trazado 214400" d="M518.643,161.3a4.224,4.224,0,0,1-1.436-2.967,4.129,4.129,0,0,1,1.271-3.064l.153-.162a5.214,5.214,0,0,1,1.962-1.337,3.685,3.685,0,0,1,2.116-.164,3.989,3.989,0,0,1,1.9,1.043,3.577,3.577,0,0,1,1.25,2.724,4.532,4.532,0,0,1-1.441,2.991l-.647.68-3.976-3.777a2.133,2.133,0,0,0-.445,1.444,2.032,2.032,0,0,0,.679,1.349,2.487,2.487,0,0,0,2.17.733l-.053,1.7a3.442,3.442,0,0,1-1.8-.137,4.584,4.584,0,0,1-1.7-1.052m4.683-5.311a1.435,1.435,0,0,0-1.124-.428,2.4,2.4,0,0,0-1.311.586l2.32,2.2.127-.133a1.714,1.714,0,0,0,.518-1.146,1.484,1.484,0,0,0-.531-1.083" transform="translate(-48.766 -14.475)"/>
          <path id="Trazado_214401" data-name="Trazado 214401" d="M527.437,169.759l-1.586-1.677,6.259-5.917,1.586,1.677Zm6.2-9.224a1.131,1.131,0,0,1,.857-.333,1.491,1.491,0,0,1,1.293,1.368,1.216,1.216,0,0,1-1.246,1.173,1.475,1.475,0,0,1-1.285-1.359,1.128,1.128,0,0,1,.381-.848" transform="translate(-49.581 -15.105)"/>
          <path id="Trazado_214402" data-name="Trazado 214402" d="M536.844,167.492l-.7.713a3.011,3.011,0,0,1,2.5,1.092,2.5,2.5,0,0,1,.745,2.061,3.752,3.752,0,0,1-1.349,2.1l-4.172,3.682-1.523-1.724,4.139-3.654a1.5,1.5,0,0,0,.589-.944,1.428,1.428,0,0,0-.453-1.013,1.585,1.585,0,0,0-1.586-.544l-4.564,4.03-1.523-1.724,6.458-5.7Z" transform="translate(-49.874 -15.639)"/>
          <path id="Trazado_214403" data-name="Trazado 214403" d="M535.967,179.553l5.363-4.383-.812-.993,1.308-1.068.811.992.567-.463a2.971,2.971,0,0,1,2.268-.78,3.224,3.224,0,0,1,2.093,1.3,5.408,5.408,0,0,1,.618,1.005l-1.384,1.1a2.906,2.906,0,0,0-.389-.588,1.117,1.117,0,0,0-1.772-.227l-.54.442,1.082,1.324-1.307,1.069-1.083-1.325-5.362,4.383Z" transform="translate(-50.535 -16.297)"/>
          <path id="Trazado_214404" data-name="Trazado 214404" d="M542.943,181.269a5.12,5.12,0,0,1,2.121-.984,3.614,3.614,0,0,1,2.095.2,4.147,4.147,0,0,1,1.737,1.387,3.925,3.925,0,0,1,.864,2.914,4.278,4.278,0,0,1-1.571,2.728l-.46.368a4.506,4.506,0,0,1-3.2,1.035,4.288,4.288,0,0,1-3.586-4.739,4.577,4.577,0,0,1,1.921-2.844ZM544.2,183.2a3.216,3.216,0,0,0-1.219,1.5,1.659,1.659,0,0,0,1.578,2.1,3.535,3.535,0,0,0,1.921-.864,3.18,3.18,0,0,0,1.2-1.5,1.526,1.526,0,0,0-.268-1.453,1.5,1.5,0,0,0-1.312-.646,3.591,3.591,0,0,0-1.9.86" transform="translate(-50.998 -16.992)"/>
          <path id="Trazado_214405" data-name="Trazado 214405" d="M553.609,192.453a6.2,6.2,0,0,0-.421-.716,1.686,1.686,0,0,0-1.7-.9l-4.624,3.223-1.315-1.888,7.065-4.925,1.244,1.783-.806.639a2.131,2.131,0,0,1,2.07.895,2.414,2.414,0,0,1,.324.648Z" transform="translate(-51.438 -17.655)"/>
          <path id="Trazado_214406" data-name="Trazado 214406" d="M557.727,194.715l-.779.571a3.031,3.031,0,0,1,2.262,1.506,2.3,2.3,0,0,1,.094,2.634,2.956,2.956,0,0,1,2.483,1.5,2.565,2.565,0,0,1,.411,2.2,3.748,3.748,0,0,1-1.721,1.88l-4.667,2.911-1.222-1.958,4.671-2.914a1.649,1.649,0,0,0,.759-.812,1.265,1.265,0,0,0-.247-1.037,1.436,1.436,0,0,0-1.6-.692l-5.026,3.144-1.217-1.952,4.664-2.909a1.629,1.629,0,0,0,.765-.824,1.282,1.282,0,0,0-.247-1.028,1.489,1.489,0,0,0-1.441-.772L550.5,199.4l-1.217-1.952,7.307-4.558Z" transform="translate(-51.79 -18.187)"/>
          <path id="Trazado_214407" data-name="Trazado 214407" d="M559.768,215.091a2.567,2.567,0,0,1,.567-.572,2.78,2.78,0,0,1-1.859-1.462,3.058,3.058,0,0,1-.362-2.192,2.36,2.36,0,0,1,1.223-1.615,2.435,2.435,0,0,1,2.331-.115,5,5,0,0,1,2.055,2.22l.507.929.433-.236a1.421,1.421,0,0,0,.692-.726,1.21,1.21,0,0,0-.149-1.021,1.368,1.368,0,0,0-.682-.667.947.947,0,0,0-.829.076l-1.1-2.019a2.311,2.311,0,0,1,1.437-.259,3.055,3.055,0,0,1,1.5.668,4.755,4.755,0,0,1,1.226,1.49,3.762,3.762,0,0,1,.508,2.6,2.8,2.8,0,0,1-1.526,1.9l-3.277,1.789A4.112,4.112,0,0,0,561,217.068l-.119.064Zm.493-2.436a1.991,1.991,0,0,0,.649.716,1.5,1.5,0,0,0,.84.267l1.3-.709-.412-.755q-.827-1.515-1.929-1.042l-.122.058a.919.919,0,0,0-.477.6,1.178,1.178,0,0,0,.152.86" transform="translate(-52.617 -19.556)"/>
          <path id="Trazado_214408" data-name="Trazado 214408" d="M565.032,221.607a1.507,1.507,0,0,0,.77.775,1.227,1.227,0,0,0,1.018-.038l.948,1.937a2.947,2.947,0,0,1-1.65.276,3.146,3.146,0,0,1-1.581-.657,4.022,4.022,0,0,1-1.154-1.443,3.738,3.738,0,0,1-.227-3.133,4.644,4.644,0,0,1,2.444-2.385l.136-.067a4.592,4.592,0,0,1,3.318-.446,3.7,3.7,0,0,1,2.344,2.087,3.621,3.621,0,0,1,.314,2.732,3.253,3.253,0,0,1-1.762,1.966L569,221.277a1.592,1.592,0,0,0,.8-.852,1.539,1.539,0,0,0-1.146-1.961,3.388,3.388,0,0,0-1.888.468l-.215.105a3.425,3.425,0,0,0-1.54,1.206,1.4,1.4,0,0,0,.02,1.364" transform="translate(-53.076 -20.393)"/>
          <path id="Trazado_214409" data-name="Trazado 214409" d="M566.855,229.541l-.946-2.106,7.854-3.533.947,2.1Zm8.885-6.677a1.137,1.137,0,0,1,.919-.034,1.492,1.492,0,0,1,.773,1.716,1.216,1.216,0,0,1-1.562.7,1.476,1.476,0,0,1-.768-1.706,1.13,1.13,0,0,1,.638-.676" transform="translate(-53.358 -21.002)"/>
          <path id="Trazado_214410" data-name="Trazado 214410" d="M571.8,229.806a5.105,5.105,0,0,1,2.3-.408,3.611,3.611,0,0,1,1.974.728,4.15,4.15,0,0,1,1.323,1.785,3.922,3.922,0,0,1,.09,3.038,4.279,4.279,0,0,1-2.216,2.234l-.54.238a4.5,4.5,0,0,1-3.363.179,4.288,4.288,0,0,1-2.252-5.5,4.585,4.585,0,0,1,2.586-2.257ZM572.52,232a3.219,3.219,0,0,0-1.563,1.138,1.658,1.658,0,0,0,.987,2.435,3.526,3.526,0,0,0,2.078-.342,3.186,3.186,0,0,0,1.549-1.14,1.528,1.528,0,0,0,.112-1.474,1.5,1.5,0,0,0-1.1-.96,3.581,3.581,0,0,0-2.061.344m8.249-.974.949,2.321-3.119-1.108-.707-1.732Z" transform="translate(-53.629 -21.628)"/>
          <path id="Trazado_214411" data-name="Trazado 214411" d="M580.368,240.183l-.914.4a3.006,3.006,0,0,1,1.916,1.947,2.5,2.5,0,0,1-.077,2.189,3.745,3.745,0,0,1-2.036,1.449l-5.244,1.86-.769-2.167,5.2-1.847a1.5,1.5,0,0,0,.9-.657,1.42,1.42,0,0,0-.043-1.108,1.582,1.582,0,0,0-1.269-1.1L572.3,243.19l-.77-2.168,8.117-2.88Z" transform="translate(-53.888 -22.454)"/>
          <path id="Trazado_214412" data-name="Trazado 214412" d="M579.818,256.859l5.588.073.672,2.375-10.517-.623-.49-.06a2.628,2.628,0,0,1-2.317-1.992,3.646,3.646,0,0,1-.132-1.022l1.677-.475.088.339a1.894,1.894,0,0,0,.457.884,1.3,1.3,0,0,0,.773.307l.755.067,7.489-5.254.676,2.382Z" transform="translate(-53.991 -23.711)"/>
          <path id="Trazado_214413" data-name="Trazado 214413" d="M583.826,266.432a5.186,5.186,0,0,1,3.326.214,2.932,2.932,0,0,1,1.685,2.167,2.641,2.641,0,0,1-.484,2.228l4.3-.917.482,2.257-11.957,2.555-.435-2.032.872-.3a2.713,2.713,0,0,1-1.513-1.94,2.925,2.925,0,0,1,.663-2.637,5.359,5.359,0,0,1,3.065-1.595m.321,2.284a3.418,3.418,0,0,0-1.733.8,1.376,1.376,0,0,0-.378,1.334,1.538,1.538,0,0,0,1.2,1.282l3.339-.713a1.516,1.516,0,0,0,.573-1.645q-.348-1.626-3-1.061" transform="translate(-54.689 -25.105)"/>
          <path id="Trazado_214414" data-name="Trazado 214414" d="M582.472,282.447a2.555,2.555,0,0,1,.724-.354,2.784,2.784,0,0,1-1.275-1.991,3.059,3.059,0,0,1,.379-2.189,2.355,2.355,0,0,1,1.685-1.123,2.433,2.433,0,0,1,2.24.657,5.01,5.01,0,0,1,1.211,2.772l.173,1.044.488-.081a1.422,1.422,0,0,0,.892-.459,1.208,1.208,0,0,0,.195-1.013,1.379,1.379,0,0,0-.425-.854.948.948,0,0,0-.808-.2l-.377-2.27a2.309,2.309,0,0,1,1.442.229,3.049,3.049,0,0,1,1.2,1.124,4.759,4.759,0,0,1,.668,1.81,3.766,3.766,0,0,1-.375,2.625,2.8,2.8,0,0,1-2.066,1.291l-3.683.612a4.1,4.1,0,0,0-1.773.641l-.134.022Zm1.266-2.138a1.994,1.994,0,0,0,.378.889,1.491,1.491,0,0,0,.706.528l1.461-.243-.141-.848q-.284-1.7-1.479-1.618l-.135.014a.921.921,0,0,0-.649.415,1.18,1.18,0,0,0-.139.862" transform="translate(-54.863 -26.057)"/>
          <path id="Trazado_214415" data-name="Trazado 214415" d="M594.143,288.223l-2.1.271.188,1.461-1.674.216-.188-1.46-4.263.55a1.023,1.023,0,0,0-.656.269.925.925,0,0,0-.116.721,3.7,3.7,0,0,0,.142.664l-1.729.224a4.753,4.753,0,0,1-.383-1.356,2.2,2.2,0,0,1,2.108-2.76l4.6-.594-.161-1.247,1.674-.216.16,1.248,2.1-.272Z" transform="translate(-55.001 -26.869)"/>
          <path id="Trazado_214416" data-name="Trazado 214416" d="M588.22,291.884a5.116,5.116,0,0,1,2.32.282,3.61,3.61,0,0,1,1.676,1.272,4.145,4.145,0,0,1,.746,2.094,3.923,3.923,0,0,1-.8,2.932,4.287,4.287,0,0,1-2.772,1.492l-.585.07a4.505,4.505,0,0,1-3.269-.81,4.287,4.287,0,0,1-.551-5.916,4.581,4.581,0,0,1,3.132-1.4Zm.049,2.306a3.222,3.222,0,0,0-1.828.633,1.658,1.658,0,0,0,.235,2.616,3.519,3.519,0,0,0,2.088.279,3.19,3.19,0,0,0,1.814-.639,1.529,1.529,0,0,0,.538-1.377,1.5,1.5,0,0,0-.776-1.239,3.582,3.582,0,0,0-2.07-.273" transform="translate(-55.068 -27.519)"/>
          <path id="Trazado_214417" data-name="Trazado 214417" d="M587.34,307.226a.741.741,0,0,0,.644-.449,4.739,4.739,0,0,0,.37-1.36q.5-3.1,2.462-3.194a2.368,2.368,0,0,1,1.957.859,3.841,3.841,0,0,1,.887,2.448,4.135,4.135,0,0,1-.647,2.657,2.433,2.433,0,0,1-1.956,1.077l-.11-2.3a1.111,1.111,0,0,0,.8-.357,1.345,1.345,0,0,0,.274-1.009,1.382,1.382,0,0,0-.305-.886.826.826,0,0,0-.683-.286.706.706,0,0,0-.6.391,3.727,3.727,0,0,0-.348,1.239,9.95,9.95,0,0,1-.316,1.466,2.381,2.381,0,0,1-2.227,1.931,2.247,2.247,0,0,1-1.953-.919,4.359,4.359,0,0,1-.851-2.573,4.544,4.544,0,0,1,.293-1.938,3.212,3.212,0,0,1,1-1.367,2.459,2.459,0,0,1,1.428-.546l.1,2.178a1.2,1.2,0,0,0-.917.5,1.8,1.8,0,0,0-.272,1.145,1.67,1.67,0,0,0,.3.986.782.782,0,0,0,.672.306" transform="translate(-55.133 -28.485)"/>
          <path id="Trazado_214418" data-name="Trazado 214418" d="M141.047,170.2l-1.218,1.461,3.258,2.718-1.53,1.834-8.9-7.425,2.758-3.307a4.875,4.875,0,0,1,2.733-1.847,3.16,3.16,0,0,1,2.7.8,3.567,3.567,0,0,1,1.188,1.661,3.49,3.49,0,0,1-.027,2l5.243,1.109.086.072-1.642,1.968Zm-2.7.222,1.234-1.479a1.968,1.968,0,0,0,.54-1.363,1.64,1.64,0,0,0-.652-1.187,1.747,1.747,0,0,0-1.289-.468,1.937,1.937,0,0,0-1.276.8l-1.229,1.473Z" transform="translate(-12.508 -15.424)" fill="#12263f"/>
          <path id="Trazado_214419" data-name="Trazado 214419" d="M140.787,160.763a1.128,1.128,0,0,1-.4-.827,1.487,1.487,0,0,1,1.259-1.4,1.216,1.216,0,0,1,1.27,1.148,1.477,1.477,0,0,1-1.253,1.39,1.13,1.13,0,0,1-.875-.312m9.691,5.439-1.544,1.715-6.4-5.763,1.544-1.715Z" transform="translate(-13.237 -14.948)" fill="#12263f"/>
          <path id="Trazado_214420" data-name="Trazado 214420" d="M155.217,161.721a4.225,4.225,0,0,1-2.976,1.414,4.119,4.119,0,0,1-3.055-1.291l-.162-.155a5.2,5.2,0,0,1-1.322-1.972,3.675,3.675,0,0,1-.149-2.117,3.984,3.984,0,0,1,1.057-1.894,3.571,3.571,0,0,1,2.733-1.23,4.532,4.532,0,0,1,2.982,1.461l.676.652-3.806,3.95a2.143,2.143,0,0,0,1.441.455,2.022,2.022,0,0,0,1.352-.67,2.482,2.482,0,0,0,.749-2.165l1.7.064a3.461,3.461,0,0,1-.149,1.8,4.622,4.622,0,0,1-1.065,1.7M149.938,157a1.442,1.442,0,0,0-.437,1.122,2.412,2.412,0,0,0,.578,1.313l2.221-2.306-.132-.127a1.72,1.72,0,0,0-1.142-.525,1.487,1.487,0,0,0-1.088.523" transform="translate(-13.904 -14.565)" fill="#12263f"/>
          <path id="Trazado_214421" data-name="Trazado 214421" d="M160.768,152.666a.744.744,0,0,0-.761-.194,4.738,4.738,0,0,0-1.271.61q-2.672,1.649-4.027.225a2.367,2.367,0,0,1-.629-2.043,3.831,3.831,0,0,1,1.273-2.271,4.131,4.131,0,0,1,2.433-1.248,2.44,2.44,0,0,1,2.1.777l-1.668,1.586a1.115,1.115,0,0,0-.793-.372,1.344,1.344,0,0,0-.943.452,1.378,1.378,0,0,0-.471.81.829.829,0,0,0,.229.7.712.712,0,0,0,.689.2,3.731,3.731,0,0,0,1.164-.547,10.036,10.036,0,0,1,1.317-.718,2.379,2.379,0,0,1,2.916.423,2.247,2.247,0,0,1,.581,2.079,4.359,4.359,0,0,1-1.392,2.327,4.534,4.534,0,0,1-1.659,1.044,3.227,3.227,0,0,1-1.684.14,2.459,2.459,0,0,1-1.347-.725l1.581-1.5a1.194,1.194,0,0,0,.975.369,1.8,1.8,0,0,0,1.045-.543,1.664,1.664,0,0,0,.552-.869.782.782,0,0,0-.207-.709" transform="translate(-14.525 -13.929)" fill="#12263f"/>
          <path id="Trazado_214422" data-name="Trazado 214422" d="M162.607,148.082a5.053,5.053,0,0,1-1.379-3.031,3.058,3.058,0,0,1,1.129-2.58,2.679,2.679,0,0,1,2.3-.712l-.46-.676,1.575-1.367,5.458,6.289a3.687,3.687,0,0,1,.9,1.821,3.3,3.3,0,0,1-.257,1.909,5.065,5.065,0,0,1-1.359,1.76,4.721,4.721,0,0,1-1.643.925,3.279,3.279,0,0,1-1.667.156l-.149-1.725a2.7,2.7,0,0,0,2.207-.64,1.974,1.974,0,0,0,.755-1.3,1.839,1.839,0,0,0-.525-1.383l-.3-.349a2.663,2.663,0,0,1-.992,2.051,3.046,3.046,0,0,1-2.693.729,5.047,5.047,0,0,1-2.835-1.8Zm1.846-1.385a3.166,3.166,0,0,0,1.562,1.085,1.5,1.5,0,0,0,1.412-.341,1.6,1.6,0,0,0,.618-1.584l-2.384-2.748a1.591,1.591,0,0,0-1.644.378,1.5,1.5,0,0,0-.538,1.366,3.576,3.576,0,0,0,.974,1.845" transform="translate(-15.201 -13.174)" fill="#12263f"/>
          <path id="Trazado_214423" data-name="Trazado 214423" d="M170.431,141.487a5.134,5.134,0,0,1-1.026-2.1,3.631,3.631,0,0,1,.155-2.1,4.171,4.171,0,0,1,1.351-1.764,3.92,3.92,0,0,1,2.9-.924,4.289,4.289,0,0,1,2.761,1.514l.377.453a4.506,4.506,0,0,1,1.1,3.183,4.286,4.286,0,0,1-4.664,3.682,4.581,4.581,0,0,1-2.882-1.864Zm1.909-1.3a3.213,3.213,0,0,0,1.525,1.189,1.661,1.661,0,0,0,2.068-1.62,3.524,3.524,0,0,0-.9-1.9,3.185,3.185,0,0,0-1.524-1.175,1.528,1.528,0,0,0-1.447.3,1.5,1.5,0,0,0-.618,1.325,3.588,3.588,0,0,0,.9,1.886" transform="translate(-15.965 -12.689)" fill="#12263f"/>
          <path id="Trazado_214424" data-name="Trazado 214424" d="M183.752,133.893a.739.739,0,0,0-.727-.3,4.726,4.726,0,0,0-1.342.43q-2.872,1.268-4.019-.329a2.368,2.368,0,0,1-.344-2.11,3.845,3.845,0,0,1,1.573-2.075,4.124,4.124,0,0,1,2.58-.9,2.432,2.432,0,0,1,1.969,1.056l-1.868,1.341a1.121,1.121,0,0,0-.735-.477,1.351,1.351,0,0,0-1,.319,1.376,1.376,0,0,0-.576.737.831.831,0,0,0,.13.73.71.71,0,0,0,.653.29,3.716,3.716,0,0,0,1.23-.383,9.949,9.949,0,0,1,1.4-.532,2.379,2.379,0,0,1,2.831.819,2.243,2.243,0,0,1,.291,2.138,4.356,4.356,0,0,1-1.7,2.115,4.559,4.559,0,0,1-1.785.807,3.227,3.227,0,0,1-1.688-.091,2.457,2.457,0,0,1-1.234-.9l1.771-1.271a1.209,1.209,0,0,0,.917.5,1.8,1.8,0,0,0,1.109-.395,1.655,1.655,0,0,0,.666-.786.778.778,0,0,0-.109-.731" transform="translate(-16.709 -12.126)" fill="#12263f"/>
          <path id="Trazado_214425" data-name="Trazado 214425" d="M96.558,425.254l-1.5-3.909-2.513.113-.911-2.371L104,418.959l.793,2.066-9.264,8.2-.911-2.37Zm.535-4,1.039,2.7,3.528-2.915Z" transform="translate(-8.64 -39.503)"/>
          <path id="Trazado_214426" data-name="Trazado 214426" d="M105.1,429.28l-.879.47a3.01,3.01,0,0,1,2.061,1.792,2.5,2.5,0,0,1,.094,2.189,3.757,3.757,0,0,1-1.918,1.6L99.37,437.6l-.936-2.1,5.044-2.246a1.5,1.5,0,0,0,.844-.724,1.42,1.42,0,0,0-.129-1.1,1.583,1.583,0,0,0-1.35-.994l-5.56,2.476-.937-2.1,7.869-3.5Z" transform="translate(-9.084 -40.289)"/>
          <path id="Trazado_214427" data-name="Trazado 214427" d="M102.978,444.858a2.591,2.591,0,0,1,.586-.553,2.785,2.785,0,0,1-1.81-1.522,3.066,3.066,0,0,1-.29-2.2,2.353,2.353,0,0,1,1.274-1.573,2.433,2.433,0,0,1,2.334-.04,5.012,5.012,0,0,1,1.982,2.286l.476.946.44-.223a1.415,1.415,0,0,0,.716-.7,1.21,1.21,0,0,0-.116-1.025,1.371,1.371,0,0,0-.659-.688.945.945,0,0,0-.831.049l-1.035-2.054a2.31,2.31,0,0,1,1.444-.212,3.059,3.059,0,0,1,1.48.716,4.761,4.761,0,0,1,1.176,1.529,3.759,3.759,0,0,1,.425,2.617,2.8,2.8,0,0,1-1.588,1.847l-3.334,1.681a4.1,4.1,0,0,0-1.5,1.14l-.121.061Zm.573-2.419a1.98,1.98,0,0,0,.625.736,1.484,1.484,0,0,0,.831.294l1.321-.667-.386-.768q-.777-1.542-1.895-1.1l-.125.054a.925.925,0,0,0-.495.59,1.171,1.171,0,0,0,.123.865m9.884-4,1.129,2.239-3.2-.859-.841-1.67Z" transform="translate(-9.558 -41.233)"/>
          <rect id="Rectángulo_40327" data-name="Rectángulo 40327" width="12.227" height="2.308" transform="translate(95.334 407.249) rotate(-28.758)"/>
          <path id="Trazado_214428" data-name="Trazado 214428" d="M108.837,455.4l-1.158-2,7.452-4.319,1.158,2Zm8.156-7.553a1.133,1.133,0,0,1,.909-.126,1.489,1.489,0,0,1,.944,1.628,1.214,1.214,0,0,1-1.482.854,1.473,1.473,0,0,1-.938-1.618,1.132,1.132,0,0,1,.567-.739" transform="translate(-10.153 -42.21)"/>
          <path id="Trazado_214429" data-name="Trazado 214429" d="M114.712,460.523a.744.744,0,0,0,.341-.706,4.771,4.771,0,0,0-.344-1.368q-1.081-2.948.583-3.99a2.369,2.369,0,0,1,2.128-.21,3.849,3.849,0,0,1,1.971,1.7,4.133,4.133,0,0,1,.736,2.632,2.432,2.432,0,0,1-1.178,1.9l-1.22-1.95a1.116,1.116,0,0,0,.523-.7,1.355,1.355,0,0,0-.255-1.015,1.375,1.375,0,0,0-.7-.622.83.83,0,0,0-.736.085.705.705,0,0,0-.329.634,3.716,3.716,0,0,0,.3,1.251,10.116,10.116,0,0,1,.442,1.433,2.383,2.383,0,0,1-1,2.775,2.248,2.248,0,0,1-2.153.154,4.358,4.358,0,0,1-2-1.827,4.547,4.547,0,0,1-.693-1.834,3.222,3.222,0,0,1,.2-1.679,2.462,2.462,0,0,1,.979-1.175l1.157,1.849a1.2,1.2,0,0,0-.556.883,1.807,1.807,0,0,0,.322,1.131,1.677,1.677,0,0,0,.744.715.785.785,0,0,0,.736-.062" transform="translate(-10.475 -42.815)"/>
          <path id="Trazado_214430" data-name="Trazado 214430" d="M116.608,467.611l-1.291-1.914,7.141-4.816,1.291,1.914Zm7.622-8.087a1.131,1.131,0,0,1,.9-.189,1.49,1.49,0,0,1,1.052,1.561,1.214,1.214,0,0,1-1.421.954,1.475,1.475,0,0,1-1.046-1.551,1.131,1.131,0,0,1,.515-.774" transform="translate(-10.873 -43.307)"/>
          <path id="Trazado_214431" data-name="Trazado 214431" d="M122.8,472.353a.741.741,0,0,0,.293-.728,4.811,4.811,0,0,0-.436-1.34q-1.282-2.868.311-4.02a2.367,2.367,0,0,1,2.107-.354,3.84,3.84,0,0,1,2.082,1.564,4.134,4.134,0,0,1,.916,2.578,2.436,2.436,0,0,1-1.049,1.973l-1.35-1.863a1.117,1.117,0,0,0,.476-.736,1.349,1.349,0,0,0-.323-.994,1.377,1.377,0,0,0-.742-.575.833.833,0,0,0-.728.135.709.709,0,0,0-.286.656,3.729,3.729,0,0,0,.389,1.227,9.975,9.975,0,0,1,.538,1.4,2.38,2.38,0,0,1-.806,2.835,2.247,2.247,0,0,1-2.137.3,4.366,4.366,0,0,1-2.122-1.686,4.577,4.577,0,0,1-.815-1.782,3.228,3.228,0,0,1,.084-1.688,2.468,2.468,0,0,1,.9-1.24l1.28,1.766a1.2,1.2,0,0,0-.494.918,1.792,1.792,0,0,0,.4,1.107,1.663,1.663,0,0,0,.789.662.783.783,0,0,0,.731-.111" transform="translate(-11.225 -43.92)"/>
          <path id="Trazado_214432" data-name="Trazado 214432" d="M127.009,481.583l5.356-4.391-.813-.991,1.305-1.071.812.992.568-.465a2.97,2.97,0,0,1,2.267-.783,3.221,3.221,0,0,1,2.095,1.292,5.463,5.463,0,0,1,.62,1.006l-1.383,1.1a2.946,2.946,0,0,0-.389-.587,1.116,1.116,0,0,0-1.772-.226l-.54.444,1.085,1.323-1.3,1.07-1.087-1.323-5.355,4.391Z" transform="translate(-11.975 -44.773)"/>
          <path id="Trazado_214433" data-name="Trazado 214433" d="M132.422,487.936l-1.512-1.745,6.51-5.64,1.512,1.744Zm6.6-8.947a1.133,1.133,0,0,1,.869-.3,1.5,1.5,0,0,1,1.234,1.423,1.216,1.216,0,0,1-1.3,1.118,1.476,1.476,0,0,1-1.225-1.414,1.13,1.13,0,0,1,.418-.831" transform="translate(-12.343 -45.134)"/>
          <path id="Trazado_214434" data-name="Trazado 214434" d="M141.868,485.762l-.678.729a3.011,3.011,0,0,1,2.531,1.026,2.5,2.5,0,0,1,.8,2.04,3.757,3.757,0,0,1-1.292,2.139l-4.073,3.791-1.568-1.683,4.041-3.762a1.5,1.5,0,0,0,.562-.96,1.426,1.426,0,0,0-.478-1,1.582,1.582,0,0,0-1.6-.5l-4.453,4.149-1.568-1.684,6.3-5.87Z" transform="translate(-12.643 -45.652)"/>
          <path id="Trazado_214435" data-name="Trazado 214435" d="M144.935,501.253a2.507,2.507,0,0,1,.374-.714,2.785,2.785,0,0,1-2.206-.852,3.061,3.061,0,0,1-.989-1.99,2.357,2.357,0,0,1,.7-1.9A2.435,2.435,0,0,1,145,495a5.014,5.014,0,0,1,2.616,1.52l.758.739.344-.352a1.427,1.427,0,0,0,.448-.9,1.2,1.2,0,0,0-.442-.932,1.372,1.372,0,0,0-.847-.438.95.95,0,0,0-.771.316l-1.645-1.607a2.3,2.3,0,0,1,1.3-.668,3.052,3.052,0,0,1,1.632.2A4.755,4.755,0,0,1,150,493.942a3.759,3.759,0,0,1,1.249,2.339,2.8,2.8,0,0,1-.9,2.262l-2.608,2.672a4.112,4.112,0,0,0-1.051,1.565l-.1.1Zm-.244-2.474a1.965,1.965,0,0,0,.831.494,1.486,1.486,0,0,0,.881.01l1.034-1.06-.616-.6q-1.235-1.206-2.148-.43l-.1.091a.92.92,0,0,0-.278.718,1.169,1.169,0,0,0,.4.777" transform="translate(-13.399 -46.45)"/>
          <path id="Trazado_214436" data-name="Trazado 214436" d="M155.782,499.547l-.608.792a3.006,3.006,0,0,1,2.618.78,2.5,2.5,0,0,1,.991,1.954,3.756,3.756,0,0,1-1.084,2.253l-3.7,4.162-1.719-1.528,3.665-4.13a1.493,1.493,0,0,0,.47-1.006,1.422,1.422,0,0,0-.572-.951,1.582,1.582,0,0,0-1.641-.347l-4.041,4.552-1.721-1.527,5.719-6.441Z" transform="translate(-13.997 -46.966)"/>
          <path id="Trazado_214437" data-name="Trazado 214437" d="M160.32,512.506a1.507,1.507,0,0,0,1.025.377,1.221,1.221,0,0,0,.906-.464l1.68,1.355a2.969,2.969,0,0,1-1.378.947,3.149,3.149,0,0,1-1.712.072,4.012,4.012,0,0,1-1.655-.82,3.729,3.729,0,0,1-1.529-2.743,4.642,4.642,0,0,1,1.206-3.194l.094-.118a4.6,4.6,0,0,1,2.819-1.807,3.7,3.7,0,0,1,3.007.9,3.627,3.627,0,0,1,1.439,2.342,3.256,3.256,0,0,1-.767,2.527l-1.679-1.354a1.585,1.585,0,0,0,.364-1.11,1.539,1.539,0,0,0-1.867-1.294,3.4,3.4,0,0,0-1.513,1.223l-.15.187a3.421,3.421,0,0,0-.885,1.744,1.4,1.4,0,0,0,.594,1.228" transform="translate(-14.865 -47.716)"/>
          <path id="Trazado_214438" data-name="Trazado 214438" d="M165.835,518.644l-1.846-1.388,5.178-6.883,1.846,1.387Zm4.565-10.133a1.13,1.13,0,0,1,.79-.472,1.49,1.49,0,0,1,1.5,1.131,1.218,1.218,0,0,1-1.033,1.366,1.477,1.477,0,0,1-1.5-1.125,1.131,1.131,0,0,1,.235-.9" transform="translate(-15.462 -47.901)"/>
          <path id="Trazado_214439" data-name="Trazado 214439" d="M171.2,522.974a4.232,4.232,0,0,1-1.861-2.72,4.126,4.126,0,0,1,.8-3.221l.128-.182a5.2,5.2,0,0,1,1.74-1.616,3.685,3.685,0,0,1,2.068-.477,3.979,3.979,0,0,1,2.036.748,3.575,3.575,0,0,1,1.643,2.507,4.541,4.541,0,0,1-.979,3.173l-.538.77-4.5-3.143a2.135,2.135,0,0,0-.223,1.5,2.027,2.027,0,0,0,.871,1.231,2.482,2.482,0,0,0,2.255.4l.2,1.685a3.444,3.444,0,0,1-1.8.133,4.615,4.615,0,0,1-1.84-.784m3.839-5.952a1.445,1.445,0,0,0-1.176-.256,2.4,2.4,0,0,0-1.207.777l2.623,1.832.105-.15a1.715,1.715,0,0,0,.341-1.211,1.486,1.486,0,0,0-.687-.992" transform="translate(-15.96 -48.534)"/>
          <path id="Trazado_214440" data-name="Trazado 214440" d="M183.734,523.285a6.127,6.127,0,0,0-.661-.5,1.686,1.686,0,0,0-1.918-.181l-3.045,4.743-1.936-1.243,4.652-7.248,1.83,1.175-.5.9a2.13,2.13,0,0,1,2.254.038,2.427,2.427,0,0,1,.547.474Z" transform="translate(-16.611 -48.922)"/>
          <path id="Trazado_214441" data-name="Trazado 214441" d="M183.71,525.773a5.111,5.111,0,0,1,1.584-1.719,3.617,3.617,0,0,1,2.013-.617,4.134,4.134,0,0,1,2.134.618,3.926,3.926,0,0,1,1.913,2.362,4.285,4.285,0,0,1-.409,3.121l-.284.516a4.505,4.505,0,0,1-2.567,2.18,4.289,4.289,0,0,1-5.124-3.009,4.578,4.578,0,0,1,.688-3.363Zm1.9,1.308a3.208,3.208,0,0,0-.554,1.852,1.658,1.658,0,0,0,2.26,1.339,3.52,3.52,0,0,0,1.446-1.531,3.189,3.189,0,0,0,.542-1.846,1.53,1.53,0,0,0-.8-1.241,1.509,1.509,0,0,0-1.46-.1,3.583,3.583,0,0,0-1.43,1.523" transform="translate(-17.243 -49.354)"/>
          <path id="Trazado_214442" data-name="Trazado 214442" d="M453.277,548.964a4.1,4.1,0,0,1-.189,3.248,4.85,4.85,0,0,1-2.65,2.216,4.36,4.36,0,0,1-3.813-.091,6.155,6.155,0,0,1-2.716-3.351l-.263-.657a6.945,6.945,0,0,1-.546-2.954,4.407,4.407,0,0,1,.837-2.439,5.265,5.265,0,0,1,5.509-1.778,4.4,4.4,0,0,1,2.435,2.274l-2.217.887a2.427,2.427,0,0,0-1.186-1.28,2.318,2.318,0,0,0-1.706.139,2.029,2.029,0,0,0-1.341,1.458,4.783,4.783,0,0,0,.421,2.691l.324.813a5.152,5.152,0,0,0,1.548,2.339,1.993,1.993,0,0,0,1.99.138,2.357,2.357,0,0,0,1.346-1.081,2.293,2.293,0,0,0,0-1.686Z" transform="translate(-41.778 -51.191)"/>
          <path id="Trazado_214443" data-name="Trazado 214443" d="M461.092,550.192a4.225,4.225,0,0,1-3.288.238,4.132,4.132,0,0,1-2.379-2.31l-.093-.2a5.212,5.212,0,0,1-.518-2.318,3.68,3.68,0,0,1,.628-2.027,3.988,3.988,0,0,1,1.673-1.382,3.569,3.569,0,0,1,2.992-.155,4.516,4.516,0,0,1,2.247,2.443l.394.852-4.979,2.3a2.141,2.141,0,0,0,1.18.946,2.029,2.029,0,0,0,1.5-.133,2.48,2.48,0,0,0,1.482-1.747l1.557.675A3.442,3.442,0,0,1,462.7,549a4.591,4.591,0,0,1-1.6,1.195m-3.207-6.315a1.441,1.441,0,0,0-.813.888,2.389,2.389,0,0,0,.062,1.434l2.9-1.343-.077-.167a1.721,1.721,0,0,0-.874-.906,1.489,1.489,0,0,0-1.2.094" transform="translate(-42.883 -51.083)"/>
          <path id="Trazado_214444" data-name="Trazado 214444" d="M464.323,538.765l.524.849a3.006,3.006,0,0,1,1.659-2.17,2.5,2.5,0,0,1,2.179-.23,3.755,3.755,0,0,1,1.72,1.813l2.577,4.932-2.039,1.066-2.558-4.894a1.5,1.5,0,0,0-.775-.8,1.433,1.433,0,0,0-1.092.2,1.58,1.58,0,0,0-.906,1.41l2.818,5.4-2.04,1.066-3.988-7.634Z" transform="translate(-43.599 -50.638)"/>
          <path id="Trazado_214445" data-name="Trazado 214445" d="M472.535,531.79l1.054,1.837,1.277-.732.84,1.463-1.278.734,2.139,3.727a1.018,1.018,0,0,0,.5.5.913.913,0,0,0,.711-.168,3.728,3.728,0,0,0,.559-.384l.868,1.511a4.735,4.735,0,0,1-1.106.873,2.2,2.2,0,0,1-3.356-.892l-2.309-4.026-1.091.626-.84-1.465,1.09-.625-1.053-1.838Z" transform="translate(-44.363 -50.141)"/>
          <path id="Trazado_214446" data-name="Trazado 214446" d="M481.737,531.343a6.206,6.206,0,0,0-.738.38,1.688,1.688,0,0,0-1,1.649l2.954,4.8L481,539.378l-4.514-7.336,1.85-1.138.592.841a2.133,2.133,0,0,1,1.013-2.016,2.429,2.429,0,0,1,.665-.287Z" transform="translate(-44.927 -49.92)"/>
          <path id="Trazado_214447" data-name="Trazado 214447" d="M490.833,533.128a2.521,2.521,0,0,1-.621-.513,2.787,2.787,0,0,1-1.288,1.983,3.061,3.061,0,0,1-2.151.557,2.354,2.354,0,0,1-1.718-1.071,2.439,2.439,0,0,1-.326-2.311,5.026,5.026,0,0,1,2.027-2.248l.879-.587-.274-.41a1.419,1.419,0,0,0-.787-.624,1.2,1.2,0,0,0-1,.24,1.368,1.368,0,0,0-.6.738.951.951,0,0,0,.151.82l-1.912,1.279a2.31,2.31,0,0,1-.388-1.407,3.043,3.043,0,0,1,.53-1.557,4.774,4.774,0,0,1,1.372-1.355,3.758,3.758,0,0,1,2.546-.74,2.793,2.793,0,0,1,2.027,1.349l2.077,3.1a4.138,4.138,0,0,0,1.316,1.351l.076.111Zm-2.472-.271a1.991,1.991,0,0,0,.656-.711,1.51,1.51,0,0,0,.191-.861l-.825-1.231-.715.479q-1.433.961-.863,2.014l.068.117a.922.922,0,0,0,.646.421,1.17,1.17,0,0,0,.842-.228" transform="translate(-45.524 -49.586)"/>
          <rect id="Rectángulo_40328" data-name="Rectángulo 40328" width="2.308" height="12.228" transform="matrix(0.811, -0.585, 0.585, 0.811, 441.513, 471.282)"/>
          <path id="Trazado_214448" data-name="Trazado 214448" d="M502.187,525.064a4.236,4.236,0,0,1-3.15.973,4.134,4.134,0,0,1-2.839-1.718l-.137-.175A5.221,5.221,0,0,1,495.035,522a3.689,3.689,0,0,1,.157-2.117,4,4,0,0,1,1.318-1.724,3.577,3.577,0,0,1,2.883-.824,4.52,4.52,0,0,1,2.737,1.874l.577.742-4.333,3.362a2.125,2.125,0,0,0,1.361.658,2.029,2.029,0,0,0,1.434-.468,2.481,2.481,0,0,0,1.052-2.035l1.668.307a3.439,3.439,0,0,1-.406,1.762,4.618,4.618,0,0,1-1.3,1.525m-4.547-5.431a1.444,1.444,0,0,0-.593,1.048,2.4,2.4,0,0,0,.383,1.382l2.529-1.962-.113-.146a1.719,1.719,0,0,0-1.054-.684,1.481,1.481,0,0,0-1.151.361" transform="translate(-46.668 -48.774)"/>
          <path id="Trazado_214449" data-name="Trazado 214449" d="M508.812,516.331a.743.743,0,0,0-.75-.235,4.774,4.774,0,0,0-1.3.54q-2.757,1.5-4.032.007a2.364,2.364,0,0,1-.516-2.074,3.839,3.839,0,0,1,1.394-2.2,4.141,4.141,0,0,1,2.5-1.114,2.435,2.435,0,0,1,2.049.889l-1.751,1.493a1.116,1.116,0,0,0-.772-.415,1.354,1.354,0,0,0-.967.4,1.38,1.38,0,0,0-.514.783.829.829,0,0,0,.192.716.706.706,0,0,0,.676.235,3.723,3.723,0,0,0,1.193-.484,9.851,9.851,0,0,1,1.353-.646,2.381,2.381,0,0,1,2.89.581,2.247,2.247,0,0,1,.467,2.107,4.358,4.358,0,0,1-1.514,2.248,4.556,4.556,0,0,1-1.713.953,3.226,3.226,0,0,1-1.691.049,2.464,2.464,0,0,1-1.306-.8l1.661-1.416a1.2,1.2,0,0,0,.955.421,1.8,1.8,0,0,0,1.071-.485,1.668,1.668,0,0,0,.6-.839.782.782,0,0,0-.168-.719" transform="translate(-47.347 -48.205)"/>
          <path id="Trazado_214450" data-name="Trazado 214450" d="M514.173,508.457a5.194,5.194,0,0,1-1.6-2.925,2.933,2.933,0,0,1,.932-2.582,2.636,2.636,0,0,1,2.142-.781l-3.072-3.142,1.65-1.614,8.551,8.741-1.486,1.453-.72-.577a2.7,2.7,0,0,1-.831,2.316,2.921,2.921,0,0,1-2.582.85,5.351,5.351,0,0,1-2.986-1.738m1.759-1.492a3.424,3.424,0,0,0,1.6,1.037,1.376,1.376,0,0,0,1.33-.395,1.538,1.538,0,0,0,.444-1.7l-2.387-2.441a1.514,1.514,0,0,0-1.7.395q-1.19,1.163.706,3.1" transform="translate(-48.327 -46.9)"/>
          <path id="Trazado_214451" data-name="Trazado 214451" d="M527.77,501.545a4.23,4.23,0,0,1-2.951,1.47,4.13,4.13,0,0,1-3.078-1.236l-.164-.151a5.2,5.2,0,0,1-1.359-1.947,3.675,3.675,0,0,1-.187-2.113,3.977,3.977,0,0,1,1.022-1.914,3.573,3.573,0,0,1,2.709-1.28,4.524,4.524,0,0,1,3.006,1.407l.688.639-3.732,4.019a2.129,2.129,0,0,0,1.449.427,2.024,2.024,0,0,0,1.341-.695,2.481,2.481,0,0,0,.708-2.177l1.7.033a3.459,3.459,0,0,1-.117,1.8,4.6,4.6,0,0,1-1.032,1.714m-5.364-4.624a1.434,1.434,0,0,0-.416,1.129,2.412,2.412,0,0,0,.6,1.3l2.176-2.345-.133-.126a1.718,1.718,0,0,0-1.153-.5,1.485,1.485,0,0,0-1.076.543" transform="translate(-49.025 -46.613)"/>
          <path id="Trazado_214452" data-name="Trazado 214452" d="M533.9,486.972l-1.19,1.484,3.31,2.655-1.493,1.863-9.044-7.251,2.694-3.359a4.873,4.873,0,0,1,2.7-1.9,3.163,3.163,0,0,1,2.715.749,3.564,3.564,0,0,1,1.221,1.638,3.5,3.5,0,0,1,.012,2l5.264,1.006.086.07-1.6,2Zm-2.7.274,1.206-1.5a1.968,1.968,0,0,0,.513-1.373,1.638,1.638,0,0,0-.676-1.174,1.748,1.748,0,0,0-1.3-.444,1.932,1.932,0,0,0-1.261.821l-1.2,1.5Z" transform="translate(-49.546 -45.296)"/>
          <path id="Trazado_214453" data-name="Trazado 214453" d="M532.955,477.811a1.132,1.132,0,0,1-.48-.784,1.49,1.49,0,0,1,1.12-1.513,1.215,1.215,0,0,1,1.373,1.021,1.475,1.475,0,0,1-1.112,1.5,1.124,1.124,0,0,1-.9-.226m10.17,4.481-1.373,1.856-6.925-5.121,1.373-1.856Z" transform="translate(-50.205 -44.833)"/>
          <path id="Trazado_214454" data-name="Trazado 214454" d="M547.395,476.93a4.221,4.221,0,0,1-2.7,1.884,4.13,4.13,0,0,1-3.225-.771l-.185-.128a5.187,5.187,0,0,1-1.628-1.726,3.674,3.674,0,0,1-.495-2.063,3.989,3.989,0,0,1,.731-2.043,3.579,3.579,0,0,1,2.493-1.662,4.533,4.533,0,0,1,3.18.953l.774.532-3.106,4.521a2.138,2.138,0,0,0,1.5.211,2.035,2.035,0,0,0,1.225-.882,2.485,2.485,0,0,0,.382-2.258l1.683-.216a3.445,3.445,0,0,1,.149,1.8,4.592,4.592,0,0,1-.772,1.847m-5.981-3.79a1.44,1.44,0,0,0-.246,1.178,2.4,2.4,0,0,0,.785,1.2l1.812-2.637-.151-.105a1.717,1.717,0,0,0-1.214-.331,1.486,1.486,0,0,0-.986.694" transform="translate(-50.835 -44.352)"/>
          <path id="Trazado_214455" data-name="Trazado 214455" d="M551.06,466.589a.739.739,0,0,0-.785,0,4.716,4.716,0,0,0-1.077.909q-2.17,2.27-3.839,1.232a2.366,2.366,0,0,1-1.125-1.819,3.846,3.846,0,0,1,.661-2.518,4.133,4.133,0,0,1,2.041-1.82,2.43,2.43,0,0,1,2.223.225l-1.214,1.954a1.112,1.112,0,0,0-.861-.16,1.347,1.347,0,0,0-.8.675,1.381,1.381,0,0,0-.253.9.833.833,0,0,0,.4.623.709.709,0,0,0,.716.018,3.7,3.7,0,0,0,.989-.824,10.018,10.018,0,0,1,1.093-1.026,2.382,2.382,0,0,1,2.93-.325,2.246,2.246,0,0,1,1.085,1.865,4.358,4.358,0,0,1-.76,2.6,4.557,4.557,0,0,1-1.341,1.428,3.23,3.23,0,0,1-1.6.561,2.467,2.467,0,0,1-1.486-.361l1.152-1.853a1.2,1.2,0,0,0,1.036.111,1.792,1.792,0,0,0,.875-.788,1.674,1.674,0,0,0,.315-.981.782.782,0,0,0-.38-.634" transform="translate(-51.312 -43.599)"/>
          <path id="Trazado_214456" data-name="Trazado 214456" d="M551.662,461.636a5.052,5.052,0,0,1-2.328-2.379,3.057,3.057,0,0,1,.182-2.81,2.684,2.684,0,0,1,1.923-1.453l-.661-.479,1.014-1.82,7.272,4.057a3.668,3.668,0,0,1,1.466,1.407,3.292,3.292,0,0,1,.408,1.882,5.056,5.056,0,0,1-.68,2.118,4.714,4.714,0,0,1-1.23,1.428,3.261,3.261,0,0,1-1.514.714l-.727-1.572a2.69,2.69,0,0,0,1.857-1.351,1.972,1.972,0,0,0,.267-1.484,1.834,1.834,0,0,0-.965-1.121l-.4-.226a2.656,2.656,0,0,1-.235,2.267,3.051,3.051,0,0,1-2.285,1.6,5.051,5.051,0,0,1-3.279-.732Zm1.264-1.929a3.158,3.158,0,0,0,1.838.487,1.49,1.49,0,0,0,1.212-.8,1.594,1.594,0,0,0,.042-1.7l-3.176-1.773a1.594,1.594,0,0,0-1.418.915,1.5,1.5,0,0,0-.039,1.468,3.555,3.555,0,0,0,1.542,1.4" transform="translate(-51.771 -42.683)"/>
          <path id="Trazado_214457" data-name="Trazado 214457" d="M556.687,452.632a5.1,5.1,0,0,1-1.83-1.455,3.612,3.612,0,0,1-.761-1.962,4.152,4.152,0,0,1,.461-2.174,3.924,3.924,0,0,1,2.22-2.078,4.276,4.276,0,0,1,3.141.182l.535.247a4.5,4.5,0,0,1,2.36,2.4,4.289,4.289,0,0,1-2.631,5.328,4.584,4.584,0,0,1-3.4-.444Zm1.165-1.99a3.223,3.223,0,0,0,1.888.418,1.659,1.659,0,0,0,1.173-2.351,3.521,3.521,0,0,0-1.632-1.33,3.18,3.18,0,0,0-1.881-.407,1.528,1.528,0,0,0-1.179.892,1.5,1.5,0,0,0,.012,1.461,3.583,3.583,0,0,0,1.62,1.317" transform="translate(-52.243 -41.934)"/>
        </g>
      </g>
    </g>
  </g>
</svg>
