<svg xmlns="http://www.w3.org/2000/svg" xmlns:xlink="http://www.w3.org/1999/xlink" width="185.04" height="165.228" viewBox="0 0 185.04 165.228">
  <defs>
    <clipPath id="clip-path">
      <rect id="Rect치ngulo_39393" data-name="Rect치ngulo 39393" width="185.04" height="165.228" fill="none"/>
    </clipPath>
    <clipPath id="clip-path-3">
      <rect id="Rect치ngulo_39388" data-name="Rect치ngulo 39388" width="167.812" height="90.676" fill="none"/>
    </clipPath>
  </defs>
  <g id="Grupo_149967" data-name="Grupo 149967" transform="translate(-967 -2476.869)">
    <g id="Grupo_148270" data-name="Grupo 148270" transform="translate(967 2476.869)">
      <g id="Grupo_148269" data-name="Grupo 148269" clip-path="url(#clip-path)">
        <g id="Grupo_148262" data-name="Grupo 148262">
          <g id="Grupo_148261" data-name="Grupo 148261" clip-path="url(#clip-path)">
            <g id="Grupo_148260" data-name="Grupo 148260" transform="translate(0 74.553)" opacity="0.4">
              <g id="Grupo_148259" data-name="Grupo 148259">
                <g id="Grupo_148258" data-name="Grupo 148258" clip-path="url(#clip-path-3)">
                  <path id="Trazado_210892" data-name="Trazado 210892" d="M170.912,117.05,122.13,90.237,62.673,124.564l66.549,38.423h49.483Z" transform="translate(-10.893 -90.237)" fill="#ada6a3"/>
                  <path id="Trazado_210893" data-name="Trazado 210893" d="M139.626,127.9,90.844,101.085,31.387,135.413l66.549,38.423h49.483Z" transform="translate(-5.455 -92.123)" fill="#ada6a3"/>
                  <path id="Trazado_210894" data-name="Trazado 210894" d="M108.24,138.747,59.457,111.934,0,146.261,66.55,184.684h49.483Z" transform="translate(0 -94.008)" fill="#ada6a3"/>
                </g>
              </g>
            </g>
          </g>
        </g>
        <path id="Trazado_210895" data-name="Trazado 210895" d="M149.509,102.88l59.824,34.54.041-102.3L149.549.582Z" transform="translate(-25.987 -0.101)" fill="#d2cfcc"/>
        <path id="Trazado_210896" data-name="Trazado 210896" d="M207.894,119.275l.034-78.986L150.1,6.9l-.041,97.673,43.276,24.986Z" transform="translate(-26.082 -1.2)" fill="#f8f5f4"/>
        <path id="Trazado_210897" data-name="Trazado 210897" d="M206.755,120.109l.034-79.162L148.96,7.559l-.041,97.673L192.25,130.25Z" transform="translate(-25.884 -1.314)" fill="#f8f5f4"/>
        <path id="Trazado_210898" data-name="Trazado 210898" d="M205.616,120.911l.034-79.306L147.821,8.218l-.041,97.673,43.386,25.048Z" transform="translate(-25.686 -1.428)" fill="#f8f5f4"/>
        <path id="Trazado_210899" data-name="Trazado 210899" d="M204.477,121.713l.034-79.45L146.682,8.875l-.041,97.673,43.44,25.081Z" transform="translate(-25.488 -1.543)" fill="#f8f5f4"/>
        <path id="Trazado_210900" data-name="Trazado 210900" d="M203.338,122.515l.034-79.595L145.543,9.532l-.041,97.673L189,132.318Z" transform="translate(-25.29 -1.657)" fill="#f8f5f4"/>
        <path id="Trazado_210901" data-name="Trazado 210901" d="M202.2,123.317l.035-79.739L144.4,10.191l-.041,97.673,43.55,25.143Z" transform="translate(-25.092 -1.771)" fill="#f8f5f4"/>
        <path id="Trazado_210902" data-name="Trazado 210902" d="M186.953,133.615l14.107-9.5.034-79.883L143.265,10.848l-.041,97.673,43.6,25.173Z" transform="translate(-24.894 -1.886)" fill="#f8f5f4"/>
        <path id="Trazado_210903" data-name="Trazado 210903" d="M186.755,133.729l13.166-8.809.034-80.027L142.126,11.506l-.041,97.673,43.633,25.191Z" transform="translate(-24.696 -2)" fill="#f8f5f4"/>
        <path id="Trazado_210904" data-name="Trazado 210904" d="M186.557,133.844l12.224-8.149.035-80.144L140.987,12.163l-.041,97.673,43.663,25.209Z" transform="translate(-24.498 -2.114)" fill="#f8f5f4"/>
        <path id="Trazado_210905" data-name="Trazado 210905" d="M186.359,133.958l11.283-7.5.035-80.247L139.848,12.821l-.041,97.673L183.5,135.721Z" transform="translate(-24.3 -2.228)" fill="#f8f5f4"/>
        <path id="Trazado_210906" data-name="Trazado 210906" d="M186.161,134.072l10.342-6.856.035-80.351L138.709,13.479l-.041,97.673L182.394,136.4Z" transform="translate(-24.102 -2.343)" fill="#f8f5f4"/>
        <path id="Trazado_210907" data-name="Trazado 210907" d="M185.963,134.187l9.4-6.21.035-80.453L137.57,14.136l-.041,97.673,43.757,25.263Z" transform="translate(-23.904 -2.457)" fill="#f8f5f4"/>
        <path id="Trazado_210908" data-name="Trazado 210908" d="M185.765,134.3l8.46-5.563.035-80.557L136.431,14.794l-.041,97.673,43.789,25.281Z" transform="translate(-23.706 -2.571)" fill="#f8f5f4"/>
        <path id="Trazado_210909" data-name="Trazado 210909" d="M185.567,134.415l7.519-4.917.035-80.66L135.292,15.451l-.041,97.673,43.814,25.3Z" transform="translate(-23.508 -2.686)" fill="#f8f5f4"/>
        <path id="Trazado_210910" data-name="Trazado 210910" d="M129.748,12.089l-.041,102.3,60.65,35.016.041-102.3Z" transform="translate(-22.545 -2.101)" fill="#d2cfcc"/>
        <g id="Grupo_148264" data-name="Grupo 148264">
          <g id="Grupo_148263" data-name="Grupo 148263" clip-path="url(#clip-path)">
            <path id="Trazado_210911" data-name="Trazado 210911" d="M203.156,52.371l-.041,102.3,17.187-9.988.042-102.3Zm9.528,76.488c-2.129,1.229-3.853.247-3.86-2.2a8.458,8.458,0,0,1,3.835-6.654c2.128-1.229,3.862-.241,3.87,2.206a8.458,8.458,0,0,1-3.845,6.647" transform="translate(-35.304 -7.367)" fill="#e9e6e6"/>
            <path id="Trazado_210912" data-name="Trazado 210912" d="M218.24,111.358l-11.357,6.557V61.029l11.357-6.557Z" transform="translate(-35.959 -9.468)" fill="#f8f5f4"/>
            <path id="Trazado_210913" data-name="Trazado 210913" d="M213.885,145.078c-2.129,1.229-3.853.247-3.86-2.2a8.458,8.458,0,0,1,3.835-6.654c2.128-1.229,3.862-.241,3.87,2.206a8.458,8.458,0,0,1-3.845,6.648" transform="translate(-36.505 -23.586)" fill="#2d2b29"/>
            <path id="Trazado_210914" data-name="Trazado 210914" d="M217.033,136.754l-.625-.363a2.352,2.352,0,0,1,.981,2.155,7.381,7.381,0,0,1-3.35,5.789,2.358,2.358,0,0,1-2.381.23l.625.364a2.36,2.36,0,0,0,2.381-.23,7.383,7.383,0,0,0,3.35-5.789,2.354,2.354,0,0,0-.981-2.156" transform="translate(-36.789 -23.707)" fill="#b7bbbc"/>
            <path id="Trazado_210915" data-name="Trazado 210915" d="M216.591,135.181a2.92,2.92,0,0,0-2.946.288,9.078,9.078,0,0,0-4.117,7.143,2.9,2.9,0,0,0,1.2,2.652l.625.364a2.9,2.9,0,0,1-1.2-2.652,9.08,9.08,0,0,1,4.117-7.144,2.923,2.923,0,0,1,2.946-.288Z" transform="translate(-36.419 -23.448)" fill="#b7bbbc"/>
            <path id="Trazado_210916" data-name="Trazado 210916" d="M214.4,135.909a9.08,9.08,0,0,0-4.116,7.143c.007,2.626,1.857,3.681,4.143,2.361a9.082,9.082,0,0,0,4.128-7.137c-.007-2.627-1.869-3.688-4.155-2.368m.025,8.607c-1.845,1.065-3.354.2-3.36-1.915a7.38,7.38,0,0,1,3.338-5.8c1.856-1.071,3.366-.211,3.372,1.922a7.379,7.379,0,0,1-3.349,5.789" transform="translate(-36.55 -23.524)" fill="#cfd2d3"/>
            <path id="Trazado_210917" data-name="Trazado 210917" d="M146.944,0l-.827.481,59.824,34.54L190.4,44.051,130.576,9.512l-.82.476L190.406,45l17.187-9.989Z" transform="translate(-22.553 0)" fill="#f8f5f4"/>
          </g>
        </g>
        <path id="Trazado_210918" data-name="Trazado 210918" d="M178.038,45.969,178,148.268l-59.824-34.54.041-102.3Z" transform="translate(-20.54 -1.987)" fill="#027d77"/>
        <path id="Trazado_210919" data-name="Trazado 210919" d="M176.558,130.124l.034-78.985L118.763,17.751l-.041,97.673L162,140.41Z" transform="translate(-20.635 -3.085)" fill="#f8f5f4"/>
        <path id="Trazado_210920" data-name="Trazado 210920" d="M175.419,130.958l.034-79.162L117.624,18.408l-.041,97.673L160.913,141.1Z" transform="translate(-20.437 -3.2)" fill="#f8f5f4"/>
        <path id="Trazado_210921" data-name="Trazado 210921" d="M174.28,131.76l.034-79.306L116.485,19.066l-.041,97.673,43.386,25.048Z" transform="translate(-20.239 -3.314)" fill="#f8f5f4"/>
        <path id="Trazado_210922" data-name="Trazado 210922" d="M173.14,132.562l.034-79.45L115.345,19.724,115.3,117.4l43.44,25.081Z" transform="translate(-20.041 -3.428)" fill="#f8f5f4"/>
        <path id="Trazado_210923" data-name="Trazado 210923" d="M172,133.364l.034-79.595L114.207,20.382l-.041,97.673,43.495,25.112Z" transform="translate(-19.843 -3.543)" fill="#f8f5f4"/>
        <path id="Trazado_210924" data-name="Trazado 210924" d="M170.862,134.166l.034-79.739L113.067,21.039l-.041,97.673,43.55,25.144Z" transform="translate(-19.645 -3.657)" fill="#f8f5f4"/>
        <path id="Trazado_210925" data-name="Trazado 210925" d="M155.617,144.464l14.106-9.5.035-79.883L111.929,21.7l-.041,97.673,43.6,25.173Z" transform="translate(-19.448 -3.771)" fill="#f8f5f4"/>
        <path id="Trazado_210926" data-name="Trazado 210926" d="M155.419,144.578l13.165-8.809.035-80.027L110.79,22.354l-.041,97.673,43.633,25.191Z" transform="translate(-19.25 -3.885)" fill="#f8f5f4"/>
        <path id="Trazado_210927" data-name="Trazado 210927" d="M155.221,144.692l12.224-8.149L167.48,56.4,109.651,23.011l-.041,97.673,43.663,25.209Z" transform="translate(-19.052 -4)" fill="#f8f5f4"/>
        <path id="Trazado_210928" data-name="Trazado 210928" d="M155.023,144.806l11.283-7.5.035-80.247L108.512,23.669l-.041,97.673,43.695,25.227Z" transform="translate(-18.854 -4.114)" fill="#f8f5f4"/>
        <path id="Trazado_210929" data-name="Trazado 210929" d="M154.825,144.921l10.342-6.856.035-80.35L107.373,24.327,107.331,122l43.726,25.246Z" transform="translate(-18.656 -4.228)" fill="#f8f5f4"/>
        <path id="Trazado_210930" data-name="Trazado 210930" d="M154.627,145.035l9.4-6.21.035-80.453L106.234,24.984l-.041,97.673,43.757,25.263Z" transform="translate(-18.458 -4.343)" fill="#f8f5f4"/>
        <path id="Trazado_210931" data-name="Trazado 210931" d="M154.429,145.149l8.46-5.563.035-80.557L105.095,25.642l-.041,97.673L148.842,148.6Z" transform="translate(-18.26 -4.457)" fill="#f8f5f4"/>
        <path id="Trazado_210932" data-name="Trazado 210932" d="M154.231,145.264l7.519-4.917.035-80.66L103.956,26.3l-.041,97.673,43.814,25.3Z" transform="translate(-18.062 -4.571)" fill="#f8f5f4"/>
        <path id="Trazado_210933" data-name="Trazado 210933" d="M98.412,22.937l-.041,102.3,60.65,35.015.041-102.3Z" transform="translate(-17.098 -3.987)" fill="#027d77"/>
        <g id="Grupo_148266" data-name="Grupo 148266">
          <g id="Grupo_148265" data-name="Grupo 148265" clip-path="url(#clip-path)">
            <path id="Trazado_210934" data-name="Trazado 210934" d="M171.821,63.219l-.041,102.3,17.187-9.988.041-102.3Zm9.527,76.488c-2.129,1.229-3.853.247-3.86-2.2a8.46,8.46,0,0,1,3.835-6.654c2.129-1.229,3.863-.24,3.87,2.206a8.458,8.458,0,0,1-3.845,6.647" transform="translate(-29.858 -9.252)" fill="#039d95"/>
            <path id="Trazado_210935" data-name="Trazado 210935" d="M186.9,122.207l-11.357,6.557V71.877L186.9,65.321Z" transform="translate(-30.512 -11.354)" fill="#f8f5f4"/>
            <path id="Trazado_210936" data-name="Trazado 210936" d="M182.549,155.926c-2.129,1.229-3.853.247-3.86-2.2a8.46,8.46,0,0,1,3.835-6.654c2.129-1.229,3.863-.24,3.87,2.206a8.458,8.458,0,0,1-3.845,6.647" transform="translate(-31.059 -25.471)" fill="#2d2b29"/>
            <path id="Trazado_210937" data-name="Trazado 210937" d="M185.7,147.6l-.625-.363a2.353,2.353,0,0,1,.981,2.156,7.384,7.384,0,0,1-3.35,5.789,2.36,2.36,0,0,1-2.381.229l.625.364a2.36,2.36,0,0,0,2.381-.23,7.383,7.383,0,0,0,3.35-5.789,2.354,2.354,0,0,0-.981-2.156" transform="translate(-31.342 -25.592)" fill="#b7bbbc"/>
            <path id="Trazado_210938" data-name="Trazado 210938" d="M185.255,146.029a2.92,2.92,0,0,0-2.946.288,9.078,9.078,0,0,0-4.117,7.143,2.9,2.9,0,0,0,1.2,2.652l.625.364a2.894,2.894,0,0,1-1.2-2.652,9.081,9.081,0,0,1,4.117-7.144,2.924,2.924,0,0,1,2.946-.288Z" transform="translate(-30.972 -25.333)" fill="#b7bbbc"/>
            <path id="Trazado_210939" data-name="Trazado 210939" d="M183.064,146.757a9.08,9.08,0,0,0-4.116,7.143c.007,2.626,1.858,3.681,4.143,2.361a9.083,9.083,0,0,0,4.128-7.137c-.007-2.627-1.87-3.688-4.156-2.368m.025,8.607c-1.844,1.065-3.354.2-3.36-1.915a7.381,7.381,0,0,1,3.339-5.8c1.856-1.071,3.365-.211,3.372,1.922a7.383,7.383,0,0,1-3.35,5.789" transform="translate(-31.104 -25.41)" fill="#cfd2d3"/>
            <path id="Trazado_210940" data-name="Trazado 210940" d="M115.608,10.848l-.827.481L174.6,45.869,159.064,54.9,99.24,20.36l-.82.476,60.65,35.016,17.187-9.989Z" transform="translate(-17.107 -1.886)" fill="#16b2a6"/>
          </g>
        </g>
        <path id="Trazado_210941" data-name="Trazado 210941" d="M146.7,56.818l-.041,102.3-59.824-34.54.041-102.3Z" transform="translate(-15.093 -3.872)" fill="#1e1b19"/>
        <path id="Trazado_210942" data-name="Trazado 210942" d="M145.222,140.973l.034-78.986L87.427,28.6l-.041,97.673,43.276,24.986Z" transform="translate(-15.189 -4.971)" fill="#f8f5f4"/>
        <path id="Trazado_210943" data-name="Trazado 210943" d="M144.082,141.806l.034-79.162L86.287,29.257l-.041,97.673,43.331,25.017Z" transform="translate(-14.991 -5.085)" fill="#f8f5f4"/>
        <path id="Trazado_210944" data-name="Trazado 210944" d="M142.943,142.608l.034-79.306L85.148,29.915l-.041,97.673,43.386,25.049Z" transform="translate(-14.793 -5.2)" fill="#f8f5f4"/>
        <path id="Trazado_210945" data-name="Trazado 210945" d="M141.8,143.41l.034-79.45L84.009,30.572l-.041,97.673,43.44,25.081Z" transform="translate(-14.595 -5.314)" fill="#f8f5f4"/>
        <path id="Trazado_210946" data-name="Trazado 210946" d="M140.665,144.212l.034-79.595L82.87,31.23,82.829,128.9l43.495,25.112Z" transform="translate(-14.397 -5.428)" fill="#f8f5f4"/>
        <path id="Trazado_210947" data-name="Trazado 210947" d="M139.526,145.014l.034-79.739L81.731,31.888,81.69,129.56,125.24,154.7Z" transform="translate(-14.199 -5.542)" fill="#f8f5f4"/>
        <path id="Trazado_210948" data-name="Trazado 210948" d="M124.28,155.312l14.106-9.5.035-79.883L80.592,32.545l-.041,97.673,43.6,25.173Z" transform="translate(-14.001 -5.657)" fill="#f8f5f4"/>
        <path id="Trazado_210949" data-name="Trazado 210949" d="M124.082,155.426l13.165-8.808.035-80.028L79.453,33.2l-.041,97.673,43.632,25.191Z" transform="translate(-13.803 -5.771)" fill="#f8f5f4"/>
        <path id="Trazado_210950" data-name="Trazado 210950" d="M123.884,155.54l12.224-8.149.035-80.144L78.314,33.86l-.041,97.673,43.663,25.209Z" transform="translate(-13.605 -5.885)" fill="#f8f5f4"/>
        <path id="Trazado_210951" data-name="Trazado 210951" d="M123.687,155.655l11.283-7.5L135,67.906,77.175,34.518l-.041,97.673,43.695,25.227Z" transform="translate(-13.407 -6)" fill="#f8f5f4"/>
        <path id="Trazado_210952" data-name="Trazado 210952" d="M123.488,155.769l10.342-6.856.035-80.35L76.036,35.176l-.042,97.673,43.727,25.246Z" transform="translate(-13.209 -6.114)" fill="#f8f5f4"/>
        <path id="Trazado_210953" data-name="Trazado 210953" d="M123.291,155.883l9.4-6.21.035-80.453L74.9,35.833l-.041,97.673,43.757,25.263Z" transform="translate(-13.011 -6.228)" fill="#f8f5f4"/>
        <path id="Trazado_210954" data-name="Trazado 210954" d="M123.092,156l8.46-5.563.035-80.557L73.758,36.491l-.042,97.673,43.79,25.281Z" transform="translate(-12.813 -6.343)" fill="#f8f5f4"/>
        <path id="Trazado_210955" data-name="Trazado 210955" d="M122.894,156.112l7.519-4.917.035-80.66L72.619,37.148l-.042,97.673,43.814,25.3Z" transform="translate(-12.615 -6.457)" fill="#f8f5f4"/>
        <path id="Trazado_210956" data-name="Trazado 210956" d="M67.034,136.085l60.65,35.016.482-102.5L67.075,33.786Z" transform="translate(-11.651 -5.872)" fill="#1e1b19"/>
        <g id="Grupo_148268" data-name="Grupo 148268">
          <g id="Grupo_148267" data-name="Grupo 148267" clip-path="url(#clip-path)">
            <path id="Trazado_210957" data-name="Trazado 210957" d="M140.484,74.068l-.041,102.3,17.188-9.988.04-102.3Zm9.528,76.488c-2.13,1.229-3.853.248-3.861-2.2a8.459,8.459,0,0,1,3.835-6.654c2.13-1.23,3.864-.24,3.87,2.205a8.455,8.455,0,0,1-3.844,6.648" transform="translate(-24.411 -11.138)" fill="#2d2b29"/>
            <path id="Trazado_210958" data-name="Trazado 210958" d="M155.568,133.055l-11.357,6.557V82.726l11.357-6.557Z" transform="translate(-25.066 -13.239)" fill="#f8f5f4"/>
            <path id="Trazado_210959" data-name="Trazado 210959" d="M151.777,166.884c-2.129,1.229-3.853.247-3.86-2.2a8.46,8.46,0,0,1,3.835-6.654c2.128-1.229,3.862-.24,3.87,2.206a8.458,8.458,0,0,1-3.845,6.648" transform="translate(-25.71 -27.376)" fill="#2d2b29"/>
            <path id="Trazado_210960" data-name="Trazado 210960" d="M154.361,158.451l-.625-.363a2.353,2.353,0,0,1,.981,2.156,7.38,7.38,0,0,1-3.35,5.789,2.362,2.362,0,0,1-2.381.23l.625.363a2.36,2.36,0,0,0,2.381-.23,7.38,7.38,0,0,0,3.35-5.789,2.354,2.354,0,0,0-.981-2.156" transform="translate(-25.896 -27.478)" fill="#b7bbbc"/>
            <path id="Trazado_210961" data-name="Trazado 210961" d="M153.919,156.878a2.92,2.92,0,0,0-2.946.288,9.078,9.078,0,0,0-4.117,7.143,2.894,2.894,0,0,0,1.2,2.652l.625.363a2.894,2.894,0,0,1-1.2-2.652,9.078,9.078,0,0,1,4.117-7.143,2.924,2.924,0,0,1,2.946-.288Z" transform="translate(-25.526 -27.219)" fill="#b7bbbc"/>
            <path id="Trazado_210962" data-name="Trazado 210962" d="M151.729,157.6a9.078,9.078,0,0,0-4.117,7.143c.007,2.626,1.858,3.681,4.143,2.361a9.083,9.083,0,0,0,4.128-7.137c-.008-2.627-1.87-3.688-4.155-2.368m.024,8.607c-1.845,1.065-3.354.2-3.36-1.915a7.382,7.382,0,0,1,3.339-5.8c1.856-1.071,3.365-.211,3.371,1.922a7.38,7.38,0,0,1-3.349,5.789" transform="translate(-25.657 -27.295)" fill="#cfd2d3"/>
            <path id="Trazado_210963" data-name="Trazado 210963" d="M84.272,21.7l-.827.481,59.824,34.54-15.541,9.031L67.9,31.208l-.82.477L127.734,66.7l17.187-9.988Z" transform="translate(-11.66 -3.771)" fill="#373431"/>
          </g>
        </g>
      </g>
    </g>
  </g>
</svg>
