<svg xmlns="http://www.w3.org/2000/svg" xmlns:xlink="http://www.w3.org/1999/xlink" width="295" height="373.479" viewBox="0 0 295 373.479">
  <defs>
    <clipPath id="clip-path">
      <rect id="Rectángulo_39715" data-name="Rectángulo 39715" width="295" height="283.09" fill="none"/>
    </clipPath>
    <clipPath id="clip-path-2">
      <rect id="Rectángulo_39748" data-name="Rectángulo 39748" width="138.808" height="147.98" fill="none"/>
    </clipPath>
    <clipPath id="clip-path-4">
      <rect id="Rectángulo_39742" data-name="Rectángulo 39742" width="8.14" height="13.373" fill="none"/>
    </clipPath>
  </defs>
  <g id="Grupo_149983" data-name="Grupo 149983" transform="translate(-1125 -921)">
    <g id="Grupo_148912" data-name="Grupo 148912" transform="translate(1125 921)">
      <g id="Grupo_148908" data-name="Grupo 148908" clip-path="url(#clip-path)">
        <path id="Trazado_212222" data-name="Trazado 212222" d="M290.569,141.545A141.545,141.545,0,1,1,149.023,0,141.545,141.545,0,0,1,290.569,141.545" transform="translate(-1.523)" fill="#a7ddda"/>
        <rect id="Rectángulo_39714" data-name="Rectángulo 39714" width="295" height="63.214" transform="translate(0 109.939)" fill="#a7ddda"/>
        <path id="Trazado_212223" data-name="Trazado 212223" d="M271.9,147.7c0,64.891-52.144,117.5-116.465,117.5S38.973,212.587,38.973,147.7,91.116,30.2,155.438,30.2,271.9,82.805,271.9,147.7" transform="translate(-7.938 -6.151)" fill="#fff"/>
        <path id="Trazado_212224" data-name="Trazado 212224" d="M162.756,24.978l17.895,17.894,17.894-17.894Z" transform="translate(-33.151 -5.088)" fill="#a7ddda"/>
        <path id="Trazado_212225" data-name="Trazado 212225" d="M198.546,325.946l-17.895-17.895-17.894,17.895Z" transform="translate(-33.151 -62.745)" fill="#a7ddda"/>
      </g>
    </g>
    <line id="Línea_182" data-name="Línea 182" y2="76.979" transform="translate(1272.5 1217.5)" fill="none" stroke="#707070" stroke-width="2"/>
    <circle id="Elipse_4772" data-name="Elipse 4772" cx="9.5" cy="9.5" r="9.5" transform="translate(1263 1208)" fill="#a7ddda"/>
    <g id="Grupo_148944" data-name="Grupo 148944" transform="translate(1203.096 993.468)">
      <g id="Grupo_148943" data-name="Grupo 148943" clip-path="url(#clip-path-2)">
        <rect id="Rectángulo_39731" data-name="Rectángulo 39731" width="127.31" height="110.532" transform="translate(5.749 5.481)" fill="#e5e5e5"/>
        <rect id="Rectángulo_39732" data-name="Rectángulo 39732" width="138.808" height="10.963" transform="translate(0 112.721)" fill="#039d95"/>
        <rect id="Rectángulo_39733" data-name="Rectángulo 39733" width="138.808" height="10.959" transform="translate(0 -0.001)" fill="#039d95"/>
        <rect id="Rectángulo_39734" data-name="Rectángulo 39734" width="8.144" height="24.291" transform="translate(65.334 123.689)" fill="#039d95"/>
        <path id="Trazado_212331" data-name="Trazado 212331" d="M48.167,98.277l-11.926,5.906-19.488-.143-.013,1.708,19.9.146,11.638-5.759,27.636,9.921,14.437-8.13,14.409,7.479.8-1.517-15.247-7.9-14.545,8.2Z" transform="translate(-1.687 -9.906)" fill="#5dbeab"/>
        <g id="Grupo_148942" data-name="Grupo 148942">
          <g id="Grupo_148941" data-name="Grupo 148941" clip-path="url(#clip-path-2)">
            <path id="Trazado_212332" data-name="Trazado 212332" d="M41.428,105.326a2.805,2.805,0,1,0-2.8,2.8,2.806,2.806,0,0,0,2.8-2.8" transform="translate(-3.61 -10.333)" fill="#fc553d"/>
            <path id="Trazado_212333" data-name="Trazado 212333" d="M19.241,105.326a2.807,2.807,0,1,0-2.8,2.8,2.807,2.807,0,0,0,2.8-2.8" transform="translate(-1.374 -10.333)" fill="#fc553d"/>
            <path id="Trazado_212334" data-name="Trazado 212334" d="M54.389,99.091a2.8,2.8,0,1,0-2.8,2.8,2.794,2.794,0,0,0,2.8-2.8" transform="translate(-4.918 -9.706)" fill="#fc553d"/>
            <path id="Trazado_212335" data-name="Trazado 212335" d="M85.11,110.048a2.8,2.8,0,1,0-2.8,2.8,2.8,2.8,0,0,0,2.8-2.8" transform="translate(-8.014 -10.809)" fill="#fc553d"/>
            <path id="Trazado_212336" data-name="Trazado 212336" d="M101.347,101.312a2.8,2.8,0,1,0-2.8,2.806,2.8,2.8,0,0,0,2.8-2.806" transform="translate(-9.651 -9.929)" fill="#fc553d"/>
            <path id="Trazado_212337" data-name="Trazado 212337" d="M117.554,109.5a2.8,2.8,0,1,0-2.8,2.8,2.8,2.8,0,0,0,2.8-2.8" transform="translate(-11.284 -10.754)" fill="#fc553d"/>
            <path id="Trazado_212338" data-name="Trazado 212338" d="M16.755,110.7v7.08h88.4v-3.615l-14.572-6.675-14.6,6.763L48.36,105.724,36.708,110.7Z" transform="translate(-1.689 -10.656)" fill="#4d4d4d"/>
            <rect id="Rectángulo_39735" data-name="Rectángulo 39735" width="4.843" height="9.88" transform="translate(108.316 97.243)" fill="#5dbeab"/>
            <rect id="Rectángulo_39736" data-name="Rectángulo 39736" width="4.844" height="7.08" transform="translate(115.013 100.042)" fill="#5dbeab"/>
            <rect id="Rectángulo_39737" data-name="Rectángulo 39737" width="4.844" height="1.894" transform="translate(115.013 98.361)" fill="#fc553d"/>
            <rect id="Rectángulo_39738" data-name="Rectángulo 39738" width="4.843" height="2.738" transform="translate(108.316 95.068)" fill="#fc553d"/>
            <rect id="Rectángulo_39739" data-name="Rectángulo 39739" width="4.846" height="3.546" transform="translate(121.693 90.958)" fill="#fc553d"/>
            <rect id="Rectángulo_39740" data-name="Rectángulo 39740" width="4.846" height="12.685" transform="translate(121.693 94.437)" fill="#5dbeab"/>
            <g id="Grupo_148940" data-name="Grupo 148940" transform="translate(65.333 123.684)" style="mix-blend-mode: multiply;isolation: isolate">
              <g id="Grupo_148939" data-name="Grupo 148939">
                <g id="Grupo_148938" data-name="Grupo 148938" clip-path="url(#clip-path-4)">
                  <rect id="Rectángulo_39741" data-name="Rectángulo 39741" width="8.14" height="13.373" transform="translate(0.001 0)" fill="#c2cbcc"/>
                </g>
              </g>
            </g>
            <rect id="Rectángulo_39743" data-name="Rectángulo 39743" width="3.319" height="61.774" transform="translate(17.41 20.117)" fill="#5dbeab"/>
            <rect id="Rectángulo_39744" data-name="Rectángulo 39744" width="102.277" height="3.107" transform="translate(17.41 78.779)" fill="#5dbeab"/>
            <path id="Trazado_212339" data-name="Trazado 212339" d="M120.154,72.447,99.739,48.116a2.732,2.732,0,0,0,.189-.938,2.765,2.765,0,0,0-5.341-1.013l-7.022,1.061a2.724,2.724,0,0,0-2.222-1.2,2.757,2.757,0,0,0-1,.2L69.478,33.488a2.422,2.422,0,0,0,.069-.342,2.769,2.769,0,0,0-5.307-1.109l-6.227,1.141a2.639,2.639,0,0,0-3.3-.739L47.02,26.969c0-.011.008-.022.008-.035a2.772,2.772,0,0,0-2.771-2.773,2.719,2.719,0,0,0-1.651.6l-13.373-4.2a1.332,1.332,0,0,0-.8,2.542L41.54,27.219a2.747,2.747,0,0,0,2.717,2.488,2.707,2.707,0,0,0,1.405-.439l7.527,5.357a2.374,2.374,0,0,0-.059.3A2.773,2.773,0,0,0,55.9,37.693a2.746,2.746,0,0,0,2.6-1.9l6.034-1.108a2.641,2.641,0,0,0,3.384.968L82.671,48.3a2.56,2.56,0,0,0-.1.5,2.772,2.772,0,0,0,5.33,1.069l7.07-1.069a2.716,2.716,0,0,0,2.188,1.151,2.677,2.677,0,0,0,.554-.111l20.4,24.319a1.331,1.331,0,0,0,2.04-1.711" transform="translate(-2.772 -2.066)" fill="#4d4d4d"/>
            <path id="Trazado_212340" data-name="Trazado 212340" d="M107.475,76.446,94.107,64.454a2.716,2.716,0,0,0,.128-.634,2.773,2.773,0,0,0-2.773-2.772,2.736,2.736,0,0,0-2.621,2.018l-3.234.628a2.723,2.723,0,0,0-2.092-1.01,2.467,2.467,0,0,0-.4.084L74.094,51.141a2.735,2.735,0,0,0,.226-1.09,2.773,2.773,0,0,0-2.775-2.772,2.743,2.743,0,0,0-2.71,2.471l-6.873,2.487a2.763,2.763,0,0,0-1.937-.8,2.714,2.714,0,0,0-1.137.257l-7.251-6.09a2.874,2.874,0,0,0,.094-.463,2.774,2.774,0,0,0-2.772-2.773,2.724,2.724,0,0,0-2.168,1.12L29.96,41.725a1.331,1.331,0,0,0-.279,2.647l16.7,1.75a2.754,2.754,0,0,0,2.574,1.794A2.711,2.711,0,0,0,50,47.7l7.326,6.153a2.445,2.445,0,0,0-.07.354,2.773,2.773,0,0,0,2.773,2.772,2.735,2.735,0,0,0,2.65-2.173l7.2-2.6a2.715,2.715,0,0,0,1.671.618,2.645,2.645,0,0,0,.423-.085l9.007,11.614a2.735,2.735,0,0,0-.235,1.105,2.772,2.772,0,0,0,2.773,2.771,2.74,2.74,0,0,0,2.6-1.922l3.306-.645a2.552,2.552,0,0,0,2.894.758L105.7,78.427a1.331,1.331,0,1,0,1.777-1.981" transform="translate(-2.872 -4.205)" fill="#fc553d"/>
            <rect id="Rectángulo_39745" data-name="Rectángulo 39745" width="20.382" height="5.511" transform="translate(97.312 18.431)" fill="#4d4d4d"/>
            <rect id="Rectángulo_39746" data-name="Rectángulo 39746" width="27.65" height="5.51" transform="translate(90.045 24.988)" fill="#fc553d"/>
          </g>
        </g>
      </g>
    </g>
  </g>
</svg>
