<svg xmlns="http://www.w3.org/2000/svg" width="82.609" height="77.791" viewBox="0 0 82.609 77.791">
  <g id="Grupo_149966" data-name="Grupo 149966" transform="translate(-303.372 -1462.435)">
    <g id="ley_2_" data-name="ley (2)" transform="translate(303.372 1462.435)">
      <g id="Grupo_80277" data-name="Grupo 80277" transform="translate(17.241 49.976)">
        <g id="Grupo_80268" data-name="Grupo 80268" transform="translate(0 4.488)">
          <path id="Trazado_113586" data-name="Trazado 113586" d="M114.267,362.855c0,6.354,3.047,9.409,3.047,9.409H110.7a1.655,1.655,0,0,1-1.348-.683,16.517,16.517,0,0,1,0-17.453,1.655,1.655,0,0,1,1.348-.683h6.612S114.267,356.5,114.267,362.855Z" transform="translate(-106.86 -353.445)" fill="#ffc631"/>
          <path id="Trazado_113587" data-name="Trazado 113587" d="M117.314,353.445s-2.96,2.968-3.045,9.14l-6.2,6.653a16.382,16.382,0,0,1-1.205-6.383,14.831,14.831,0,0,1,2.493-8.727,1.655,1.655,0,0,1,1.348-.683h6.612Z" transform="translate(-106.861 -353.445)" fill="#cc9e27"/>
          <path id="Trazado_113588" data-name="Trazado 113588" d="M195.053,362.853a14.206,14.206,0,0,0,3.464,9.41H145.511s-3.047-3.055-3.047-9.41,3.047-9.41,3.047-9.41h53.006A14.206,14.206,0,0,0,195.053,362.853Z" transform="translate(-136.719 -353.443)" fill="#e0d3ce"/>
          <g id="Grupo_80267" data-name="Grupo 80267" transform="translate(5.745 0)">
            <path id="Trazado_113589" data-name="Trazado 113589" d="M152.648,353.445,142.519,364.31c-.035-.464-.055-.95-.055-1.455,0-6.355,3.047-9.41,3.047-9.41Z" transform="translate(-142.464 -353.445)" fill="#cdbfbb"/>
            <path id="Trazado_113590" data-name="Trazado 113590" d="M435.762,362.86a14.2,14.2,0,0,0,3.464,9.409h-6.281a14.511,14.511,0,0,1,0-18.818h6.281A14.2,14.2,0,0,0,435.762,362.86Z" transform="translate(-383.172 -353.45)" fill="#cdbfbb"/>
          </g>
        </g>
        <g id="Grupo_80272" data-name="Grupo 80272" transform="translate(7.152)">
          <g id="Grupo_80270" data-name="Grupo 80270" transform="translate(0)">
            <path id="Trazado_113591" data-name="Trazado 113591" d="M209.4,328.084a2.71,2.71,0,0,1-.808,1.931,2.764,2.764,0,0,1-1.95.8h-52.7a2.745,2.745,0,0,1-2.758-2.731,2.713,2.713,0,0,1,.808-1.932,2.763,2.763,0,0,1,1.95-.8h52.7A2.745,2.745,0,0,1,209.4,328.084Z" transform="translate(-151.189 -325.352)" fill="#ffc631"/>
            <g id="Grupo_80269" data-name="Grupo 80269">
              <path id="Trazado_113592" data-name="Trazado 113592" d="M164.149,325.352l-5.091,5.463h-5.111a2.745,2.745,0,0,1-2.758-2.731,2.713,2.713,0,0,1,.808-1.932,2.763,2.763,0,0,1,1.95-.8Z" transform="translate(-151.189 -325.352)" fill="#cc9e27"/>
              <path id="Trazado_113593" data-name="Trazado 113593" d="M469.849,328.087a2.712,2.712,0,0,1-.808,1.931,2.768,2.768,0,0,1-1.952.8h-5.35a2.758,2.758,0,0,0,1.95-.8,2.712,2.712,0,0,0,.808-1.931,2.744,2.744,0,0,0-2.757-2.731h5.35A2.746,2.746,0,0,1,469.849,328.087Z" transform="translate(-411.634 -325.355)" fill="#cc9e27"/>
            </g>
          </g>
          <g id="Grupo_80271" data-name="Grupo 80271" transform="translate(0 22.333)">
            <path id="Trazado_113594" data-name="Trazado 113594" d="M206.642,470.588h-52.7a2.732,2.732,0,1,1,0-5.463h52.7a2.732,2.732,0,1,1,0,5.463Z" transform="translate(-151.186 -465.125)" fill="#ffc631"/>
            <path id="Trazado_113595" data-name="Trazado 113595" d="M469.849,467.86a2.712,2.712,0,0,1-.808,1.931,2.775,2.775,0,0,1-1.952.8h-5.35a2.765,2.765,0,0,0,1.95-.8,2.712,2.712,0,0,0,.808-1.931,2.744,2.744,0,0,0-2.757-2.73h5.35A2.746,2.746,0,0,1,469.849,467.86Z" transform="translate(-411.634 -465.129)" fill="#99771d"/>
          </g>
        </g>
        <g id="Grupo_80276" data-name="Grupo 80276" transform="translate(5.811 9.84)">
          <g id="Grupo_80273" data-name="Grupo 80273">
            <path id="Trazado_113596" data-name="Trazado 113596" d="M169.257,388.17a1.24,1.24,0,0,1-1.247,1.234H142.876a16.873,16.873,0,0,1,.387-2.469h24.748A1.24,1.24,0,0,1,169.257,388.17Z" transform="translate(-142.876 -386.935)" fill="#cdbfbb"/>
          </g>
          <g id="Grupo_80274" data-name="Grupo 80274" transform="translate(34.16 0)">
            <path id="Trazado_113597" data-name="Trazado 113597" d="M373.526,386.936a14.462,14.462,0,0,0-.48,2.469h-17.2a1.235,1.235,0,1,1,0-2.469h17.68Z" transform="translate(-354.599 -386.936)" fill="#cdbfbb"/>
          </g>
          <g id="Grupo_80275" data-name="Grupo 80275" transform="translate(9.331 5.608)">
            <path id="Trazado_113598" data-name="Trazado 113598" d="M231,424.5H201.955a1.235,1.235,0,1,1,0-2.469H231a1.235,1.235,0,1,1,0,2.469Z" transform="translate(-200.708 -422.034)" fill="#cdbfbb"/>
          </g>
        </g>
      </g>
      <g id="Grupo_80286" data-name="Grupo 80286" transform="translate(0 0)">
        <g id="Grupo_80280" data-name="Grupo 80280" transform="translate(0 31.387)">
          <g id="Grupo_80278" data-name="Grupo 80278" transform="translate(0 10.448)">
            <path id="Trazado_113599" data-name="Trazado 113599" d="M36.308,278.809,31.855,274.4,1.544,302.109a4.721,4.721,0,0,0-.138,6.854,4.833,4.833,0,0,0,6.921-.137Z" transform="translate(0 -274.399)" fill="#873f30"/>
            <path id="Trazado_113600" data-name="Trazado 113600" d="M9.419,316.1a4.835,4.835,0,0,1-6.786,0A4.7,4.7,0,0,1,1.462,314.2a4.826,4.826,0,0,0,4.871-1.155c.046-.046.092-.094.137-.141l27.982-30.018,3.083,3.053L9.553,315.958c-.045.047-.089.094-.134.138Z" transform="translate(-1.226 -281.531)" fill="#6c3328"/>
          </g>
          <path id="Trazado_113601" data-name="Trazado 113601" d="M198.916,209.008,188.663,221.12l4.189,4.148,12.231-10.154Z" transform="translate(-158.223 -209.008)" fill="#873f30"/>
          <path id="Trazado_113602" data-name="Trazado 113602" d="M207.492,209.008l-3.313,3.914.994.985a1.843,1.843,0,0,1,0,2.624l-6.284,6.223,2.539,2.514,12.231-10.154Z" transform="translate(-166.799 -209.008)" fill="#6c3328"/>
          <g id="Grupo_80279" data-name="Grupo 80279" transform="translate(27.047 9.632)">
            <path id="Trazado_113603" data-name="Trazado 113603" d="M172.581,278.407l-4.066-4.026a2.961,2.961,0,0,1,0-4.215,3.031,3.031,0,0,1,4.257,0l4.066,4.026a2.96,2.96,0,0,1,0,4.215A3.031,3.031,0,0,1,172.581,278.407Z" transform="translate(-167.633 -269.292)" fill="#ba5d4f"/>
            <path id="Trazado_113604" data-name="Trazado 113604" d="M186.528,288.121a3.031,3.031,0,0,1-4.257,0l-3.082-3.052a3.035,3.035,0,0,0,4.257,0,2.96,2.96,0,0,0,0-4.215l3.082,3.052A2.959,2.959,0,0,1,186.528,288.121Z" transform="translate(-177.325 -279.007)" fill="#a34f41"/>
          </g>
        </g>
        <g id="Grupo_80283" data-name="Grupo 80283" transform="translate(31.832 3.705)">
          <g id="Grupo_80281" data-name="Grupo 80281" transform="translate(0 0)">
            <path id="Trazado_113605" data-name="Trazado 113605" d="M0,0,12.707-.062l-.1,19.95L-.1,19.95Z" transform="translate(14.174 0) rotate(45)" fill="#ba5d4f"/>
          </g>
          <g id="Grupo_80282" data-name="Grupo 80282" transform="translate(19.775 19.595)">
            <path id="Trazado_113606" data-name="Trazado 113606" d="M0,0,12.707-.062l-.1,19.95L-.1,19.95Z" transform="translate(9.028 22.976) rotate(-135)" fill="#a34f41"/>
          </g>
        </g>
        <g id="Grupo_80285" data-name="Grupo 80285" transform="translate(28.087)">
          <path id="Trazado_113607" data-name="Trazado 113607" d="M175.286,33.387l-.314-.311a3,3,0,0,1,0-4.265l15.514-15.363a3.066,3.066,0,0,1,4.306,0l.314.311a3,3,0,0,1,0,4.265L179.592,33.387A3.066,3.066,0,0,1,175.286,33.387Z" transform="translate(-174.081 -12.565)" fill="#873f30"/>
          <path id="Trazado_113608" data-name="Trazado 113608" d="M351.919,210.023l.314.311a3.066,3.066,0,0,0,4.306,0l15.514-15.363a3,3,0,0,0,0-4.265l-.314-.311a3.066,3.066,0,0,0-4.306,0l-15.514,15.363A3,3,0,0,0,351.919,210.023Z" transform="translate(-322.478 -161.24)" fill="#6c3328"/>
          <g id="Grupo_80284" data-name="Grupo 80284" transform="translate(7.841 7.764)">
            <path id="Trazado_113609" data-name="Trazado 113609" d="M0,0,14.27-.07l-.147,30.13-14.27.07Z" transform="translate(23.024 1.596) rotate(45)" fill="#fcc16d"/>
            <path id="Trazado_113610" data-name="Trazado 113610" d="M0,0,30.13.147l.035,7.223L.035,7.223Z" transform="translate(6.619 27.765) rotate(-45)" fill="#fca62f"/>
            <path id="Trazado_113611" data-name="Trazado 113611" d="M245.749,62.335l-2.484-1.006a2.3,2.3,0,0,0-2.479.494L223.345,79.1a2.246,2.246,0,0,0-.5,2.455l1.016,2.46a1.53,1.53,0,0,0,2.486.5l19.9-19.71a1.5,1.5,0,0,0-.5-2.462Z" transform="translate(-222.676 -61.161)" fill="#873f30"/>
            <path id="Trazado_113612" data-name="Trazado 113612" d="M312.234,128.823l1.016,2.46a2.246,2.246,0,0,1-.5,2.455l-17.442,17.272a2.3,2.3,0,0,1-2.479.494l-2.484-1.006a1.5,1.5,0,0,1-.5-2.462l19.9-19.709a1.53,1.53,0,0,1,2.486.5Z" transform="translate(-278.633 -117.224)" fill="#6c3328"/>
          </g>
        </g>
      </g>
    </g>
  </g>
</svg>
