<svg xmlns="http://www.w3.org/2000/svg" width="84" height="84" viewBox="0 0 84 84">
  <g id="Grupo_149975" data-name="Grupo 149975" transform="translate(-600 -5650)">
    <circle id="Elipse_4778" data-name="Elipse 4778" cx="42" cy="42" r="42" transform="translate(600 5650)" fill="#ffc631"/>
    <g id="ingresos-pasivos" transform="translate(611.508 5662.16)">
      <path id="Trazado_214470" data-name="Trazado 214470" d="M12.316,64.95c2.409,0,4.4-.7,5.392-1.78.99,1.076,2.983,1.78,5.392,1.78s4.4-.7,5.392-1.78c.99,1.076,2.983,1.78,5.392,1.78s4.4-.7,5.392-1.78c.99,1.076,2.983,1.78,5.392,1.78,3.458,0,6.066-1.449,6.066-3.37V34.62c0-1.921-2.608-3.37-6.066-3.37S38.6,32.7,38.6,34.62V51.325a8.578,8.578,0,0,0-4.718-1.2,8.578,8.578,0,0,0-4.718,1.2V40.012c0-1.921-2.608-3.37-6.066-3.37s-6.066,1.449-6.066,3.37v5.921a8.578,8.578,0,0,0-4.718-1.2c-3.458,0-6.066,1.449-6.066,3.37V61.58C6.25,63.5,8.858,64.95,12.316,64.95Zm-4.4-17.524a6.418,6.418,0,0,1,4.4-1.348,6.418,6.418,0,0,1,4.4,1.348.872.872,0,0,1,0,1.348,6.418,6.418,0,0,1-4.4,1.348,6.418,6.418,0,0,1-4.4-1.348.872.872,0,0,1,0-1.348ZM18.7,39.338a6.418,6.418,0,0,1,4.4-1.348,6.418,6.418,0,0,1,4.4,1.348.872.872,0,0,1,0,1.348,6.418,6.418,0,0,1-4.4,1.348,6.418,6.418,0,0,1-4.4-1.348.872.872,0,0,1,0-1.348ZM33.884,51.47a6.418,6.418,0,0,1,4.4,1.348.872.872,0,0,1,0,1.348,6.418,6.418,0,0,1-4.4,1.348,6.418,6.418,0,0,1-4.4-1.348.872.872,0,0,1,0-1.348A6.418,6.418,0,0,1,33.884,51.47Zm6.385-17.524a6.418,6.418,0,0,1,4.4-1.348,6.418,6.418,0,0,1,4.4,1.348.872.872,0,0,1,0,1.348,6.418,6.418,0,0,1-4.4,1.348,6.418,6.418,0,0,1-4.4-1.348.872.872,0,0,1,0-1.348ZM49.386,61.58c0,.954-2.018,2.022-4.718,2.022S39.95,62.535,39.95,61.58v-.529a8.578,8.578,0,0,0,4.718,1.2,8.578,8.578,0,0,0,4.718-1.2Zm-10.784,0c0,.954-2.018,2.022-4.718,2.022s-4.718-1.068-4.718-2.022v-.529a8.578,8.578,0,0,0,4.718,1.2,8.578,8.578,0,0,0,4.718-1.2Zm-10.784,0c0,.954-2.018,2.022-4.718,2.022s-4.718-1.068-4.718-2.022v-.529a8.578,8.578,0,0,0,4.718,1.2,8.578,8.578,0,0,0,4.718-1.2ZM7.6,58.355a5.7,5.7,0,0,0,1,.529,9.736,9.736,0,0,0,3.718.674,9.736,9.736,0,0,0,3.718-.674,5.7,5.7,0,0,0,1-.529v.529a1.025,1.025,0,0,1-.319.674,6.418,6.418,0,0,1-4.4,1.348,6.418,6.418,0,0,1-4.4-1.348,1.025,1.025,0,0,1-.319-.674Zm0-2.7a5.7,5.7,0,0,0,1,.529,9.736,9.736,0,0,0,3.718.674,9.736,9.736,0,0,0,3.718-.674,5.7,5.7,0,0,0,1-.529v.529a1.025,1.025,0,0,1-.319.674,6.418,6.418,0,0,1-4.4,1.348,6.418,6.418,0,0,1-4.4-1.348,1.025,1.025,0,0,1-.319-.674Zm0-2.7a5.7,5.7,0,0,0,1,.529,9.736,9.736,0,0,0,3.718.674,9.736,9.736,0,0,0,3.718-.674,5.7,5.7,0,0,0,1-.529v.529a1.025,1.025,0,0,1-.319.674,6.418,6.418,0,0,1-4.4,1.348,6.418,6.418,0,0,1-4.4-1.348,1.025,1.025,0,0,1-.319-.674Zm0-2.7a5.7,5.7,0,0,0,1,.529,9.736,9.736,0,0,0,3.718.674,9.736,9.736,0,0,0,3.718-.674,5.7,5.7,0,0,0,1-.529V50.8a1.025,1.025,0,0,1-.319.674,6.418,6.418,0,0,1-4.4,1.348,6.418,6.418,0,0,1-4.4-1.348A1.025,1.025,0,0,1,7.6,50.8Zm10.784-5.392a5.7,5.7,0,0,0,1,.529,7.763,7.763,0,0,0,1.059.352,11.142,11.142,0,0,0,5.317,0,7.765,7.765,0,0,0,1.059-.352,5.7,5.7,0,0,0,1-.529V45.4a.858.858,0,0,1-.142.442,1.465,1.465,0,0,1-.177.232,2.3,2.3,0,0,1-.3.271,3.867,3.867,0,0,1-.681.4,8.22,8.22,0,0,1-3.413.674,8.22,8.22,0,0,1-3.413-.674,3.867,3.867,0,0,1-.681-.4,2.3,2.3,0,0,1-.3-.271,1.464,1.464,0,0,1-.177-.232.858.858,0,0,1-.142-.442Zm0-2.7a5.7,5.7,0,0,0,1,.529,9.736,9.736,0,0,0,3.718.674,9.736,9.736,0,0,0,3.718-.674,5.7,5.7,0,0,0,1-.529v.529a1.025,1.025,0,0,1-.319.674,6.418,6.418,0,0,1-4.4,1.348,6.418,6.418,0,0,1-4.4-1.348,1.025,1.025,0,0,1-.319-.674Zm9.117,6.6a6.418,6.418,0,0,1-4.4,1.348,6.418,6.418,0,0,1-4.4-1.348,1.025,1.025,0,0,1-.319-.674v-.529c.045.03.1.058.142.088a5.819,5.819,0,0,0,.858.442,9.736,9.736,0,0,0,3.718.674,9.736,9.736,0,0,0,3.718-.674,5.821,5.821,0,0,0,.858-.442c.047-.03.1-.057.142-.088V48.1a1.025,1.025,0,0,1-.319.674ZM39.95,50.267a5.7,5.7,0,0,0,1,.529,10.589,10.589,0,0,0,7.435,0,5.7,5.7,0,0,0,1-.529V50.8a1.025,1.025,0,0,1-.319.674,6.418,6.418,0,0,1-4.4,1.348,6.418,6.418,0,0,1-4.4-1.348,1.025,1.025,0,0,1-.319-.674Zm0-2.7a5.7,5.7,0,0,0,1,.529,10.589,10.589,0,0,0,7.435,0,5.7,5.7,0,0,0,1-.529V48.1a1.025,1.025,0,0,1-.319.674,6.418,6.418,0,0,1-4.4,1.348,6.418,6.418,0,0,1-4.4-1.348,1.025,1.025,0,0,1-.319-.674Zm0-2.7a5.7,5.7,0,0,0,1,.529,10.589,10.589,0,0,0,7.435,0,5.7,5.7,0,0,0,1-.529V45.4a1.025,1.025,0,0,1-.319.674,6.418,6.418,0,0,1-4.4,1.348,6.418,6.418,0,0,1-4.4-1.348,1.025,1.025,0,0,1-.319-.674Zm0-2.7a5.7,5.7,0,0,0,1,.529,10.589,10.589,0,0,0,7.435,0,5.7,5.7,0,0,0,1-.529v.529a1.025,1.025,0,0,1-.319.674,6.418,6.418,0,0,1-4.4,1.348,6.418,6.418,0,0,1-4.4-1.348,1.025,1.025,0,0,1-.319-.674Zm0-2.7a5.7,5.7,0,0,0,1,.529,10.589,10.589,0,0,0,7.435,0,5.7,5.7,0,0,0,1-.529v.529a1.025,1.025,0,0,1-.319.674,6.418,6.418,0,0,1-4.4,1.348,6.418,6.418,0,0,1-4.4-1.348,1.025,1.025,0,0,1-.319-.674Zm0-2.7a5.7,5.7,0,0,0,1,.529,10.589,10.589,0,0,0,7.435,0,5.7,5.7,0,0,0,1-.529v.529a1.025,1.025,0,0,1-.319.674,6.418,6.418,0,0,1-4.4,1.348,6.418,6.418,0,0,1-4.4-1.348,1.025,1.025,0,0,1-.319-.674Zm9.436,16.705a1.025,1.025,0,0,1-.319.674,6.418,6.418,0,0,1-4.4,1.348,6.418,6.418,0,0,1-4.4-1.348,1.025,1.025,0,0,1-.319-.674v-.529a5.7,5.7,0,0,0,1,.529,10.589,10.589,0,0,0,7.435,0,5.7,5.7,0,0,0,1-.529Zm0,2.7a1.025,1.025,0,0,1-.319.674,6.418,6.418,0,0,1-4.4,1.348,6.418,6.418,0,0,1-4.4-1.348,1.025,1.025,0,0,1-.319-.674v-.529a5.7,5.7,0,0,0,1,.529,10.589,10.589,0,0,0,7.435,0,5.7,5.7,0,0,0,1-.529Zm0,2.7a1.025,1.025,0,0,1-.319.674,6.418,6.418,0,0,1-4.4,1.348,6.418,6.418,0,0,1-4.4-1.348,1.025,1.025,0,0,1-.319-.674v-.529a5.7,5.7,0,0,0,1,.529,10.589,10.589,0,0,0,7.435,0,5.7,5.7,0,0,0,1-.529Zm-15.5-2.022a9.736,9.736,0,0,0,3.718-.674,5.7,5.7,0,0,0,1-.529v.529a1.025,1.025,0,0,1-.319.674,6.418,6.418,0,0,1-4.4,1.348,6.418,6.418,0,0,1-4.4-1.348,1.025,1.025,0,0,1-.319-.674v-.529a5.7,5.7,0,0,0,1,.529,9.736,9.736,0,0,0,3.718.674Zm4.4,2.7a6.418,6.418,0,0,1-4.4,1.348,6.418,6.418,0,0,1-4.4-1.348,1.025,1.025,0,0,1-.319-.674v-.529a5.7,5.7,0,0,0,1,.529,10.589,10.589,0,0,0,7.435,0,5.7,5.7,0,0,0,1-.529v.529a1.025,1.025,0,0,1-.319.674Zm-10.784,0a6.418,6.418,0,0,1-4.4,1.348,6.418,6.418,0,0,1-4.4-1.348,1.025,1.025,0,0,1-.319-.674v-.529a5.7,5.7,0,0,0,1,.529,9.736,9.736,0,0,0,3.718.674,9.736,9.736,0,0,0,3.718-.674,5.7,5.7,0,0,0,1-.529v.529a1.025,1.025,0,0,1-.319.674Zm-9.117-3.9a5.7,5.7,0,0,0,1,.529,9.736,9.736,0,0,0,3.718.674,9.736,9.736,0,0,0,3.718-.674,5.7,5.7,0,0,0,1-.529v.529a1.025,1.025,0,0,1-.319.674,6.418,6.418,0,0,1-4.4,1.348,6.418,6.418,0,0,1-4.4-1.348,1.025,1.025,0,0,1-.319-.674ZM27.5,54.166a6.418,6.418,0,0,1-4.4,1.348,6.418,6.418,0,0,1-4.4-1.348,1.025,1.025,0,0,1-.319-.674v-.529a5.7,5.7,0,0,0,1,.529,9.736,9.736,0,0,0,3.718.674,9.736,9.736,0,0,0,3.718-.674,5.7,5.7,0,0,0,1-.529v.529a1.025,1.025,0,0,1-.319.674Zm.319-3.37a1.025,1.025,0,0,1-.319.674,6.418,6.418,0,0,1-4.4,1.348,6.418,6.418,0,0,1-4.4-1.348,1.025,1.025,0,0,1-.319-.674v-.529a5.7,5.7,0,0,0,1,.529,9.736,9.736,0,0,0,3.718.674,9.736,9.736,0,0,0,3.718-.674,5.7,5.7,0,0,0,1-.529Zm-15.5,11.458a8.578,8.578,0,0,0,4.718-1.2v.529c0,.954-2.018,2.022-4.718,2.022S7.6,62.535,7.6,61.58v-.529a8.578,8.578,0,0,0,4.718,1.2Z" transform="translate(0 -11.52)"/>
      <path id="Trazado_214471" data-name="Trazado 214471" d="M46.164,6.25h-2.7a.674.674,0,0,0-.674.674v8.762h-3.37a.674.674,0,0,0-.527,1.095l5.392,6.74a.674.674,0,0,0,1.053,0l5.392-6.74a.674.674,0,0,0-.527-1.095h-3.37V6.924a.674.674,0,0,0-.674-.674ZM44.816,22.021l-3.99-4.987h2.642a.674.674,0,0,0,.674-.674V7.6H45.49V16.36a.674.674,0,0,0,.674.674h2.642Z" transform="translate(-14.976 0)"/>
    </g>
  </g>
</svg>
