<svg xmlns="http://www.w3.org/2000/svg" width="14.491" height="14.491" viewBox="0 0 14.491 14.491">
  <g id="Grupo_149956" data-name="Grupo 149956" transform="translate(-180 -4650.848)">
    <path id="circle-dollar-to-slot-solid" d="M9.247,11.426a5.925,5.925,0,0,1-4,0c-.034,0-.017-.006-.023-.008a5.888,5.888,0,1,1,7.911-5.53,5.979,5.979,0,0,1-1.639,4.076l-.085.088a5.934,5.934,0,0,1-2.162,1.376ZM6.677,3.144v.2a1.868,1.868,0,0,0-.45.144,1.465,1.465,0,0,0-.88,1.067,1.348,1.348,0,0,0,.1.821,1.4,1.4,0,0,0,.49.552,4.033,4.033,0,0,0,1.093.453l.062.017a3.043,3.043,0,0,1,.829.331.262.262,0,0,1,.1.116.3.3,0,0,1,.008.187.319.319,0,0,1-.226.249,1.547,1.547,0,0,1-.815.054,6.282,6.282,0,0,1-.742-.221c-.062-.023-.125-.042-.181-.062a.566.566,0,0,0-.716.359.53.53,0,0,0,.359.691.282.282,0,0,0,.125.068,7.564,7.564,0,0,0,.843.258V8.6a.564.564,0,0,0,.543.569A.575.575,0,0,0,7.814,8.6V8.448c.15-.028.3-.1.433-.13a1.478,1.478,0,0,0,.812-1.93,1.393,1.393,0,0,0-.478-.577,3.843,3.843,0,0,0-1.143-.492L7.39,5.312a3.506,3.506,0,0,1-.821-.325.277.277,0,0,1-.1-.1.213.213,0,0,1-.006-.142c.011-.057.054-.15.232-.229a1.66,1.66,0,0,1,.809-.1c.125.045.507.119.617.147a.565.565,0,1,0,.289-1.093c-.125-.034-.408-.091-.594-.125V3.17a.569.569,0,1,0-1.138,0ZM1.359,9.963h.452a6.833,6.833,0,0,0,2.044,1.811H1.811v.906H12.68v-.906H10.636A7.135,7.135,0,0,0,12.68,9.963h.453a1.359,1.359,0,0,1,1.359,1.359v1.811a1.359,1.359,0,0,1-1.359,1.359H1.359A1.359,1.359,0,0,1,0,13.133V11.321A1.359,1.359,0,0,1,1.359,9.963Z" transform="translate(180 4650.848)" fill="#59c447"/>
  </g>
</svg>
