<svg xmlns="http://www.w3.org/2000/svg" width="84" height="84" viewBox="0 0 84 84">
  <g id="Grupo_149977" data-name="Grupo 149977" transform="translate(-1021 -5546)">
    <circle id="Elipse_4780" data-name="Elipse 4780" cx="42" cy="42" r="42" transform="translate(1021 5546)" fill="#ffc631"/>
    <g id="patrimonio" transform="translate(1038.655 5564.41)">
      <g id="Grupo_149951" data-name="Grupo 149951" transform="translate(0.832 0)">
        <path id="Trazado_214478" data-name="Trazado 214478" d="M231.306,462.613h1.517v1.517h-1.517Z" transform="translate(-210.068 -419.984)"/>
        <path id="Trazado_214479" data-name="Trazado 214479" d="M66.681,462.613H68.2v1.517H66.681Z" transform="translate(-60.613 -419.984)"/>
        <path id="Trazado_214480" data-name="Trazado 214480" d="M114.606,348.525l-.85,3.4H124.8l-.85-3.4a1.515,1.515,0,0,0-1.472-1.15h-6.4A1.515,1.515,0,0,0,114.606,348.525Zm8.252,1.884h-2.821v-1.517h2.442Zm-6.779-1.517h2.442v1.517H115.7Z" transform="translate(-103.35 -315.365)"/>
        <path id="Trazado_214481" data-name="Trazado 214481" d="M398.966,184.407V182.75h-1.517v1.517h-1.517v2.276a2.278,2.278,0,0,0,2.276,2.276.759.759,0,0,1,.758.758v.758h-.758a.759.759,0,0,1-.758-.758v-.758h-1.517v.758a2.272,2.272,0,0,0,1.517,2.136v1.657h1.517v-1.517h1.517v-2.276a2.278,2.278,0,0,0-2.275-2.276.759.759,0,0,1-.758-.758v-.758h.758a.759.759,0,0,1,.758.758v.758h1.517v-.758A2.273,2.273,0,0,0,398.966,184.407Z" transform="translate(-359.524 -165.91)"/>
        <path id="Trazado_214482" data-name="Trazado 214482" d="M45.054,16.363,42.7,14.343l1.575-3.937-4-2V7.738a1.518,1.518,0,0,0-1.517-1.517H21.435a2.243,2.243,0,0,0-.363-.312L12.209,0,3.346,5.909a2.228,2.228,0,0,0,.52,3.969v10a1.518,1.518,0,0,0,1.517,1.517H19.036a1.518,1.518,0,0,0,1.517-1.517V9.883a2.237,2.237,0,0,0,1.517-2.11c0-.012,0-.023,0-.035H38.757V9.72l-1.722-.574L33.892,12.29l2.232,2.232-2.147,1.841a8.021,8.021,0,0,0-2.8,6.1c0,.151.014.3.023.447H17.519A1.518,1.518,0,0,0,16,24.425v4.551H12.693a3.788,3.788,0,0,0-3.486,2.3L7.894,34.339l-4.363.485a3.033,3.033,0,0,0-2.7,3.017v4.789a1.518,1.518,0,0,0,1.517,1.517H3.943a3.793,3.793,0,0,0,7.432,0h7.738a3.793,3.793,0,0,0,7.432,0h3.111a1.518,1.518,0,0,0,1.517-1.517V38.278a3.049,3.049,0,0,0-2.2-2.918l-3.254-.929-.773-2.7A3.808,3.808,0,0,0,21.3,28.976H17.519V24.425H31.425A8.039,8.039,0,0,0,39.2,30.493h.623a8.032,8.032,0,0,0,5.227-14.13ZM14.485,12.289v1.517H12.968V12.289Zm0,3.034V16.84H12.968V15.323Zm0,3.034v1.517H12.968V18.357Zm-4.411-7.585a2.262,2.262,0,0,1,4.272,0Zm-.14,1.517h1.517v1.517H9.934Zm0,3.034h1.517V16.84H9.934Zm0,3.034h1.517v1.517H9.934ZM16,19.874V11.531a3.792,3.792,0,0,0-7.585,0v8.344H5.383V9.65l6.826-4.779L19.036,9.65V19.874Zm4-11.4L12.209,3.02,4.416,8.475a.724.724,0,0,1-.228-1.3l8.021-5.347L20.23,7.171A.72.72,0,0,1,20,8.472Zm-9.325,32.64h9.141a3.757,3.757,0,0,0-.7,1.517H11.374A3.759,3.759,0,0,0,10.673,41.112ZM6.9,39.6H5.383V38.078H6.9ZM3.7,36.331l.168-.018V39.6H2.349V37.84A1.516,1.516,0,0,1,3.7,36.331ZM2.349,41.112h2.3a3.757,3.757,0,0,0-.7,1.517H2.349Zm5.31,4.551a2.276,2.276,0,1,1,2.276-2.276A2.278,2.278,0,0,1,7.659,45.663Zm15.17,0A2.276,2.276,0,1,1,25.1,43.388,2.278,2.278,0,0,1,22.829,45.663Zm3.716-3.034a3.765,3.765,0,0,0-.7-1.517h3.811v1.517ZM28.9,38.078h.725a1.37,1.37,0,0,1,.033.2V39.6H28.138v-.758a.759.759,0,0,1,.758-.759Zm-5.41-5.934,1,3.514L28.14,36.7a2.271,2.271,0,0,0-1.519,2.136V39.6H8.417V38.078A1.518,1.518,0,0,0,6.9,36.561H5.383v-.416l3.557-.4L10.6,31.873a2.272,2.272,0,0,1,2.091-1.379H21.3a2.285,2.285,0,0,1,2.189,1.65ZM37.445,10.882,39.9,11.7l.714-1.427,1.732.866-1.067,2.668H37.554L36.037,12.29Zm2.382,18.094H39.2a6.515,6.515,0,0,1-4.239-11.462l2.557-2.191h3.99l2.555,2.192a6.514,6.514,0,0,1-4.239,11.461Z" transform="translate(-0.832 0)"/>
        <path id="Trazado_214483" data-name="Trazado 214483" d="M363.006,347.375h1.517v1.517h-1.517Z" transform="translate(-329.632 -315.365)"/>
        <path id="Trazado_214484" data-name="Trazado 214484" d="M412.394,347.375h1.517v1.517h-1.517Z" transform="translate(-374.469 -315.365)"/>
        <path id="Trazado_214485" data-name="Trazado 214485" d="M461.781,347.375H463.3v1.517h-1.517Z" transform="translate(-419.305 -315.365)"/>
      </g>
    </g>
  </g>
</svg>
